<?xml version="1.0" encoding="UTF-8"?>
<!DOCTYPE svg PUBLIC "-//W3C//DTD SVG 1.1//EN" "http://www.w3.org/Graphics/SVG/1.1/DTD/svg11.dtd">
<!-- Creator: CorelDRAW -->
<svg xmlns="http://www.w3.org/2000/svg" xml:space="preserve" width="2048px" height="2048px" style="shape-rendering:geometricPrecision; text-rendering:geometricPrecision; image-rendering:optimizeQuality; fill-rule:evenodd; clip-rule:evenodd"
viewBox="0 0 2048 2048"
 xmlns:xlink="http://www.w3.org/1999/xlink">
 <defs>
  <style type="text/css">
   <![CDATA[
    .fil2 {fill:none}
    .fil1 {fill:#6C6C6C;fill-rule:nonzero}
    .fil0 {fill:#858585;fill-rule:nonzero}
   ]]>
  </style>
 </defs>
 <g id="Layer_x0020_1">
  <metadata id="CorelCorpID_0Corel-Layer"/>
  <g id="_388105288">
   <path id="_388100416" class="fil0" d="M288.696 895.999l-0.00236221 -0.99567c-0.0507874,-38.863 5.93386,-77.5099 17.491,-115.225 24.6768,-80.5253 74.7638,-156.71 145.691,-221.568 129.999,-118.875 329.999,-199.93 571.653,-199.93 161.916,0 315.277,40.4894 439.579,108.171 88.5438,48.2115 162.429,110.33 214.266,181.558 52.18,71.6989 81.9969,152.519 81.9969,237.627 0,3.38504 -0.0496063,6.77717 -0.145276,10.1764l-0.00590552 0.185433 -1470.52 0z"/>
   <path id="_388106944" class="fil1" d="M835.197 1566.07c-79.7044,49.793 -165.071,93.6532 -255.927,121.836l-62.9315 19.5201 20.8571 -51.3721c22.8626,-56.3115 42.424,-118.498 55.0371,-180.946 10.2744,-50.876 15.9969,-101.966 15.2091,-150.239 -158.439,-82.6465 -252.921,-187.142 -294.192,-296.749 -16.4232,-43.6181 -24.3792,-88.0075 -24.554,-132.125l1470.52 0c-1.70197,59.7248 -18.1665,121.443 -51.9544,183.5 -56.6374,104.045 -150.282,185.583 -264.246,242.629 -117.15,58.6406 -255.942,91.317 -397.988,95.8383 -64.5508,48.9485 -134.376,100.969 -209.835,148.108z"/>
  </g>
  <g id="_388113232">
   <rect id="_388100800" class="fil2" width="2048" height="2048"/>
   <rect id="_388102888" class="fil2" x="255.999" y="255.999" width="1536" height="1536"/>
  </g>
 </g>
</svg>
