<?xml version="1.0" encoding="UTF-8"?>
<!DOCTYPE svg PUBLIC "-//W3C//DTD SVG 1.1//EN" "http://www.w3.org/Graphics/SVG/1.1/DTD/svg11.dtd">
<!-- Creator: CorelDRAW -->
<svg xmlns="http://www.w3.org/2000/svg" xml:space="preserve" width="2048px" height="2048px" style="shape-rendering:geometricPrecision; text-rendering:geometricPrecision; image-rendering:optimizeQuality; fill-rule:evenodd; clip-rule:evenodd"
viewBox="0 0 2048 2048"
 xmlns:xlink="http://www.w3.org/1999/xlink">
 <defs>
  <style type="text/css">
   <![CDATA[
    .fil0 {fill:none}
    .fil1 {fill:#8E8E8F;fill-rule:nonzero}
    .fil2 {fill:darkgray;fill-rule:nonzero}
   ]]>
  </style>
 </defs>
 <g id="Layer_x0020_1">
  <metadata id="CorelCorpID_0Corel-Layer"/>
  <g id="_388094848">
   <rect id="_388103560" class="fil0" width="2048" height="2048"/>
   <rect id="_388099528" class="fil0" x="255.999" y="255.999" width="1536" height="1536"/>
  </g>
  <g id="_388109224">
   <path id="_388111120" class="fil1" d="M717.456 1433.07c-67.2981,42.0414 -139.38,79.076 -216.097,102.874l-53.1367 16.4823 17.6102 -43.376c19.304,-47.5477 35.8205,-100.057 46.4705,-152.786 8.67757,-42.9579 13.5071,-86.0989 12.8433,-126.86 -133.781,-69.7843 -213.562,-158.017 -248.407,-250.564 -26.1898,-69.554 -26.8866,-141.43 -5.96575,-209.698 20.8358,-67.9902 63.1276,-132.319 123.017,-187.083 109.766,-100.374 278.641,-168.815 482.686,-168.815 136.716,0 266.21,34.187 371.168,91.3359 74.7638,40.7091 137.151,93.1572 180.921,153.302 44.0575,60.5386 69.2351,128.782 69.2351,200.646 0,53.1426 -13.813,108.259 -43.9949,163.691 -47.8217,87.8516 -126.894,156.699 -223.125,204.868 -98.9139,49.513 -216.108,77.106 -336.046,80.9233 -54.5032,41.328 -113.459,85.252 -177.178,125.059z"/>
   <path id="_388098496" class="fil2" d="M1011.66 1515.4c-67.2981,42.0414 -139.38,79.0772 -216.097,102.874l-53.1367 16.4823 17.6102 -43.376c19.304,-47.5477 35.8205,-100.057 46.4705,-152.786 8.67757,-42.9579 13.5071,-86.0989 12.8433,-126.86 -133.781,-69.7843 -213.562,-158.017 -248.408,-250.564 -26.1886,-69.554 -26.8855,-141.43 -5.96457,-209.697 20.8358,-67.9914 63.1264,-132.319 123.015,-187.084 109.767,-100.374 278.642,-168.815 482.687,-168.815 136.716,0 266.21,34.187 371.168,91.3359 74.7638,40.7091 137.15,93.1583 180.92,153.302 44.0587,60.5386 69.2363,128.782 69.2363,200.647 0,53.1414 -13.813,108.259 -43.9949,163.69 -47.8217,87.8516 -126.894,156.699 -223.125,204.869 -98.9139,49.5118 -216.108,77.1048 -336.046,80.9221 -54.5032,41.3292 -113.459,85.2532 -177.178,125.059z"/>
  </g>
 </g>
</svg>
