<?xml version="1.0" encoding="UTF-8"?>
<!DOCTYPE svg PUBLIC "-//W3C//DTD SVG 1.1//EN" "http://www.w3.org/Graphics/SVG/1.1/DTD/svg11.dtd">
<!-- Creator: CorelDRAW -->
<svg xmlns="http://www.w3.org/2000/svg" xml:space="preserve" width="2048px" height="2048px" style="shape-rendering:geometricPrecision; text-rendering:geometricPrecision; image-rendering:optimizeQuality; fill-rule:evenodd; clip-rule:evenodd"
viewBox="0 0 2048 2048"
 xmlns:xlink="http://www.w3.org/1999/xlink">
 <defs>
  <style type="text/css">
   <![CDATA[
    .fil1 {fill:none}
    .fil2 {fill:#8C8D8D;fill-rule:nonzero}
    .fil0 {fill:#ACADAD;fill-rule:nonzero}
   ]]>
  </style>
 </defs>
 <g id="Layer_x0020_1">
  <metadata id="CorelCorpID_0Corel-Layer"/>
  <path class="fil0" d="M1041.43 1461.75l-434.724 261.626 -78.4701 47.2252 32.0988 -85.7233c18.5032,-49.415 32.6953,-105.193 41.8914,-160.977 9.3319,-56.6174 13.4599,-112.86 11.6728,-162.116l-0.592914 -0.322441c-95.3139,-51.7819 -174.476,-121.687 -229.299,-203.545 -53.3717,-79.6902 -83.7414,-170.49 -83.7414,-266.854 0,-40.2378 5.34685,-80.0516 15.7996,-118.922 10.3984,-38.6622 26.0197,-76.5001 46.6193,-112.987 59.954,-106.178 154.765,-189.712 267.685,-247.243 117.689,-59.9587 255.327,-91.9099 393.607,-91.9099 138.331,0 276.032,31.989 393.757,92.002 112.971,57.5882 207.802,141.19 267.718,247.426 20.5583,36.4583 36.1465,74.2524 46.5178,112.858 10.4303,38.8264 15.7654,78.5906 15.7654,118.775 0,35.4815 -4.33583,70.8945 -12.7996,105.836 -8.42127,34.7611 -21.0047,68.8087 -37.5402,101.743 -55.004,109.579 -147.445,197.642 -259.635,259.573 -116.355,64.2308 -254.425,100.502 -393.996,103.484l-2.33504 0.0507874z"/>
  <g id="_388102168">
   <rect id="_388100440" class="fil1" width="2048" height="2048"/>
   <rect id="_388096312" class="fil1" x="255.999" y="255.999" width="1536" height="1536"/>
  </g>
  <path class="fil2" d="M669.98 803.516c-57.5599,0 -104.486,40.5603 -104.486,90.254 0,49.7008 46.9264,90.228 104.486,90.228 57.6367,0 104.534,-40.4528 104.534,-90.228 0,-49.7681 -46.8969,-90.254 -104.534,-90.254z"/>
  <path class="fil2" d="M1023.98 803.516c-57.5693,0 -104.486,40.5603 -104.486,90.254 0,49.7008 46.917,90.228 104.486,90.228 57.5599,0 104.534,-40.5107 104.534,-90.228 0,-49.7103 -46.9737,-90.254 -104.534,-90.254z"/>
  <path class="fil2" d="M1384.72 803.516c-57.5599,0 -104.535,40.5437 -104.535,90.254 0,49.7174 46.9748,90.228 104.535,90.228 57.6178,0 104.669,-40.4445 104.669,-90.228 0,-49.7764 -47.0516,-90.254 -104.669,-90.254z"/>
 </g>
</svg>
