<?xml version="1.0" encoding="UTF-8"?>
<!DOCTYPE svg PUBLIC "-//W3C//DTD SVG 1.1//EN" "http://www.w3.org/Graphics/SVG/1.1/DTD/svg11.dtd">
<!-- Creator: CorelDRAW -->
<svg xmlns="http://www.w3.org/2000/svg" xml:space="preserve" width="2048px" height="2048px" style="shape-rendering:geometricPrecision; text-rendering:geometricPrecision; image-rendering:optimizeQuality; fill-rule:evenodd; clip-rule:evenodd"
viewBox="0 0 2048 2048"
 xmlns:xlink="http://www.w3.org/1999/xlink">
 <defs>
  <style type="text/css">
   <![CDATA[
    .fil2 {fill:none}
    .fil3 {fill:gray;fill-rule:nonzero}
    .fil0 {fill:#8C8D8D;fill-rule:nonzero}
    .fil1 {fill:#919191;fill-rule:nonzero}
    .fil4 {fill:#9F9F9F;fill-rule:nonzero}
   ]]>
  </style>
 </defs>
 <g id="Layer_x0020_1">
  <metadata id="CorelCorpID_0Corel-Layer"/>
  <g id="_388121440">
   <path id="_388116400" class="fil0" d="M832 1696c-15.9047,0 -28.8,14.328 -28.8,32.0008 0,17.6728 12.8953,32.0008 28.8,32.0008l384 0c15.9047,0 28.8,-14.328 28.8,-32.0008 0,-17.6728 -12.8953,-32.0008 -28.8,-32.0008l-384 0z"/>
   <polygon id="_388099360" class="fil0" points="1056,1312.02 1056,1728 991.999,1728 991.999,1312.02 "/>
  </g>
  <path class="fil1" d="M1042.99 1246.87l-37.989 0c-65.4626,0 -124.813,-27.3886 -167.784,-71.6268 -42.7465,-44.0067 -69.2221,-104.64 -69.2221,-171.423l0 -236.471 0 -32.0008 32.0008 0 448 0 32.0008 0 0 32.0008 0 236.339c0,66.8375 -26.4685,127.499 -69.2079,171.525 -42.9697,44.2642 -102.327,71.6575 -167.798,71.6575z"/>
  <g id="_388104976">
   <rect id="_388115920" class="fil2" width="2048" height="2048"/>
   <rect id="_388094200" class="fil2" x="255.999" y="255.999" width="1536" height="1536"/>
  </g>
  <path class="fil3" d="M1279.04 531.002l0 236.349 0 31.9984 -31.0382 0 -448 0 -31.0382 0 0 -31.9984 0 -1.1811 0 -235.168c0,-66.9745 26.5158,-127.778 69.326,-171.877 42.7406,-44.0244 101.714,-71.2949 166.717,-71.2949l37.989 0c65.0032,0 123.977,27.2705 166.717,71.2949 42.8103,44.0989 69.326,104.902 69.326,171.877z"/>
  <path class="fil2" d="M704 767.999l0 250.655c0,189.864 131.035,293.366 292.18,293.366 78.9095,0 -16.9925,0 40.8803,0 161.017,0 306.94,-103.635 306.94,-293.366l0 -250.128"/>
  <path class="fil4" d="M736 767.999c0,-17.1425 -14.3268,-31.0394 -31.9996,-31.0394 -17.6728,0 -31.9996,13.8969 -31.9996,31.0394l0 250.655c0,99.7359 33.6319,178.275 88.454,233.32 59.5843,59.8252 143.382,91.0855 235.726,91.0855l40.8803 0c92.8076,0 181.384,-31.741 244.846,-92.3953 57.5504,-55.0052 94.0938,-133.091 94.0938,-232.01l0 -250.128c0,-17.1425 -14.3268,-31.0394 -31.9996,-31.0394 -17.6728,0 -31.9996,13.8969 -31.9996,31.0394l0 250.128c0,80.9989 -29.067,144.123 -74.8442,187.875 -51.137,48.8752 -123.559,74.452 -200.097,74.452l-40.8803 0c-75.1997,0 -142.675,-24.6862 -189.727,-71.928 -43.6654,-43.8437 -70.454,-107.813 -70.454,-190.399l0 -250.655z"/>
  <line class="fil2" x1="832" y1="1728" x2="1216" y2= "1728" />
 </g>
</svg>
