<?xml version="1.0" encoding="UTF-8"?>
<!DOCTYPE svg PUBLIC "-//W3C//DTD SVG 1.1//EN" "http://www.w3.org/Graphics/SVG/1.1/DTD/svg11.dtd">
<!-- Creator: CorelDRAW -->
<svg xmlns="http://www.w3.org/2000/svg" xml:space="preserve" width="2048px" height="2048px" style="shape-rendering:geometricPrecision; text-rendering:geometricPrecision; image-rendering:optimizeQuality; fill-rule:evenodd; clip-rule:evenodd"
viewBox="0 0 2048 2048"
 xmlns:xlink="http://www.w3.org/1999/xlink">
 <defs>
  <style type="text/css">
   <![CDATA[
    .fil2 {fill:none}
    .fil3 {fill:#888888}
    .fil0 {fill:#D7D7D7}
    .fil1 {fill:#727272;fill-rule:nonzero}
   ]]>
  </style>
 </defs>
 <g id="Layer_x0020_1">
  <metadata id="CorelCorpID_0Corel-Layer"/>
  <circle class="fil0" cx="1184" cy="959.999" r="320"/>
  <path class="fil1" d="M255.999 703.998c-17.6728,0 -32.0008,14.328 -32.0008,32.0008 0,17.6728 14.328,32.0008 32.0008,32.0008l95.7639 0c17.6728,0 32.0008,-14.328 32.0008,-32.0008 0,-17.6728 -14.328,-32.0008 -32.0008,-32.0008l-95.7639 0z"/>
  <path class="fil1" d="M1792 767.999c17.6728,0 32.0008,-14.328 32.0008,-32.0008 0,-17.6728 -14.328,-32.0008 -32.0008,-32.0008l-95.7639 0c-17.6728,0 -32.0008,14.328 -32.0008,32.0008 0,17.6728 14.328,32.0008 32.0008,32.0008l95.7639 0z"/>
  <g id="_388119424">
   <rect id="_388093456" class="fil2" width="2048" height="2048"/>
   <rect id="_388118464" class="fil2" x="255.999" y="255.999" width="1536" height="1536"/>
  </g>
  <path class="fil3" d="M1696.39 734.2c0,-98.5808 -62.1012,-190.197 -160.391,-190.197l-95.9965 0 -115.082 -96.0048 -300.436 0 -96.4796 96.0048 -160.002 0c-8.10355,-33.6461 -37.4776,-64.0004 -63.7689,-64.0004l-128.232 0c-26.4355,0 -56.0209,29.9551 -63.9969,64.0004 -101.551,8.94686 -160.24,95.2477 -160.24,192l0 685.264c0,98.5808 79.8237,178.732 177.937,178.732l988.744 0c98.1556,0 177.945,-80.1508 177.945,-178.732l0 -687.068zm-516.063 1.8c-61.826,0 -117.882,25.1421 -158.466,65.7154 -40.513,40.5012 -65.6138,96.5009 -65.6138,158.299 0,61.8201 25.0914,117.804 65.5914,158.289 40.5851,40.5685 96.6497,65.6953 158.489,65.6953 61.7552,0 117.749,-25.1197 158.306,-65.6764 40.5603,-40.5603 65.6788,-96.5587 65.6788,-158.308 0,-61.7268 -25.1268,-117.739 -65.7012,-158.317 -40.5567,-40.5614 -96.541,-65.6965 -158.283,-65.6965zm-203.466 20.465c52.1634,-52.1504 124.142,-84.4666 203.466,-84.4666 79.4127,0 151.401,32.3091 203.534,84.4477 52.154,52.1599 84.4524,124.18 84.4524,203.568 0,79.415 -32.289,151.417 -84.43,203.558 -52.1363,52.1363 -124.135,84.4276 -203.556,84.4276 -79.3323,0 -151.321,-32.2985 -203.489,-84.4465 -52.2331,-52.213 -84.593,-124.214 -84.593,-203.54 0,-79.2993 32.3693,-151.318 84.6154,-203.549zm203.441 107.535c-26.5382,0 -50.5878,10.7787 -67.9843,28.1705 -17.3221,17.3173 -28.0559,41.3138 -28.0559,67.8367 0,26.5335 10.7291,50.5217 28.0465,67.8319 17.3953,17.3882 41.4485,28.1599 67.9938,28.1599 26.4614,0 50.4579,-10.7669 67.8414,-28.1504 17.3847,-17.3847 28.1516,-41.3835 28.1516,-67.8414 0,-26.4484 -10.7717,-50.4544 -28.1622,-67.8473 -17.3847,-17.3858 -41.3764,-28.1599 -67.8308,-28.1599zm-112.984 -17.0799c28.9784,-28.9689 68.9493,-46.9217 112.984,-46.9217 44.1248,0 84.1205,17.9469 113.081,46.9111 28.9713,28.9748 46.9134,68.9894 46.9134,113.098 0,44.1237 -17.9386,84.1276 -46.9028,113.092 -28.963,28.963 -68.9646,46.9016 -113.092,46.9016 -44.0386,0 -84.0154,-17.9433 -112.994,-46.9111 -29.0504,-29.0386 -47.0481,-69.0438 -47.0481,-113.082 0,-44.0256 18.0024,-84.039 47.0575,-113.087z"/>
 </g>
</svg>
