<?xml version="1.0" encoding="UTF-8"?>
<!DOCTYPE svg PUBLIC "-//W3C//DTD SVG 1.1//EN" "http://www.w3.org/Graphics/SVG/1.1/DTD/svg11.dtd">
<!-- Creator: CorelDRAW -->
<svg xmlns="http://www.w3.org/2000/svg" xml:space="preserve" width="2048px" height="2048px" style="shape-rendering:geometricPrecision; text-rendering:geometricPrecision; image-rendering:optimizeQuality; fill-rule:evenodd; clip-rule:evenodd"
viewBox="0 0 2048 2048"
 xmlns:xlink="http://www.w3.org/1999/xlink">
 <defs>
  <style type="text/css">
   <![CDATA[
    .fil0 {fill:none}
    .fil3 {fill:#AFAFAF}
    .fil2 {fill:#AFAFAF;fill-rule:nonzero}
    .fil1 {fill:#BFC0C0;fill-rule:nonzero}
   ]]>
  </style>
 </defs>
 <g id="Layer_x0020_1">
  <metadata id="CorelCorpID_0Corel-Layer"/>
  <g id="_388104496">
   <rect id="_388120072" class="fil0" width="2048" height="2048"/>
   <rect id="_388096648" class="fil0" x="255.999" y="255.999" width="1536" height="1536"/>
  </g>
  <path class="fil1" d="M573.116 524.887l0.325985 0 887.756 0c18.8646,0 34.1575,15.2929 34.1575,34.1575 0,1.46929 -0.0933072,2.91851 -0.272835,4.33937l-80.5949 1193.42 -34.024 -2.26772 34.0796 2.30197c-1.22008,18.0496 -16.2508,31.8709 -34.0796,31.8544l0 0.0011811 -726.615 0c-18.7441,0 -33.9591,-15.1016 -34.1528,-33.8008l-80.602 -1193.55 -0.0578741 0.00354331c-1.27087,-18.8209 12.9555,-35.1107 31.7776,-36.3815 0.772442,-0.0519685 1.53898,-0.0755906 2.30197,-0.0767717l0 -0.0011811z"/>
  <path class="fil2" d="M529.956 405.79c-18.7902,0.956694 -33.2457,16.9677 -32.289,35.7591 0.956694,18.7914 16.9677,33.2469 35.7591,32.289l984.616 -53.054c18.7914,-0.956694 33.2469,-16.9677 32.2902,-35.7591 -0.957875,-18.7914 -16.9689,-33.2469 -35.7591,-32.289l-984.617 53.054z"/>
  <polygon class="fil2" points="889.621,389.994 885.199,307.943 883.373,274.023 917.489,272.184 1122.62,261.131 1156.54,259.304 1158.38,293.42 1162.8,375.472 1094.75,378.942 1092.17,331.008 955.076,338.394 957.669,386.524 "/>
  <path class="fil3" d="M1256.26 695.672c0,-18.8646 -15.2941,-34.1587 -34.1575,-34.1587 -18.8646,0 -34.1587,15.2941 -34.1587,34.1587l0 922.237c0,18.8646 15.2941,34.1575 34.1587,34.1575 18.8634,0 34.1575,-15.2929 34.1575,-34.1575l0 -922.237z"/>
  <path class="fil3" d="M1051.32 695.672c0,-18.8646 -15.2941,-34.1587 -34.1587,-34.1587 -18.8634,0 -34.1575,15.2941 -34.1575,34.1587l0 922.237c0,18.8646 15.2941,34.1575 34.1575,34.1575 18.8646,0 34.1587,-15.2929 34.1587,-34.1575l0 -922.237z"/>
  <path class="fil3" d="M846.372 695.672c0,-18.8646 -15.2929,-34.1587 -34.1575,-34.1587 -18.8634,0 -34.1575,15.2941 -34.1575,34.1587l0 922.237c0,18.8646 15.2941,34.1575 34.1575,34.1575 18.8646,0 34.1575,-15.2929 34.1575,-34.1575l0 -922.237z"/>
 </g>
</svg>
