<?xml version="1.0" encoding="UTF-8"?>
<!DOCTYPE svg PUBLIC "-//W3C//DTD SVG 1.1//EN" "http://www.w3.org/Graphics/SVG/1.1/DTD/svg11.dtd">
<!-- Creator: CorelDRAW -->
<svg xmlns="http://www.w3.org/2000/svg" xml:space="preserve" width="2048px" height="2048px" style="shape-rendering:geometricPrecision; text-rendering:geometricPrecision; image-rendering:optimizeQuality; fill-rule:evenodd; clip-rule:evenodd"
viewBox="0 0 2048 2048"
 xmlns:xlink="http://www.w3.org/1999/xlink">
 <defs>
  <style type="text/css">
   <![CDATA[
    .fil0 {fill:none}
    .fil1 {fill:#414141;fill-rule:nonzero}
    .fil2 {fill:#888888;fill-rule:nonzero}
    .fil3 {fill:#A8A8A8;fill-rule:nonzero}
   ]]>
  </style>
 </defs>
 <g id="Layer_x0020_1">
  <metadata id="CorelCorpID_0Corel-Layer"/>
  <g id="_388106824">
   <rect id="_388114720" class="fil0" width="2048" height="2048"/>
   <rect id="_388098952" class="fil0" x="255.999" y="255.999" width="1536" height="1536"/>
  </g>
  <path class="fil1" d="M527.182 936.87c-1.9689,-0.0401575 -7.35945,-0.0590552 0,-0.0590552l0 0.0590552z"/>
  <path class="fil1" d="M527.182 936.921c0.980316,-0.0177165 0.719292,-0.0366142 0,-0.0507874l0 0.0507874z"/>
  <path class="fil1" d="M256.11 1200.72c-0.0200788,-0.940158 -0.0377953,-0.687402 -0.0519685,0l0.0519685 0z"/>
  <path class="fil2" d="M1440.39 1525.6c-7.69725,60.8658 -29.9044,109.839 -67.0772,146.039 -45.8634,44.6658 -112.644,67.8863 -201.058,67.8863l0 -0.137008 -645.07 -0.0165354 -0.272835 0 -0.265748 -0.00236221c-88.2426,-0.692127 -155.586,-23.7756 -201.673,-69.2351 -46.3985,-45.763 -69.4654,-112.123 -68.83,-199.049l0.0011811 -0.244488 0.00944883 -266.481c-0.0141732,-1.87559 -0.0283465,-3.01063 -0.0401575,-3.63071l-0.0519685 0c-0.0389764,1.86614 -0.0590552,6.92008 -0.0590552,0 0,-85.1776 23.0941,-150.405 68.9292,-195.49 45.5138,-44.7697 111.706,-67.5886 198.228,-68.2737l0.137008 0c2.01496,-0.0141732 3.2315,-0.0271654 3.88819,-0.0401575l0 0.0259843 645.07 -0.0177165 0 -0.137008c85.7883,0 151.625,21.5386 197.649,64.4245 35.0658,32.6752 57.5363,76.676 67.4859,131.92l284.849 -174.267 16.7232 -10.2213 53.0422 -32.4166 0 62.1426 0 671.945 0 18.802 0 60.5374 -52.3607 -30.404 -16.5142 -9.58938 -282.74 -164.069z"/>
  <path class="fil3" d="M1004.77 321.188c29.1827,-8.46969 59.9256,-12.7099 92.3741,-12.7099 88.8473,0 168.178,34.6146 225.293,91.7292 56.8772,56.8748 91.5839,135.912 91.5839,225.148 0,89.4698 -34.2201,167.736 -90.691,224.198 -56.8571,56.8512 -136.232,91.3194 -225.819,92.5205l-0.735827 0c-91.852,-1.23189 -168.3,-37.2945 -223.204,-92.2276 -30.5646,-30.5811 -54.3697,-66.9426 -70.3583,-106.33 -15.9602,-39.3166 -24.1748,-81.8717 -23.5996,-124.915 1.02874,-76.8036 30.1252,-154.593 93.2516,-217.686 7.81772,-7.78819 15.7878,-15.1677 23.8666,-21.9437 8.16969,-6.85512 16.8898,-13.4528 26.2122,-19.6831l0.121654 -0.122835c25.2402,-16.8177 52.4233,-29.4792 81.704,-37.9784z"/>
  <path class="fil2" d="M447.507 878.464c-40.9559,-40.9559 -66.1146,-97.2202 -65.0209,-161.12 -0.100394,-4.87796 -0.152362,-1.45039 -0.152362,-3.97087l0.122835 0c-0.0011811,-62.8973 25.3713,-119.195 66.3485,-160.063 40.7729,-40.6689 97.0997,-66.006 159.266,-67.2508l0 -0.00236221c5.53937,-0.109843 2.33622,-0.162992 4.65709,-0.162992 64.8201,0 122.258,25.3748 163.651,66.9993 41.517,41.7485 66.6532,99.6331 66.6532,164.423 0,31.4185 -5.65276,60.6981 -16.7917,87.8257 -11.1886,27.254 -27.8044,51.8304 -49.6701,73.7256l-0.122835 0.122835c-22.3512,22.324 -47.1662,39.1016 -74.2831,50.4874 -27.2858,11.4555 -56.9493,17.4225 -88.8249,18.0591l-1.22244 0c-63.9473,-1.27913 -122.641,-27.1087 -164.61,-69.0721z"/>
 </g>
</svg>
