<?xml version="1.0" encoding="UTF-8"?>
<!DOCTYPE svg PUBLIC "-//W3C//DTD SVG 1.1//EN" "http://www.w3.org/Graphics/SVG/1.1/DTD/svg11.dtd">
<!-- Creator: CorelDRAW -->
<svg xmlns="http://www.w3.org/2000/svg" xml:space="preserve" width="2048px" height="2048px" style="shape-rendering:geometricPrecision; text-rendering:geometricPrecision; image-rendering:optimizeQuality; fill-rule:evenodd; clip-rule:evenodd"
viewBox="0 0 2048 2048"
 xmlns:xlink="http://www.w3.org/1999/xlink">
 <defs>
  <style type="text/css">
   <![CDATA[
    .fil2 {fill:none}
    .fil1 {fill:#868686}
    .fil0 {fill:#959595}
    .fil3 {fill:#F6F6F6}
    .fil4 {fill:#414141;fill-rule:nonzero}
   ]]>
  </style>
 </defs>
 <g id="Layer_x0020_1">
  <metadata id="CorelCorpID_0Corel-Layer"/>
  <polygon class="fil0" points="1747.01,742.832 1747.01,1787.17 300.994,1787.17 300.994,742.832 "/>
  <path class="fil1" d="M300.994 421.496c482.005,0 964.008,0 1446.01,0l0 321.339 -1446.01 0 0 -321.339z"/>
  <g id="_388103584">
   <rect id="_388120456" class="fil2" width="2048" height="2048"/>
   <rect id="_388118032" class="fil2" x="255.999" y="255.999" width="1536" height="1536"/>
  </g>
  <g id="_388118968">
   <path id="_388105960" class="fil3" d="M1069.9 1586.8c-0.284646,-2.93386 -0.582284,-5.99174 -0.731103,-9.35788 -0.148819,-3.50315 -0.148819,-8.62678 -0.148819,-15.4973 0,-43.0973 9.35788,-83.5843 28.2095,-121.583 18.8504,-37.9878 47.7886,-74.3764 86.9505,-109.159 7.45158,-6.57166 18.1217,-16.226 32.1449,-28.7894 44.5713,-39.3107 74.0918,-67.3713 88.7091,-84.3154 11.9823,-13.8886 20.6091,-29.967 26.0185,-47.9374 5.39646,-17.9728 8.18032,-39.3118 8.18032,-64.1528 0,-37.9878 -8.47796,-67.0749 -25.2874,-87.3851 -16.8071,-20.3114 -40.7717,-30.4004 -71.8997,-30.4004 -31.9973,0 -55.9713,11.2512 -71.7532,33.7548 -15.9295,22.65 -23.8134,56.7012 -23.8134,102.448 0,0 0.147638,2.33977 0.432284,7.15394 0.296457,4.97717 0.446457,9.79017 0.446457,14.6173l-71.0221 0c0,-2.63504 -0.148819,-6.43583 -0.446457,-11.8323 -0.284646,-5.25945 -0.433465,-9.20906 -0.433465,-11.6965 0,-64.0028 14.7543,-113.254 44.2748,-147.886 29.5205,-34.6335 71.4674,-52.0229 125.681,-52.0229 53.3351,0 94.9855,15.7807 124.938,47.3445 29.967,31.5614 45.0178,75.5516 45.0178,132.105 0,28.7894 -2.92205,54.0768 -8.77678,75.9969 -5.84174,21.7725 -15.1866,42.0839 -28.0465,60.9355 -12.8599,20.0138 -41.5028,47.9244 -86.0741,83.882 -11.1142,8.91142 -19.5815,15.7819 -25.2862,20.6091 -44.7201,37.1055 -76.4304,69.1146 -94.8367,95.8619 -18.4169,26.8843 -27.9118,53.4851 -28.7894,80.0823l277.366 0 0 67.656 -351.024 -0.432284z"/>
   <path id="_388113160" class="fil3" d="M627.956 1586.8c-0.284646,-2.93386 -0.582284,-5.99174 -0.729922,-9.35788 -0.148819,-3.50315 -0.148819,-8.62678 -0.148819,-15.4973 0,-43.0973 9.35788,-83.5843 28.2083,-121.583 18.8504,-37.9878 47.7898,-74.3764 86.9516,-109.159 7.4504,-6.57166 18.1205,-16.226 32.1437,-28.7894 44.5725,-39.3107 74.0918,-67.3713 88.7103,-84.3154 11.9811,-13.8886 20.6079,-29.967 26.0185,-47.9374 5.39646,-17.9728 8.18032,-39.3118 8.18032,-64.1528 0,-37.9878 -8.47914,-67.0749 -25.2862,-87.3851 -16.8095,-20.3114 -40.7717,-30.4004 -71.902,-30.4004 -31.9949,0 -55.9701,11.2512 -71.752,33.7548 -15.9295,22.65 -23.8146,56.7012 -23.8146,102.448 0,0 0.148819,2.33977 0.433465,7.15394 0.297638,4.97717 0.446457,9.79017 0.446457,14.6173l-71.0233 0c0,-2.63504 -0.147638,-6.43583 -0.444095,-11.8323 -0.284646,-5.25945 -0.434646,-9.20906 -0.434646,-11.6965 0,-64.0028 14.7543,-113.254 44.2748,-147.886 29.5205,-34.6335 71.4674,-52.0229 125.681,-52.0229 53.3339,0 94.9843,15.7807 124.938,47.3445 29.9658,31.5614 45.0166,75.5516 45.0166,132.105 0,28.7894 -2.91969,54.0768 -8.77442,75.9969 -5.84292,21.7725 -15.1878,42.0839 -28.0488,60.9355 -12.8587,20.0138 -41.5016,47.9244 -86.0729,83.882 -11.1154,8.91142 -19.5803,15.7819 -25.2862,20.6091 -44.7213,37.1055 -76.4316,69.1146 -94.8367,95.8619 -18.4181,26.8843 -27.9118,53.4851 -28.7894,80.0823l277.366 0 0 67.656 -351.025 -0.432284z"/>
  </g>
  <path class="fil4" d="M501.779 360.167c0,-22.1835 -17.9847,-40.1681 -40.1681,-40.1681 -22.1835,0 -40.1681,17.9847 -40.1681,40.1681l0 165.6c0,22.1823 17.9847,40.167 40.1681,40.167 22.1835,0 40.1681,-17.9847 40.1681,-40.167l0 -165.6zm843.582 0c0,-22.1835 -17.9847,-40.1681 -40.1681,-40.1681 -22.1835,0 -40.1681,17.9847 -40.1681,40.1681l0 165.6c0,22.1823 17.9847,40.167 40.1681,40.167 22.1835,0 40.1681,-17.9847 40.1681,-40.167l0 -165.6zm-281.194 0c0,-22.1835 -17.9847,-40.1681 -40.1681,-40.1681 -22.1835,0 -40.1681,17.9847 -40.1681,40.1681l0 165.6c0,22.1823 17.9847,40.167 40.1681,40.167 22.1835,0 40.1681,-17.9847 40.1681,-40.167l0 -165.6zm-281.195 0c0,-22.1835 -17.9847,-40.1681 -40.1681,-40.1681 -22.1823,0 -40.167,17.9847 -40.167,40.1681l0 165.6c0,22.1823 17.9847,40.167 40.167,40.167 22.1835,0 40.1681,-17.9847 40.1681,-40.167l0 -165.6zm843.584 0c0,-22.1835 -17.9858,-40.1681 -40.1681,-40.1681 -22.1835,0 -40.1681,17.9847 -40.1681,40.1681l0 165.6c0,22.1823 17.9847,40.167 40.1681,40.167 22.1823,0 40.1681,-17.9847 40.1681,-40.167l0 -165.6z"/>
 </g>
</svg>
