<?xml version="1.0" encoding="UTF-8"?>
<!DOCTYPE svg PUBLIC "-//W3C//DTD SVG 1.1//EN" "http://www.w3.org/Graphics/SVG/1.1/DTD/svg11.dtd">
<!-- Creator: CorelDRAW -->
<svg xmlns="http://www.w3.org/2000/svg" xml:space="preserve" width="2048px" height="2048px" style="shape-rendering:geometricPrecision; text-rendering:geometricPrecision; image-rendering:optimizeQuality; fill-rule:evenodd; clip-rule:evenodd"
viewBox="0 0 2048 2048"
 xmlns:xlink="http://www.w3.org/1999/xlink">
 <defs>
  <style type="text/css">
   <![CDATA[
    .fil1 {fill:none}
    .fil2 {fill:#959595}
    .fil0 {fill:#E7E7E7}
   ]]>
  </style>
 </defs>
 <g id="Layer_x0020_1">
  <metadata id="CorelCorpID_0Corel-Layer"/>
  <path class="fil0" d="M1291.13 656.695c0,-147.533 -119.597,-267.13 -267.131,-267.13 -147.534,0 -267.131,119.597 -267.131,267.13 0,147.534 119.597,267.131 267.131,267.131 147.534,0 267.131,-119.597 267.131,-267.131z"/>
  <rect class="fil1" width="2048" height="2048"/>
  <rect class="fil1" x="255.999" y="255.999" width="1536" height="1536"/>
  <path class="fil2" d="M1024 255.999c232.779,0 421.483,175.293 421.483,391.529 0,145.29 -349.288,953.813 -421.483,1144.47 -51.3839,-134.164 -421.483,-989.483 -421.483,-1144.47 0,-216.235 188.704,-391.529 421.483,-391.529zm0 133.565c147.534,0 267.131,119.597 267.131,267.13 0,147.534 -119.597,267.131 -267.131,267.131 -147.534,0 -267.131,-119.597 -267.131,-267.131 0,-147.533 119.597,-267.13 267.131,-267.13z"/>
 </g>
</svg>
