<?xml version="1.0" encoding="UTF-8"?>
<!DOCTYPE svg PUBLIC "-//W3C//DTD SVG 1.1//EN" "http://www.w3.org/Graphics/SVG/1.1/DTD/svg11.dtd">
<!-- Creator: CorelDRAW -->
<svg xmlns="http://www.w3.org/2000/svg" xml:space="preserve" width="2048px" height="2048px" style="shape-rendering:geometricPrecision; text-rendering:geometricPrecision; image-rendering:optimizeQuality; fill-rule:evenodd; clip-rule:evenodd"
viewBox="0 0 2048 2048"
 xmlns:xlink="http://www.w3.org/1999/xlink">
 <defs>
  <style type="text/css">
   <![CDATA[
    .fil0 {fill:none}
    .fil1 {fill:#939393}
    .fil2 {fill:#C4C4C4}
    .fil3 {fill:#E0E1E1}
    .fil4 {fill:#EBEBEB}
   ]]>
  </style>
 </defs>
 <g id="Layer_x0020_1">
  <metadata id="CorelCorpID_0Corel-Layer"/>
  <g id="_388120768">
   <rect id="_388116568" class="fil0" width="2048" height="2048"/>
   <rect id="_388117360" class="fil0" x="255.999" y="255.999" width="1536" height="1536"/>
  </g>
  <path class="fil1" d="M1536 463.468c0,-61.4587 -48.6178,-111.469 -108.358,-111.469l-807.286 0c-59.7556,0 -108.358,50.0103 -108.358,111.469l0 1185.06c0,61.4752 48.6024,111.469 108.358,111.469l807.286 0c59.7402,0 108.358,-49.9937 108.358,-111.469 0,-471.317 0,-889.645 0,-1185.06z"/>
  <path class="fil2" d="M1270.86 1184l114.287 0c12.5717,0 22.8567,10.285 22.8567,22.8567l0 402.287c0,12.5717 -10.285,22.8567 -22.8567,22.8567l-114.287 0c-12.5717,0 -22.8567,-10.285 -22.8567,-22.8567l0 -402.287c0,-12.5717 10.285,-22.8567 22.8567,-22.8567z"/>
  <path class="fil3" d="M980.866 1472l96.0013 0c17.6008,0 31.9996,14.3988 31.9996,31.9996l0 96.0013c0,17.6008 -14.3988,31.9996 -31.9996,31.9996l-96.0013 0c-17.6008,0 -31.9996,-14.3988 -31.9996,-31.9996l0 -96.0013c0,-17.6008 14.3988,-31.9996 31.9996,-31.9996z"/>
  <path class="fil3" d="M671.999 1472l96.0013 0c17.6008,0 31.9996,14.3988 31.9996,31.9996l0 96.0013c0,17.6008 -14.3988,31.9996 -31.9996,31.9996l-96.0013 0c-17.6008,0 -31.9996,-14.3988 -31.9996,-31.9996l0 -96.0013c0,-17.6008 14.3988,-31.9996 31.9996,-31.9996z"/>
  <path class="fil3" d="M980.866 1184l96.0013 0c17.6008,0 31.9996,14.3988 31.9996,31.9996l0 96.0013c0,17.6008 -14.3988,31.9996 -31.9996,31.9996l-96.0013 0c-17.6008,0 -31.9996,-14.3988 -31.9996,-31.9996l0 -96.0013c0,-17.6008 14.3988,-31.9996 31.9996,-31.9996z"/>
  <path class="fil3" d="M671.999 1184l96.0013 0c17.6008,0 31.9996,14.3988 31.9996,31.9996l0 96.0013c0,17.6008 -14.3988,31.9996 -31.9996,31.9996l-96.0013 0c-17.6008,0 -31.9996,-14.3988 -31.9996,-31.9996l0 -96.0013c0,-17.6008 14.3988,-31.9996 31.9996,-31.9996z"/>
  <path class="fil3" d="M1280 895.999l96.0013 0c17.6008,0 31.9996,14.3988 31.9996,31.9996l0 96.0013c0,17.6008 -14.3988,31.9996 -31.9996,31.9996l-96.0013 0c-17.6008,0 -31.9996,-14.3988 -31.9996,-31.9996l0 -96.0013c0,-17.6008 14.3988,-31.9996 31.9996,-31.9996z"/>
  <path class="fil3" d="M980.866 895.999l96.0013 0c17.6008,0 31.9996,14.3988 31.9996,31.9996l0 96.0013c0,17.6008 -14.3988,31.9996 -31.9996,31.9996l-96.0013 0c-17.6008,0 -31.9996,-14.3988 -31.9996,-31.9996l0 -96.0013c0,-17.6008 14.3988,-31.9996 31.9996,-31.9996z"/>
  <path class="fil3" d="M671.999 895.999l96.0013 0c17.6008,0 31.9996,14.3988 31.9996,31.9996l0 96.0013c0,17.6008 -14.3988,31.9996 -31.9996,31.9996l-96.0013 0c-17.6008,0 -31.9996,-14.3988 -31.9996,-31.9996l0 -96.0013c0,-17.6008 14.3988,-31.9996 31.9996,-31.9996z"/>
  <path class="fil4" d="M671.999 479.999l704.003 0c17.6008,0 31.9996,14.3988 31.9996,31.9996l0 224.001c0,17.6008 -14.3988,31.9996 -31.9996,31.9996l-704.003 0c-17.6008,0 -31.9996,-14.3988 -31.9996,-31.9996l0 -224.001c0,-17.6008 14.3988,-31.9996 31.9996,-31.9996z"/>
 </g>
</svg>
