<?xml version="1.0" encoding="UTF-8"?>
<!DOCTYPE svg PUBLIC "-//W3C//DTD SVG 1.1//EN" "http://www.w3.org/Graphics/SVG/1.1/DTD/svg11.dtd">
<!-- Creator: CorelDRAW -->
<svg xmlns="http://www.w3.org/2000/svg" xml:space="preserve" width="2048px" height="2048px" style="shape-rendering:geometricPrecision; text-rendering:geometricPrecision; image-rendering:optimizeQuality; fill-rule:evenodd; clip-rule:evenodd"
viewBox="0 0 2048 2048"
 xmlns:xlink="http://www.w3.org/1999/xlink">
 <defs>
  <style type="text/css">
   <![CDATA[
    .fil1 {fill:none}
    .fil0 {fill:#6C6C6C;fill-rule:nonzero}
    .fil2 {fill:#858585;fill-rule:nonzero}
   ]]>
  </style>
 </defs>
 <g id="Layer_x0020_1">
  <metadata id="CorelCorpID_0Corel-Layer"/>
  <polygon class="fil0" points="1656.94,1484.79 1656.94,392.465 793.841,565.087 793.841,1580.69 697.939,1580.69 697.939,525.791 697.939,486.495 736.523,478.778 1695.52,286.976 1752.84,275.514 1752.84,333.99 1752.84,1484.79 "/>
  <g id="_415222376">
   <rect id="_415223792" class="fil1" width="2048" height="2048"/>
   <rect id="_415201016" class="fil1" x="255.999" y="255.999" width="1536" height="1536"/>
  </g>
  <path class="fil2" d="M544.502 1388.89c65.6989,0 125.902,19.5378 170.123,51.1241 48.9437,34.9583 79.2166,84.6154 79.2166,140.676 0,56.0622 -30.2764,105.716 -79.2166,140.674 -44.2205,31.5862 -104.426,51.1241 -170.123,51.1241 -65.6965,0 -125.902,-19.5378 -170.123,-51.1241 -48.9402,-34.9583 -79.2166,-84.6119 -79.2166,-140.674 0,-56.0611 30.2729,-105.718 79.2166,-140.676 44.2205,-31.5862 104.424,-51.1241 170.123,-51.1241z"/>
  <path class="fil2" d="M1503.5 1292.99c65.6989,0 125.902,19.539 170.123,51.1241 48.9437,34.9595 79.2166,84.6166 79.2166,140.676 0,56.0622 -30.2764,105.716 -79.2166,140.675 -44.2205,31.5851 -104.426,51.1241 -170.123,51.1241 -65.6965,0 -125.902,-19.539 -170.123,-51.1241 -48.9402,-34.9595 -79.2166,-84.6131 -79.2166,-140.675 0,-56.0599 30.2729,-105.717 79.2166,-140.676 44.2205,-31.5851 104.424,-51.1241 170.123,-51.1241z"/>
 </g>
</svg>
