<?xml version="1.0" encoding="UTF-8"?>
<!DOCTYPE svg PUBLIC "-//W3C//DTD SVG 1.1//EN" "http://www.w3.org/Graphics/SVG/1.1/DTD/svg11.dtd">
<!-- Creator: CorelDRAW -->
<svg xmlns="http://www.w3.org/2000/svg" xml:space="preserve" width="2048px" height="2048px" style="shape-rendering:geometricPrecision; text-rendering:geometricPrecision; image-rendering:optimizeQuality; fill-rule:evenodd; clip-rule:evenodd"
viewBox="0 0 2048 2048"
 xmlns:xlink="http://www.w3.org/1999/xlink">
 <defs>
  <style type="text/css">
   <![CDATA[
    .fil2 {fill:none}
    .fil1 {fill:#9B9B9C}
    .fil0 {fill:#B3B4B4}
    .fil3 {fill:#CFCFD0}
   ]]>
  </style>
 </defs>
 <g id="Layer_x0020_1">
  <metadata id="CorelCorpID_0Corel-Layer"/>
  <path class="fil0" d="M512.097 255.999l834.599 0 253.207 253.207 0 1218.79c0,35.2004 -28.7988,63.9993 -63.9993,63.9993l-1023.81 0c-35.2004,0 -63.9993,-28.7988 -63.9993,-63.9993l0 -1408c0,-35.2004 28.7988,-63.9993 63.9993,-63.9993z"/>
  <path class="fil1" d="M1599.9 509.207l-1.05827 0 -188.15 0c-35.2004,0 -63.9993,-28.7988 -63.9993,-63.9993l0 -188.821 0 -0.387402 253.207 253.207z"/>
  <g id="_415213592">
   <rect id="_415217552" class="fil2" width="2048" height="2048"/>
   <rect id="_415216304" class="fil2" x="255.999" y="255.999" width="1536" height="1536"/>
  </g>
  <path class="fil3" d="M1318.77 804.681c19.65,0 35.5807,-16.4232 35.5807,-36.6815 0,-20.2583 -15.9307,-36.6815 -35.5807,-36.6815l-589.539 0c-19.65,0 -35.5807,16.4232 -35.5807,36.6815 0,20.2583 15.9307,36.6815 35.5807,36.6815l589.539 0z"/>
  <path class="fil3" d="M1318.77 1060.68c19.65,0 35.5807,-16.4232 35.5807,-36.6815 0,-20.2583 -15.9307,-36.6827 -35.5807,-36.6827l-589.539 0c-19.65,0 -35.5807,16.4244 -35.5807,36.6827 0,20.2583 15.9307,36.6815 35.5807,36.6815l589.539 0z"/>
  <path class="fil3" d="M1318.77 1316.67c19.65,0 35.5807,-16.4232 35.5807,-36.6815 0,-20.2583 -15.9307,-36.6815 -35.5807,-36.6815l-589.539 0c-19.65,0 -35.5807,16.4232 -35.5807,36.6815 0,20.2583 15.9307,36.6815 35.5807,36.6815l589.539 0z"/>
  <path class="fil3" d="M1318.77 1572.67c19.65,0 35.5807,-16.4232 35.5807,-36.6815 0,-20.2583 -15.9307,-36.6815 -35.5807,-36.6815l-589.539 0c-19.65,0 -35.5807,16.4232 -35.5807,36.6815 0,20.2583 15.9307,36.6815 35.5807,36.6815l589.539 0z"/>
 </g>
</svg>
