<?xml version="1.0" encoding="UTF-8"?>
<!DOCTYPE svg PUBLIC "-//W3C//DTD SVG 1.1//EN" "http://www.w3.org/Graphics/SVG/1.1/DTD/svg11.dtd">
<!-- Creator: CorelDRAW -->
<svg xmlns="http://www.w3.org/2000/svg" xml:space="preserve" width="2048px" height="2048px" style="shape-rendering:geometricPrecision; text-rendering:geometricPrecision; image-rendering:optimizeQuality; fill-rule:evenodd; clip-rule:evenodd"
viewBox="0 0 2048 2048"
 xmlns:xlink="http://www.w3.org/1999/xlink">
 <defs>
  <style type="text/css">
   <![CDATA[
    .fil2 {fill:none}
    .fil4 {fill:#BCBCBC}
    .fil3 {fill:#D7D7D7}
    .fil0 {fill:#797979;fill-rule:nonzero}
    .fil1 {fill:#959595;fill-rule:nonzero}
   ]]>
  </style>
 </defs>
 <g id="Layer_x0020_1">
  <metadata id="CorelCorpID_0Corel-Layer"/>
  <polygon class="fil0" points="1024,1129.32 1024.9,1129.32 1306.68,1129.32 1494.85,1129.32 1520.86,1129.32 1528.23,1154.39 1702.62,1747.31 1715.77,1792 1669.24,1792 1024.11,1792 1024,1792 "/>
  <polygon class="fil1" points="553.147,1129.32 743.078,1129.32 1024,1129.32 1024,1792 332.234,1792 519.768,1154.39 527.142,1129.32 "/>
  <g id="_415212416">
   <rect id="_415224728" class="fil2" width="2048" height="2048"/>
   <rect id="_415203632" class="fil2" x="255.999" y="255.999" width="1536" height="1536"/>
  </g>
  <path class="fil3" d="M1442.54 706.998c0,183.782 -176.1,425.394 -308.133,606.548 -30.6083,41.9965 -58.78,80.6446 -81.5859,114.276l-28.8815 42.5882 -28.7492 -42.724c-22.5543,-33.5197 -50.4839,-72.1607 -80.9375,-114.295 -131.542,-181.996 -308.788,-427.224 -308.788,-608.807 0,-123.63 46.6725,-234.548 121.491,-314.959 76.2827,-81.9863 181.747,-132.261 297.047,-132.261 115.514,0 220.784,50.6504 296.949,132.988 74.9658,81.0438 121.587,192.722 121.587,316.646z"/>
  <path class="fil4" d="M1024 861.595c-54.8823,0 -104.658,-22.0618 -140.751,-57.7217 -36.2646,-35.8299 -58.7056,-85.2544 -58.7056,-139.761 0,-54.5079 22.441,-103.929 58.7056,-139.76 36.0933,-35.6563 85.8709,-57.7205 140.751,-57.7205 54.8811,0 104.659,22.063 140.75,57.7205 36.267,35.8311 58.7079,85.252 58.7079,139.76 0,54.5079 -22.441,103.931 -58.7067,139.761 -36.0922,35.6599 -85.8698,57.7217 -140.751,57.7217z"/>
 </g>
</svg>
