<?xml version="1.0" encoding="UTF-8"?>
<!DOCTYPE svg PUBLIC "-//W3C//DTD SVG 1.1//EN" "http://www.w3.org/Graphics/SVG/1.1/DTD/svg11.dtd">
<!-- Creator: CorelDRAW -->
<svg xmlns="http://www.w3.org/2000/svg" xml:space="preserve" width="2048px" height="2048px" style="shape-rendering:geometricPrecision; text-rendering:geometricPrecision; image-rendering:optimizeQuality; fill-rule:evenodd; clip-rule:evenodd"
viewBox="0 0 2048 2048"
 xmlns:xlink="http://www.w3.org/1999/xlink">
 <defs>
  <style type="text/css">
   <![CDATA[
    .fil2 {fill:none}
    .fil0 {fill:#AEAEAF;fill-rule:nonzero}
    .fil1 {fill:#C9C9C9;fill-rule:nonzero}
   ]]>
  </style>
 </defs>
 <g id="Layer_x0020_1">
  <metadata id="CorelCorpID_0Corel-Layer"/>
  <path class="fil0" d="M1024 398.084c-38.0292,-0.0106299 -76.3052,3.41457 -114.481,10.3748l-36.2918 -78.7465c-22.6713,-49.3831 -81.2363,-70.9075 -130.463,-48.2469l-100.034 45.9248c-49.1941,22.8166 -70.8638,81.3721 -48.2055,130.597l36.3036 78.7997c-47.6528,38.7284 -88.8284,83.5087 -122.706,133.025l-81.4867 -30.1571c-49.2142,-18.3709 -108.228,8.77678 -126.442,58.1185l-38.0209 103.335c-4.01811,10.8083 -6.06142,21.9815 -6.17481,33.1465l0 2.38465c0.197244,13.5378 3.23859,27.013 9.03898,39.6756 11.0492,23.8051 30.7099,42.0189 55.2544,51.0579l81.8103 30.1701c-6.613,59.5548 -4.47756,120.38 6.72638,180.676l-78.9142 36.2929c-49.2367,22.6701 -70.7611,81.2162 -48.2457,130.45l46.226 99.9934c22.6595,49.3819 81.0816,70.9064 130.305,48.2363l79.0524 -36.2918c38.6114,47.7555 83.4024,88.8284 132.773,122.662l-30.1677 81.528c-9.18544,24.6803 -8.02796,51.3922 3.02008,75.1973 10.9122,23.9516 30.5634,42.1748 55.2662,51.2457l103.324 38.1768c24.5445,9.0378 51.2244,8.00906 75.1961,-2.90551 23.8158,-11.0173 41.8949,-30.6792 51.0792,-55.3595l30.1276 -81.6745c21.9154,2.38229 43.9831,3.5941 66.13,3.62481l0 -236.684c-151.334,-0.0720473 -289.999,-88.8827 -353.277,-226.153 -89.6729,-194.891 -4.14449,-426.336 190.591,-516.039 51.5056,-23.8051 106.178,-35.7496 162.412,-35.7496l0.274016 0.00236221 0 -236.688z"/>
  <path class="fil1" d="M1727.76 1120.1l-81.7796 -30.1181c6.46654,-59.556 4.44685,-120.246 -6.75827,-180.677l78.7985 -36.3012c49.3725,-22.6618 70.9087,-81.228 48.1961,-130.589l-46.0595 -99.8989c-22.6701,-49.3382 -81.1949,-71.0197 -130.42,-48.2032l-78.9579 36.3118c-38.6032,-47.7992 -83.341,-88.8497 -132.868,-122.714l30.1264 -81.476c18.8079,-50.9658 -7.31103,-107.647 -58.1185,-126.444l-103.312 -38.1756c-49.2272,-18.0791 -108.188,9.02717 -126.299,58.128l-30.1264 81.6438c-21.6012,-2.28898 -43.3512,-3.46181 -65.1827,-3.50197l-1.00276 -0.0011811 0 236.688 0.846851 0.00826772c150.998,0.438189 289.223,89.0434 352.474,226.185 89.7048,194.85 4.19764,426.336 -190.559,516.039 -51.45,23.7839 -106.102,35.687 -162.428,35.7083l-0.15 0 -0.184252 -0.0011811 0 236.684 0.178347 0c37.9996,0.0413386 76.2367,-3.39567 114.358,-10.3831l36.3343 78.7997c22.6595,49.2367 81.2257,70.9087 130.419,48.2067l100.036 -46.0394c49.2248,-22.7008 70.8851,-81.2268 48.0898,-130.442l-36.3331 -78.9568c47.7886,-38.5713 88.8296,-83.3516 122.693,-132.878l81.665 30.2729c24.6815,9.03898 51.3591,8.0504 75.352,-3.02008 23.6504,-11.0173 41.8831,-30.6992 50.9244,-55.2449l38.1969 -103.313c18.776,-50.7981 -7.35237,-107.479 -58.1493,-126.297z"/>
  <g id="_415201352">
   <rect id="_415221512" class="fil2" width="2048" height="2048"/>
   <rect id="_415219424" class="fil2" x="255.999" y="255.999" width="1536" height="1536"/>
  </g>
 </g>
</svg>
