<?xml version="1.0" encoding="UTF-8"?>
<!DOCTYPE svg PUBLIC "-//W3C//DTD SVG 1.1//EN" "http://www.w3.org/Graphics/SVG/1.1/DTD/svg11.dtd">
<!-- Creator: CorelDRAW -->
<svg xmlns="http://www.w3.org/2000/svg" xml:space="preserve" width="2048px" height="2048px" style="shape-rendering:geometricPrecision; text-rendering:geometricPrecision; image-rendering:optimizeQuality; fill-rule:evenodd; clip-rule:evenodd"
viewBox="0 0 2048 2048"
 xmlns:xlink="http://www.w3.org/1999/xlink">
 <defs>
  <style type="text/css">
   <![CDATA[
    .fil0 {fill:none}
    .fil1 {fill:#919191}
    .fil2 {fill:#B6B6B6}
   ]]>
  </style>
 </defs>
 <g id="Layer_x0020_1">
  <metadata id="CorelCorpID_0Corel-Layer"/>
  <g id="_415209320">
   <rect id="_415200440" class="fil0" width="2048" height="2048"/>
   <rect id="_415207112" class="fil0" x="255.999" y="255.999" width="1536" height="1536"/>
  </g>
  <path class="fil1" d="M425.332 533.832c15.1299,-18.2622 31.1079,-35.8217 47.8831,-52.5981 39.854,-39.8528 84.0745,-75.1465 131.638,-105.308l-0.372048 -0.633071 27.9118 -16.115c176.578,-101.948 386.25,-129.605 583.186,-76.8367 197.524,52.9264 364.385,181.088 466.635,358.196 50.4355,87.3579 83.2146,183.891 96.3816,283.899 13.1362,99.7713 6.50197,201.949 -19.5461,299.16l-8.27717 30.8882 -123.58 -33.0213 8.2878 -30.9307c21.724,-81.0721 27.3685,-166.273 16.4138,-249.493 -10.9795,-83.3977 -38.2937,-163.903 -80.354,-236.755 -85.2568,-147.667 -224.372,-254.256 -389.025,-298.375 -164.186,-43.9937 -338.89,-21.0626 -486.121,63.9414l-7.4256 4.2874 -0.011811 0c-45.6178,27.1654 -87.6863,60.0497 -125.236,97.6005 -14.8595,14.8595 -28.9961,30.4323 -42.3378,46.6571l143.632 -5.8878 5.0067 127.702 -322.553 13.2213 -12.4429 -50.8902 -67.3678 -275.567 124.205 -30.0496 33.4701 136.906z"/>
  <path class="fil2" d="M1622.67 1514.19c-15.1358,18.2528 -31.1173,35.8028 -47.8902,52.5756 -47.4555,47.4544 -101.06,88.5012 -159.176,122.055 -176.578,101.948 -386.249,129.605 -583.185,76.8367 -197.489,-52.917 -364.393,-180.979 -466.635,-358.07 -50.4567,-87.3934 -83.2123,-183.98 -96.3828,-284.025 -13.135,-99.7725 -6.50079,-201.949 19.5461,-299.162l8.27599 -30.8882 123.581 33.0213 -8.2878 30.9307c-21.7229,81.0721 -27.3685,166.275 -16.4138,249.494 10.9736,83.3599 38.3162,163.815 80.3552,236.629 85.2638,147.682 224.334,254.372 389.025,298.5 164.186,43.9937 338.889,21.0614 486.121,-63.9414 48.4725,-27.9862 93.0993,-62.3138 132.671,-101.887 14.8571,-14.8559 28.9807,-30.4299 42.3095,-46.6571l-143.601 5.88662 -5.0067 -127.702 322.553 -13.2225 12.4429 50.8902 67.3666 275.567 -124.205 30.0496 -33.4642 -136.882z"/>
 </g>
</svg>
