<?xml version="1.0" encoding="UTF-8"?>
<!DOCTYPE svg PUBLIC "-//W3C//DTD SVG 1.1//EN" "http://www.w3.org/Graphics/SVG/1.1/DTD/svg11.dtd">
<!-- Creator: CorelDRAW -->
<svg xmlns="http://www.w3.org/2000/svg" xml:space="preserve" width="2048px" height="2048px" style="shape-rendering:geometricPrecision; text-rendering:geometricPrecision; image-rendering:optimizeQuality; fill-rule:evenodd; clip-rule:evenodd"
viewBox="0 0 2048 2048"
 xmlns:xlink="http://www.w3.org/1999/xlink">
 <defs>
  <style type="text/css">
   <![CDATA[
    .fil0 {fill:none}
    .fil2 {fill:#6A6A6A}
    .fil1 {fill:#AAAAAA}
    .fil3 {fill:#727272;fill-rule:nonzero}
   ]]>
  </style>
 </defs>
 <g id="Layer_x0020_1">
  <metadata id="CorelCorpID_0Corel-Layer"/>
  <rect class="fil0" width="2048" height="2048"/>
  <rect class="fil0" x="255.999" y="255.999" width="1536" height="1536"/>
  <path class="fil1" d="M1615.61 1510.64c-14.7473,17.7213 -30.3,34.7693 -46.6075,51.078 -47.0079,47.0079 -100.109,87.6686 -157.678,120.906 -174.915,100.988 -382.614,128.385 -577.697,76.1138 -195.63,-52.4185 -360.963,-179.276 -462.242,-354.699 -100.988,-174.915 -128.385,-382.614 -76.1127,-577.697 52.4185,-195.63 179.276,-360.963 354.699,-462.242 174.915,-100.988 382.614,-128.385 577.697,-76.1127 195.664,52.428 360.953,179.386 462.241,354.825 33.2362,57.5658 58.9087,119.319 76.1138,183.529 17.2075,64.2189 25.852,130.543 25.8532,197.022l0 31.9996 -127.75 0 0 -31.9996c0,-55.3406 -7.35001,-110.51 -21.6721,-163.958 -14.3232,-53.4544 -35.5465,-104.911 -63.2186,-152.844 -84.293,-146.001 -221.837,-251.384 -384.631,-295.004 -162.332,-43.4977 -335.064,-20.8264 -480.633,63.2174 -146.013,84.3012 -251.499,221.802 -295.129,384.632 -43.4977,162.332 -20.8264,335.064 63.2174,480.633 84.3012,146.013 221.802,251.499 384.632,295.129 162.332,43.4965 335.064,20.8252 480.633,-63.2186 47.9256,-27.6709 92.0469,-61.6111 131.172,-100.737 14.3433,-14.3421 27.9945,-29.361 40.8981,-44.9965l-140.988 5.77914 -5.0067 -127.702 320.106 -13.1221 12.4429 50.8902 66.7536 273.057 -124.205 30.0496 -32.8878 -134.528z"/>
  <path class="fil2" d="M828.236 832l423.531 0c33.1299,0 60.2351,27.104 60.2351,60.2351l0 391.529c0,33.1311 -27.1051,60.2363 -60.2351,60.2363l-423.531 0c-33.1299,0 -60.2351,-27.1051 -60.2351,-60.2363l0 -391.529c0,-33.1311 27.1051,-60.2351 60.2351,-60.2351zm243.766 159.999c0,-17.6728 -14.328,-32.0008 -32.0008,-32.0008 -17.6728,0 -32.0008,14.328 -32.0008,32.0008l0 192c0,17.6728 14.328,32.0008 32.0008,32.0008 17.6728,0 32.0008,-14.328 32.0008,-32.0008l0 -192z"/>
  <path class="fil3" d="M863.999 832l0 -149.334c0,-28.3382 10.1705,-54.3733 26.55,-73.4835 17.5488,-20.4732 42.1134,-33.1831 69.4512,-33.1831l160.001 0c27.3366,0 51.9012,12.7099 69.4501,33.1843 16.3795,19.1103 26.55,45.1429 26.55,73.4823l0 149.334 -64.0016 0 0 -149.334c0,-12.7276 -4.23307,-24.0307 -11.0492,-31.9831 -5.64804,-6.58938 -13.0878,-10.6819 -20.9492,-10.6819l-160.001 0c-7.8626,0 -15.3024,4.09252 -20.9504,10.6807 -6.81615,7.95237 -11.0492,19.2567 -11.0492,31.9843l0 149.334 -64.0016 0z"/>
 </g>
</svg>
