<?xml version="1.0" encoding="UTF-8"?>
<!DOCTYPE svg PUBLIC "-//W3C//DTD SVG 1.1//EN" "http://www.w3.org/Graphics/SVG/1.1/DTD/svg11.dtd">
<!-- Creator: CorelDRAW -->
<svg xmlns="http://www.w3.org/2000/svg" xml:space="preserve" width="2048px" height="2048px" style="shape-rendering:geometricPrecision; text-rendering:geometricPrecision; image-rendering:optimizeQuality; fill-rule:evenodd; clip-rule:evenodd"
viewBox="0 0 2048 2048"
 xmlns:xlink="http://www.w3.org/1999/xlink">
 <defs>
  <style type="text/css">
   <![CDATA[
    .fil0 {fill:none}
    .fil2 {fill:#868686}
    .fil1 {fill:#C7C7C7}
   ]]>
  </style>
 </defs>
 <g id="Layer_x0020_1">
  <metadata id="CorelCorpID_0Corel-Layer"/>
  <g id="_415225112">
   <rect id="_415212344" class="fil0" width="2048" height="2048"/>
   <rect id="_415215416" class="fil0" x="255.999" y="255.999" width="1536" height="1536"/>
  </g>
  <path class="fil1" d="M1453.92 1544.43l-135.764 -135.764c-24.9839,-24.9839 -24.9839,-65.5217 0,-90.5056 24.9839,-24.9839 65.5217,-24.9839 90.5056,0l135.764 135.764c24.9839,24.9839 24.9839,65.5217 0,90.5056 -24.9839,24.9839 -65.5217,24.9839 -90.5056,0z"/>
  <path class="fil2" d="M544 1088l-192 0c-35.3351,0 -64.0004,-28.6654 -64.0004,-64.0004 0,-35.3351 28.6654,-64.0004 64.0004,-64.0004l192 0c35.3351,0 64.0004,28.6654 64.0004,64.0004 0,35.3351 -28.6654,64.0004 -64.0004,64.0004z"/>
  <path class="fil2" d="M1696 1088l-192 0c-35.3351,0 -64.0004,-28.6654 -64.0004,-64.0004 0,-35.3351 28.6654,-64.0004 64.0004,-64.0004l192 0c35.3351,0 64.0004,28.6654 64.0004,64.0004 0,35.3351 -28.6654,64.0004 -64.0004,64.0004z"/>
  <path class="fil1" d="M729.842 1408.66l-135.764 135.764c-24.9839,24.9839 -65.5217,24.9839 -90.5056,0 -24.9839,-24.9839 -24.9839,-65.5217 0,-90.5056l135.764 -135.764c24.9839,-24.9839 65.5217,-24.9839 90.5056,0 24.9839,24.9839 24.9839,65.5217 0,90.5056z"/>
  <path class="fil1" d="M1544.43 594.077l-135.764 135.764c-24.9839,24.9839 -65.5217,24.9839 -90.5056,0 -24.9839,-24.9839 -24.9839,-65.5217 0,-90.5056l135.764 -135.764c24.9839,-24.9839 65.5217,-24.9839 90.5056,0 24.9839,24.9839 24.9839,65.5217 0,90.5056z"/>
  <path class="fil2" d="M1088 1504l0 192c0,35.3351 -28.6654,64.0004 -64.0004,64.0004 -35.3351,0 -64.0004,-28.6654 -64.0004,-64.0004l0 -192c0,-35.3351 28.6654,-64.0004 64.0004,-64.0004 35.3351,0 64.0004,28.6654 64.0004,64.0004z"/>
  <path class="fil2" d="M1088 351.999l0 192c0,35.3351 -28.6654,64.0004 -64.0004,64.0004 -35.3351,0 -64.0004,-28.6654 -64.0004,-64.0004l0 -192c0,-35.3351 28.6654,-64.0004 64.0004,-64.0004 35.3351,0 64.0004,28.6654 64.0004,64.0004z"/>
  <path class="fil1" d="M639.336 729.842l-135.764 -135.764c-24.9839,-24.9839 -24.9839,-65.5217 0,-90.5056 24.9839,-24.9839 65.5217,-24.9839 90.5056,0l135.764 135.764c24.9839,24.9839 24.9839,65.5217 0,90.5056 -24.9839,24.9839 -65.5217,24.9839 -90.5056,0z"/>
 </g>
</svg>
