<?xml version="1.0" encoding="UTF-8"?>
<!DOCTYPE svg PUBLIC "-//W3C//DTD SVG 1.1//EN" "http://www.w3.org/Graphics/SVG/1.1/DTD/svg11.dtd">
<!-- Creator: CorelDRAW -->
<svg xmlns="http://www.w3.org/2000/svg" xml:space="preserve" width="2048px" height="2048px" style="shape-rendering:geometricPrecision; text-rendering:geometricPrecision; image-rendering:optimizeQuality; fill-rule:evenodd; clip-rule:evenodd"
viewBox="0 0 2048 2048"
 xmlns:xlink="http://www.w3.org/1999/xlink">
 <defs>
  <style type="text/css">
   <![CDATA[
    .fil0 {fill:none}
    .fil1 {fill:#414141}
    .fil3 {fill:#7E7E7E}
    .fil2 {fill:#939393}
   ]]>
  </style>
 </defs>
 <g id="Layer_x0020_1">
  <metadata id="CorelCorpID_0Corel-Layer"/>
  <g id="_415198712">
   <rect id="_415204616" class="fil0" width="2048" height="2048"/>
   <rect id="_415194896" class="fil0" x="255.999" y="255.999" width="1536" height="1536"/>
  </g>
  <path class="fil1" d="M640 383.998l544.001 0c102.083,0 199.127,40.6229 271.252,112.748 72.1241,72.1253 112.748,169.169 112.748,271.252l0 64.0016c0,102.083 -40.624,199.127 -112.748,271.252 -72.1253,72.1241 -169.169,112.748 -271.252,112.748l-544.001 0c-102.083,0 -199.127,-40.624 -271.252,-112.748 -72.1253,-72.1253 -112.748,-169.169 -112.748,-271.252l0 -64.0016c0,-102.083 40.6217,-199.128 112.747,-271.253 72.1253,-72.1253 169.171,-112.747 271.253,-112.747zm544.001 128.001l-544.001 0c-68.0871,0 -132.657,27.1595 -180.748,75.2516 -48.0922,48.091 -75.2516,112.661 -75.2516,180.748l0 64.0016c0,68.0871 27.1607,132.656 75.2528,180.747 48.091,48.091 112.66,75.2528 180.747,75.2528l544.001 0c68.0882,0 132.656,-27.1607 180.747,-75.2528 48.0922,-48.091 75.2528,-112.658 75.2528,-180.747l0 -64.0016c0,-68.0871 -27.1618,-132.656 -75.2528,-180.747 -48.091,-48.0922 -112.66,-75.2528 -180.747,-75.2528z"/>
  <path class="fil2" d="M640 383.998l544.001 0c102.083,0 199.127,40.6229 271.252,112.748 72.1241,72.1253 112.748,169.169 112.748,271.252l0 64.0016c0,102.083 -40.624,199.127 -112.748,271.252 -72.1253,72.1241 -169.169,112.748 -271.252,112.748l-544.001 0c-102.083,0 -199.127,-40.624 -271.252,-112.748 -72.1253,-72.1253 -112.748,-169.169 -112.748,-271.252l0 -64.0016c0,-102.083 40.6217,-199.128 112.747,-271.253 72.1253,-72.1253 169.171,-112.747 271.253,-112.747zm544.001 128.001l-544.001 0c-68.0871,0 -132.657,27.1595 -180.748,75.2516 -48.0922,48.091 -75.2516,112.661 -75.2516,180.748l0 64.0016c0,68.0871 27.1607,132.656 75.2528,180.747 48.091,48.091 112.66,75.2528 180.747,75.2528l544.001 0c68.0882,0 132.656,-27.1607 180.747,-75.2528 48.0922,-48.091 75.2528,-112.658 75.2528,-180.747l0 -64.0016c0,-68.0871 -27.1618,-132.656 -75.2528,-180.747 -48.091,-48.0922 -112.66,-75.2528 -180.747,-75.2528z"/>
  <path class="fil3" d="M992 831.997l416 0 0 0.00236221c0,46.3276 -14.3776,90.743 -40.5544,127.999l-375.446 0c-68.0871,0 -132.657,27.1595 -180.748,75.2516 -6.61536,6.61536 -12.8327,13.5449 -18.6402,20.7496l-149.522 0c18.887,-40.9524 45.052,-78.6508 77.6564,-111.255 72.1253,-72.1253 169.171,-112.747 271.253,-112.747zm607.965 5.38229c78.0886,13.2354 150.431,50.5087 207.288,107.366 72.1241,72.1253 112.748,169.169 112.748,271.252l0 64.0016c0,102.083 -40.624,199.127 -112.748,271.252 -72.1253,72.1241 -169.169,112.748 -271.252,112.748l-544.001 0c-102.083,0 -199.127,-40.624 -271.252,-112.748 -72.1253,-72.1253 -112.748,-169.169 -112.748,-271.252l0 -33.2374c10.6028,0.819686 21.2764,1.2378 31.9996,1.2378l96.0013 0 0 31.9996c0,68.0871 27.1607,132.656 75.2528,180.747 48.091,48.091 112.66,75.2528 180.747,75.2528l544.001 0c68.0882,0 132.656,-27.1607 180.747,-75.2528 48.0922,-48.091 75.2528,-112.658 75.2528,-180.747l0 -64.0016c0,-68.0871 -27.1618,-132.656 -75.2528,-180.747 -37.9311,-37.9323 -86.1154,-62.8382 -138.19,-71.6705 13.5095,-40.3063 20.8465,-82.8119 21.4075,-126.201z"/>
 </g>
</svg>
