<?xml version="1.0" encoding="UTF-8"?>
<!DOCTYPE svg PUBLIC "-//W3C//DTD SVG 1.1//EN" "http://www.w3.org/Graphics/SVG/1.1/DTD/svg11.dtd">
<!-- Creator: CorelDRAW -->
<svg xmlns="http://www.w3.org/2000/svg" xml:space="preserve" width="2048px" height="2048px" style="shape-rendering:geometricPrecision; text-rendering:geometricPrecision; image-rendering:optimizeQuality; fill-rule:evenodd; clip-rule:evenodd"
viewBox="0 0 2048 2048"
 xmlns:xlink="http://www.w3.org/1999/xlink">
 <defs>
  <style type="text/css">
   <![CDATA[
    .fil0 {fill:none}
    .fil1 {fill:gray}
    .fil2 {fill:#AAAAAA}
    .fil3 {fill:#B6B6B6}
    .fil4 {fill:#C9C9C9}
   ]]>
  </style>
 </defs>
 <g id="Layer_x0020_1">
  <metadata id="CorelCorpID_0Corel-Layer"/>
  <g id="_415213904">
   <rect id="_415224680" class="fil0" width="2048" height="2048"/>
   <rect id="_415208816" class="fil0" x="255.999" y="255.999" width="1536" height="1536"/>
  </g>
  <path class="fil1" d="M859.648 1529.2c0,46.4492 15.8858,85.0016 47.6422,116.757 32.863,32.8559 72.5233,48.7571 119.019,49.8733 46.5024,-1.11614 85.0158,-17.0173 116.771,-49.8733 32.8949,-31.7551 48.75,-70.3075 48.75,-116.757 0,-46.5012 -15.8551,-86.1686 -48.75,-119.033 -10.213,-10.2142 -20.3953,-18.1571 -30.6095,-23.8051 -26.0599,-14.7473 -54.4063,-22.6512 -86.1615,-22.6512 -44.1863,-1.18465 -82.7386,13.591 -114.486,43.0465 -2.27008,1.14685 -3.37914,2.26181 -4.53307,3.40985 -31.7563,32.8642 -47.6575,72.5316 -47.6575,119.033l0.0153543 0z"/>
  <path class="fil2" d="M1293.66 1189.55c-19.6571,-17.6079 -40.7256,-33.5823 -63.1477,-47.5087 -21.2646,-13.2083 -43.6559,-24.4949 -67.0205,-33.4949 -23.3185,-8.98111 -47.4154,-15.7146 -72.006,-20.1603 -25.6075,-4.62992 -51.639,-6.67087 -77.6493,-6.67087 -51.3473,0 -101.966,8.11182 -150.036,26.4355 -47.3646,18.0555 -89.8371,45.0024 -127.364,78.9886 -26.1012,23.6374 -66.5882,21.6095 -90.2103,-4.5 -23.6173,-26.1024 -21.5906,-66.5611 4.49764,-90.189 49.3217,-44.667 105.279,-80.1213 167.531,-103.851 62.6764,-23.8914 128.593,-34.8851 195.581,-34.8851 33.6331,0 67.1894,2.95984 100.287,8.94331 32.563,5.8878 64.4906,14.7732 95.3717,26.6681 30.8433,11.8795 60.4595,26.661 88.5355,44.0989 28.7173,17.837 55.6571,38.4071 80.83,60.9544 26.2217,23.4862 28.4717,63.9367 4.99725,90.1725 -23.4815,26.2441 -63.9638,28.4965 -90.1985,4.99843z"/>
  <path class="fil3" d="M1465.99 954.93c-128.733,-115.154 -294.659,-177.467 -467.154,-178.075 -172.852,-0.61063 -340.181,60.8705 -470.333,174.931 -26.4225,23.1543 -67.043,20.4414 -90.1737,-5.9941 -23.1213,-26.4248 -20.4106,-67.0004 5.99174,-90.1383 153.506,-134.526 350.828,-207.268 554.742,-206.549 203.86,0.719292 399.972,74.5489 552.096,210.626 26.2441,23.4756 28.4906,63.9461 5.0126,90.1867 -23.478,26.2394 -63.9402,28.4858 -90.182,5.0126z"/>
  <path class="fil4" d="M319.063 550.179c195.428,-171.07 446.582,-262.744 705.95,-261.875 259.38,0.868111 509.839,94.2816 704.197,266.574 26.341,23.3504 28.8189,63.7843 5.48741,90.1513 -23.3421,26.3788 -63.828,28.8603 -90.1914,5.48977 -171.045,-151.625 -391.46,-233.701 -619.708,-234.464 -228.316,-0.764174 -449.51,79.6571 -621.582,230.281 -26.4284,23.1343 -67.0323,20.4248 -90.1595,-6.00591 -23.1248,-26.4295 -20.4166,-67.0205 6.00591,-90.1501z"/>
 </g>
</svg>
