<?xml version="1.0" encoding="UTF-8"?>
<!DOCTYPE svg PUBLIC "-//W3C//DTD SVG 1.1//EN" "http://www.w3.org/Graphics/SVG/1.1/DTD/svg11.dtd">
<!-- Creator: CorelDRAW -->
<svg xmlns="http://www.w3.org/2000/svg" xml:space="preserve" width="2048px" height="2048px" style="shape-rendering:geometricPrecision; text-rendering:geometricPrecision; image-rendering:optimizeQuality; fill-rule:evenodd; clip-rule:evenodd"
viewBox="0 0 2048 2048"
 xmlns:xlink="http://www.w3.org/1999/xlink">
 <defs>
  <style type="text/css">
   <![CDATA[
    .fil2 {fill:none}
    .fil1 {fill:#707070}
    .fil0 {fill:#8A8A8A}
    .fil3 {fill:#ECECEC}
   ]]>
  </style>
 </defs>
 <g id="Layer_x0020_1">
  <metadata id="CorelCorpID_0Corel-Layer"/>
  <polygon class="fil0" points="1024,255.999 1025.14,255.999 1755.43,255.999 1792,255.999 1792,292.571 1792,1755.43 1792,1792 1755.43,1792 1024.09,1792 1024,1792 "/>
  <polygon class="fil1" points="292.572,255.999 1024,255.999 1024,1792 292.572,1792 256.001,1792 256.001,1755.43 256.001,292.571 256.001,255.999 "/>
  <g id="_415215776">
   <rect id="_415202648" class="fil2" width="2048" height="2048"/>
   <rect id="_415193816" class="fil2" x="255.999" y="255.999" width="1536" height="1536"/>
  </g>
  <polygon class="fil3" points="709.818,552.726 1373.09,552.726 1373.09,622.547 744.728,622.547 744.728,971.638 1128.73,971.638 1128.73,1041.46 744.728,1041.46 744.728,1425.45 1373.09,1425.45 1373.09,1495.27 709.818,1495.27 709.818,1495.27 674.908,1495.27 674.908,552.728 709.818,552.728 "/>
 </g>
</svg>
