<?xml version="1.0" encoding="UTF-8"?>
<!DOCTYPE svg PUBLIC "-//W3C//DTD SVG 1.1//EN" "http://www.w3.org/Graphics/SVG/1.1/DTD/svg11.dtd">
<!-- Creator: CorelDRAW -->
<svg xmlns="http://www.w3.org/2000/svg" xml:space="preserve" width="2048px" height="2048px" style="shape-rendering:geometricPrecision; text-rendering:geometricPrecision; image-rendering:optimizeQuality; fill-rule:evenodd; clip-rule:evenodd"
viewBox="0 0 2048 2048"
 xmlns:xlink="http://www.w3.org/1999/xlink">
 <defs>
  <style type="text/css">
   <![CDATA[
    .fil2 {fill:none}
    .fil0 {fill:gray}
    .fil1 {fill:#919191}
    .fil3 {fill:#ECECEC}
   ]]>
  </style>
 </defs>
 <g id="Layer_x0020_1">
  <metadata id="CorelCorpID_0Corel-Layer"/>
  <polygon class="fil0" points="1024,255.999 1025.1,255.999 1792,255.999 1792,1792 1024.11,1792 1024,1792 "/>
  <polygon class="fil1" points="256.002,255.999 1024,255.999 1024,1792 256.002,1792 "/>
  <g id="_415208720">
   <rect id="_415205936" class="fil2" width="2048" height="2048"/>
   <rect id="_415202192" class="fil2" x="255.999" y="255.999" width="1536" height="1536"/>
  </g>
  <path class="fil3" d="M1550.47 1020.43l-233.685 0 0 52.0441 171.436 0 0 266.341c-13.0949,7.31221 -32.1437,13.6051 -57.1453,18.7075 -24.8303,4.93229 -56.1248,7.65355 -93.8812,7.82363 -48.6426,0 -92.5229,-7.82363 -131.47,-23.1295 -39.1181,-15.3071 -72.6237,-37.7575 -100.517,-67.3512 -27.7217,-29.4236 -49.1516,-65.4792 -63.9485,-107.999 -14.7969,-42.5197 -22.2803,-90.991 -22.4504,-145.416 0.170079,-52.8945 7.82363,-100.515 23.1307,-142.525 15.137,-42.1796 37.2473,-77.8949 65.8193,-107.659 28.7433,-29.5937 63.4394,-52.3843 103.918,-68.0304 40.4776,-15.6473 86.0587,-23.4709 136.742,-23.641 36.0555,0.170079 67.3489,3.40158 93.7111,9.35434 26.5323,6.12284 49.3217,13.9465 68.5406,23.2996l18.3685 -52.043c-12.7559,-6.29292 -28.2331,-11.9055 -46.4304,-16.8378 -18.3685,-5.10237 -38.6079,-9.18426 -60.8882,-12.2457 -22.1091,-3.06142 -45.58,-4.59213 -70.2402,-4.59213 -50.6835,0.170079 -96.7749,6.80315 -138.613,19.8992 -41.6693,13.0961 -78.5764,31.8047 -110.721,55.9559 -32.3138,23.9799 -59.3563,52.5532 -81.4666,85.7186 -22.1103,32.9953 -38.778,69.5611 -50.002,109.7 -11.3953,40.1386 -17.178,82.6572 -17.178,127.728 -0.170079,39.2882 4.08189,77.7249 12.5858,115.652 8.50276,37.7575 21.939,73.304 40.3075,106.468 18.3685,33.1654 42.1796,62.589 71.6032,87.9308 29.4225,25.3406 64.9689,45.4099 106.638,59.6965 41.8394,14.4567 90.1406,21.7701 145.416,22.1103 33.8445,-0.170079 64.9689,-2.55118 93.3709,-6.97323 28.5733,-4.42205 53.5748,-9.6945 75.1737,-15.9874 21.6,-6.29292 38.778,-12.2457 51.8741,-17.8583l0 -356.142zm-793.739 -26.5323c29.7626,-10.715 55.1044,-25.3418 76.0241,-43.7091 20.9197,-18.3685 36.9071,-39.2882 47.9622,-62.9292 11.2252,-23.641 16.6665,-48.6426 16.8366,-75.0036 0,-22.2803 -3.57048,-43.7103 -10.8839,-64.8 -7.48347,-20.9197 -18.8788,-39.9685 -34.526,-56.9752 -15.6473,-16.8378 -35.7166,-30.4441 -60.5481,-40.4788 -24.6603,-9.86457 -54.254,-15.137 -88.9501,-15.3071 -23.641,0.170079 -46.4315,3.06142 -68.5406,8.67402 -22.1103,5.6126 -42.1796,12.926 -60.5481,21.7701 -18.1984,8.67402 -33.3355,18.0284 -45.4099,27.7229l22.4492 45.9201c10.3748,-7.82363 22.9606,-15.6473 37.7575,-23.4709 14.7969,-7.99253 30.9544,-14.6256 48.8126,-20.0681 17.687,-5.44252 36.0555,-8.33386 55.2745,-8.50394 25.0016,0.170079 46.2615,3.74174 64.1197,10.885 17.687,7.31339 32.1437,17.0067 43.3689,29.5925 11.0551,12.4158 19.389,26.5323 24.4914,42.5197 5.27244,15.9874 7.82363,32.9953 7.82363,50.6835 -0.170079,20.5784 -3.91181,39.117 -11.0551,55.4445 -7.31339,16.4977 -17.178,30.7843 -29.5937,43.03 -12.4158,12.0756 -26.361,22.2803 -42.0083,30.4441 -15.6473,7.99371 -31.8047,14.1154 -48.6426,18.1973 -16.8378,3.91181 -33.1654,5.95276 -49.3229,5.95276l-48.9815 0 0 47.9622 47.9611 0c26.8725,0 52.7244,3.40158 77.726,10.2047 25.1717,6.80315 47.6209,17.348 67.6902,31.6347 20.0693,14.2866 36.0567,32.4839 47.7922,54.5941 11.7354,22.1103 17.8583,48.4725 18.0284,79.0867 0.170079,14.2866 -1.70079,29.2524 -5.27244,44.8996 -3.57166,15.8173 -9.52442,31.1244 -17.8583,46.2615 -8.33386,14.9669 -19.5591,28.5733 -33.6756,40.8189 -14.1165,12.2457 -31.6347,22.1091 -52.5532,29.2524 -20.7496,7.31339 -45.5811,11.0551 -74.3245,11.2252 -23.3008,-0.170079 -45.2398,-2.89134 -65.6493,-8.16379 -20.5795,-5.10237 -38.6079,-11.2252 -54.4252,-18.3673 -15.6473,-7.31339 -28.063,-14.1165 -37.076,-20.4095l-23.4697 48.9815c11.3953,8.33386 26.0209,16.3276 44.0481,23.811 17.8583,7.65355 38.0977,13.7764 60.7182,18.7087 22.4504,4.76221 46.4304,7.31339 71.7721,7.48347 42.8599,-0.340158 80.1071,-6.63308 111.741,-18.8788 31.6347,-12.2457 57.8268,-29.0835 78.5764,-50.3433 20.7496,-21.0886 36.2256,-45.0697 46.4304,-71.9422 10.2047,-26.8725 15.3071,-54.9355 15.3071,-84.3579 -0.170079,-27.8929 -4.76221,-53.2347 -13.6063,-76.0253 -8.8441,-22.7906 -21.0886,-42.8587 -36.5658,-60.0367 -15.6473,-17.0079 -33.6756,-31.1244 -53.915,-41.8394 -20.4095,-10.885 -42.1796,-18.1984 -65.3091,-22.1103l0 -2.04095z"/>
 </g>
</svg>
