<?xml version="1.0" encoding="UTF-8"?>
<!DOCTYPE svg PUBLIC "-//W3C//DTD SVG 1.1//EN" "http://www.w3.org/Graphics/SVG/1.1/DTD/svg11.dtd">
<!-- Creator: CorelDRAW -->
<svg xmlns="http://www.w3.org/2000/svg" xml:space="preserve" width="2048px" height="2048px" style="shape-rendering:geometricPrecision; text-rendering:geometricPrecision; image-rendering:optimizeQuality; fill-rule:evenodd; clip-rule:evenodd"
viewBox="0 0 2048 2048"
 xmlns:xlink="http://www.w3.org/1999/xlink">
 <defs>
  <style type="text/css">
   <![CDATA[
    .fil0 {fill:none}
    .fil2 {fill:#AEAEAF}
    .fil1 {fill:#C9C9C9}
   ]]>
  </style>
 </defs>
 <g id="Layer_x0020_1">
  <metadata id="CorelCorpID_0Corel-Layer"/>
  <g id="_415209920">
   <rect id="_415211240" class="fil0" width="2048" height="2048"/>
   <rect id="_415222856" class="fil0" x="255.999" y="255.999" width="1536" height="1536"/>
  </g>
  <path class="fil1" d="M1791.93 1024l0.00236221 -0.298819c1.98543,-62.856 -48.4276,-125.613 -157.682,-125.613l-393.74 0c-23.0977,0 -39.8977,-9.20788 -50.4048,-27.6402l-349.634 -574.289c-12.6095,-18.4228 -29.4,-27.6307 -50.4024,-27.6307l-113.391 0c-8.40119,0 -14.7142,3.07796 -18.9047,9.20788 -4.20118,6.14528 -5.24528,13.3122 -3.15827,21.4996l188.997 568.144c4.21772,8.1815 3.68622,15.3543 -1.56496,21.5008 -5.2441,6.13111 -12.0803,9.20788 -20.4721,9.20788l-305.551 0c-23.1059,0 -40.95,-8.19095 -53.543,-24.5622l-56.7095 -76.78c-21.5114,-27.9981 -165.477,-49.3973 -151.193,6.12993l56.7 190.415c3.04843,9.8941 4.62166,19.7882 4.72323,29.6835l0.00472441 1.0252 1475.92 0z"/>
  <path class="fil2" d="M654.619 1748.76c-2.08701,8.1815 -1.04291,15.3555 3.15827,21.4843 4.19055,6.14764 10.5036,9.2256 18.9047,9.2256l113.391 0c21.0024,0 37.7929,-9.2256 50.4024,-27.6567l349.634 -574.264c10.5071,-18.4323 27.3166,-27.639 50.4048,-27.639l393.74 0c100.812,0 155.525,-62.9563 157.68,-125.913l-1475.92 0c0,10.2331 -1.57677,20.4685 -4.72796,30.7087l-56.7 190.39c-14.2465,55.5496 129.695,34.1055 151.193,6.15591l56.7095 -76.7812c12.6012,-16.3725 30.437,-24.561 53.543,-24.561l305.551 0c10.5047,0 17.8536,3.06024 22.037,9.2067 4.21772,6.14764 4.21772,13.3028 0,21.5008l-188.997 568.143z"/>
 </g>
</svg>
