<?xml version="1.0" encoding="UTF-8"?>
<!DOCTYPE svg PUBLIC "-//W3C//DTD SVG 1.1//EN" "http://www.w3.org/Graphics/SVG/1.1/DTD/svg11.dtd">
<!-- Creator: CorelDRAW -->
<svg xmlns="http://www.w3.org/2000/svg" xml:space="preserve" width="2048px" height="2048px" style="shape-rendering:geometricPrecision; text-rendering:geometricPrecision; image-rendering:optimizeQuality; fill-rule:evenodd; clip-rule:evenodd"
viewBox="0 0 2048 2048"
 xmlns:xlink="http://www.w3.org/1999/xlink">
 <defs>
  <style type="text/css">
   <![CDATA[
    .fil0 {fill:none}
    .fil1 {fill:#727272}
    .fil2 {fill:#414141;fill-rule:nonzero}
    .fil3 {fill:#C7C7C7;fill-rule:nonzero}
    .fil4 {fill:#D7D7D7;fill-rule:nonzero}
   ]]>
  </style>
 </defs>
 <g id="Layer_x0020_1">
  <metadata id="CorelCorpID_0Corel-Layer"/>
  <g id="_415197008">
   <rect id="_415217768" class="fil0" width="2048" height="2048"/>
   <rect id="_415213496" class="fil0" x="255.999" y="255.999" width="1536" height="1536"/>
  </g>
  <circle class="fil1" cx="1437.83" cy="444.397" r="172.375"/>
  <circle class="fil1" cx="586.055" cy="444.397" r="172.375"/>
  <path class="fil2" d="M734.385 1512.18c9.43229,-16.826 3.43701,-38.1142 -13.3902,-47.5465 -16.826,-9.43111 -38.1142,-3.43583 -47.5465,13.3902l-138.01 245.939c-9.43111,16.8272 -3.43583,38.1154 13.3902,47.5465 16.8272,9.43229 38.1154,3.43701 47.5465,-13.3902l138.01 -245.939z"/>
  <path class="fil2" d="M1363.15 1476.4c-11.2429,-15.6201 -33.0213,-19.1669 -48.6402,-7.9252 -15.6201,11.2417 -19.1681,33.0201 -7.9252,48.6402l175.414 244.289c11.2417,15.6189 33.0201,19.1669 48.639,7.9252 15.6201,-11.2417 19.1681,-33.0213 7.92638,-48.6402l-175.414 -244.289z"/>
  <path class="fil3" d="M1024 1603.64c-173.85,0 -331.247,-70.4717 -445.18,-184.404 -113.933,-113.932 -184.404,-271.329 -184.404,-445.18 0,-173.85 70.4717,-331.246 184.404,-445.179 113.933,-113.933 271.33,-184.404 445.18,-184.404l0 1259.17z"/>
  <path class="fil4" d="M1024 344.476l1.06536 0.00708662c173.427,0.287008 330.415,70.6973 444.115,184.397 113.933,113.933 184.404,271.329 184.404,445.179 0,173.851 -70.4717,331.249 -184.404,445.18 -113.907,113.907 -271.26,184.371 -445.065,184.403l-0.115748 0.0011811 0 -1259.17z"/>
  <path class="fil2" d="M1058.98 554.338c0,-19.3169 -15.6602,-34.9772 -34.9772,-34.9772 -19.3169,0 -34.9772,15.6602 -34.9772,34.9772l0 454.699c0,9.76891 4.00512,18.5988 10.4634,24.9449l244.622 244.622c13.6571,13.6571 35.8016,13.6571 49.4587,0 13.6583,-13.6571 13.6583,-35.8028 0,-49.4599l-234.59 -234.59 0 -440.216z"/>
 </g>
</svg>
