<?xml version="1.0" encoding="UTF-8"?>
<!DOCTYPE svg PUBLIC "-//W3C//DTD SVG 1.1//EN" "http://www.w3.org/Graphics/SVG/1.1/DTD/svg11.dtd">
<!-- Creator: CorelDRAW -->
<svg xmlns="http://www.w3.org/2000/svg" xml:space="preserve" width="2048px" height="2048px" style="shape-rendering:geometricPrecision; text-rendering:geometricPrecision; image-rendering:optimizeQuality; fill-rule:evenodd; clip-rule:evenodd"
viewBox="0 0 2048 2048"
 xmlns:xlink="http://www.w3.org/1999/xlink">
 <defs>
  <style type="text/css">
   <![CDATA[
    .fil1 {fill:none}
    .fil2 {fill:#919191}
    .fil0 {fill:#AAAAAA}
   ]]>
  </style>
 </defs>
 <g id="Layer_x0020_1">
  <metadata id="CorelCorpID_0Corel-Layer"/>
  <path class="fil0" d="M959.541 1024l-0.711024 -0.666142 -326.732 -306.245c-23.9776,-22.474 -23.9811,-59.8666 0.0413386,-82.3028 22.7386,-21.2362 58.8934,-21.2575 81.6154,0.0377953l270.449 253.46 0 -559.111c0,-23.8075 14.9634,-44.4898 37.0512,-53.0433 21.3425,-8.26418 45.8611,-3.74174 62.5867,11.928l370.129 346.761c11.4106,10.6902 18.0295,25.5118 18.0295,41.1603 0,15.6343 -6.63189,30.4347 -18.0272,41.113l-326.984 306.392 -0.550394 0.514961 -166.898 0zm142.358 -560.34l0 424.631 226.572 -212.312 -226.572 -212.32z"/>
  <g id="_415222808">
   <rect id="_415215320" class="fil1" width="2048" height="2048"/>
   <rect id="_415206872" class="fil1" x="255.999" y="255.999" width="1536" height="1536"/>
  </g>
  <path class="fil2" d="M1126.44 1024l327.536 306.885c11.4319,10.7114 18.0284,25.4445 18.0284,41.1237 0,15.6543 -6.62953,30.4666 -18.0236,41.1461l-370.129 346.922c-11.0339,10.3417 -25.7209,15.9213 -40.8048,15.9213 -7.42205,0 -14.8595,-1.34055 -21.7843,-4.02166 -22.0193,-8.52284 -37.0548,-29.2453 -37.0548,-53.0445l0 -559.215 -270.45 253.44c-22.7197,21.2906 -58.8685,21.2705 -81.6083,0.0425197 -24.0331,-22.4362 -24.0284,-59.8347 -0.046063,-82.3111l327.446 -306.888 -0.00354331 -0.00354331 166.898 0 -0.00354331 0.00354331zm-24.5362 560.431l226.577 -212.417 -226.577 -212.303 0 424.72z"/>
 </g>
</svg>
