<?xml version="1.0" encoding="UTF-8"?>
<!DOCTYPE svg PUBLIC "-//W3C//DTD SVG 1.1//EN" "http://www.w3.org/Graphics/SVG/1.1/DTD/svg11.dtd">
<!-- Creator: CorelDRAW -->
<svg xmlns="http://www.w3.org/2000/svg" xml:space="preserve" width="2048px" height="2048px" style="shape-rendering:geometricPrecision; text-rendering:geometricPrecision; image-rendering:optimizeQuality; fill-rule:evenodd; clip-rule:evenodd"
viewBox="0 0 2048 2048"
 xmlns:xlink="http://www.w3.org/1999/xlink">
 <defs>
  <style type="text/css">
   <![CDATA[
    .fil0 {fill:none}
    .fil2 {fill:#919191}
    .fil1 {fill:#A4A4A5}
    .fil4 {fill:#C4C4C4}
    .fil3 {fill:#F6F6F6}
   ]]>
  </style>
 </defs>
 <g id="Layer_x0020_1">
  <metadata id="CorelCorpID_0Corel-Layer"/>
  <g id="_415193792">
   <rect id="_415210496" class="fil0" width="2048" height="2048"/>
   <rect id="_415205600" class="fil0" x="255.999" y="255.999" width="1536" height="1536"/>
  </g>
  <g id="_415194824">
   <path id="_415216976" class="fil1" d="M1787.07 897.347l0 161.256 0 0.158268 -1529.52 0 0 -1.23071 0 -353.908c0,-53.4189 46.6642,-96.7642 104.202,-96.7642l1181.88 0c57.5906,0 104.42,43.3453 104.42,96.7642l0 129.086 69.3969 0c38.5394,0 69.6166,28.8473 69.6166,64.6382z"/>
   <path id="_415199192" class="fil2" d="M1790.45 1024l0 148.997c0,32.8843 -31.0772,59.4721 -69.6166,59.4721l-69.3969 0 0 119.342c0,49.1729 -46.8473,89.3304 -104.42,89.3304l-1181.88 0c-57.5374,0 -104.202,-40.1575 -104.202,-89.3304l0 -327.812 1529.52 0z"/>
   <g>
    <path id="_415209464" class="fil3" d="M624.986 1161.41c-13.5732,13.5732 -13.5732,35.5831 0,49.1563 13.5732,13.5732 35.5831,13.5732 49.1563,0l256.361 -256.361 25.937 207.483 34.4906 -4.20945 -34.4941 4.31221c2.38229,19.0488 19.7563,32.5618 38.8063,30.1807 8.12835,-1.01575 15.248,-4.76457 20.5559,-10.2071l295.184 -295.183c13.5732,-13.5732 13.5732,-35.5831 0,-49.1563 -13.5732,-13.5732 -35.5831,-13.5732 -49.1563,0l-245.231 245.232 -25.8213 -206.56c-0.732284,-7.77166 -4.07481,-15.3437 -10.0252,-21.2953 -13.5744,-13.5744 -35.5866,-13.5744 -49.1611,0l0.00236221 0.00354331 -306.604 306.603z"/>
    <path id="_415203056" class="fil4" d="M624.986 1161.41c-13.5732,13.5732 -13.5732,35.5831 0,49.1563 13.5732,13.5732 35.5831,13.5732 49.1563,0l186.572 -186.572 -98.3115 0 -137.417 137.415zm314.242 -137.415l17.2122 137.694 34.4906 -4.20945 -34.4941 4.31221c2.38229,19.0488 19.7563,32.5618 38.8063,30.1807 8.12835,-1.01575 15.248,-4.76457 20.5559,-10.2071l157.772 -157.771 -98.3115 0 -58.6642 58.6642 -7.33347 -58.6642 -70.0335 0z"/>
   </g>
  </g>
 </g>
</svg>
