<?xml version="1.0" encoding="UTF-8"?>
<!DOCTYPE svg PUBLIC "-//W3C//DTD SVG 1.1//EN" "http://www.w3.org/Graphics/SVG/1.1/DTD/svg11.dtd">
<!-- Creator: CorelDRAW -->
<svg xmlns="http://www.w3.org/2000/svg" xml:space="preserve" width="2048px" height="2048px" style="shape-rendering:geometricPrecision; text-rendering:geometricPrecision; image-rendering:optimizeQuality; fill-rule:evenodd; clip-rule:evenodd"
viewBox="0 0 2048 2048"
 xmlns:xlink="http://www.w3.org/1999/xlink">
 <defs>
  <style type="text/css">
   <![CDATA[
    .fil0 {fill:none}
    .fil1 {fill:#717171}
    .fil2 {fill:#ABABAB}
    .fil3 {fill:#BCBCBC}
   ]]>
  </style>
 </defs>
 <g id="Layer_x0020_1">
  <metadata id="CorelCorpID_0Corel-Layer"/>
  <g id="_383572656">
   <rect id="_383566728" class="fil0" width="2048" height="2048"/>
   <rect id="_383572824" class="fil0" x="255.999" y="255.999" width="1536" height="1536"/>
  </g>
  <path class="fil1" d="M1665.35 484.698c-251.328,-231.117 -884.384,-208.108 -1177.35,-54.8811 -196.597,102.833 -324.377,422.65 -148.952,422.67l277.014 0.068504c42.124,0.0153543 73.7953,-37.0595 73.8001,-78.7666l0.0259843 -161.19c264.262,-78.926 409.407,-77.3079 673.424,-0.206693l-0.0814961 114.669 0.0153543 46.728c0.00472441,41.7792 31.7433,78.6827 73.8827,78.6827l277.063 0.00590552c155.061,0 46.2024,-280.397 -48.8363,-367.779z"/>
  <rect class="fil2" x="355.349" y="988.471" width="273.989" height="273.989"/>
  <rect class="fil3" x="903.328" y="988.471" width="273.989" height="273.989"/>
  <rect class="fil2" x="1451.31" y="988.471" width="273.989" height="273.989"/>
  <rect class="fil3" x="355.349" y="1393.87" width="273.989" height="273.989"/>
  <rect class="fil2" x="903.328" y="1393.87" width="273.989" height="273.989"/>
  <rect class="fil3" x="1451.31" y="1393.87" width="273.989" height="273.989"/>
 </g>
</svg>
