<?xml version="1.0" encoding="UTF-8"?>
<!DOCTYPE svg PUBLIC "-//W3C//DTD SVG 1.1//EN" "http://www.w3.org/Graphics/SVG/1.1/DTD/svg11.dtd">
<!-- Creator: CorelDRAW -->
<svg xmlns="http://www.w3.org/2000/svg" xml:space="preserve" width="2048px" height="2048px" style="shape-rendering:geometricPrecision; text-rendering:geometricPrecision; image-rendering:optimizeQuality; fill-rule:evenodd; clip-rule:evenodd"
viewBox="0 0 2048 2048"
 xmlns:xlink="http://www.w3.org/1999/xlink">
 <defs>
  <style type="text/css">
   <![CDATA[
    .fil0 {fill:none}
    .fil2 {fill:#7E7E7E}
    .fil1 {fill:#8B8C8C}
    .fil3 {fill:white}
   ]]>
  </style>
 </defs>
 <g id="Layer_x0020_1">
  <metadata id="CorelCorpID_0Corel-Layer"/>
  <g id="_383562816">
   <rect id="_383575536" class="fil0" width="2048" height="2048"/>
   <rect id="_383563584" class="fil0" x="255.999" y="255.999" width="1536" height="1536"/>
  </g>
  <polygon class="fil1" points="1024,255.998 1025.14,255.998 1792,255.998 1792,1792 1024.07,1792 1024,1792 "/>
  <polygon class="fil2" points="256.001,255.998 1024,255.998 1024,1792 256.001,1792 "/>
  <path class="fil3" d="M967.002 1208.61l-122.141 0 0 132.995 -47.5465 0 0 -132.995 -357.663 0 0 -55.1209 357.663 -445.349 47.5465 0 0 445.349 122.141 0 0 55.1209zm-169.688 -55.1209l0 -379.726 -310.973 379.726 310.973 0zm811.035 -126.863c-5.35158,84.5741 -23.4059,150.197 -54.1217,196.86 -60.4642,90.9957 -148.232,136.495 -263.313,136.495 -89.2324,0 -163.344,-29.1709 -222.346,-87.4949 -64.3713,-63.5835 -96.541,-146.413 -96.541,-248.488 0,-100.328 32.4236,-182.571 97.2686,-246.731 59.9788,-59.4934 133.852,-89.2512 221.619,-89.2512 111.184,0 199.919,44.3363 266.241,132.993l-43.8839 33.2516c-61.4422,-75.2469 -135.559,-112.87 -222.357,-112.87 -74.1142,0 -136.042,24.789 -185.772,74.3682 -54.6166,54.254 -81.9225,123.662 -81.9225,208.239 0,83.9906 24.6189,151.945 73.8756,203.868 49.2437,51.9119 113.858,77.8619 193.819,77.8619 68.7544,0 125.322,-19.1055 169.699,-57.3036 44.367,-38.2099 74.3564,-93.7654 89.9587,-166.68l-280.86 0 0 -55.1197 338.638 0z"/>
 </g>
</svg>
