<?xml version="1.0" encoding="UTF-8"?>
<!DOCTYPE svg PUBLIC "-//W3C//DTD SVG 1.1//EN" "http://www.w3.org/Graphics/SVG/1.1/DTD/svg11.dtd">
<!-- Creator: CorelDRAW -->
<svg xmlns="http://www.w3.org/2000/svg" xml:space="preserve" width="2048px" height="2048px" style="shape-rendering:geometricPrecision; text-rendering:geometricPrecision; image-rendering:optimizeQuality; fill-rule:evenodd; clip-rule:evenodd"
viewBox="0 0 2048 2048"
 xmlns:xlink="http://www.w3.org/1999/xlink">
 <defs>
  <style type="text/css">
   <![CDATA[
    .fil0 {fill:none}
    .fil1 {fill:#414141}
    .fil2 {fill:#616161}
   ]]>
  </style>
 </defs>
 <g id="Layer_x0020_1">
  <metadata id="CorelCorpID_0Corel-Layer"/>
  <g id="_383561880">
   <rect id="_383577840" class="fil0" width="2048" height="2048"/>
   <rect id="_383568936" class="fil0" x="255.999" y="255.999" width="1536" height="1536"/>
  </g>
  <path class="fil1" d="M636.354 678.988c0,204.929 72.5528,380.646 216.412,525.83 146.417,145.026 322.108,217.697 528.346,217.697 125.991,0 239.342,-26.7319 342.429,-80.2879 -34.3618,58.5898 -76.3548,114.611 -128.574,166.815 -143.886,145.145 -319.538,217.71 -525.763,218.956 -206.251,-1.25906 -381.93,-73.8119 -527.074,-218.956 -145.119,-145.184 -217.671,-320.836 -217.671,-525.763 0,-206.251 72.5528,-381.943 217.671,-528.32 56.0327,-56.0729 117.115,-100.596 183.334,-134.958 -59.8489,106.928 -89.1107,226.573 -89.1107,358.987l0 0z"/>
  <path class="fil2" d="M636.354 678.988c0,204.929 72.5528,380.646 216.412,525.83 141.308,139.967 309.89,212.529 506.878,217.422 -49.8201,13.278 -102.441,20.0764 -157.83,20.4106 -164.452,-1.00394 -304.527,-58.852 -420.257,-174.582 -115.708,-115.76 -173.557,-255.814 -173.557,-419.21 0,-66.6875 9.51497,-129.366 28.5414,-188.107 -0.124016,6.05315 -0.187795,12.1311 -0.187795,18.2374l0 0z"/>
 </g>
</svg>
