<?xml version="1.0" encoding="UTF-8"?>
<!DOCTYPE svg PUBLIC "-//W3C//DTD SVG 1.1//EN" "http://www.w3.org/Graphics/SVG/1.1/DTD/svg11.dtd">
<!-- Creator: CorelDRAW -->
<svg xmlns="http://www.w3.org/2000/svg" xml:space="preserve" width="2048px" height="2048px" style="shape-rendering:geometricPrecision; text-rendering:geometricPrecision; image-rendering:optimizeQuality; fill-rule:evenodd; clip-rule:evenodd"
viewBox="0 0 2048 2048"
 xmlns:xlink="http://www.w3.org/1999/xlink">
 <defs>
  <style type="text/css">
   <![CDATA[
    .fil0 {fill:none}
    .fil5 {fill:#7E7E7E}
    .fil4 {fill:#8B8C8C}
    .fil1 {fill:#DBDBDB}
    .fil2 {fill:#5F5F5F;fill-rule:nonzero}
    .fil3 {fill:#727272;fill-rule:nonzero}
   ]]>
  </style>
 </defs>
 <g id="Layer_x0020_1">
  <metadata id="CorelCorpID_0Corel-Layer"/>
  <rect class="fil0" width="2048" height="2048"/>
  <rect class="fil0" x="255.999" y="255.999" width="1536" height="1536"/>
  <g id="_383563536">
   <path id="_383560944" class="fil1" d="M1391.77 654.355c30.1843,28.8378 66.5894,43.9477 108.028,45.1772 41.5418,-1.22953 77.9103,-16.3394 108.079,-45.1772 28.8508,-28.9406 43.9489,-65.3599 43.9489,-106.85 0,-42.6815 -15.098,-79.1386 -43.9489,-107.989 -30.1571,-28.9288 -66.5375,-43.9878 -108.079,-43.9878l0 -0.0129921c-41.426,0 -77.8571,15.0721 -108.028,44.0008 -28.8756,28.8508 -43.9477,65.3209 -43.9477,107.989 0,41.478 15.0591,77.9091 43.9477,106.85z"/>
   <path id="_383569080" class="fil2" d="M448.148 1599.85l0.0377953 0.0413386c16.8106,18.15 36.3933,33.828 58.0016,45.9804 76.9524,46.1977 225.467,20.2831 249.428,-44.0233l-137.386 -171.862 -0.0968505 -0.120473 -169.984 169.984z"/>
   <path id="_383565072" class="fil3" d="M755.616 1601.85c2.19803,-18.7028 -10.9252,-35.8477 -29.6752,-38.5146 -72.6544,-10.3394 21.9508,13.7032 23.0055,15.1358 5.15906,7.01812 7.30394,15.3272 6.66969,23.3788z"/>
   <path id="_383583864" class="fil3" d="M508.425 1292.63c-12.2634,-14.8228 -34.2225,-16.8945 -49.0453,-4.63111 -72.1749,59.6516 -87.5611,140.55 -66.9851,213.215 8.50512,30.039 23.2288,58.5166 42.6307,83.2501 4.15748,5.29961 8.5382,10.4362 13.1232,15.3898l169.984 -169.984 -109.708 -137.239z"/>
   <path id="_383556792" class="fil4" d="M1707.35 340.654c-0.585827,-0.596457 -1.17165,-1.1941 -1.76457,-1.78701 -55.2485,-55.2048 -122.339,-82.8662 -201.293,-82.8662 -78.9012,-0.0106299 -145.993,27.6614 -202.544,82.8662 -51.3142,51.313 -77.6068,111.875 -81.5634,182.844 -40.7646,-13.1563 -85.5048,-18.3496 -131.529,-17.0575 -27.6071,1.29331 -52.6725,3.92126 -76.3264,9.17009 -66.4158,14.7862 -576.163,265.755 -697.209,334.138 -51.2823,28.9547 -67.0583,73.6973 -47.3599,134.204 33.2362,99.6568 165.727,297.893 323.053,475.024l801.922 -801.922 -0.966142 -0.912993c-28.8886,-28.9406 -43.9477,-65.3717 -43.9477,-106.85 0,-42.6685 15.0721,-79.1386 43.9477,-107.989 30.1713,-28.9288 66.6024,-44.0008 108.028,-44.0008l0 0.0129921c41.5418,0 77.9221,15.0591 108.079,43.9878l0.303544 0.307087 99.169 -99.169z"/>
   <path id="_383582544" class="fil5" d="M1203.07 1733.29c8.5193,-15.9921 343.7,-748.459 344.666,-772.189 1.33819,-48.6626 -5.25827,-93.3946 -19.741,-135.495 68.4378,-5.25945 127.598,-32.8772 177.587,-82.8662 55.2461,-55.2473 82.8662,-122.339 82.8662,-201.228 0,-79.1599 -26.8488,-145.458 -80.5489,-200.295l-0.552756 -0.558662 -99.169 99.169 0.511418 0.518504c28.317,28.7197 43.1339,64.8875 43.1339,107.164 0,41.4898 -15.098,77.9091 -43.9489,106.85 -30.1689,28.8378 -66.5375,43.9477 -108.079,45.1772 -40.7989,-1.21063 -76.7174,-15.8752 -106.624,-43.8496l-0.438189 -0.414567 -801.922 801.922 0.0921261 0.103937c226.63,255.131 504.775,466.405 612.167,275.992z"/>
  </g>
 </g>
</svg>
