<?xml version="1.0" encoding="UTF-8"?>
<!DOCTYPE svg PUBLIC "-//W3C//DTD SVG 1.1//EN" "http://www.w3.org/Graphics/SVG/1.1/DTD/svg11.dtd">
<!-- Creator: CorelDRAW -->
<svg xmlns="http://www.w3.org/2000/svg" xml:space="preserve" width="2048px" height="2048px" style="shape-rendering:geometricPrecision; text-rendering:geometricPrecision; image-rendering:optimizeQuality; fill-rule:evenodd; clip-rule:evenodd"
viewBox="0 0 2048 2048"
 xmlns:xlink="http://www.w3.org/1999/xlink">
 <defs>
  <style type="text/css">
   <![CDATA[
    .fil0 {fill:none}
    .fil5 {fill:#868686}
    .fil4 {fill:#A0A0A0}
    .fil3 {fill:#ABABAB}
    .fil1 {fill:#ABABAB;fill-rule:nonzero}
    .fil2 {fill:#BCBCBC;fill-rule:nonzero}
   ]]>
  </style>
 </defs>
 <g id="Layer_x0020_1">
  <metadata id="CorelCorpID_0Corel-Layer"/>
  <g id="_383576952">
   <rect id="_383559168" class="fil0" width="2048" height="2048"/>
   <rect id="_383559576" class="fil0" x="255.999" y="255.999" width="1536" height="1536"/>
  </g>
  <g id="_383557056">
   <path id="_383558304" class="fil1" d="M1024 324.267l1.0311 0.00708662c93.319,0.281103 178.152,38.5878 239.739,100.173 61.8119,61.813 100.181,147.046 100.181,240.771l0 273.562c0,18.8504 15.2823,34.1339 34.1339,34.1339 18.8504,0 34.1339,-15.2835 34.1339,-34.1339l0 -273.562c0,-112.569 -46.0288,-214.883 -120.183,-289.037 -73.9158,-73.917 -175.818,-119.882 -287.96,-120.175l-1.07599 -0.00708662 0 68.2678z"/>
   <path id="_383578536" class="fil2" d="M614.781 665.219c0,18.8504 15.2835,34.1339 34.1339,34.1339 18.8516,0 34.1339,-15.2835 34.1339,-34.1339 0,-93.7265 38.3681,-178.958 100.18,-240.771 61.8142,-61.8119 147.045,-100.18 240.771,-100.18l0 -68.2678c-112.571,0 -214.885,46.0288 -289.037,120.182 -74.1532,74.1532 -120.182,176.466 -120.182,289.037z"/>
   <path id="_383581848" class="fil3" d="M1024 938.781l-623.526 0c-14.5016,0 -25.004,10.5059 -25.004,25.0158l0 803.148c0,14.5193 10.4811,25.0547 25.004,25.0547l623.526 0 0 -199.895 0 -453.431 0 -199.892z"/>
   <path id="_383572896" class="fil4" d="M1647.52 938.781l-622.891 0 -0.625985 0 0 199.892 0.493701 0.00354331 -0.298819 453.426 -0.194882 0.00236221 0 199.895 0.0637796 0 623.454 0c13.4138,0 25.0122,-11.5677 25.0122,-25.0547l0 -803.148c0,-13.4764 -11.6079,-25.0158 -25.0122,-25.0158z"/>
   <path id="_383564808" class="fil5" d="M1120.54 1178.67c-24.7099,-24.7087 -58.8426,-39.9922 -96.5398,-39.9922 -37.6973,0 -71.83,15.2835 -96.5398,39.9922 -24.7075,24.7087 -39.9898,58.8414 -39.9898,96.5387 0,37.6973 15.2823,71.83 39.9898,96.5375 16.9854,16.9843 38.4213,29.5146 62.406,35.6894l0 150.54c0,18.8516 15.2835,34.1339 34.1339,34.1339 18.8504,0 34.1339,-15.2823 34.1339,-34.1339l0 -150.54c23.9847,-6.17481 45.4205,-18.7051 62.406,-35.6894 24.7075,-24.7075 39.9898,-58.8402 39.9898,-96.5375 0,-37.6973 -15.2823,-71.83 -39.9898,-96.5387z"/>
  </g>
 </g>
</svg>
