<?xml version="1.0" encoding="UTF-8"?>
<!DOCTYPE svg PUBLIC "-//W3C//DTD SVG 1.1//EN" "http://www.w3.org/Graphics/SVG/1.1/DTD/svg11.dtd">
<!-- Creator: CorelDRAW -->
<svg xmlns="http://www.w3.org/2000/svg" xml:space="preserve" width="2048px" height="2048px" style="shape-rendering:geometricPrecision; text-rendering:geometricPrecision; image-rendering:optimizeQuality; fill-rule:evenodd; clip-rule:evenodd"
viewBox="0 0 2048 2048"
 xmlns:xlink="http://www.w3.org/1999/xlink">
 <defs>
  <style type="text/css">
   <![CDATA[
    .fil0 {fill:none}
    .fil4 {fill:#868686}
    .fil3 {fill:#A0A0A0}
    .fil2 {fill:#ABABAB}
    .fil1 {fill:#ABABAB;fill-rule:nonzero}
   ]]>
  </style>
 </defs>
 <g id="Layer_x0020_1">
  <metadata id="CorelCorpID_0Corel-Layer"/>
  <g id="_383571360">
   <rect id="_383568624" class="fil0" width="2048" height="2048"/>
   <rect id="_383559192" class="fil0" x="255.999" y="255.999" width="1536" height="1536"/>
  </g>
  <path class="fil1" d="M1317.57 376.261c75.391,75.3686 122.167,179.14 122.167,293.209l-69.339 0c0,-95.1024 -38.8937,-181.518 -101.581,-244.185 -247.618,-236.704 -574.774,-44.8926 -591.22,244.185l-69.339 0c0,-114.069 46.7764,-217.84 122.167,-293.209 161.874,-161.821 425.27,-161.821 587.144,0zm122.167 293.209l0 277.851 -69.339 0 0 -277.851c0,-19.1469 15.5232,-34.6701 34.6701,-34.6701 19.1457,0 34.6689,15.5232 34.6689,34.6701zm-762.14 0l0 277.851 -69.339 0 0 -277.851c0,-19.1469 15.5232,-34.6701 34.6689,-34.6701 19.1469,0 34.6701,15.5232 34.6701,34.6701z"/>
  <g id="_383580840">
   <path id="_383556696" class="fil2" d="M1024 938.781l-623.526 0c-14.5016,0 -25.004,10.5059 -25.004,25.0158l0 803.148c0,14.5193 10.4811,25.0547 25.004,25.0547l623.526 0 0 -199.895 0 -453.431 0 -199.892z"/>
   <path id="_383571096" class="fil3" d="M1647.52 938.781l-622.891 0 -0.625985 0 0 199.892 0.493701 0.00354331 -0.298819 453.426 -0.194882 0.00236221 0 199.895 0.0637796 0 623.454 0c13.4138,0 25.0122,-11.5677 25.0122,-25.0547l0 -803.148c0,-13.4764 -11.6079,-25.0158 -25.0122,-25.0158z"/>
   <path id="_383565864" class="fil4" d="M1120.54 1178.67c-24.7099,-24.7087 -58.8426,-39.9922 -96.5398,-39.9922 -37.6973,0 -71.83,15.2835 -96.5398,39.9922 -24.7075,24.7087 -39.9898,58.8414 -39.9898,96.5387 0,37.6973 15.2823,71.83 39.9898,96.5375 16.9854,16.9843 38.4213,29.5146 62.406,35.6894l0 150.54c0,18.8516 15.2835,34.1339 34.1339,34.1339 18.8504,0 34.1339,-15.2823 34.1339,-34.1339l0 -150.54c23.9847,-6.17481 45.4205,-18.7051 62.406,-35.6894 24.7075,-24.7075 39.9898,-58.8402 39.9898,-96.5375 0,-37.6973 -15.2823,-71.83 -39.9898,-96.5387z"/>
  </g>
 </g>
</svg>
