<?xml version="1.0" encoding="UTF-8"?>
<!DOCTYPE svg PUBLIC "-//W3C//DTD SVG 1.1//EN" "http://www.w3.org/Graphics/SVG/1.1/DTD/svg11.dtd">
<!-- Creator: CorelDRAW -->
<svg xmlns="http://www.w3.org/2000/svg" xml:space="preserve" width="2048px" height="2048px" style="shape-rendering:geometricPrecision; text-rendering:geometricPrecision; image-rendering:optimizeQuality; fill-rule:evenodd; clip-rule:evenodd"
viewBox="0 0 2048 2048"
 xmlns:xlink="http://www.w3.org/1999/xlink">
 <defs>
  <style type="text/css">
   <![CDATA[
    .fil2 {fill:none}
    .fil0 {fill:#AAAAAA}
    .fil1 {fill:#B6B6B6}
    .fil3 {fill:#FBFBFC}
   ]]>
  </style>
 </defs>
 <g id="Layer_x0020_1">
  <metadata id="CorelCorpID_0Corel-Layer"/>
  <path class="fil0" d="M1792 1040l0 91.7079c0,100.878 -82.5343,183.414 -183.414,183.414l-1137.17 0c-100.879,0 -183.414,-82.5355 -183.414,-183.414l0 -91.7079 1504 0z"/>
  <path class="fil1" d="M471.415 764.878l1137.17 0c100.879,0 183.414,82.5355 183.414,183.414l0 91.5509 0 0.157087 -1504 0 0 -1.02402 0 -90.6839c0,-100.878 82.5343,-183.414 183.414,-183.414z"/>
  <g id="_383571648">
   <rect id="_383581968" class="fil2" width="2048" height="2048"/>
   <rect id="_383561256" class="fil2" x="255.999" y="255.999" width="1536" height="1536"/>
  </g>
  <path class="fil3" d="M680.767 904.015l110.047 110.049 25.9358 25.9358 -25.9358 25.9358 -110.047 110.048 -51.8729 -51.8729 47.4272 -47.4272 -278.27 0 0 -73.3678 278.27 0 -47.4272 -47.4284 51.8729 -51.8729zm893.274 237.227l34.5425 0 -46.7693 -118.608 46.7693 -95.3741 -33.626 0 -44.0197 93.2351 0 -93.2351 -33.6248 0 0 213.982 33.6248 0 0 -65.7237 10.3949 -19.5626 32.7083 85.2863zm-129 -79.7847l0 30.5681c0,5.09528 -0.713386,9.12048 -2.14016,12.1772 -1.42559,3.0567 -3.41339,5.24646 -6.01182,6.62245 -2.59843,1.37599 -5.70709,2.03977 -9.27284,1.9878 -3.56575,0.0519685 -6.67323,-0.611811 -9.27166,-1.9878 -2.59843,-1.37599 -4.58622,-3.56575 -6.01182,-6.62245 -1.42677,-3.0567 -2.14016,-7.0819 -2.14016,-12.1772l0 -115.55c0.0507874,-7.58977 1.62992,-12.991 4.68662,-16.3028 3.10866,-3.25985 7.33701,-4.88977 12.737,-4.78819 5.40119,-0.101575 9.62953,1.52835 12.7382,4.78819 3.05551,3.31181 4.63583,8.713 4.68662,16.3028l0 22.9264 31.7906 0 0 -20.7851c0,-11.465 -1.88386,-21.1949 -5.65512,-29.1945 -3.7689,-7.99843 -9.37324,-14.061 -16.8118,-18.2906 -7.43859,-4.17638 -16.6606,-6.26575 -27.665,-6.31772 -11.0055,0.0519685 -20.2264,2.14134 -27.665,6.31772 -7.43741,4.22953 -13.0429,10.2921 -16.8118,18.2906 -3.77126,7.99961 -5.6563,17.7295 -5.6563,29.1945l0 111.269c0,11.4626 1.88504,21.1429 5.6563,29.1425 3.7689,7.99725 9.37442,14.1118 16.8118,18.3402 7.43859,4.17874 16.6595,6.26812 27.665,6.31772 11.0043,-0.0496063 20.2264,-2.13898 27.665,-6.31772 7.43859,-4.22835 13.0429,-10.3429 16.8118,-18.3402 3.77126,-7.99961 5.65512,-17.6799 5.65512,-29.1425l0 -28.4292 -31.7906 0zm-189.526 28.4292c0,11.4626 1.98662,21.1429 5.90906,29.1425 3.92244,7.99725 9.62953,14.1118 17.2217,18.3402 7.58977,4.17874 16.9146,6.26812 27.9177,6.31772 11.0055,-0.0496063 20.328,-2.13898 27.9201,-6.31772 7.59095,-4.22835 13.2969,-10.3429 17.2205,-18.3402 3.92244,-7.99961 5.91024,-17.6799 5.91024,-29.1425l0 -111.269c0,-11.465 -1.9878,-21.1949 -5.91024,-29.1945 -3.92363,-7.99843 -9.62953,-14.061 -17.2205,-18.2906 -7.59213,-4.17638 -16.9146,-6.26575 -27.9201,-6.31772 -11.0032,0.0519685 -20.328,2.14134 -27.9177,6.31772 -7.59213,4.22953 -13.2992,10.2921 -17.2217,18.2906 -3.92244,7.99961 -5.90906,17.7295 -5.90906,29.1945l0 111.269zm33.6248 -113.411c0.0507874,-7.58977 1.62992,-12.991 4.6878,-16.3028 3.10866,-3.25985 7.33701,-4.88977 12.7358,-4.78819 5.40119,-0.101575 9.62953,1.52835 12.7382,4.78819 3.05551,3.31181 4.63583,8.713 4.6878,16.3028l0 115.55c-0.0519685,7.59213 -1.63228,12.9933 -4.6878,16.3039 -3.10866,3.26103 -7.33701,4.89095 -12.7382,4.78937 -5.39882,0.101575 -9.62717,-1.52835 -12.7358,-4.78937 -3.05788,-3.31063 -4.63701,-8.71182 -4.6878,-16.3039l0 -115.55zm-134.503 164.766l88.956 0 0 -30.5693 -55.33 0 0 -183.412 -33.626 0 0 213.982zm-58.6914 0l34.5425 0 0 -213.982 -29.9575 0 0 128.082 -34.5425 -128.082 -42.1855 0 0 213.982 30.2634 0 0 -154.984 41.8796 154.984zm-195.028 -213.982l0 162.932c0,11.4626 1.88504,21.1429 5.6563,29.1414 3.77008,7.99843 9.37442,14.113 16.813,18.3414 7.43741,4.17874 16.6583,6.26575 27.6638,6.31772 11.0043,-0.0519685 20.2264,-2.13898 27.665,-6.31772 7.43859,-4.22835 13.0429,-10.3429 16.8118,-18.3414 3.77126,-7.99843 5.65512,-17.6788 5.65512,-29.1414l0 -162.932 -31.7906 0 0 165.071c0,5.09528 -0.713386,9.12048 -2.14016,12.176 -1.42559,3.05788 -3.41339,5.24882 -6.01182,6.62363 -2.59843,1.37599 -5.70473,2.0374 -9.27166,1.9878 -3.56575,0.0496063 -6.67441,-0.611811 -9.27284,-1.9878 -2.59843,-1.3748 -4.58622,-3.56575 -6.01182,-6.62363 -1.42677,-3.05551 -2.14016,-7.08071 -2.14016,-12.176l0 -165.071 -33.626 0z"/>
 </g>
</svg>
