<?xml version="1.0" encoding="UTF-8"?>
<!DOCTYPE svg PUBLIC "-//W3C//DTD SVG 1.1//EN" "http://www.w3.org/Graphics/SVG/1.1/DTD/svg11.dtd">
<!-- Creator: CorelDRAW -->
<svg xmlns="http://www.w3.org/2000/svg" xml:space="preserve" width="2048px" height="2048px" style="shape-rendering:geometricPrecision; text-rendering:geometricPrecision; image-rendering:optimizeQuality; fill-rule:evenodd; clip-rule:evenodd"
viewBox="0 0 2048 2048"
 xmlns:xlink="http://www.w3.org/1999/xlink">
 <defs>
  <style type="text/css">
   <![CDATA[
    .fil1 {fill:none}
    .fil0 {fill:#A5A5A6}
    .fil2 {fill:#8C8D8D;fill-rule:nonzero}
   ]]>
  </style>
 </defs>
 <g id="Layer_x0020_1">
  <metadata id="CorelCorpID_0Corel-Layer"/>
  <polygon class="fil0" points="1315.09,634.669 804.781,1036.63 725.729,936.061 1236.04,534.103 "/>
  <polygon class="fil0" points="1239.25,1521.76 717.969,1192.13 786.067,1083.97 1307.35,1413.6 "/>
  <g id="_383561280">
   <rect id="_383587272" class="fil1" width="2048" height="2048"/>
   <rect id="_383568648" class="fil1" x="255.999" y="255.999" width="1536" height="1536"/>
  </g>
  <path class="fil2" d="M1369.4 351.998c48.1063,0 91.6631,19.5024 123.193,51.0307 31.5284,31.5296 51.0307,75.0863 51.0307,123.193 0,48.1063 -19.5036,91.6642 -51.0307,123.191 -31.5296,31.5296 -75.0863,51.0319 -123.193,51.0319 -48.1063,0 -91.6631,-19.5024 -123.191,-51.0319 -31.5296,-31.5284 -51.0319,-75.0851 -51.0319,-123.191 0,-48.1063 19.5024,-91.6631 51.0319,-123.193 31.5272,-31.5272 75.0851,-51.0307 123.191,-51.0307z"/>
  <path class="fil2" d="M678.603 880.254c48.1063,0 91.6642,19.5036 123.191,51.0307 31.5296,31.5296 51.0319,75.0863 51.0319,123.193 0,48.1063 -19.5024,91.6631 -51.0319,123.193 -31.5272,31.5272 -75.0851,51.0307 -123.191,51.0307 -48.1063,0 -91.6631,-19.5024 -123.193,-51.0307 -31.5284,-31.5296 -51.0307,-75.0863 -51.0307,-123.193 0,-48.1063 19.5024,-91.6631 51.0307,-123.193 31.5296,-31.5284 75.0863,-51.0307 123.193,-51.0307z"/>
  <path class="fil2" d="M1369.4 1347.55c48.1063,0 91.6631,19.5024 123.193,51.0319 31.5272,31.5272 51.0307,75.0851 51.0307,123.191 0,48.1063 -19.5024,91.6631 -51.0307,123.193 -31.5296,31.5284 -75.0863,51.0307 -123.193,51.0307 -48.1063,0 -91.6642,-19.5036 -123.191,-51.0307 -31.5296,-31.5296 -51.0319,-75.0863 -51.0319,-123.193 0,-48.1063 19.5024,-91.6631 51.0319,-123.191 31.5284,-31.5296 75.0851,-51.0319 123.191,-51.0319z"/>
 </g>
</svg>
