<?xml version="1.0" encoding="UTF-8"?>
<!DOCTYPE svg PUBLIC "-//W3C//DTD SVG 1.1//EN" "http://www.w3.org/Graphics/SVG/1.1/DTD/svg11.dtd">
<!-- Creator: CorelDRAW -->
<svg xmlns="http://www.w3.org/2000/svg" xml:space="preserve" width="2048px" height="2048px" style="shape-rendering:geometricPrecision; text-rendering:geometricPrecision; image-rendering:optimizeQuality; fill-rule:evenodd; clip-rule:evenodd"
viewBox="0 0 2048 2048"
 xmlns:xlink="http://www.w3.org/1999/xlink">
 <defs>
  <style type="text/css">
   <![CDATA[
    .str0 {stroke:#353535;stroke-width:2.08347}
    .fil5 {fill:none}
    .fil0 {fill:#DEDEDE}
    .fil3 {fill:#333333;fill-rule:nonzero}
    .fil4 {fill:#3C3C3C;fill-rule:nonzero}
    .fil1 {fill:#545454;fill-rule:nonzero}
    .fil2 {fill:#F3F3F3;fill-rule:nonzero}
   ]]>
  </style>
 </defs>
 <g id="Layer_x0020_1">
  <metadata id="CorelCorpID_0Corel-Layer"/>
  <g id="_506163624">
   <circle id="_506166264" class="fil0 str0" cx="766.588" cy="768.729" r="452.488"/>
   <path id="_506166192" class="fil1" d="M404.55 406.692c99.9745,-99.9757 231.007,-149.965 362.036,-149.965 131.029,0 262.062,49.989 362.038,149.965 99.9757,99.9745 149.965,231.007 149.965,362.036 0,131.029 -49.989,262.061 -149.965,362.036l-0.0011811 0.0011811c-99.9757,99.9745 -231.007,149.965 -362.036,149.965 -131.029,0 -262.06,-49.9902 -362.035,-149.965l-0.0011811 -0.0011811c-99.9757,-99.9757 -149.965,-231.007 -149.965,-362.036 0,-131.029 49.989,-262.062 149.965,-362.036zm362.036 -85.9631c-114.656,0 -229.312,43.7386 -316.786,131.213 -87.4749,87.4737 -131.213,202.13 -131.213,316.786 0,114.656 43.7386,229.311 131.213,316.786l0.0011811 0.0011811c87.4749,87.4737 202.129,131.213 316.785,131.213 114.656,0 229.311,-43.7398 316.786,-131.213l0.0011811 -0.0011811c87.4749,-87.4749 131.213,-202.13 131.213,-316.786 0,-114.656 -43.7386,-229.312 -131.213,-316.786 -87.4749,-87.4749 -202.132,-131.213 -316.787,-131.213z"/>
   <path id="_506163312" class="fil2" d="M578.17 1006.46c13.8071,10.976 16.1008,31.0689 5.12481,44.876 -10.976,13.8071 -31.0689,16.1008 -44.876,5.12481 -5.71418,-4.53071 -11.0976,-9.04725 -16.1398,-13.539 -5.56536,-4.95945 -10.702,-9.79253 -15.3969,-14.4874 -71.7178,-71.7178 -107.577,-165.715 -107.577,-259.706 0,-93.991 35.8595,-187.988 107.577,-259.705 2.19449,-2.19449 6.08859,-5.85591 11.6728,-10.9724 12.978,-11.8736 33.1264,-10.9772 45,2.00079 11.8736,12.978 10.9772,33.1264 -2.00079,45 -1.58977,1.45748 -4.73504,4.53544 -9.42166,9.22205 -59.217,59.2158 -88.8261,136.836 -88.8261,214.454 0,77.6186 29.6091,155.238 88.8261,214.455 4.39607,4.39607 8.61615,8.39528 12.6473,11.9882 4.55906,4.063 9.02481,7.82717 13.3902,11.2878z"/>
   <polygon id="_506162952" class="fil1" points="1114.57,1065.51 1336.6,1287.54 1291.35,1332.79 1069.32,1110.76 "/>
   <path id="_506162760" class="fil3" d="M1261.85 1355.41l93.3343 -93.3355c9.88111,-9.88111 22.8756,-14.8228 35.8453,-14.8228 12.9709,0 25.963,4.94174 35.8441,14.824l351.71 349.351 0 0.0011811c9.88111,9.87993 14.8252,22.8732 14.8252,35.8429 0,12.9012 -4.94292,25.8473 -14.824,35.7307l0 0.112205 -0.0011811 0.0011811 -93.3343 93.3355c-9.88229,9.88229 -22.878,14.8252 -35.8441,14.8252 -12.9709,0 -25.963,-4.94292 -35.8453,-14.8252l-351.71 -349.351 -0.0011811 -0.0011811c-9.88111,-9.87993 -14.8228,-22.8768 -14.8228,-35.8429 0,-12.9 4.94174,-25.8473 14.8228,-35.7319l0 -0.112205 0.0011811 -0.0011811z"/>
   <path id="_506166048" class="fil4" d="M1309.11 1308.15l0.444095 -0.445276 45.6331 -45.6331c9.88111,-9.88111 22.8756,-14.8228 35.8453,-14.8228 12.9709,0 25.963,4.94174 35.8441,14.824l351.71 349.351 0 0.0011811c9.88111,9.87993 14.8252,22.8732 14.8252,35.8429 0,12.9012 -4.94292,25.8473 -14.824,35.7307l0 0.112205 -0.0011811 0.0011811 -47.1107 47.1107 -0.146457 0.146457 -422.22 -422.22z"/>
   <path id="_506165904" class="fil3" d="M1261.85 1355.41l47.2571 -47.2571 422.22 422.22 -46.0772 46.0784c-9.88229,9.88229 -22.878,14.8252 -35.8441,14.8252 -12.9709,0 -25.963,-4.94292 -35.8453,-14.8252l-351.71 -349.351 -0.0011811 -0.0011811c-9.88111,-9.87993 -14.8228,-22.8768 -14.8228,-35.8429 0,-12.9 4.94174,-25.8473 14.8228,-35.7319l0 -0.112205 0.0011811 -0.0011811z"/>
  </g>
  <rect class="fil5" width="2048" height="2048"/>
 </g>
</svg>
