<?xml version="1.0" encoding="UTF-8"?>
<!DOCTYPE svg PUBLIC "-//W3C//DTD SVG 1.1//EN" "http://www.w3.org/Graphics/SVG/1.1/DTD/svg11.dtd">
<!-- Creator: CorelDRAW -->
<svg xmlns="http://www.w3.org/2000/svg" xml:space="preserve" width="2048px" height="2048px" style="shape-rendering:geometricPrecision; text-rendering:geometricPrecision; image-rendering:optimizeQuality; fill-rule:evenodd; clip-rule:evenodd"
viewBox="0 0 2048 2048"
 xmlns:xlink="http://www.w3.org/1999/xlink">
 <defs>
  <style type="text/css">
   <![CDATA[
    .fil4 {fill:none}
    .fil1 {fill:#575758}
    .fil3 {fill:#585959;fill-rule:nonzero}
    .fil0 {fill:#7F7F7F;fill-rule:nonzero}
    .fil2 {fill:#8E8E8F;fill-rule:nonzero}
   ]]>
  </style>
 </defs>
 <g id="Layer_x0020_1">
  <metadata id="CorelCorpID_0Corel-Layer"/>
  <g id="_506164920">
   <path id="_506164224" class="fil0" d="M320.326 841.504l1471.67 0 0 771.927c0,35.3811 -28.9465,64.3276 -64.3264,64.3276l-1407.35 0c-35.3799,0 -64.3264,-28.9453 -64.3264,-64.3276l0 -707.599c0,-35.3823 28.9465,-64.3276 64.3264,-64.3276z"/>
   <polygon id="_506165640" class="fil1" points="1028.57,1329.08 1229.23,1203.38 1792,841.504 1032.33,809.004 255.999,841.504 255.999,1203.38 827.333,1203.38 "/>
   <path id="_506165280" class="fil2" d="M1773.87 1658.08l-0.316536 0.325985 -0.0129921 0.0129921 -0.628347 0.633071 -0.324803 0.318898 -0.325985 0.316536 -0.550394 0.52441 -0.108662 0.102756 -0.333071 0.309449 -0.0496063 0.046063 -0.611811 0.558662 -0.0106299 0.00944883 -0.340158 0.302362c-0.325985,0.28937 -0.65315,0.575197 -0.98504,0.857481l-0.0448819 0.0377953 -0.348425 0.292914 -0.701575 0.579922 -0.354331 0.287008 -0.0850394 0.068504c-0.314173,0.251575 -0.630709,0.499607 -0.948426,0.744095l-0.0791339 0.0602363c-0.348425,0.266929 -0.699213,0.532678 -1.05354,0.79252l-0.368504 0.26811 -0.741733 0.530315 -0.373229 0.261024 -0.0507874 0.0354331c-0.325985,0.225591 -0.654331,0.448819 -0.98504,0.668504l-0.0968505 0.0649607 -0.381496 0.250394 -0.767717 0.493701 -0.387402 0.242126c-0.775985,0.483071 -1.5626,0.950788 -2.35866,1.40079l-0.399213 0.22441c-0.786615,0.437008 -1.58268,0.857481 -2.38819,1.2626l-0.0437008 0.022441 -0.411024 0.204331 -0.826772 0.399213 -0.416929 0.196063c-0.833859,0.388583 -1.67717,0.759449 -2.52874,1.1126l-0.426378 0.174803c-0.409843,0.166536 -0.822048,0.329528 -1.23662,0.487796l-0.0543308 0.0200788 -122.169 4.17992 -1307.92 0c-35.3799,0 -64.3264,-28.9453 -64.3264,-64.3276l0 -772.229 1518.5 816.218 -0.628347 0.657875z"/>
   <polygon id="_506164800" class="fil3" points="1791.77,841.52 1043.27,293.71 1024.52,280.034 1005.77,293.71 256.229,840.999 "/>
  </g>
  <rect class="fil4" width="2048" height="2048"/>
 </g>
</svg>
