<?xml version="1.0" encoding="UTF-8"?>
<!DOCTYPE svg PUBLIC "-//W3C//DTD SVG 1.1//EN" "http://www.w3.org/Graphics/SVG/1.1/DTD/svg11.dtd">
<!-- Creator: CorelDRAW -->
<svg xmlns="http://www.w3.org/2000/svg" xml:space="preserve" width="2048px" height="2048px" style="shape-rendering:geometricPrecision; text-rendering:geometricPrecision; image-rendering:optimizeQuality; fill-rule:evenodd; clip-rule:evenodd"
viewBox="0 0 2048 2048"
 xmlns:xlink="http://www.w3.org/1999/xlink">
 <defs>
  <style type="text/css">
   <![CDATA[
    .fil0 {fill:none}
    .fil2 {fill:#858585}
    .fil4 {fill:#8C8D8D;fill-rule:nonzero}
    .fil3 {fill:#959595;fill-rule:nonzero}
    .fil1 {fill:#BCBCBC;fill-rule:nonzero}
   ]]>
  </style>
 </defs>
 <g id="Layer_x0020_1">
  <metadata id="CorelCorpID_0Corel-Layer"/>
  <rect class="fil0" width="2048" height="2048"/>
  <path class="fil1" d="M1048.1 863.992c-11.6421,0 -21.0815,-9.43938 -21.0815,-21.0827 0,-11.6421 9.43938,-21.0815 21.0815,-21.0815l210.813 0c11.6421,0 21.0815,9.43938 21.0815,21.0815 0,11.6433 -9.43938,21.0827 -21.0815,21.0827l-210.813 0z"/>
  <circle class="fil2" cx="749.5" cy="844.834" r="256.049"/>
  <path class="fil3" d="M1313.12 800.668c82.0442,0 158.081,29.5925 219.01,78.3367 60.0213,48.0178 105.311,114.658 127.179,189.931 40.7481,30.9544 73.1776,69.7312 95.804,114.796 23.8134,47.4307 36.587,101.453 36.587,160.249 0,97.382 -37.1032,186.158 -98.3351,250.335 -60.2552,63.1524 -143.727,102.354 -238.041,102.354l-730.773 0c-16.9512,0 -23.3292,0.102756 -30.1087,0.209055 -48.7819,0.772442 -108.536,1.71851 -151.14,-10.7976 -55.5662,-16.324 -102.971,-50.6174 -136.335,-96.3804 -32.8949,-45.1193 -52.1445,-101.277 -52.1445,-162.273 0,-14.6646 1.24134,-29.1024 3.60709,-43.2307 11.3728,-67.9075 48.8575,-126.748 99.6875,-168.473 50.3894,-41.3658 114.086,-66.0473 178.428,-66.0473 3.52323,0 7.07835,0.0791339 10.6642,0.242126 7.95591,-41.4614 23.2843,-80.3953 45.1276,-113.646 26.6067,-40.5048 62.7922,-72.6319 107.078,-90.9036 42.3863,-17.4768 86.8512,-20.0776 128.932,-10.3654 31.4055,7.24843 61.5,21.3721 88.3902,41.2807 29.2016,-47.6847 67.8461,-89.0552 113.733,-119.646 52.6335,-35.0882 114.618,-55.9713 182.651,-55.9713z"/>
  <path class="fil4" d="M1786.24 1407.99c-12.4004,71.9339 -45.3768,136.534 -92.882,186.324 -60.2552,63.1524 -143.727,102.354 -238.041,102.354l-730.773 0c-16.9512,0 -23.3292,0.102756 -30.1087,0.209055 -48.7819,0.772442 -108.536,1.71851 -151.14,-10.7976 -55.5662,-16.324 -102.971,-50.6174 -136.335,-96.3804 -32.8949,-45.1193 -52.1445,-101.277 -52.1445,-162.273 0,-6.5256 0.245669,-13.0075 0.72756,-19.4362l1430.7 0z"/>
  <path class="fil1" d="M730.915 335.994c0,-11.6421 9.43938,-21.0815 21.0827,-21.0815 11.6421,0 21.0815,9.43938 21.0815,21.0815l0 210.812c0,11.6433 -9.43938,21.0827 -21.0815,21.0827 -11.6433,0 -21.0827,-9.43938 -21.0827,-21.0827l0 -210.812z"/>
  <path class="fil1" d="M378.649 499.372c-8.23229,-8.23111 -8.23229,-21.5788 0,-29.811 8.23111,-8.23111 21.5788,-8.23111 29.811,0l149.066 149.067c8.23229,8.23111 8.23229,21.5788 0,29.811 -8.23111,8.23111 -21.5788,8.23111 -29.811,0l-149.066 -149.067z"/>
  <path class="fil1" d="M1095.54 469.561c8.23111,-8.23111 21.5788,-8.23111 29.8099,0 8.23229,8.23229 8.23229,21.5799 0,29.811l-149.066 149.067c-8.23111,8.23111 -21.5799,8.23111 -29.811,0 -8.23111,-8.23229 -8.23111,-21.5799 0,-29.811l149.067 -149.067z"/>
  <path class="fil1" d="M507.237 1030.17c8.23111,-8.23111 21.5788,-8.23111 29.8099,0 8.23229,8.23229 8.23229,21.5799 0,29.811l-149.066 149.067c-8.23111,8.23111 -21.5799,8.23111 -29.811,0 -8.23111,-8.23229 -8.23111,-21.5799 0,-29.811l149.067 -149.067z"/>
  <path class="fil1" d="M245.081 863.992c-11.6421,0 -21.0815,-9.43938 -21.0815,-21.0827 0,-11.6421 9.43938,-21.0815 21.0815,-21.0815l210.813 0c11.6421,0 21.0815,9.43938 21.0815,21.0815 0,11.6433 -9.43938,21.0827 -21.0815,21.0827l-210.813 0z"/>
 </g>
</svg>
