<?xml version="1.0" encoding="UTF-8"?>
<!DOCTYPE svg PUBLIC "-//W3C//DTD SVG 1.1//EN" "http://www.w3.org/Graphics/SVG/1.1/DTD/svg11.dtd">
<!-- Creator: CorelDRAW -->
<svg xmlns="http://www.w3.org/2000/svg" xml:space="preserve" width="2048px" height="2048px" style="shape-rendering:geometricPrecision; text-rendering:geometricPrecision; image-rendering:optimizeQuality; fill-rule:evenodd; clip-rule:evenodd"
viewBox="0 0 2048 2048"
 xmlns:xlink="http://www.w3.org/1999/xlink">
 <defs>
  <style type="text/css">
   <![CDATA[
    .fil5 {fill:none}
    .fil0 {fill:#2F2F2F}
    .fil1 {fill:#444444}
    .fil3 {fill:#909090}
    .fil4 {fill:#B3B4B4}
    .fil2 {fill:#FEFEFE}
   ]]>
  </style>
 </defs>
 <g id="Layer_x0020_1">
  <metadata id="CorelCorpID_0Corel-Layer"/>
  <g id="_504328208">
   <path id="_506162640" class="fil0" d="M1493.66 531.016c82.2249,0 156.67,33.3307 210.558,87.2186 53.8878,53.8878 87.2186,128.333 87.2186,210.558l-0.0732284 0 23.2984 561.801c0.881103,22.3347 -1.03465,45.0225 -8.80158,64.9701 -9.18426,23.5866 -25.5567,42.5469 -52.8945,52.3725 -40.9087,14.7024 -79.3619,10.5673 -114.041,-5.77441 -37.7162,-17.7744 -70.0772,-50.0658 -95.3953,-87.4926l-186.592 -275.822c-6.05788,7.13623 -12.8421,13.6323 -20.2394,19.3642 -22.8543,17.7095 -51.4583,28.2532 -82.4351,28.2532 -37.2296,0 -70.9382,-15.0933 -95.3375,-39.4949 -21.991,-21.991 -36.4193,-51.541 -39.0555,-84.4135 -25.6382,-0.0366142 -52.3288,-0.0413386 -79.2095,-0.0236221 -27.3236,0.0177165 -54.8481,0.0590552 -81.6757,0.114567 -2.6563,32.837 -17.0788,62.354 -39.0485,84.3237 -24.3992,24.4016 -58.1115,39.4949 -95.3387,39.4949 -37.2296,0 -70.9394,-15.0933 -95.341,-39.4949 -9.02835,-9.02835 -16.7811,-19.3323 -22.9677,-30.6166l-201.807 298.315c-25.3193,37.428 -57.6804,69.7182 -95.3965,87.4926 -34.6784,16.3429 -73.1316,20.4768 -114.04,5.77441 -27.3378,-9.8256 -43.7115,-28.787 -52.8933,-52.3725 -7.76812,-19.9477 -9.68268,-42.6355 -8.80276,-64.9701l22.1599 -561.801 -0.0755906 0c0,-82.2249 33.3307,-156.67 87.2186,-210.558 53.8878,-53.8878 128.333,-87.2186 210.558,-87.2186 41.9658,0 82.069,8.79568 118.563,24.6579 33.2929,14.4685 63.4182,34.8414 89.054,59.7863l525.218 0c25.6358,-24.9449 55.7611,-45.3178 89.054,-59.7863 36.4937,-15.8622 76.5969,-24.6579 118.563,-24.6579z"/>
   <circle id="_506163192" class="fil1" cx="1503.43" cy="823.829" r="230.352"/>
   <circle id="_506163936" class="fil1" cx="543.423" cy="836.391" r="230.352"/>
   <g>
    <path id="_506164128" class="fil2" d="M1346.46 855.83c-17.6728,0 -32.0008,-14.328 -32.0008,-32.0008 0,-17.6728 14.328,-32.0008 32.0008,-32.0008l96.0001 0c17.6728,0 32.0008,14.328 32.0008,32.0008 0,17.6728 -14.328,32.0008 -32.0008,32.0008l-96.0001 0z"/>
    <path id="_506163600" class="fil2" d="M1535.43 980.794c0,17.6728 -14.328,32.0008 -32.0008,32.0008 -17.6728,0 -32.0008,-14.328 -32.0008,-32.0008l0 -96.0001c0,-17.6728 14.328,-32.0008 32.0008,-32.0008 17.6728,0 32.0008,14.328 32.0008,32.0008l0 96.0001z"/>
    <path id="_504328352" class="fil2" d="M1564.39 855.83c-17.6728,0 -32.0008,-14.328 -32.0008,-32.0008 0,-17.6728 14.328,-32.0008 32.0008,-32.0008l96.0001 0c17.6728,0 32.0008,14.328 32.0008,32.0008 0,17.6728 -14.328,32.0008 -32.0008,32.0008l-96.0001 0z"/>
    <path id="_504324416" class="fil2" d="M1535.43 762.864c0,17.6728 -14.328,32.0008 -32.0008,32.0008 -17.6728,0 -32.0008,-14.328 -32.0008,-32.0008l0 -96.0001c0,-17.6728 14.328,-32.0008 32.0008,-32.0008 17.6728,0 32.0008,14.328 32.0008,32.0008l0 96.0001z"/>
   </g>
   <polygon id="_504327728" class="fil3" points="1087.42,788.793 1248.58,788.793 1248.58,852.794 1087.42,852.794 "/>
   <polygon id="_504324824" class="fil3" points="800.575,788.793 959.424,788.793 959.424,852.794 800.575,852.794 "/>
   <circle id="_504326600" class="fil1" cx="825.072" cy="1051.15" r="134.352"/>
   <circle id="_504325064" class="fil1" cx="1253.78" cy="1051.15" r="134.352"/>
   <path id="_504327200" class="fil4" d="M874.68 1001.54c-12.815,-12.815 -30.5256,-20.7437 -50.0882,-20.7437 -19.5638,0 -37.2744,7.92757 -50.0906,20.7437 -12.8162,12.8162 -20.7437,30.5268 -20.7437,50.0906 0,19.5638 7.92757,37.2744 20.7437,50.0906 12.8162,12.8162 30.5268,20.7437 50.0906,20.7437 19.5626,0 37.2733,-7.92875 50.0882,-20.7437 12.8162,-12.8162 20.7437,-30.5268 20.7437,-50.0906 0,-19.5638 -7.92757,-37.2744 -20.7437,-50.0906z"/>
   <path id="_504327704" class="fil4" d="M1304.35 1001.54c-12.8162,-12.8162 -30.5256,-20.7437 -50.0894,-20.7437 -19.5626,0 -37.2721,7.92875 -50.087,20.7437 -12.8162,12.8162 -20.7437,30.5256 -20.7437,50.0894 0,19.5638 7.92757,37.2733 20.7437,50.0894 12.815,12.815 30.5244,20.7437 50.087,20.7437 19.5638,0 37.2733,-7.92757 50.0894,-20.7437 12.8162,-12.8162 20.7437,-30.5256 20.7437,-50.0894 0,-19.5626 -7.92757,-37.2733 -20.7437,-50.0894z"/>
   <g>
    <path id="_504324440" class="fil2" d="M543.423 884.794c26.5099,0 48,21.4902 48,48 0,26.5099 -21.4902,48 -48,48 -26.5099,0 -48,-21.4902 -48,-48 0,-26.5099 21.4902,-48 48,-48z"/>
    <path id="_504324464" class="fil2" d="M543.423 691.987c26.5099,0 48,21.4902 48,48 0,26.5099 -21.4902,48 -48,48 -26.5099,0 -48,-21.4902 -48,-48 0,-26.5099 21.4902,-48 48,-48z"/>
    <path id="_504327032" class="fil2" d="M399.423 835.987c0,-26.5099 21.4902,-48 48,-48 26.5099,0 48,21.4902 48,48 0,26.5099 -21.4902,48 -48,48 -26.5099,0 -48,-21.4902 -48,-48z"/>
    <path id="_504325280" class="fil2" d="M591.423 835.987c0,-26.5099 21.4902,-48 48,-48 26.5099,0 48,21.4902 48,48 0,26.5099 -21.4902,48 -48,48 -26.5099,0 -48,-21.4902 -48,-48z"/>
   </g>
  </g>
  <rect class="fil5" width="2048" height="2048"/>
 </g>
</svg>
