<?xml version="1.0" encoding="UTF-8"?>
<!DOCTYPE svg PUBLIC "-//W3C//DTD SVG 1.1//EN" "http://www.w3.org/Graphics/SVG/1.1/DTD/svg11.dtd">
<!-- Creator: CorelDRAW -->
<svg xmlns="http://www.w3.org/2000/svg" xml:space="preserve" width="2048px" height="2048px" style="shape-rendering:geometricPrecision; text-rendering:geometricPrecision; image-rendering:optimizeQuality; fill-rule:evenodd; clip-rule:evenodd"
viewBox="0 0 2048 2048"
 xmlns:xlink="http://www.w3.org/1999/xlink">
 <defs>
  <style type="text/css">
   <![CDATA[
    .fil13 {fill:none}
    .fil3 {fill:#2B2B2B}
    .fil0 {fill:#2D2D2D}
    .fil8 {fill:#575758}
    .fil6 {fill:#5D5D5D}
    .fil12 {fill:#7F7F7F}
    .fil10 {fill:#868686}
    .fil5 {fill:#939393}
    .fil4 {fill:#A1A1A1}
    .fil11 {fill:#A2A2A2}
    .fil9 {fill:#A6A6A7}
    .fil2 {fill:#AFAFAF}
    .fil7 {fill:#BFBFBF}
    .fil1 {fill:#BFC0C0}
   ]]>
  </style>
 </defs>
 <g id="Layer_x0020_1">
  <metadata id="CorelCorpID_0Corel-Layer"/>
  <rect class="fil0" x="255.999" y="320.002" width="416.025" height="1408" rx="27.4996" ry="27.4996"/>
  <rect class="fil1" x="255.999" y="564.607" width="416.025" height="52.9676"/>
  <rect class="fil1" x="255.999" y="1404.28" width="416.025" height="52.9676"/>
  <rect class="fil1" x="255.999" y="1298.29" width="416.025" height="52.9676"/>
  <circle class="fil2" cx="464.012" cy="891.993" r="102.666"/>
  <rect class="fil2" x="352.754" y="1023.99" width="222.518" height="13.62"/>
  <path class="fil3" d="M283.498 320.002l180.516 0 0 1408 -180.516 0c-15.124,0 -27.4984,-12.3744 -27.4984,-27.4984l0 -1353c0,-15.124 12.3744,-27.4984 27.4984,-27.4984z"/>
  <polygon class="fil4" points="255.999,564.608 464.014,564.608 464.014,617.575 255.999,617.575 "/>
  <polygon class="fil4" points="255.999,1404.28 464.014,1404.28 464.014,1457.25 255.999,1457.25 "/>
  <polygon class="fil4" points="255.999,1298.29 464.014,1298.29 464.014,1351.26 255.999,1351.26 "/>
  <path class="fil5" d="M464.013 789.328l0.0011811 0 0 205.331 -0.0011811 0c-56.7012,0 -102.666,-45.965 -102.666,-102.666 0,-56.7012 45.965,-102.665 102.666,-102.665z"/>
  <polygon class="fil5" points="352.754,1023.99 464.014,1023.99 464.014,1037.61 352.754,1037.61 "/>
  <g id="_505304640">
   <rect id="_503493792" class="fil6" x="731.065" y="320.002" width="416.025" height="1408" rx="27.4996" ry="27.4996"/>
   <rect id="_503494464" class="fil7" x="731.065" y="564.607" width="416.025" height="52.9676"/>
   <rect id="_505302864" class="fil7" x="731.065" y="1404.28" width="416.025" height="52.9676"/>
   <rect id="_505302696" class="fil7" x="731.065" y="1298.29" width="416.025" height="52.9676"/>
   <circle id="_505304592" class="fil7" cx="939.078" cy="891.993" r="102.666"/>
   <rect id="_505304208" class="fil7" x="827.819" y="1023.99" width="222.518" height="13.62"/>
  </g>
  <g id="_505303488">
   <path id="_505302720" class="fil8" d="M758.565 320.002l180.515 0 0 1408 -180.515 0c-15.1264,0 -27.4996,-12.3744 -27.4996,-27.4996l0 -1353c0,-15.1252 12.3732,-27.4996 27.4996,-27.4996z"/>
   <polygon id="_505302984" class="fil9" points="731.065,564.608 939.08,564.608 939.08,617.575 731.065,617.575 "/>
   <polygon id="_505305024" class="fil9" points="731.065,1404.28 939.08,1404.28 939.08,1457.25 731.065,1457.25 "/>
   <polygon id="_505306008" class="fil9" points="731.065,1298.29 939.08,1298.29 939.08,1351.26 731.065,1351.26 "/>
   <path id="_505303656" class="fil9" d="M939.077 789.328l0.00236221 0 0 205.331 -0.00236221 0c-56.7,0 -102.665,-45.965 -102.665,-102.666 0,-56.7012 45.965,-102.665 102.665,-102.665z"/>
   <polygon id="_505302432" class="fil9" points="827.819,1023.99 939.08,1023.99 939.08,1037.61 827.819,1037.61 "/>
  </g>
  <g id="_505305048">
   <rect id="_505305936" class="fil10" transform="matrix(0.909203 -0.116707 0.116707 0.909203 1203.38 352.215)" width="453.847" height="1536" rx="27.4996" ry="27.4996"/>
   <g>
    <rect id="_505305960" class="fil11" transform="matrix(0.909203 -0.116707 0.116707 0.909203 1234.52 594.83)" width="453.847" height="57.7831"/>
    <rect id="_505303248" class="fil11" transform="matrix(0.909203 -0.116707 0.116707 0.909203 1341.42 1427.67)" width="453.847" height="57.7831"/>
    <rect id="_505305072" class="fil11" transform="matrix(0.909203 -0.116707 0.116707 0.909203 1327.93 1322.54)" width="453.847" height="57.7831"/>
    <circle id="_505303560" class="fil11" transform="matrix(0.909203 -0.116707 0.116707 0.909203 1482.52 893.067)" r="111.999"/>
    <rect id="_505304016" class="fil11" transform="matrix(0.909203 -0.116707 0.116707 0.909203 1388.97 1038.16)" width="242.747" height="14.8583"/>
   </g>
  </g>
  <g id="_506165088">
   <path id="_505305648" class="fil12" d="M1230.65 348.714l179.799 -23.0799 178.906 1396.58 -179.443 23.0339c-15.0036,1.9252 -28.852,-8.77205 -30.7772,-23.7756l-172.26 -1341.98c-1.92638,-15.0024 8.77087,-28.8508 23.7744,-30.7772z"/>
   <g>
    <polygon id="_505304496" class="fil5" points="1234.52,594.83 1441.53,568.257 1448.26,620.795 1241.26,647.366 "/>
    <polygon id="_505303944" class="fil5" points="1341.42,1427.67 1548.22,1401.12 1554.95,1453.66 1348.17,1480.2 "/>
    <polygon id="_505303632" class="fil5" points="1327.93,1322.54 1534.76,1295.99 1541.49,1348.53 1334.67,1375.08 "/>
    <path id="_505306368" class="fil5" d="M1469.45 791.238l0.638977 -0.0732284 26.0882 203.651 -0.584646 0.0826772c-56.2382,7.2189 -107.681,-32.5193 -114.9,-88.7599 -7.22008,-56.2394 32.5205,-107.681 88.7575,-114.9z"/>
    <polygon id="_506164104" class="fil5" points="1388.97,1038.16 1499.9,1023.92 1501.63,1037.43 1390.71,1051.67 "/>
   </g>
  </g>
  <rect class="fil13" width="2048" height="2048"/>
 </g>
</svg>
