<?xml version="1.0" encoding="UTF-8"?>
<!DOCTYPE svg PUBLIC "-//W3C//DTD SVG 1.1//EN" "http://www.w3.org/Graphics/SVG/1.1/DTD/svg11.dtd">
<!-- Creator: CorelDRAW -->
<svg xmlns="http://www.w3.org/2000/svg" xml:space="preserve" width="2048px" height="2048px" style="shape-rendering:geometricPrecision; text-rendering:geometricPrecision; image-rendering:optimizeQuality; fill-rule:evenodd; clip-rule:evenodd"
viewBox="0 0 2048 2048"
 xmlns:xlink="http://www.w3.org/1999/xlink">
 <defs>
  <style type="text/css">
   <![CDATA[
    .fil0 {fill:none}
    .fil4 {fill:#636364}
    .fil2 {fill:#6C6C6C}
    .fil3 {fill:#A4A4A4}
    .fil1 {fill:#BCBCBC}
   ]]>
  </style>
 </defs>
 <g id="Layer_x0020_1">
  <metadata id="CorelCorpID_0Corel-Layer"/>
  <rect class="fil0" width="2048" height="2048"/>
  <g id="_545203744">
   <path id="_545220136" class="fil1" d="M1024 255.999c212.073,0 404.074,85.9631 543.056,224.945 138.982,138.982 224.945,330.983 224.945,543.056 0,212.073 -85.9631,404.074 -224.945,543.056 -138.982,138.982 -330.983,224.945 -543.056,224.945 -212.073,0 -404.074,-85.9631 -543.056,-224.945 -138.982,-138.982 -224.945,-330.983 -224.945,-543.056 0,-212.073 85.9631,-404.074 224.945,-543.056 138.982,-138.982 330.983,-224.945 543.056,-224.945z"/>
   <path id="_545226280" class="fil2" d="M1024 540.206c35.3457,0 63.9993,28.6536 63.9993,63.9993 0,35.3457 -28.1847,63.9993 -63.5304,63.9993 -35.3457,0 -64.4682,-28.6536 -64.4682,-63.9993 0,-35.3457 28.6536,-63.9993 63.9993,-63.9993zm64.0004 196.682l0 763.395 -128.001 0 0 -763.395 128.001 0z"/>
  </g>
  <g id="_545235088">
   <path id="_545229400" class="fil3" d="M1024 255.999l0.00236221 0 0 1536 -0.00236221 0c-212.073,0 -404.074,-85.9631 -543.056,-224.945 -138.982,-138.982 -224.945,-330.983 -224.945,-543.056 0,-212.073 85.9631,-404.074 224.945,-543.056 138.982,-138.982 330.983,-224.945 543.056,-224.945z"/>
   <path id="_545234584" class="fil4" d="M1024 540.206l0.00236221 0 0 127.993c-35.1343,-0.251575 -64.0016,-28.8036 -64.0016,-63.9934 0,-35.3457 28.6536,-63.9993 63.9993,-63.9993zm0.00236221 196.682l0 763.395 -64.0028 0 0 -763.395 64.0028 0z"/>
  </g>
 </g>
</svg>
