<?xml version="1.0" encoding="UTF-8"?>
<!DOCTYPE svg PUBLIC "-//W3C//DTD SVG 1.1//EN" "http://www.w3.org/Graphics/SVG/1.1/DTD/svg11.dtd">
<!-- Creator: CorelDRAW -->
<svg xmlns="http://www.w3.org/2000/svg" xml:space="preserve" width="2048px" height="2048px" style="shape-rendering:geometricPrecision; text-rendering:geometricPrecision; image-rendering:optimizeQuality; fill-rule:evenodd; clip-rule:evenodd"
viewBox="0 0 2048 2048"
 xmlns:xlink="http://www.w3.org/1999/xlink">
 <defs>
  <style type="text/css">
   <![CDATA[
    .fil2 {fill:none}
    .fil1 {fill:#616161}
    .fil0 {fill:#6C6C6C;fill-rule:nonzero}
   ]]>
  </style>
 </defs>
 <g id="Layer_x0020_1">
  <metadata id="CorelCorpID_0Corel-Layer"/>
  <path class="fil0" d="M1600.16 1300.08c0,273.184 -224.529,491.592 -495.89,491.592 -327.369,0 -394.616,-177.527 -477.798,-397.119 -56.4095,-148.919 -104.433,-239.29 -189.951,-369.757 -81.7253,-124.686 86.3894,-253.699 195.838,-89.5572l135.765 235.08c0,-172.329 0.034252,-394.657 0.034252,-566.986 0,-44.1827 35.8181,-80.0008 80.0008,-80.0008 45.8788,0 83.3221,39.4926 79.8272,85.2839l0.132284 479.855c-0.533859,15.2126 17.061,31.8496 33.4028,31.8496 25.0087,0 30.8421,-19.989 30.6331,-28.3229l-0.180709 -755.671c0.257481,-18.2221 3.12638,-80.0008 80.1816,-80.0008 44.1827,0 79.9997,35.8181 79.9997,80.0008l-0.00236221 752.629c0.405118,45.4843 64.056,38.0882 63.9981,-0.262205l0.00826772 -672.375c-0.0578741,-5.34804 15.6933,-63.9993 80.0008,-63.9993 44.4815,0 79.969,22.3417 79.969,66.2103 0,219.891 0.0295276,453.577 0.0295276,673.469 -0.344882,16.2685 16.6914,28.3229 31.9996,28.3229 17.6717,0 32.0008,-14.4071 32.0008,-32.0008 0,-137.711 -0.194882,-233.295 -0.194882,-371.016l0.0980316 0.0484252c1.19173,-43.1422 36.1618,-77.7508 79.9678,-77.7508 43.8059,0 79.9997,57.5752 79.9997,80.0008 0,158.658 0.129921,394.747 0.129921,580.479z"/>
  <path class="fil1" d="M436.525 1024.8c85.5178,130.467 133.541,220.838 189.951,369.757 83.1816,219.592 150.429,397.119 477.798,397.119 271.361,0 495.89,-218.407 495.89,-491.592l0 -108.364c-105.397,105.626 -269.893,173.567 -454.721,173.567 -196.275,0 -369.619,-76.6158 -473.612,-193.616 -24.6792,-27.7654 -45.4536,-57.8067 -61.6997,-89.6375l-145.52 -211.409c-51.5091,38.889 -66.2032,96.0202 -28.0855,154.175z"/>
  <rect class="fil2" width="2048" height="2048"/>
 </g>
</svg>
