<?xml version="1.0" encoding="UTF-8"?>
<!DOCTYPE svg PUBLIC "-//W3C//DTD SVG 1.1//EN" "http://www.w3.org/Graphics/SVG/1.1/DTD/svg11.dtd">
<!-- Creator: CorelDRAW -->
<svg xmlns="http://www.w3.org/2000/svg" xml:space="preserve" width="2048px" height="2048px" style="shape-rendering:geometricPrecision; text-rendering:geometricPrecision; image-rendering:optimizeQuality; fill-rule:evenodd; clip-rule:evenodd"
viewBox="0 0 2048 2048"
 xmlns:xlink="http://www.w3.org/1999/xlink">
 <defs>
  <style type="text/css">
   <![CDATA[
    .fil4 {fill:none}
    .fil1 {fill:#7F7F7F;fill-rule:nonzero}
    .fil2 {fill:#858585;fill-rule:nonzero}
    .fil0 {fill:#8C8D8D;fill-rule:nonzero}
    .fil3 {fill:#979797;fill-rule:nonzero}
   ]]>
  </style>
 </defs>
 <g id="Layer_x0020_1">
  <metadata id="CorelCorpID_0Corel-Layer"/>
  <g id="_545225944">
   <path id="_545223304" class="fil0" d="M1007.98 1767.48l-113.478 -80.5926 -24.6213 -209.964c16.7457,-165.097 -12.2469,-327.938 -28.9807,-491.673l-2.24764 -332.7 0.962599 -152.345c0,-70.7623 27.4299,-136.854 70.076,-192.768 27.639,-36.2386 63.828,-62.9327 98.2891,-75.9591 34.4611,13.0264 70.6501,39.7205 98.2891,75.9591 42.6461,55.9134 70.076,122.006 70.076,192.768l0.962599 152.345 -2.24764 332.7c-16.7339,163.735 -45.7264,326.576 -28.9807,491.673l-24.6213 209.964 -113.478 80.5926z"/>
   <polygon id="_545224264" class="fil1" points="884.005,1471.97 908.383,1681.99 661.182,1744.18 622.682,1753.63 622.682,1714.67 622.682,1616.83 622.682,1597.43 640.6,1589.23 884.005,1479.32 "/>
   <polygon id="_545217040" class="fil2" points="1131.95,1471.97 1107.58,1681.99 1354.78,1744.18 1393.28,1753.63 1393.28,1714.67 1393.28,1616.83 1393.28,1597.43 1375.36,1589.23 1131.95,1479.32 "/>
   <path id="_545233336" class="fil1" d="M852.885 980.631l-0.5563 -7.57205 -566.235 118.869 -46.115 9.64489 9.43347 -45.45 32.7992 -158.006 3.24567 -15.6307 14.9138 -6.2563c179.414,-75.2611 371.044,-153.306 550.374,-228.766l2.14016 333.167z"/>
   <path id="_545215480" class="fil2" d="M1163.07 980.631l0.5563 -7.57205 566.235 118.869 46.115 9.64489 -9.43347 -45.45 -32.7992 -158.006 -3.24567 -15.6307 -14.9138 -6.2563c-179.414,-75.2611 -371.044,-153.306 -550.374,-228.766l-2.14016 333.167z"/>
   <path id="_545208064" class="fil0" d="M1007.98 1767.48l-113.478 -80.5926 -24.6213 -209.964c16.7457,-165.097 -12.2469,-327.938 -28.9807,-491.673l-2.24764 -332.7 0.962599 -152.345c0,-70.7623 27.4299,-136.854 70.076,-192.768 27.639,-36.2386 63.828,-62.9327 98.2891,-75.9591l0 1536z"/>
   <path id="_545221144" class="fil3" d="M1007.98 1767.48l113.478 -80.5926 24.6213 -209.964c-16.7457,-165.097 12.2469,-327.938 28.9807,-491.673l2.24764 -332.7 -0.962599 -152.345c0,-70.7623 -27.4299,-136.854 -70.076,-192.768 -27.639,-36.2386 -63.828,-62.9327 -98.2891,-75.9591l0 1536z"/>
  </g>
  <rect class="fil4" width="2048" height="2048"/>
 </g>
</svg>
