<?xml version="1.0" encoding="UTF-8"?>
<!DOCTYPE svg PUBLIC "-//W3C//DTD SVG 1.1//EN" "http://www.w3.org/Graphics/SVG/1.1/DTD/svg11.dtd">
<!-- Creator: CorelDRAW -->
<svg xmlns="http://www.w3.org/2000/svg" xml:space="preserve" width="2048px" height="2048px" style="shape-rendering:geometricPrecision; text-rendering:geometricPrecision; image-rendering:optimizeQuality; fill-rule:evenodd; clip-rule:evenodd"
viewBox="0 0 2048 2048"
 xmlns:xlink="http://www.w3.org/1999/xlink">
 <defs>
  <style type="text/css">
   <![CDATA[
    .fil9 {fill:none}
    .fil10 {fill:#202020}
    .fil4 {fill:#757575}
    .fil8 {fill:#C9C9C9}
    .fil1 {fill:#3C3C3C;fill-rule:nonzero}
    .fil0 {fill:#414141;fill-rule:nonzero}
    .fil2 {fill:#5A5A5A;fill-rule:nonzero}
    .fil3 {fill:#6C6C6C;fill-rule:nonzero}
    .fil5 {fill:#717171;fill-rule:nonzero}
    .fil6 {fill:gray;fill-rule:nonzero}
    .fil7 {fill:#919191;fill-rule:nonzero}
   ]]>
  </style>
 </defs>
 <g id="Layer_x0020_1">
  <metadata id="CorelCorpID_0Corel-Layer"/>
  <g id="_545214568">
   <path id="_545219272" class="fil0" d="M1189.39 1266.09l89.2052 0 154.526 -123.726 52.0004 -41.6351 0 66.5103 0 261.379 0 0.316536 0 261.694 0 66.5115 -52.0004 -41.6363 -154.523 -123.723 -89.2087 0c-17.2665,0 -32.9422,-7.04174 -44.2819,-18.3839 -11.3421,-11.3421 -18.3839,-27.0189 -18.3839,-44.2831l0 -100.179 0 -0.825591 0 -99.3532c0,-17.2642 7.04174,-32.9398 18.3827,-44.2831 11.3433,-11.341 27.0189,-18.3827 44.2831,-18.3827z"/>
   <path id="_545230720" class="fil1" d="M1485.12 1428.94l0 261.694 0 66.5115 -52.0004 -41.6363 -154.523 -123.723 -89.2087 0c-17.2665,0 -32.9422,-7.04174 -44.2819,-18.3839 -11.3421,-11.3421 -18.3839,-27.0189 -18.3839,-44.2831l0 -100.179 358.398 0z"/>
   <polygon id="_545203552" class="fil2" points="1485.12,1428.94 1485.12,1690.63 1485.12,1757.14 1433.12,1715.5 1278.6,1591.78 1277.94,1591.78 1277.67,1591.78 1277.67,1428.94 "/>
   <path id="_545210320" class="fil3" d="M1277.67 1266.09l0.917717 0 0.209055 -0.167717 154.317 -123.559 30.0142 -24.0295c7.32875,-5.8689 14.6575,-11.7366 21.9862,-17.6055l0 29.6315 0 36.8788 0 261.379 0 0.316536 -207.444 0 0 -0.61063 0 -162.234z"/>
  </g>
  <path class="fil4" d="M1464.61 295.876l231.045 150.041c9.20316,5.98229 15.111,15.111 17.2158,25.0016 2.09291,9.87402 0.409843,20.6079 -5.5689,29.8146l-279.567 430.496c-5.98111,9.20079 -15.1099,15.111 -25.0016,17.2158 -9.87284,2.09291 -20.6091,0.409843 -29.8146,-5.5689l-231.045 -150.043c-9.20316,-5.97638 -15.1169,-15.111 -17.2146,-25.0004 -2.1,-9.8752 -0.407481,-20.6055 5.5689,-29.8146l279.567 -430.496c5.97874,-9.20552 15.1099,-15.1122 25.0016,-17.2158 9.87166,-2.0941 20.6079,-0.409843 29.8134,5.5689zm176.028 190.38l-190.506 -123.715 -215.988 332.593 190.505 123.716 215.99 -332.594zm-352.196 281.738l49.2945 32.0126 -32.0114 49.2945 -49.2957 -32.0126 32.0126 -49.2945z"/>
  <g id="_545227696">
   <path id="_545205160" class="fil0" d="M318.665 456.195l89.2052 0 154.526 -123.726 52.0004 -41.6351 0 66.5103 0 261.379 0 0.316536 0 261.694 0 66.5115 -52.0004 -41.6363 -154.523 -123.723 -89.2087 0c-17.2665,0 -32.9422,-7.04174 -44.2819,-18.3839 -11.3421,-11.3421 -18.3839,-27.0189 -18.3839,-44.2831l0 -100.179 0 -0.825591 0 -99.3532c0,-17.2642 7.04174,-32.9398 18.3827,-44.2831 11.3433,-11.341 27.0189,-18.3827 44.2831,-18.3827z"/>
   <path id="_545229832" class="fil1" d="M614.397 619.04l0 261.694 0 66.5115 -52.0004 -41.6363 -154.523 -123.723 -89.2087 0c-17.2665,0 -32.9422,-7.04174 -44.2819,-18.3839 -11.3421,-11.3421 -18.3839,-27.0189 -18.3839,-44.2831l0 -100.179 358.398 0z"/>
   <polygon id="_545227336" class="fil2" points="614.397,619.04 614.397,880.733 614.397,947.245 562.396,905.609 407.874,781.886 407.222,781.886 406.953,781.886 406.953,619.04 "/>
   <path id="_545224288" class="fil3" d="M406.953 456.195l0.917717 0 0.209055 -0.167717 154.317 -123.559 30.0142 -24.0295c7.32875,-5.8689 14.6575,-11.7366 21.9862,-17.6055l0 29.6315 0 36.8788 0 261.379 0 0.316536 -207.444 0 0 -0.61063 0 -162.234z"/>
   <path id="_545227144" class="fil5" d="M856.705 971.329c-11.7354,13.1847 -31.9406,14.3599 -45.1252,2.62441 -13.1847,-11.7354 -14.3599,-31.9406 -2.62441,-45.1252 36.9331,-41.5725 65.5666,-89.1095 84.9331,-140.071 19.3866,-51.013 29.563,-105.638 29.563,-161.334 0,-59.3126 -11.5831,-117.41 -33.5114,-171.249 -21.9555,-53.9079 -54.2398,-103.566 -95.6079,-145.926 -12.287,-12.6331 -12.0071,-32.8382 0.625985,-45.1252 12.6331,-12.287 32.8382,-12.0071 45.1252,0.625985 47.2583,48.3922 84.1005,105.025 109.108,166.426 25.0358,61.4705 38.2618,127.712 38.2618,195.249 0,63.2375 -11.6398,125.484 -33.815,183.834 -22.1941,58.402 -54.8752,112.73 -96.9331,160.071z"/>
   <path id="_545225152" class="fil6" d="M757.843 858.349c-10.9075,13.8071 -30.9437,16.1575 -44.7508,5.25 -13.8071,-10.9075 -16.1575,-30.9437 -5.25,-44.7508 21.1819,-26.7709 37.5638,-56.8075 48.6756,-88.7575 11.0079,-31.6571 16.7469,-65.3516 16.7469,-99.743 0,-39.0874 -7.41497,-77.2323 -21.4772,-112.517 -14.0906,-35.3528 -34.9028,-68.1119 -61.6666,-96.3532 -12.15,-12.7713 -11.6469,-32.9752 1.12441,-45.1252 12.7713,-12.15 32.9752,-11.6469 45.1252,1.12441 32.3209,34.1055 57.5221,73.8367 74.6682,116.855 17.1732,43.089 26.2276,89.2075 26.2276,136.016 0,41.2004 -7.02402,81.9957 -20.498,120.743 -13.3736,38.4567 -33.2055,74.752 -58.9252,107.258z"/>
  </g>
  <g id="_545222608">
   <path id="_545219488" class="fil0" d="M318.665 1266.09l89.2052 0 154.526 -123.726 52.0004 -41.6351 0 66.5103 0 261.379 0 0.316536 0 261.694 0 66.5115 -52.0004 -41.6363 -154.523 -123.723 -89.2087 0c-17.2665,0 -32.9422,-7.04174 -44.2819,-18.3839 -11.3421,-11.3421 -18.3839,-27.0189 -18.3839,-44.2831l0 -100.179 0 -0.825591 0 -99.3532c0,-17.2642 7.04174,-32.9398 18.3827,-44.2831 11.3433,-11.341 27.0189,-18.3827 44.2831,-18.3827z"/>
   <path id="_545230360" class="fil1" d="M614.397 1428.94l0 261.694 0 66.5115 -52.0004 -41.6363 -154.523 -123.723 -89.2087 0c-17.2665,0 -32.9422,-7.04174 -44.2819,-18.3839 -11.3421,-11.3421 -18.3839,-27.0189 -18.3839,-44.2831l0 -100.179 358.398 0z"/>
   <polygon id="_545212072" class="fil2" points="614.397,1428.94 614.397,1690.63 614.397,1757.14 562.396,1715.5 407.874,1591.78 407.222,1591.78 406.953,1591.78 406.953,1428.94 "/>
   <path id="_545210056" class="fil3" d="M406.953 1266.09l0.917717 0 0.209055 -0.167717 154.317 -123.559 30.0142 -24.0295c7.32875,-5.8689 14.6575,-11.7366 21.9862,-17.6055l0 29.6315 0 36.8788 0 261.379 0 0.316536 -207.444 0 0 -0.61063 0 -162.234z"/>
  </g>
  <path class="fil3" d="M1528.63 1359.06c-12.4949,-12.4949 -12.4949,-32.7555 0,-45.2504 12.4949,-12.4949 32.7555,-12.4949 45.2504,0l69.8965 69.8965 69.8953 -69.8965c12.4949,-12.4949 32.7555,-12.4949 45.2504,0 12.4949,12.4949 12.4949,32.7555 0,45.2504l-69.8965 69.8965 69.8965 69.8965c12.4949,12.4949 12.4949,32.7555 0,45.2504 -12.4949,12.4949 -32.7555,12.4949 -45.2504,0l-69.8953 -69.8965 -69.8965 69.8965c-12.4949,12.4949 -32.7555,12.4949 -45.2504,0 -12.4949,-12.4949 -12.4949,-32.7555 0,-45.2504l69.8965 -69.8965 -69.8965 -69.8965z"/>
  <path class="fil5" d="M935.322 1781.2c-11.7354,13.1847 -31.9406,14.3599 -45.1252,2.62441 -13.1847,-11.7354 -14.3599,-31.9406 -2.62441,-45.1252 36.9331,-41.5725 65.5666,-89.1095 84.9331,-140.071 19.3866,-51.013 29.563,-105.638 29.563,-161.334 0,-59.3126 -11.5831,-117.41 -33.5114,-171.249 -21.9555,-53.9079 -54.2386,-103.565 -95.6079,-145.926 -12.287,-12.6331 -12.0071,-32.8382 0.625985,-45.1252 12.6331,-12.287 32.8382,-12.0071 45.1252,0.625985 47.2595,48.3933 84.1005,105.025 109.108,166.426 25.0358,61.4705 38.2618,127.714 38.2618,195.249 0,63.2375 -11.6398,125.484 -33.815,183.834 -22.1941,58.402 -54.8752,112.73 -96.9331,160.071z"/>
  <path class="fil6" d="M810.037 1668.22c-10.9075,13.8071 -30.9437,16.1575 -44.7508,5.25 -13.8071,-10.9075 -16.1575,-30.9437 -5.25,-44.7508 21.1819,-26.7709 37.5638,-56.8087 48.6744,-88.7587 11.0091,-31.6559 16.7469,-65.3516 16.7469,-99.7418 0,-39.0874 -7.41497,-77.2335 -21.4772,-112.517 -14.0906,-35.354 -34.9028,-68.113 -61.6666,-96.3532 -12.15,-12.7713 -11.6469,-32.9752 1.12441,-45.1252 12.7713,-12.15 32.9752,-11.6469 45.1252,1.12441 32.3209,34.1032 57.5221,73.8355 74.6682,116.855 17.1732,43.0878 26.2276,89.2087 26.2276,136.016 0,41.1992 -7.02284,81.9946 -20.498,120.742 -13.3725,38.4555 -33.2032,74.752 -58.9241,107.26z"/>
  <path class="fil7" d="M729.473 1541.29c-10.9075,13.8071 -30.9437,16.1575 -44.7508,5.25 -13.8071,-10.9075 -16.1575,-30.9437 -5.25,-44.7508 7.62402,-9.63662 13.5402,-20.5016 17.5736,-32.1012 3.93071,-11.3055 5.98111,-23.4697 5.98111,-36.0107 0,-14.2606 -2.65512,-28.05 -7.6878,-40.6796 -5.06221,-12.6992 -12.5752,-24.5067 -22.2603,-34.7256 -12.15,-12.7713 -11.6469,-32.9752 1.12441,-45.1252 12.7713,-12.15 32.9752,-11.6469 45.1252,1.12441 15.241,16.0819 27.1441,34.8626 35.2618,55.2272 8.14371,20.4343 12.4382,42.1985 12.4382,64.1788 0,19.35 -3.33544,38.6138 -9.73229,57.0107 -6.29528,18.1051 -15.6614,35.2299 -27.8232,50.602z"/>
  <path class="fil0" d="M1304.29 324.362c9.59528,-14.7732 29.3516,-18.9697 44.1248,-9.37442 14.7732,9.59528 18.9697,29.3516 9.37442,44.1248l-143.993 221.73c-9.59528,14.7732 -29.3516,18.9697 -44.1248,9.37442 -14.7732,-9.59528 -18.9697,-29.3516 -9.37442,-44.1248l143.993 -221.73z"/>
  <path class="fil0" d="M1223.37 303.336c9.59528,-14.7732 29.3516,-18.9697 44.1248,-9.37442 14.7732,9.59528 18.9697,29.3516 9.37442,44.1248l-115.194 177.384c-9.59528,14.7732 -29.3516,18.9697 -44.1248,9.37442 -14.7732,-9.59528 -18.9697,-29.3516 -9.37442,-44.1248l115.194 -177.384z"/>
  <path class="fil0" d="M1681.23 569.149c9.59528,-14.7732 29.3516,-18.9697 44.1248,-9.37442 14.7732,9.59528 18.9697,29.3516 9.37442,44.1248l-143.992 221.73c-9.59528,14.7732 -29.3516,18.9697 -44.1248,9.37442 -14.7732,-9.59528 -18.9697,-29.3516 -9.37442,-44.1248l143.992 -221.73z"/>
  <path class="fil0" d="M1733.35 634.521c9.59528,-14.7732 29.3516,-18.9697 44.1248,-9.37442 14.7732,9.59528 18.9697,29.3516 9.37442,44.1248l-115.194 177.384c-9.59528,14.7732 -29.3516,18.9697 -44.1248,9.37442 -14.7732,-9.59528 -18.9697,-29.3516 -9.37442,-44.1248l115.194 -177.384z"/>
  <polygon class="fil8" points="1450.13,362.541 1234.14,695.134 1424.65,818.849 1640.64,486.255 "/>
  <rect class="fil9" width="2048" height="2048"/>
  <polygon class="fil10" points="1288.44,767.994 1256.43,817.288 1305.73,849.301 1337.74,800.006 "/>
  <rect class="fil9" width="2048" height="2048"/>
 </g>
</svg>
