<?xml version="1.0" encoding="UTF-8"?>
<!DOCTYPE svg PUBLIC "-//W3C//DTD SVG 1.1//EN" "http://www.w3.org/Graphics/SVG/1.1/DTD/svg11.dtd">
<!-- Creator: CorelDRAW -->
<svg xmlns="http://www.w3.org/2000/svg" xml:space="preserve" width="2048px" height="2048px" style="shape-rendering:geometricPrecision; text-rendering:geometricPrecision; image-rendering:optimizeQuality; fill-rule:evenodd; clip-rule:evenodd"
viewBox="0 0 2048 2048"
 xmlns:xlink="http://www.w3.org/1999/xlink">
 <defs>
  <style type="text/css">
   <![CDATA[
    .fil8 {fill:none}
    .fil1 {fill:#111111}
    .fil0 {fill:#1E1E1E}
    .fil10 {fill:#6C6C6C}
    .fil6 {fill:#727272}
    .fil5 {fill:#8A8A8A}
    .fil7 {fill:#9A9A9A}
    .fil3 {fill:#AEAEAF}
    .fil2 {fill:#B9BABA}
    .fil4 {fill:white}
    .fil9 {fill:#6C6C6C;fill-rule:nonzero}
   ]]>
  </style>
 </defs>
 <g id="Layer_x0020_1">
  <metadata id="CorelCorpID_0Corel-Layer"/>
  <g id="_545227552">
   <g>
    <g>
     <path id="_545230072" class="fil0" d="M1209.45 759.171l536.718 0c6.12638,0 12.052,1.25315 17.5217,3.52323 5.56063,2.30669 10.6087,5.72717 14.8701,9.98977 4.21063,4.213 7.60749,9.23505 9.91891,14.8028 2.2689,5.46615 3.52441,11.3894 3.52441,17.5264l0 920.657c0,6.13701 -1.25551,12.0602 -3.52441,17.5264 -2.31142,5.56772 -5.70827,10.5898 -9.91891,14.8016 -4.26142,4.26378 -9.30946,7.68426 -14.8701,9.99095 -5.46969,2.27008 -11.3953,3.52323 -17.5217,3.52323l-536.718 0c-6.12756,0 -12.052,-1.25315 -17.5217,-3.52323 -5.56063,-2.30669 -10.6087,-5.72717 -14.8701,-9.99095 -4.21181,-4.21181 -7.60749,-9.23387 -9.91891,-14.8016 -2.2689,-5.46615 -3.52441,-11.3894 -3.52441,-17.5264l0 -920.657c0,-6.13701 1.25551,-12.0602 3.52441,-17.5264 2.31142,-5.56772 5.70709,-10.5898 9.91891,-14.8028 4.26142,-4.2626 9.30946,-7.68308 14.8701,-9.98977 5.46969,-2.27008 11.3941,-3.52323 17.5217,-3.52323z"/>
     <polygon id="_545228128" class="fil1" points="1224.31,836.936 1731.3,836.936 1731.3,1530.09 1224.31,1530.09 "/>
     <polygon id="_545211784" class="fil2" points="1230.51,847.333 1723.2,847.333 1723.2,1530.09 1230.51,1530.09 "/>
     <polygon id="_545230864" class="fil2" points="1302.99,847.333 1303.7,847.333 1723.2,847.333 1723.2,1530.09 1611.43,1530.09 1611.41,1530.09 "/>
     <polygon id="_545226064" class="fil3" points="1230.51,847.333 1302.99,847.333 1611.41,1530.09 1230.51,1530.09 "/>
     <rect id="_545207200" class="fil4" x="1426.28" y="795.715" width="103.059" height="11.5167" rx="5.75788" ry="5.75788"/>
     <path id="_545208040" class="fil4" d="M1477.46 1562.11c9.28465,0 18.2799,1.88858 26.6055,5.32796 8.54883,3.53268 16.2378,8.70946 22.6689,15.1583 6.37441,6.39331 11.5358,14.0823 15.0839,22.6819 3.43465,8.32087 5.3315,17.3244 5.3315,26.6528 0,9.3567 -1.89803,18.3744 -5.33504,26.6799 -3.51142,8.48386 -8.67048,16.141 -15.0803,22.5697 -6.46418,6.48426 -14.1402,11.6929 -22.6217,15.2197 -8.28898,3.44646 -17.2961,5.3504 -26.6528,5.3504 -9.35552,0 -18.3638,-1.90394 -26.6516,-5.3504 -8.4815,-3.52677 -16.1575,-8.73544 -22.6217,-15.2197 -6.40985,-6.42875 -11.5689,-14.0858 -15.0815,-22.5697 -3.43583,-8.30552 -5.33386,-17.3232 -5.33386,-26.6799 0,-9.32835 1.89685,-18.3319 5.3315,-26.6528 3.54803,-8.59961 8.70946,-16.2886 15.0839,-22.6819 6.42993,-6.44882 14.1201,-11.6256 22.6689,-15.1583 8.3256,-3.43937 17.3197,-5.32796 26.6044,-5.32796z"/>
     <path id="_545223688" class="fil1" d="M1477.46 1575.47c7.50827,0 14.7815,1.52717 21.5138,4.30866 6.913,2.85591 13.1303,7.04174 18.3307,12.2575 5.15433,5.16969 9.32835,11.387 12.1973,18.3402 2.77677,6.72875 4.31103,14.0102 4.31103,21.5528 0,7.56615 -1.53425,14.8583 -4.31339,21.574 -2.84055,6.85985 -7.01221,13.0512 -12.1949,18.2504 -5.22638,5.24292 -11.4343,9.45473 -18.2929,12.3071 -6.70158,2.78622 -13.9854,4.32638 -21.5516,4.32638 -7.56497,0 -14.8488,-1.54016 -21.5516,-4.32638 -6.85749,-2.85236 -13.0654,-7.06418 -18.2917,-12.3071 -5.18386,-5.19922 -9.35552,-11.3906 -12.1949,-18.2504 -2.77914,-6.71575 -4.31339,-14.0079 -4.31339,-21.574 0,-7.54253 1.53425,-14.824 4.31103,-21.5528 2.8689,-6.95315 7.04174,-13.1705 12.1973,-18.3402 5.19922,-5.21575 11.4177,-9.40158 18.3307,-12.2575 6.73229,-2.7815 14.0055,-4.30866 21.5126,-4.30866z"/>
    </g>
    <g>
     <path id="_545217112" class="fil5" d="M256.002 1725.68l0 -536.717c0,-6.12756 1.25197,-12.0532 3.52323,-17.5228 2.30669,-5.56063 5.72717,-10.6075 9.98977,-14.8701 4.213,-4.21063 9.23387,-7.60749 14.8028,-9.91891 5.46496,-2.26772 11.3894,-3.52441 17.5252,-3.52441l920.658 0c6.13583,0 12.0602,1.25669 17.5252,3.52441 5.5689,2.31142 10.5898,5.70827 14.8028,9.91891 4.2626,4.2626 7.68308,9.30946 9.99095,14.8701 2.27008,5.46969 3.52323,11.3953 3.52323,17.5228l0 536.717c0,6.12756 -1.25315,12.052 -3.52323,17.5217 -2.30788,5.56063 -5.72835,10.6087 -9.99095,14.8713 -4.213,4.21063 -9.23387,7.60631 -14.8028,9.91772 -5.46496,2.2689 -11.3894,3.52559 -17.5252,3.52559l-920.658 0c-6.13583,0 -12.0602,-1.25669 -17.5252,-3.52559 -5.5689,-2.31142 -10.5898,-5.70709 -14.8028,-9.91772 -4.2626,-4.2626 -7.68308,-9.31064 -9.98977,-14.8713 -2.27126,-5.46969 -3.52323,-11.3941 -3.52323,-17.5217z"/>
     <polygon id="_545229256" class="fil6" points="333.767,1710.81 333.767,1203.82 1026.92,1203.82 1026.92,1710.81 "/>
     <polygon id="_545219464" class="fil2" points="344.164,1704.62 344.164,1211.92 1026.92,1211.92 1026.92,1704.62 "/>
     <polygon id="_545212432" class="fil2" points="344.163,1632.13 344.163,1631.42 344.163,1211.92 1026.92,1211.92 1026.92,1323.69 1026.92,1323.71 "/>
     <polygon id="_545206336" class="fil3" points="344.163,1704.62 344.163,1632.13 1026.92,1323.71 1026.92,1704.62 "/>
     <rect id="_545215984" class="fil4" transform="matrix(9.11927E-015 -0.344324 0.548323 1.45221E-014 292.546 1508.85)" width="299.309" height="21.0036" rx="5.75788" ry="5.75788"/>
     <path id="_545221264" class="fil4" d="M1058.94 1457.66c0,-9.28465 1.88858,-18.2788 5.32796,-26.6055 3.5315,-8.54764 8.70827,-16.2378 15.1571,-22.6689 6.39449,-6.37441 14.0835,-11.5347 22.6819,-15.0839 8.32087,-3.43347 17.3256,-5.3315 26.6528,-5.3315 9.35788,0 18.3756,1.89803 26.6799,5.33504 8.48386,3.51142 16.141,8.67048 22.5709,15.0803 6.48426,6.46418 11.6917,14.1402 15.2185,22.6217 3.44646,8.28898 5.35158,17.2961 5.35158,26.6528 0,9.35552 -1.90512,18.3638 -5.35158,26.6516 -3.52677,8.4815 -8.73426,16.1575 -15.2185,22.6217 -6.42993,6.40985 -14.087,11.5689 -22.5709,15.0815 -8.30434,3.43583 -17.3221,5.33386 -26.6799,5.33386 -9.32717,0 -18.3319,-1.89685 -26.6528,-5.33032 -8.59843,-3.54922 -16.2874,-8.70946 -22.6819,-15.0851 -6.44882,-6.42993 -11.6256,-14.1201 -15.1571,-22.6689 -3.43937,-8.3256 -5.32796,-17.3197 -5.32796,-26.6044z"/>
     <path id="_545213512" class="fil7" d="M1072.31 1457.66c0,-7.50827 1.52717,-14.7815 4.30866,-21.5138 2.85591,-6.91182 7.04174,-13.1303 12.2563,-18.3307 5.17087,-5.15433 11.3882,-9.32717 18.3414,-12.1973 6.72875,-2.77677 14.0091,-4.31103 21.5516,-4.31103 7.56733,0 14.8595,1.53543 21.574,4.31339 6.86103,2.84055 13.0524,7.01221 18.2516,12.1949 5.24292,5.22756 9.45473,11.4343 12.3059,18.2929 2.7874,6.70158 4.32756,13.9854 4.32756,21.5516 0,7.56497 -1.54016,14.8488 -4.32756,21.5516 -2.85118,6.85749 -7.063,13.0654 -12.3059,18.2917 -5.19922,5.18386 -11.3906,9.35552 -18.2516,12.1949 -6.71457,2.77914 -14.0067,4.31457 -21.574,4.31457 -7.54253,0 -14.8228,-1.53425 -21.5516,-4.31103 -6.95315,-2.87008 -13.1705,-7.04292 -18.3414,-12.1984 -5.21457,-5.19922 -9.4004,-11.4177 -12.2563,-18.3295 -2.7815,-6.73347 -4.30866,-14.0067 -4.30866,-21.5138z"/>
    </g>
   </g>
   <path id="_545229856" class="fil8" d="M1279.99 395.51c-335.79,0 -608.001,272.211 -608.001,608.001"/>
   <g>
    <path id="_545224312" class="fil9" d="M1154.61 493.614c-113.256,0 -215.786,45.9036 -290,120.117 -74.2134,74.2134 -120.117,176.744 -120.117,290l-96.4985 0c0,-139.892 56.7071,-266.548 148.388,-358.227 91.6808,-91.6808 218.335,-148.388 358.227,-148.388l0 96.4985z"/>
    <polygon id="_545229352" class="fil10" points="536.582,807.226 877.753,807.226 707.168,977.813 "/>
    <polygon id="_545210512" class="fil10" points="1141.41,617.659 1141.41,276.488 1312,447.074 "/>
   </g>
  </g>
  <rect class="fil8" width="2048" height="2048"/>
 </g>
</svg>
