<?xml version="1.0" encoding="UTF-8"?>
<!DOCTYPE svg PUBLIC "-//W3C//DTD SVG 1.1//EN" "http://www.w3.org/Graphics/SVG/1.1/DTD/svg11.dtd">
<!-- Creator: CorelDRAW -->
<svg xmlns="http://www.w3.org/2000/svg" xml:space="preserve" width="2048px" height="2048px" style="shape-rendering:geometricPrecision; text-rendering:geometricPrecision; image-rendering:optimizeQuality; fill-rule:evenodd; clip-rule:evenodd"
viewBox="0 0 2048 2048"
 xmlns:xlink="http://www.w3.org/1999/xlink">
 <defs>
  <style type="text/css">
   <![CDATA[
    .fil4 {fill:none}
    .fil1 {fill:#616161}
    .fil0 {fill:#6C6C6C}
    .fil3 {fill:#686868;fill-rule:nonzero}
    .fil2 {fill:#727272;fill-rule:nonzero}
   ]]>
  </style>
 </defs>
 <g id="Layer_x0020_1">
  <metadata id="CorelCorpID_0Corel-Layer"/>
  <path class="fil0" d="M510 1568l769.992 0c102.124,0 199.016,-40.7174 271.153,-112.854 72.1371,-72.1371 112.854,-169.029 112.854,-271.153 0,-102.123 -40.7185,-199.017 -112.854,-271.153 -72.1359,-72.1359 -169.03,-112.854 -271.153,-112.854l-828.585 0 0 -128.001 828.585 0c136.12,0 265.488,54.1796 361.659,150.35 96.1702,96.169 150.35,225.54 150.35,361.659 0,136.12 -54.1796,265.487 -150.35,361.659 -96.1713,96.1702 -225.539,150.35 -361.659,150.35l-769.992 0 0 -128.001z"/>
  <path class="fil1" d="M510 1568l769.992 0c102.124,0 199.016,-40.7174 271.153,-112.854 72.1371,-72.1371 112.854,-169.029 112.854,-271.153 0,-102.123 -40.7185,-199.017 -112.854,-271.153 -72.1359,-72.1359 -169.03,-112.854 -271.153,-112.854l-828.585 0 0 -67.1209 813.471 0c123.122,0 240.137,50.5335 327.124,134.68 86.9847,84.1465 135.993,197.346 135.993,316.448 0,119.104 -49.0063,232.299 -135.993,316.448 -86.9883,84.1477 -204.004,131.555 -327.124,131.555l-754.877 0 0 -63.9957z"/>
  <polygon class="fil2" points="595.411,1072.19 278.625,755.403 255.999,732.779 278.625,710.153 595.411,393.366 "/>
  <polygon class="fil3" points="595.411,1072.19 278.625,755.403 255.999,732.779 256.001,732.778 595.411,732.778 "/>
  <rect class="fil4" width="2048" height="2048"/>
 </g>
</svg>
