<?xml version="1.0" encoding="UTF-8"?>
<!DOCTYPE svg PUBLIC "-//W3C//DTD SVG 1.1//EN" "http://www.w3.org/Graphics/SVG/1.1/DTD/svg11.dtd">
<!-- Creator: CorelDRAW -->
<svg xmlns="http://www.w3.org/2000/svg" xml:space="preserve" width="2048px" height="2048px" style="shape-rendering:geometricPrecision; text-rendering:geometricPrecision; image-rendering:optimizeQuality; fill-rule:evenodd; clip-rule:evenodd"
viewBox="0 0 2048 2048"
 xmlns:xlink="http://www.w3.org/1999/xlink">
 <defs>
  <style type="text/css">
   <![CDATA[
    .fil3 {fill:none}
    .fil1 {fill:#545454}
    .fil0 {fill:#7D7D7D;fill-rule:nonzero}
    .fil2 {fill:#8A8A8A;fill-rule:nonzero}
   ]]>
  </style>
 </defs>
 <g id="Layer_x0020_1">
  <metadata id="CorelCorpID_0Corel-Layer"/>
  <path class="fil0" d="M1022.75 874.101c41.3894,0 78.8646,16.7799 105.992,43.9063 27.1276,27.1276 43.9075,64.6028 43.9075,105.992 0,41.3894 -16.7799,78.8646 -43.9075,105.992 -27.1276,27.1264 -64.6028,43.9063 -105.992,43.9063 -41.3882,0 -78.8634,-16.7799 -105.992,-43.9063 -27.1264,-27.1276 -43.9063,-64.6028 -43.9063,-105.992 0,-41.3894 16.7799,-78.8646 43.9063,-105.992 27.1288,-27.1264 64.604,-43.9063 105.992,-43.9063z"/>
  <path class="fil1" d="M351.781 690.08c56.4,-113.359 140.724,-210.783 245.7,-283.128 125.18,-86.2654 273.216,-132.449 425.272,-132.449 199.433,0 388.975,78.528 529.973,219.525 140.997,140.998 219.525,330.541 219.525,529.973 0,199.432 -78.528,388.975 -219.525,529.973 -140.998,140.997 -330.54,219.525 -529.973,219.525 -188.041,0 -367.927,-70.0796 -506.501,-197.128 -138.558,-127.034 -223.891,-300.169 -240.175,-487.47l-2.59843 -29.8866 119.464 -10.3063 2.59488 29.8477c13.6843,157.4 85.3087,302.825 201.753,409.585 116.427,106.743 267.503,165.437 425.463,165.437 167.574,0 326.707,-65.9209 445.181,-184.396 118.474,-118.474 184.396,-277.607 184.396,-445.18 0,-167.574 -65.9221,-326.706 -184.396,-445.18 -118.474,-118.475 -277.608,-184.396 -445.181,-184.396 -127.726,0 -252.109,38.6044 -357.285,111.085 -82.1327,56.602 -149.157,131.484 -196.241,218.419l-117.445 -33.8481z"/>
  <polygon class="fil2" points="651.21,738.795 369.431,833.581 341.02,843.139 331.461,814.726 236.25,531.674 "/>
  <rect class="fil3" width="2048" height="2048"/>
 </g>
</svg>
