<?xml version="1.0" encoding="UTF-8"?>
<!DOCTYPE svg PUBLIC "-//W3C//DTD SVG 1.1//EN" "http://www.w3.org/Graphics/SVG/1.1/DTD/svg11.dtd">
<!-- Creator: CorelDRAW -->
<svg xmlns="http://www.w3.org/2000/svg" xml:space="preserve" width="2048px" height="2048px" style="shape-rendering:geometricPrecision; text-rendering:geometricPrecision; image-rendering:optimizeQuality; fill-rule:evenodd; clip-rule:evenodd"
viewBox="0 0 2048 2048"
 xmlns:xlink="http://www.w3.org/1999/xlink">
 <defs>
  <style type="text/css">
   <![CDATA[
    .fil4 {fill:none}
    .fil2 {fill:#9A9A9A}
    .fil0 {fill:#A7A7A7}
    .fil3 {fill:#CACBCB}
    .fil1 {fill:#DEDEDE}
   ]]>
  </style>
 </defs>
 <g id="Layer_x0020_1">
  <metadata id="CorelCorpID_0Corel-Layer"/>
  <g id="_545221672">
   <path id="_545221552" class="fil0" d="M467.772 543.991l1240.14 0c23.1555,0 44.1863,9.45119 59.4107,24.6744 15.2232,15.2244 24.6744,36.254 24.6744,59.4095l0 695.834c0,23.1555 -9.45119,44.1851 -24.6744,59.4095 -15.2244,15.2232 -36.2551,24.6744 -59.4107,24.6744l-1240.14 0c-23.1555,0 -44.1851,-9.45119 -59.4083,-24.6744 -15.2232,-15.2244 -24.6744,-36.254 -24.6744,-59.4095l0 -43.7008 -75.6957 0c-14.3339,0 -27.3414,-5.84174 -36.75,-15.2504 -9.40867,-9.40867 -15.2504,-22.4162 -15.2504,-36.75l0 -504.43c0,-14.3339 5.84174,-27.3414 15.2504,-36.75 9.40867,-9.40867 22.4162,-15.2504 36.75,-15.2504l75.6957 0 0 -43.702c0,-23.1555 9.45119,-44.1851 24.6744,-59.4095 15.2232,-15.2232 36.2528,-24.6744 59.4083,-24.6744z"/>
   <polygon id="_545224216" class="fil1" points="1440,673.992 1632,673.992 1662,673.992 1662,703.992 1662,1247.99 1662,1277.99 1632,1277.99 1440,1277.99 1410,1277.99 1410,1247.99 1410,703.992 1410,673.992 "/>
   <polygon id="_545207920" class="fil1" points="845.329,673.992 1037.33,673.992 1067.33,673.992 1067.33,703.992 1067.33,1247.99 1067.33,1277.99 1037.33,1277.99 845.329,1277.99 815.329,1277.99 815.329,1247.99 815.329,703.992 815.329,673.992 "/>
   <polygon id="_545230120" class="fil1" points="1142.66,673.992 1334.66,673.992 1364.66,673.992 1364.66,703.992 1364.66,1247.99 1364.66,1277.99 1334.66,1277.99 1142.66,1277.99 1112.66,1277.99 1112.66,1247.99 1112.66,703.992 1112.66,673.992 "/>
  </g>
  <g id="_545205088">
   <path id="_545205280" class="fil2" d="M1792 975.991l0 347.919c0,23.1555 -9.45119,44.1851 -24.6744,59.4095 -15.2244,15.2232 -36.2551,24.6744 -59.4107,24.6744l-1240.14 0c-23.1555,0 -44.1851,-9.45119 -59.4083,-24.6744 -15.2232,-15.2244 -24.6744,-36.254 -24.6744,-59.4095l0 -43.7008 -75.6957 0c-14.3339,0 -27.3414,-5.84174 -36.75,-15.2504 -9.40867,-9.40867 -15.2504,-22.4162 -15.2504,-36.75l0 -252.218 1536.01 0z"/>
   <polygon id="_545232040" class="fil3" points="1662,975.991 1662,1247.99 1662,1277.99 1632,1277.99 1440,1277.99 1410,1277.99 1410,1247.99 1410,975.991 "/>
   <polygon id="_545230216" class="fil3" points="1067.33,975.991 1067.33,1247.99 1067.33,1277.99 1037.33,1277.99 845.329,1277.99 815.329,1277.99 815.329,1247.99 815.329,975.991 "/>
   <polygon id="_545215792" class="fil3" points="1364.66,975.991 1364.66,1247.99 1364.66,1277.99 1334.66,1277.99 1142.66,1277.99 1112.66,1277.99 1112.66,1247.99 1112.66,975.991 "/>
  </g>
  <rect class="fil4" width="2048" height="2048"/>
 </g>
</svg>
