<?xml version="1.0" encoding="UTF-8"?>
<!DOCTYPE svg PUBLIC "-//W3C//DTD SVG 1.1//EN" "http://www.w3.org/Graphics/SVG/1.1/DTD/svg11.dtd">
<!-- Creator: CorelDRAW -->
<svg xmlns="http://www.w3.org/2000/svg" xml:space="preserve" width="2048px" height="2048px" style="shape-rendering:geometricPrecision; text-rendering:geometricPrecision; image-rendering:optimizeQuality; fill-rule:evenodd; clip-rule:evenodd"
viewBox="0 0 2048 2048"
 xmlns:xlink="http://www.w3.org/1999/xlink">
 <defs>
  <style type="text/css">
   <![CDATA[
    .fil4 {fill:none}
    .fil2 {fill:#636364;fill-rule:nonzero}
    .fil0 {fill:#6C6C6C;fill-rule:nonzero}
    .fil3 {fill:#A3A3A3;fill-rule:nonzero}
    .fil1 {fill:#BCBCBC;fill-rule:nonzero}
   ]]>
  </style>
 </defs>
 <g id="Layer_x0020_1">
  <metadata id="CorelCorpID_0Corel-Layer"/>
  <g id="_545208496">
   <path id="_545218312" class="fil0" d="M1170.42 669.802c23.4732,9.70985 45.7335,21.6295 66.5044,35.4851 21.2162,14.1532 40.6784,30.0827 58.1115,47.5158 17.4484,17.4484 33.3957,36.9284 47.5642,58.1599 13.8697,20.7851 25.8024,43.0583 35.5264,66.5493 9.5693,23.1189 16.9347,47.1555 21.8362,71.8335 4.81654,24.2587 7.3441,49.2189 7.3441,74.6316 0,25.4126 -2.52756,50.3741 -7.34528,74.6327 -4.89922,24.6792 -12.2658,48.7146 -21.8351,71.8335 -9.72402,23.491 -21.6567,45.7642 -35.5264,66.5493 -14.1685,21.2315 -30.1158,40.7114 -47.5642,58.1599 -17.4331,17.4331 -36.8953,33.3626 -58.1115,47.5158 -20.7709,13.8555 -43.0311,25.7752 -66.5044,35.4851 -23.113,9.55985 -47.1414,16.9181 -71.8064,21.8114 -24.2528,4.81181 -49.2059,7.33701 -74.6115,7.33701 -25.4055,0 -50.3599,-2.5252 -74.6127,-7.33701 -24.665,-4.89331 -48.6933,-12.2516 -71.8064,-21.8114 -23.4744,-9.71103 -45.7347,-21.6307 -66.5067,-35.4862 -21.215,-14.1532 -40.6772,-30.0827 -58.1091,-47.5146 -17.4484,-17.4496 -33.3957,-36.9284 -47.5654,-58.1622 -13.8685,-20.7827 -25.8012,-43.0571 -35.5252,-66.5469 -9.5693,-23.1201 -16.9358,-47.1555 -21.8351,-71.8359 -4.81772,-24.2575 -7.34528,-49.2178 -7.34528,-74.6304 0,-51.7571 10.35,-101.273 29.1047,-146.573 19.513,-47.1367 47.9599,-89.393 83.1662,-124.602 17.4319,-17.4319 36.8941,-33.3614 58.1091,-47.5146 20.7721,-13.8555 43.0323,-25.7752 66.5067,-35.4862 23.113,-9.55985 47.1414,-16.9181 71.8064,-21.8114 24.2528,-4.81181 49.2071,-7.33701 74.6127,-7.33701 25.4055,0 50.3587,2.5252 74.6115,7.33701 24.665,4.89331 48.6933,12.2516 71.8064,21.8114z"/>
   <path id="_545213680" class="fil1" d="M991.998 255.998c0,-17.6728 14.328,-32.0008 32.0008,-32.0008 17.6728,0 32.0008,14.328 32.0008,32.0008l0 319.994c0,17.6728 -14.328,32.0008 -32.0008,32.0008 -17.6728,0 -32.0008,-14.328 -32.0008,-32.0008l0 -319.994z"/>
   <path id="_545225536" class="fil1" d="M457.288 503.991c-12.4949,-12.4949 -12.4949,-32.7555 0,-45.2504 12.4949,-12.4949 32.7555,-12.4949 45.2504,0l226.27 226.27c12.4949,12.4949 12.4949,32.7555 0,45.2504 -12.4949,12.4949 -32.7555,12.4949 -45.2504,0l-226.27 -226.27z"/>
   <path id="_545211640" class="fil1" d="M1545.46 458.741c12.4949,-12.4949 32.7555,-12.4949 45.2504,0 12.4949,12.4949 12.4949,32.7555 0,45.2504l-226.27 226.27c-12.4949,12.4949 -32.7555,12.4949 -45.2504,0 -12.4949,-12.4949 -12.4949,-32.7555 0,-45.2504l226.27 -226.27z"/>
   <path id="_545216584" class="fil1" d="M254.545 1057.45c-17.6728,0 -32.0008,-14.328 -32.0008,-32.0008 0,-17.6728 14.328,-32.0008 32.0008,-32.0008l319.994 0c17.6728,0 32.0008,14.328 32.0008,32.0008 0,17.6728 -14.328,32.0008 -32.0008,32.0008l-319.994 0z"/>
   <path id="_545228608" class="fil1" d="M991.998 1474.91c0,-17.6728 14.328,-32.0008 32.0008,-32.0008 17.6728,0 32.0008,14.328 32.0008,32.0008l0 319.994c0,17.6728 -14.328,32.0008 -32.0008,32.0008 -17.6728,0 -32.0008,-14.328 -32.0008,-32.0008l0 -319.994z"/>
   <path id="_545226640" class="fil1" d="M1319.19 1365.89c-12.4949,-12.4949 -12.4949,-32.7555 0,-45.2504 12.4949,-12.4949 32.7555,-12.4949 45.2504,0l226.27 226.27c12.4949,12.4949 12.4949,32.7555 0,45.2504 -12.4949,12.4949 -32.7555,12.4949 -45.2504,0l-226.27 -226.27z"/>
   <path id="_545227888" class="fil1" d="M683.558 1320.64c12.4949,-12.4949 32.7555,-12.4949 45.2504,0 12.4949,12.4949 12.4949,32.7555 0,45.2504l-226.27 226.27c-12.4949,12.4949 -32.7555,12.4949 -45.2504,0 -12.4949,-12.4949 -12.4949,-32.7555 0,-45.2504l226.27 -226.27z"/>
   <path id="_545224648" class="fil1" d="M1473.46 1057.45c-17.6728,0 -32.0008,-14.328 -32.0008,-32.0008 0,-17.6728 14.328,-32.0008 32.0008,-32.0008l319.994 0c17.6728,0 32.0008,14.328 32.0008,32.0008 0,17.6728 -14.328,32.0008 -32.0008,32.0008l-319.994 0z"/>
  </g>
  <g id="_545219032">
   <path id="_545213176" class="fil2" d="M1024 1407.3c-25.4055,0 -50.3599,-2.5252 -74.6127,-7.33701 -24.665,-4.89331 -48.6933,-12.2516 -71.8064,-21.8114 -23.4744,-9.71103 -45.7347,-21.6307 -66.5067,-35.4862 -21.215,-14.1532 -40.6772,-30.0827 -58.1091,-47.5146 -17.4484,-17.4496 -33.3957,-36.9284 -47.5654,-58.1622 -13.8685,-20.7827 -25.8012,-43.0571 -35.5252,-66.5469 -9.5693,-23.1201 -16.9358,-47.1555 -21.8351,-71.8359 -4.81772,-24.2575 -7.34528,-49.2178 -7.34528,-74.6304 0,-51.7571 10.35,-101.273 29.1047,-146.573 19.513,-47.1367 47.9599,-89.393 83.1662,-124.602 17.4319,-17.4319 36.8941,-33.3614 58.1091,-47.5146 20.7721,-13.8555 43.0323,-25.7752 66.5067,-35.4862 23.113,-9.55985 47.1414,-16.9181 71.8064,-21.8114 24.2528,-4.81181 49.2071,-7.33701 74.6127,-7.33701l0 766.648z"/>
   <path id="_545235136" class="fil3" d="M991.998 255.998c0,-17.6728 14.328,-32.0008 32.0008,-32.0008l0.00236221 0 0 383.996 -0.00236221 0c-17.6728,0 -32.0008,-14.328 -32.0008,-32.0008l0 -319.994z"/>
   <path id="_545231464" class="fil3" d="M457.288 503.991c-12.4949,-12.4949 -12.4949,-32.7555 0,-45.2504 12.4949,-12.4949 32.7555,-12.4949 45.2504,0l226.27 226.27c12.4949,12.4949 12.4949,32.7555 0,45.2504 -12.4949,12.4949 -32.7555,12.4949 -45.2504,0l-226.27 -226.27z"/>
   <path id="_545220520" class="fil3" d="M254.545 1057.45c-17.6728,0 -32.0008,-14.328 -32.0008,-32.0008 0,-17.6728 14.328,-32.0008 32.0008,-32.0008l319.994 0c17.6728,0 32.0008,14.328 32.0008,32.0008 0,17.6728 -14.328,32.0008 -32.0008,32.0008l-319.994 0z"/>
   <path id="_545235208" class="fil3" d="M991.998 1474.91c0,-17.6728 14.328,-32.0008 32.0008,-32.0008l0.00236221 0 0 383.996 -0.00236221 0c-17.6728,0 -32.0008,-14.328 -32.0008,-32.0008l0 -319.994z"/>
   <path id="_545231008" class="fil3" d="M683.558 1320.64c12.4949,-12.4949 32.7555,-12.4949 45.2504,0 12.4949,12.4949 12.4949,32.7555 0,45.2504l-226.27 226.27c-12.4949,12.4949 -32.7555,12.4949 -45.2504,0 -12.4949,-12.4949 -12.4949,-32.7555 0,-45.2504l226.27 -226.27z"/>
  </g>
  <rect class="fil4" width="2048" height="2048"/>
 </g>
</svg>
