<?xml version="1.0" encoding="UTF-8"?>
<!DOCTYPE svg PUBLIC "-//W3C//DTD SVG 1.1//EN" "http://www.w3.org/Graphics/SVG/1.1/DTD/svg11.dtd">
<!-- Creator: CorelDRAW -->
<svg xmlns="http://www.w3.org/2000/svg" xml:space="preserve" width="2048px" height="2048px" style="shape-rendering:geometricPrecision; text-rendering:geometricPrecision; image-rendering:optimizeQuality; fill-rule:evenodd; clip-rule:evenodd"
viewBox="0 0 2048 2048"
 xmlns:xlink="http://www.w3.org/1999/xlink">
 <defs>
  <style type="text/css">
   <![CDATA[
    .fil6 {fill:none}
    .fil5 {fill:#747474}
    .fil2 {fill:#8D8E8E}
    .fil4 {fill:#747474;fill-rule:nonzero}
    .fil1 {fill:#7E7E7E;fill-rule:nonzero}
    .fil3 {fill:#A7A7A7;fill-rule:nonzero}
    .fil0 {fill:#B6B6B6;fill-rule:nonzero}
   ]]>
  </style>
 </defs>
 <g id="Layer_x0020_1">
  <metadata id="CorelCorpID_0Corel-Layer"/>
  <g id="_545220232">
   <path id="_545231488" class="fil0" d="M1567.09 1567.15c-138.97,138.97 -330.973,224.906 -543.108,224.906 -211.979,0 -404.019,-85.9749 -543.041,-225.001 -138.956,-138.962 -224.948,-330.924 -224.948,-543.012 0,-211.98 86.028,-404 225.033,-543.026 139.012,-139.032 331.017,-225.07 542.956,-225.07 212.094,0 404.063,85.9973 543.024,224.974 139.019,139.035 224.99,331.095 224.99,543.122 0,212.134 -85.9359,404.139 -224.906,543.108z"/>
   <path id="_545234392" class="fil1" d="M1175.17 270.841c151.434,30.2421 286.785,105.014 391.837,210.078 121.101,121.114 201.936,282.47 220.765,462.206 -0.628347,4.86024 -1.30984,9.7193 -2.0811,14.5701l-92.1792 -82.0902c-1.99725,-1.98071 -4.65591,-4.59922 -7.60867,-7.3819 -7.6689,7.83308 -15.1512,16.265 -19.6477,21.274l-101.021 112.557 2.40709 -145.458c0.370866,-22.3914 0.871654,-44.8087 1.00984,-67.1989 0.00826772,-1.26378 0.0602363,-2.50984 0.152362,-3.73819 0.00590552,-1.34291 0.00236221,-2.68937 0.0011811,-4.03465 -0.788977,-2.40118 -3.73465,-6.34961 -5.18504,-8.1567 -7.75394,-9.66024 -19.8744,-18.5055 -29.2299,-27.0142l-0.219685 -0.199606c-2.25827,-1.88268 -4.81063,-3.65433 -7.19764,-5.50512l-79.715 20.9173c-18.8516,4.94646 -37.813,8.3941 -56.7709,12.7276l-0.433465 0.0992127c-25.7173,5.87953 -48.8788,-4.49292 -64.3335,-22.6477 -4.64055,-5.45197 -8.61733,-11.3894 -12.411,-17.354 -2.29016,-3.60236 -4.57914,-7.66654 -7.07481,-11.1142l-0.218504 -0.296457c-4.32638,-5.95158 -8.24292,-13.0559 -11.8748,-20.374 -1.41142,10.5331 -2.9752,24.7677 -1.59095,31.2827 1.00158,1.36536 2.00315,2.72835 3,4.09489 10.278,14.0717 22.4374,29.7957 27.2327,46.7126 5.13071,0.592914 10.5886,0.949607 13.787,1.20473l162.256 12.9532 -137.069 80.2654c-3.91063,2.29016 -7.88268,4.5 -11.876,6.66969 -15.5752,8.46142 -31.8626,16.2697 -48.1158,23.7484l-0.0555119 0.0507874 -7.96064 3.66496c-12.4205,5.7189 -26.1839,19.3406 -34.9689,28.989 -15.5646,17.0965 -31.1351,38.3705 -42.2705,58.1682l-25.787 45.854 -3.95197 -1.92284c-2.80866,3.64016 -5.65512,7.2189 -8.51812,10.715 -11.3693,13.8969 -24.5232,28.4882 -39.2221,39.5292l-43.0559 32.3422 -7.18938 -8.01851c-24.2658,8.81575 -50.4556,16.0169 -68.4119,20.4685 -28.0831,6.96024 -67.4965,15.463 -97.9784,11.5051l-1.91457 0 -6.40867 -1.40669c-38.713,-8.49213 -49.2863,-45.0213 -57.3178,-75.2764 -9.89883,-37.278 -17.8228,-100.287 -12.9461,-137.86 1.93347,-14.9043 6.75237,-30.0792 11.1508,-44.5394 3.77126,-12.4004 12.1311,-37.4114 11.0185,-50.0233 -1.33583,-15.1335 0.740552,-31.3181 3.74882,-46.2355 1.80118,-8.9315 3.43819,-18.0378 5.58189,-26.8973 2.70591,-11.1862 7.65827,-21.3933 15.1795,-29.4107 -0.531496,-0.507874 -1.05591,-1.02638 -1.56969,-1.55433 -10.6158,-5.29016 -18.548,-13.0807 -23.5134,-22.0288 -6.95788,-7.2378 -13.5945,-12.0862 -25.3311,-14.9528l-1.63583 -0.336614c-46.0429,-9.46772 -60.1784,-49.0406 -67.7587,-85.9607 -0.474804,-2.30551 -0.943702,-4.61693 -1.47047,-6.913l-1.17402 -5.12953 0 -4.19174c-1.13858,-30.1571 20.8949,-69.515 34.5437,-94.9217l0.609449 -1.13386c10.6158,-19.7622 66.9367,-62.2737 87.5446,-78.7524l5.32323 -4.2567 6.32245 -2.90551c18.6272,-8.55591 43.3985,-21.2292 64.3583,-20.1449 30.437,1.57323 32.9374,51.1949 55.1764,69.9012 36.8492,19.2319 82.2745,40.4469 101.069,74.5808l28.9512 33.0201c5.33977,9.6945 -0.806694,-21.3201 11.6941,-16.2685l-54.3508 -92.8182 12.4512 -9.32009c-1.83071,-0.86693 -3.65079,-1.74803 -5.45788,-2.64567l-44.015 -21.8669 15.5811 -34.0914 -6.15945 -28.1008 20.7579 -3.8315 8.40237 -18.3827 37.7516 10.3347c14.0976,-1.62874 29.2299,-2.13543 42.7701,-2.87599 7.56497,-0.413386 23.6646,-1.1374 38.7886,-2.60079l-69.7878 -81.0367c4.93937,0.17126 9.87639,0.402756 14.8122,0.690945zm-41.7863 281.659c8.15434,3.04134 55.1552,-6.25158 62.556,-5.38819l3.8941 0.122835c3.10512,-0.442914 10.0949,-4.58386 12.5823,-6.09804 2.86299,-1.74213 6.81378,-5.0941 9.14056,-8.1626 0.00236221,-0.279921 -0.00590552,-0.562205 -0.0212599,-0.843308 -0.170079,-2.87008 -1.25197,-5.42245 -3.35551,-7.5626 -2.33858,-2.37992 -5.44134,-3.7937 -8.86182,-4.37953 -0.312992,-0.0531496 -0.627166,-0.100394 -0.941339,-0.13937l-74.993 32.4508z"/>
   <path id="_545211112" class="fil2" d="M397.943 1159.66c0.712205,-18.5894 -3.67441,-38.3114 -6.73583,-54.9567 -6.30591,-34.2697 -12.2965,-73.1871 5.0941,-105.288l3.2504 -6c25.0488,-46.239 61.3335,-102.258 114.663,-117.998 16.5803,-4.89331 33.8563,-5.83583 50.4922,-0.440552 17.4071,5.64449 31.5957,17.9717 39.9863,34.1658 21.9815,42.417 4.71733,95.1343 -13.7362,135.516 -16.5626,36.2433 -25.6606,62.778 -31.2071,101.727 -3.73937,26.2595 -8.53229,47.9315 -18.3992,72.8245 -28.428,71.7237 2.95984,179.105 23.2866,249.665 14.8016,51.3981 20.1284,134.562 27.404,190.226 -48.1477,-32.3303 -91.6442,-70.2756 -131.226,-112.942 -174.952,-207.611 -195.402,-362.615 -203.934,-484.974l130.906 87.1182c2.2937,2.5937 5.95985,6.77717 10.1563,11.3563z"/>
   <path id="_545205256" class="fil1" d="M1156.72 1430.65c0.188977,0.0141732 0.409843,0.0141732 0.662599,0.00236221 -3.6567,-1.35473 -5.21457,-1.90512 -0.662599,-0.00236221z"/>
  </g>
  <g id="_545219728">
   <path id="_545205592" class="fil3" d="M1567.09 1567.15c-138.967,138.967 -330.968,224.903 -543.097,224.906l0 -1536.11c212.09,0.00236221 404.054,85.9997 543.013,224.974 139.019,139.035 224.99,331.095 224.99,543.122 0,212.134 -85.9359,404.139 -224.906,543.108z"/>
   <path id="_545207752" class="fil4" d="M1175.17 270.841c151.434,30.2421 286.785,105.014 391.837,210.078 121.101,121.114 201.936,282.47 220.765,462.206 -0.628347,4.86024 -1.30984,9.7193 -2.0811,14.5701l-92.1792 -82.0902c-1.99725,-1.98071 -4.65591,-4.59922 -7.60867,-7.3819 -7.6689,7.83308 -15.1512,16.265 -19.6477,21.274l-101.021 112.557 2.40709 -145.458c0.370866,-22.3914 0.871654,-44.8087 1.00984,-67.1989 0.00826772,-1.26378 0.0602363,-2.50984 0.152362,-3.73819 0.00590552,-1.34291 0.00236221,-2.68937 0.0011811,-4.03465 -0.788977,-2.40118 -3.73465,-6.34961 -5.18504,-8.1567 -7.75394,-9.66024 -19.8744,-18.5055 -29.2299,-27.0142l-0.219685 -0.199606c-2.25827,-1.88268 -4.81063,-3.65433 -7.19764,-5.50512l-79.715 20.9173c-18.8516,4.94646 -37.813,8.3941 -56.7709,12.7276l-0.433465 0.0992127c-25.7173,5.87953 -48.8788,-4.49292 -64.3335,-22.6477 -4.64055,-5.45197 -8.61733,-11.3894 -12.411,-17.354 -2.29016,-3.60236 -4.57914,-7.66654 -7.07481,-11.1142l-0.218504 -0.296457c-4.32638,-5.95158 -8.24292,-13.0559 -11.8748,-20.374 -1.41142,10.5331 -2.9752,24.7677 -1.59095,31.2827 1.00158,1.36536 2.00315,2.72835 3,4.09489 10.278,14.0717 22.4374,29.7957 27.2327,46.7126 5.13071,0.592914 10.5886,0.949607 13.787,1.20473l162.256 12.9532 -137.069 80.2654c-3.91063,2.29016 -7.88268,4.5 -11.876,6.66969 -15.5752,8.46142 -31.8626,16.2697 -48.1158,23.7484l-0.0555119 0.0507874 -7.96064 3.66496c-12.4205,5.7189 -26.1839,19.3406 -34.9689,28.989 -15.5646,17.0965 -31.1351,38.3705 -42.2705,58.1682l-25.787 45.854 -3.95197 -1.92284c-2.80866,3.64016 -5.65512,7.2189 -8.51812,10.715 -11.3693,13.8969 -24.5232,28.4882 -39.2221,39.5292l-43.0559 32.3422 -7.18938 -8.01851c-22.6807,8.24056 -47.0422,15.0697 -64.7906,19.5614l0 -671.434c36.4618,18.9473 80.5442,40.0028 98.9871,73.4965l28.9512 33.0201c5.33977,9.6945 -0.806694,-21.3201 11.6941,-16.2685l-54.3508 -92.8182 12.4512 -9.32009c-1.83071,-0.86693 -3.65079,-1.74803 -5.45788,-2.64567l-44.015 -21.8669 15.5811 -34.0914 -6.15945 -28.1008 20.7579 -3.8315 8.40237 -18.3827 37.7516 10.3347c14.0976,-1.62874 29.2299,-2.13543 42.7701,-2.87599 7.56497,-0.413386 23.6646,-1.1374 38.7886,-2.60079l-69.7878 -81.0367c4.93937,0.17126 9.87639,0.402756 14.8122,0.690945zm-41.7863 281.659c8.15434,3.04134 55.1552,-6.25158 62.556,-5.38819l3.8941 0.122835c3.10512,-0.442914 10.0949,-4.58386 12.5823,-6.09804 2.86299,-1.74213 6.81378,-5.0941 9.14056,-8.1626 0.00236221,-0.279921 -0.00590552,-0.562205 -0.0212599,-0.843308 -0.170079,-2.87008 -1.25197,-5.42245 -3.35551,-7.5626 -2.33858,-2.37992 -5.44134,-3.7937 -8.86182,-4.37953 -0.312992,-0.0531496 -0.627166,-0.100394 -0.941339,-0.13937l-74.993 32.4508z"/>
   <path id="_545218744" class="fil4" d="M1156.72 1430.65c0.188977,0.0141732 0.409843,0.0141732 0.662599,0.00236221 -3.6567,-1.35473 -5.21457,-1.90512 -0.662599,-0.00236221z"/>
  </g>
  <path class="fil5" d="M1248 1279.99l0 32.0008c0,21.078 -99.5788,51.9709 -106.025,92.8064l10.1787 5.98111c50.0634,29.4236 -193.72,112.634 -3.92953,158.573 7.89449,1.91103 92.4001,1.40315 99.7761,-1.36063 13.2236,-127.781 -53.3599,-73.4717 31.9996,-128 7.69607,-4.91693 -4.62402,-29.8772 3.13583,-29.2122 87.6638,-135.328 50.2926,-236.855 11.7307,-229.56 -12.1441,2.29725 -46.8615,28.5201 -46.8662,98.7721z"/>
  <rect class="fil6" width="2048" height="2048"/>
 </g>
</svg>
