<?xml version="1.0" encoding="UTF-8"?>
<!DOCTYPE svg PUBLIC "-//W3C//DTD SVG 1.1//EN" "http://www.w3.org/Graphics/SVG/1.1/DTD/svg11.dtd">
<!-- Creator: CorelDRAW -->
<svg xmlns="http://www.w3.org/2000/svg" xml:space="preserve" width="2048px" height="2048px" style="shape-rendering:geometricPrecision; text-rendering:geometricPrecision; image-rendering:optimizeQuality; fill-rule:evenodd; clip-rule:evenodd"
viewBox="0 0 2048 2048"
 xmlns:xlink="http://www.w3.org/1999/xlink">
 <defs>
  <style type="text/css">
   <![CDATA[
    .fil12 {fill:none}
    .fil1 {fill:#414141}
    .fil4 {fill:#525252}
    .fil3 {fill:#5D5D5D}
    .fil7 {fill:#5E5E5E}
    .fil9 {fill:#6C6C6C}
    .fil5 {fill:#717171}
    .fil2 {fill:gray}
    .fil6 {fill:#959595}
    .fil8 {fill:#A2A2A2}
    .fil0 {fill:#BEBEBE}
    .fil10 {fill:#C9C9C9}
    .fil11 {fill:#F3F3F3}
   ]]>
  </style>
 </defs>
 <g id="Layer_x0020_1">
  <metadata id="CorelCorpID_0Corel-Layer"/>
  <g id="_545218024">
   <path id="_545209360" class="fil0" d="M364.666 255.999l1318.67 0c29.9162,0 57.091,12.2162 76.7705,31.8957 19.6795,19.6795 31.8957,46.8544 31.8957,76.7705l0 1318.67c0,29.9162 -12.2162,57.091 -31.8957,76.7705 -19.6795,19.6795 -46.8544,31.8957 -76.7705,31.8957l-1318.67 0c-29.9162,0 -57.091,-12.2162 -76.7705,-31.8957 -19.6795,-19.6795 -31.8957,-46.8544 -31.8957,-76.7705l0 -1318.67c0,-29.9162 12.2162,-57.091 31.8957,-76.7705 19.6795,-19.6795 46.8544,-31.8957 76.7705,-31.8957z"/>
   <path id="_545230384" class="fil1" d="M364.666 255.999l1318.67 0c29.9162,0 57.091,12.2162 76.7705,31.8957 19.6795,19.6795 31.8957,46.8544 31.8957,76.7705l0 420.463 -1536 0 0 -420.463c0,-29.9162 12.2162,-57.091 31.8957,-76.7705 19.6795,-19.6795 46.8544,-31.8957 76.7705,-31.8957z"/>
   <polygon id="_545232904" class="fil2" points="417.605,1279.99 959.995,1279.99 991.996,1279.99 991.996,1309.33 991.996,1602.66 991.996,1631.99 959.995,1631.99 417.605,1631.99 385.604,1631.99 385.604,1602.66 385.604,1309.33 385.604,1279.99 "/>
   <polygon id="_545232136" class="fil3" points="417.605,831.992 959.995,831.992 991.996,831.992 991.996,861.325 991.996,1154.66 991.996,1183.99 959.995,1183.99 417.605,1183.99 385.604,1183.99 385.604,1154.66 385.604,861.325 385.604,831.992 "/>
   <polygon id="_545223832" class="fil4" points="417.605,1183.99 959.995,1183.99 991.996,1183.99 991.996,1186.66 991.996,1213.33 991.996,1215.99 959.995,1215.99 417.605,1215.99 385.604,1215.99 385.604,1213.33 385.604,1186.66 385.604,1183.99 "/>
   <polygon id="_545205352" class="fil5" points="417.605,1663.99 959.995,1663.99 991.996,1663.99 991.996,1661.33 991.996,1634.66 991.996,1631.99 959.995,1631.99 417.605,1631.99 385.604,1631.99 385.604,1634.66 385.604,1661.33 385.604,1663.99 "/>
   <polygon id="_545208592" class="fil6" points="1088,1183.99 1630.39,1183.99 1662.39,1183.99 1662.39,1186.66 1662.39,1213.33 1662.39,1215.99 1630.39,1215.99 1088,1215.99 1056,1215.99 1056,1213.33 1056,1186.66 1056,1183.99 "/>
   <polygon id="_545219416" class="fil7" points="1088,1663.99 1630.39,1663.99 1662.39,1663.99 1662.39,1661.33 1662.39,1634.66 1662.39,1631.99 1630.39,1631.99 1088,1631.99 1056,1631.99 1056,1634.66 1056,1661.33 1056,1663.99 "/>
   <polygon id="_545230984" class="fil8" points="1087.99,831.992 1630.39,831.992 1662.4,831.992 1662.4,861.325 1662.4,1154.66 1662.4,1183.99 1630.39,1183.99 1087.99,1183.99 1055.99,1183.99 1055.99,1154.66 1055.99,861.325 1055.99,831.992 "/>
   <polygon id="_545216968" class="fil9" points="1087.99,1279.99 1630.39,1279.99 1662.4,1279.99 1662.4,1309.33 1662.4,1602.66 1662.4,1631.99 1630.39,1631.99 1087.99,1631.99 1055.99,1631.99 1055.99,1602.66 1055.99,1309.33 1055.99,1279.99 "/>
   <polygon id="_545225392" class="fil10" points="417.605,383.991 1630.39,383.991 1662.4,383.991 1662.4,415.992 1662.4,703.992 1662.4,735.993 1630.39,735.993 417.605,735.993 385.604,735.993 385.604,703.992 385.604,415.992 385.604,383.991 "/>
   <polygon id="_545204296" class="fil11" points="639.994,1119.99 639.994,1055.99 575.995,1055.99 575.995,991.992 639.994,991.992 639.994,927.993 703.995,927.993 703.995,991.992 767.995,991.992 767.995,1055.99 703.995,1055.99 703.995,1119.99 "/>
   <polygon id="_545220208" class="fil11" points="717.252,1562.5 671.995,1517.24 626.737,1562.5 581.487,1517.25 626.744,1471.99 581.487,1426.73 626.737,1381.48 671.995,1426.74 717.252,1381.48 762.503,1426.73 717.245,1471.99 762.503,1517.25 "/>
   <polygon id="_545225656" class="fil11" points="1247.28,991.992 1471.11,991.992 1471.11,1055.99 1247.28,1055.99 "/>
   <polygon id="_545235808" class="fil11" points="1246.98,1488.47 1471.41,1488.47 1471.41,1552.47 1246.98,1552.47 "/>
   <polygon id="_545205328" class="fil11" points="1246.98,1391.52 1471.41,1391.52 1471.41,1455.52 1246.98,1455.52 "/>
  </g>
  <rect class="fil12" width="2048" height="2048"/>
 </g>
</svg>
