<?xml version="1.0" encoding="UTF-8"?>
<!DOCTYPE svg PUBLIC "-//W3C//DTD SVG 1.1//EN" "http://www.w3.org/Graphics/SVG/1.1/DTD/svg11.dtd">
<!-- Creator: CorelDRAW -->
<svg xmlns="http://www.w3.org/2000/svg" xml:space="preserve" width="2048px" height="2048px" style="shape-rendering:geometricPrecision; text-rendering:geometricPrecision; image-rendering:optimizeQuality; fill-rule:evenodd; clip-rule:evenodd"
viewBox="0 0 2048 2048"
 xmlns:xlink="http://www.w3.org/1999/xlink">
 <defs>
  <style type="text/css">
   <![CDATA[
    .fil0 {fill:none}
    .fil5 {fill:#2F2F2F}
    .fil3 {fill:#767676}
    .fil2 {fill:#8B8B8B}
    .fil1 {fill:#BEBEBE}
    .fil4 {fill:#666666;fill-rule:nonzero}
   ]]>
  </style>
 </defs>
 <g id="Layer_x0020_1">
  <metadata id="CorelCorpID_0Corel-Layer"/>
  <rect class="fil0" width="2048" height="2048"/>
  <path class="fil1" d="M1792 767.994l0 942.007c0,22.5815 -9.21733,43.0914 -24.0638,57.9378 -14.8465,14.8465 -35.3551,24.0638 -57.9367,24.0638l-1372 0c-22.5815,0 -43.0914,-9.21733 -57.9378,-24.0638 -14.8441,-14.8465 -24.0626,-35.3551 -24.0626,-57.9378l0 -942.007 1536 0z"/>
  <path class="fil2" d="M287.999 415.992c720.154,0 751.837,0 1472,0l32.0008 0.0011811 0 31.9996 0 320.001 -1536 0 0 -320.001 0 -31.9996 32.0008 -0.0011811z"/>
  <path class="fil3" d="M287.999 807.029c720.154,0 751.837,0 1472,0l32.0008 0 0 -4.18819 0 -41.8843 -1536 0 0 41.8843 0 4.18819 32.0008 0z"/>
  <path class="fil4" d="M623.995 288c0,-17.6728 14.328,-32.0008 32.0008,-32.0008 17.6728,0 32.0008,14.328 32.0008,32.0008l0 319.999c0,17.6728 -14.328,32.0008 -32.0008,32.0008 -17.6728,0 -32.0008,-14.328 -32.0008,-32.0008l0 -319.999z"/>
  <path class="fil4" d="M991.993 288c0,-17.6728 14.328,-32.0008 32.0008,-32.0008 17.6728,0 32.0008,14.328 32.0008,32.0008l0 319.999c0,17.6728 -14.328,32.0008 -32.0008,32.0008 -17.6728,0 -32.0008,-14.328 -32.0008,-32.0008l0 -319.999z"/>
  <path class="fil4" d="M1359.99 288c0,-17.6728 14.328,-32.0008 32.0008,-32.0008 17.6728,0 32.0008,14.328 32.0008,32.0008l0 319.999c0,17.6728 -14.328,32.0008 -32.0008,32.0008 -17.6728,0 -32.0008,-14.328 -32.0008,-32.0008l0 -319.999z"/>
  <path class="fil5" d="M1457.94 1503.59l0 69.2056 -387.526 0c-0.54567,-17.3351 2.18386,-33.9886 8.32678,-49.9595 9.82796,-26.4815 25.6618,-52.4162 47.3658,-78.078 21.8398,-25.526 53.2347,-55.1469 94.1859,-88.7257 63.7453,-52.2804 106.88,-93.6402 129.266,-124.217 22.3866,-30.4394 33.5799,-59.3776 33.5799,-86.5418 0,-28.5284 -10.2378,-52.5532 -30.5764,-72.2091 -20.4756,-19.5189 -47.0929,-29.3481 -79.8532,-29.3481 -34.6713,0 -62.3812,10.3748 -83.1296,31.2591 -20.8843,20.7484 -31.3949,49.5496 -31.6677,86.269l-73.9843 -7.50709c5.05158,-55.2839 24.1606,-97.3253 57.1949,-126.263 33.0331,-28.9394 77.5323,-43.4079 133.225,-43.4079 56.2382,0 100.737,15.698 133.498,46.8201 32.8973,31.2591 49.2768,69.8882 49.2768,116.026 0,23.478 -4.77756,46.5473 -14.4685,69.2056 -9.55513,22.6595 -25.526,46.5473 -47.7756,71.5276 -22.2496,25.1162 -59.2418,59.5134 -110.975,103.194 -43.1351,36.3095 -70.8449,60.88 -83.1296,73.8473 -12.2847,12.8315 -22.3866,25.7988 -30.4394,38.9032l287.607 0z"/>
  <path class="fil5" d="M1002.43 1503.59l0 69.2056 -387.526 0c-0.54567,-17.3351 2.18386,-33.9886 8.32678,-49.9595 9.82796,-26.4815 25.6618,-52.4162 47.3658,-78.078 21.8398,-25.526 53.2347,-55.1469 94.1859,-88.7257 63.7453,-52.2804 106.88,-93.6402 129.266,-124.217 22.3866,-30.4394 33.5799,-59.3776 33.5799,-86.5418 0,-28.5284 -10.2378,-52.5532 -30.5764,-72.2091 -20.4756,-19.5189 -47.0929,-29.3481 -79.8532,-29.3481 -34.6713,0 -62.3812,10.3748 -83.1296,31.2591 -20.8843,20.7484 -31.3949,49.5496 -31.6677,86.269l-73.9843 -7.50709c5.05158,-55.2839 24.1606,-97.3253 57.1949,-126.263 33.0331,-28.9394 77.5323,-43.4079 133.225,-43.4079 56.2382,0 100.737,15.698 133.498,46.8201 32.8973,31.2591 49.2768,69.8882 49.2768,116.026 0,23.478 -4.77756,46.5473 -14.4685,69.2056 -9.55513,22.6595 -25.526,46.5473 -47.7756,71.5276 -22.2496,25.1162 -59.2418,59.5134 -110.975,103.194 -43.1351,36.3095 -70.8449,60.88 -83.1296,73.8473 -12.2847,12.8315 -22.3866,25.7988 -30.4394,38.9032l287.607 0z"/>
 </g>
</svg>
