<?xml version="1.0" encoding="UTF-8"?>
<!DOCTYPE svg PUBLIC "-//W3C//DTD SVG 1.1//EN" "http://www.w3.org/Graphics/SVG/1.1/DTD/svg11.dtd">
<!-- Creator: CorelDRAW -->
<svg xmlns="http://www.w3.org/2000/svg" xml:space="preserve" width="2048px" height="2048px" style="shape-rendering:geometricPrecision; text-rendering:geometricPrecision; image-rendering:optimizeQuality; fill-rule:evenodd; clip-rule:evenodd"
viewBox="0 0 2048 2048"
 xmlns:xlink="http://www.w3.org/1999/xlink">
 <defs>
  <style type="text/css">
   <![CDATA[
    .fil8 {fill:none}
    .fil2 {fill:#1E1E1E}
    .fil5 {fill:#202020}
    .fil7 {fill:#282929}
    .fil0 {fill:#2F2F2F}
    .fil1 {fill:#444444}
    .fil3 {fill:#A1A1A1}
    .fil6 {fill:#B3B4B4}
    .fil4 {fill:#F0F0F0}
   ]]>
  </style>
 </defs>
 <g id="Layer_x0020_1">
  <metadata id="CorelCorpID_0Corel-Layer"/>
  <g id="_545233720">
   <g>
    <path id="_545214064" class="fil0" d="M794.489 415.999l459.022 0c42.404,0 80.9327,17.3256 108.843,45.2363 27.9107,27.9107 45.2363,66.4394 45.2363,108.843l0 84.7642 -767.181 0 0 -84.7642c0,-42.404 17.3256,-80.9327 45.2363,-108.843 27.9107,-27.9107 66.4394,-45.2363 108.843,-45.2363z"/>
    <path id="_545234872" class="fil1" d="M1407.59 640l152.72 0 149.689 0c22.5827,0 43.0914,9.21615 57.9378,24.0626 14.8465,14.8465 24.0626,35.3551 24.0626,57.9378l0 828.001c0,22.5827 -9.21615,43.0914 -24.0626,57.9378 -14.8465,14.8465 -35.3551,24.0626 -57.9378,24.0626l-1372 0c-22.5827,0 -43.0914,-9.21615 -57.9378,-24.0626 -14.8465,-14.8465 -24.0626,-35.3551 -24.0626,-57.9378l0 -828.001c0,-22.5827 9.21615,-43.0914 24.0626,-57.9378 14.8465,-14.8465 35.3551,-24.0626 57.9378,-24.0626l258.697 0 43.7138 0 767.181 0z"/>
    <polygon id="_545209408" class="fil2" points="1792,880.11 1792,1328.11 255.998,1328.11 255.998,880.11 "/>
    <path id="_545218048" class="fil0" d="M1024 703.99c114.873,0 218.876,46.5662 294.157,121.849 75.2835,75.2823 121.849,179.287 121.849,294.157 0,114.873 -46.5662,218.876 -121.849,294.157 -75.2812,75.2823 -179.284,121.849 -294.157,121.849 -114.873,0 -218.876,-46.5662 -294.157,-121.849 -75.2823,-75.2812 -121.849,-179.284 -121.849,-294.157 0,-114.871 46.565,-218.875 121.849,-294.157 75.2812,-75.2823 179.284,-121.849 294.157,-121.849z"/>
    <path id="_545211520" class="fil3" d="M1272.91 871.088c-63.6957,-63.6969 -151.7,-103.097 -248.907,-103.097 -97.2072,0 -185.211,39.4004 -248.907,103.097 -63.6969,63.6957 -103.097,151.701 -103.097,248.907 0,97.2072 39.4004,185.211 103.097,248.907 63.6957,63.6969 151.7,103.097 248.907,103.097 97.2072,0 185.211,-39.4004 248.907,-103.097 63.6969,-63.6957 103.097,-151.7 103.097,-248.907 0,-97.206 -39.4004,-185.211 -103.097,-248.907z"/>
    <path id="_545206552" class="fil4" d="M1133.63 935.899c29.5607,35.4059 -111.79,8.71418 -198.339,80.9729 -86.5489,72.2575 -85.5213,216.104 -115.082,180.697 -29.5595,-35.4071 -36.8847,-186.795 49.6642,-259.053 86.5489,-72.2587 234.197,-38.0244 263.757,-2.61732z"/>
    <path id="_545221504" class="fil5" d="M414.199 609.978l153.366 0c8.61379,0 15.6614,7.04882 15.6614,15.6614l0 15.6614 -184.689 0 0 -15.6614c0,-8.61261 7.04764,-15.6614 15.6614,-15.6614z"/>
    <circle id="_545228320" class="fil6" cx="1648" cy="752" r="38.4248"/>
   </g>
   <path id="_545225632" class="fil7" d="M794.489 415.999l459.022 0c42.404,0 80.9327,17.3256 108.843,45.2363 5.33504,5.33504 10.2827,11.0599 14.7969,17.1236l-706.302 0c4.51418,-6.06378 9.46182,-11.7886 14.7969,-17.1236 27.9107,-27.9107 66.4394,-45.2363 108.843,-45.2363z"/>
  </g>
  <rect class="fil8" width="2048" height="2048"/>
 </g>
</svg>
