<?xml version="1.0" encoding="UTF-8"?>
<!DOCTYPE svg PUBLIC "-//W3C//DTD SVG 1.1//EN" "http://www.w3.org/Graphics/SVG/1.1/DTD/svg11.dtd">
<!-- Creator: CorelDRAW -->
<svg xmlns="http://www.w3.org/2000/svg" xml:space="preserve" width="2048px" height="2048px" style="shape-rendering:geometricPrecision; text-rendering:geometricPrecision; image-rendering:optimizeQuality; fill-rule:evenodd; clip-rule:evenodd"
viewBox="0 0 2048 2048"
 xmlns:xlink="http://www.w3.org/1999/xlink">
 <defs>
  <style type="text/css">
   <![CDATA[
    .fil12 {fill:none}
    .fil2 {fill:#2F2F2F}
    .fil8 {fill:#313131}
    .fil7 {fill:#535353}
    .fil1 {fill:#555555}
    .fil11 {fill:#616161}
    .fil9 {fill:#656666}
    .fil3 {fill:#6A6A6A}
    .fil5 {fill:#6C6C6C}
    .fil6 {fill:#D1D1D1}
    .fil0 {fill:#E1E1E2}
    .fil10 {fill:#616161;fill-rule:nonzero}
    .fil4 {fill:#6C6C6C;fill-rule:nonzero}
   ]]>
  </style>
 </defs>
 <g id="Layer_x0020_1">
  <metadata id="CorelCorpID_0Corel-Layer"/>
  <g id="_545229112">
   <g>
    <circle id="_550418632" class="fil0" cx="1024" cy="1024" r="671.996"/>
    <path id="_550400464" class="fil1" d="M1024 255.998c212.073,0 404.074,85.9631 543.056,224.946 138.983,138.982 224.946,330.983 224.946,543.056 0,212.073 -85.9631,404.074 -224.946,543.056 -138.982,138.983 -330.983,224.946 -543.056,224.946 -212.073,0 -404.074,-85.9631 -543.056,-224.946 -138.983,-138.982 -224.946,-330.983 -224.946,-543.056 0,-212.073 85.9631,-404.074 224.946,-543.056 138.982,-138.983 330.983,-224.946 543.056,-224.946zm0 96.006c371.132,0 671.996,300.864 671.996,671.996 0,371.132 -300.864,671.996 -671.996,671.996 -371.132,0 -671.996,-300.864 -671.996,-671.996 0,-371.132 300.864,-671.996 671.996,-671.996z"/>
    <path id="_550401472" class="fil2" d="M1024 447.992l0.00236221 0c10.0559,0 18.2823,7.20119 18.2823,15.9992l0 555.335c0,8.79804 -8.22875,15.9992 -18.2823,15.9992l-0.00236221 0c-10.0536,0 -18.2823,-7.19882 -18.2823,-15.9992l0 -555.335c0,-8.8004 8.22638,-15.9992 18.2823,-15.9992z"/>
    <path id="_550410448" class="fil3" d="M1002.81 1012.56l0 -0.0011811c4.77638,-8.85001 15.0213,-12.6685 22.7622,-8.49095l392.919 212.035c7.74095,4.17756 10.1717,14.8417 5.39764,23.6882l-0.0011811 0.0011811c-4.77402,8.84646 -15.0177,12.6709 -22.7622,8.49095l-392.919 -212.035c-7.74449,-4.17992 -10.1728,-14.8382 -5.39646,-23.6882z"/>
    <circle id="_550405288" class="fil2" cx="1024" cy="1024" r="48"/>
    <path id="_550394824" class="fil4" d="M527.07 1318.07c-3.59055,2.06221 -8.17678,0.822048 -10.239,-2.76851 -2.06221,-3.59055 -0.822048,-8.17678 2.76851,-10.239l618.384 -355.186c3.59055,-2.06221 8.1756,-0.823229 10.239,2.76732 2.06221,3.59055 0.822048,8.17678 -2.76851,10.239l-618.384 355.187z"/>
    <circle id="_550414072" class="fil5" transform="matrix(0.457724 -1.69313 1.69313 0.457724 1024 1024)" r="14.0622"/>
   </g>
   <g>
    <path id="_550399384" class="fil6" d="M1024 352.004l0.00236221 0 0 1343.99 -0.00236221 0c-371.132,0 -671.996,-300.864 -671.996,-671.996 0,-371.132 300.864,-671.996 671.996,-671.996z"/>
    <path id="_550394968" class="fil7" d="M1024 255.998l0.00236221 0 0 96.006 -0.00236221 0c-371.132,0 -671.996,300.864 -671.996,671.996 0,371.132 300.864,671.996 671.996,671.996l0.00236221 0 0 96.006 -0.00236221 0c-212.073,0 -404.074,-85.9631 -543.056,-224.946 -138.983,-138.982 -224.946,-330.983 -224.946,-543.056 0,-212.073 85.9631,-404.074 224.946,-543.056 138.982,-138.983 330.983,-224.946 543.056,-224.946z"/>
    <path id="_550389112" class="fil8" d="M1024 447.992l0.00236221 0 0.0011811 0 0 587.333 -0.0011811 0 -0.00236221 0c-10.0536,0 -18.2823,-7.19882 -18.2823,-15.9992l0 -555.335c0,-8.8004 8.22638,-15.9992 18.2823,-15.9992z"/>
    <path id="_550394776" class="fil9" d="M1002.81 1012.57l0.0011811 -0.00236221c4.45985,-8.26418 13.6878,-12.1382 21.1925,-9.21497l0 41.4284 -15.7961 -8.52402c-7.74449,-4.17992 -10.1728,-14.8382 -5.39764,-23.687z"/>
    <path id="_550414864" class="fil8" d="M1024 976l0.00236221 0 0 96.0001 -0.00236221 0c-26.5099,0 -48,-21.4902 -48,-48 0,-26.5099 21.4902,-48 48,-48z"/>
    <path id="_550396768" class="fil10" d="M527.07 1318.07c-3.59055,2.06221 -8.17678,0.822048 -10.239,-2.76851 -2.06221,-3.59055 -0.822048,-8.17678 2.76851,-10.239l504.403 -289.718 0 17.2973 -496.933 285.428z"/>
    <path id="_550392256" class="fil11" d="M1000.19 1017.56c2.97402,-11.0008 12.9343,-18.2386 23.811,-18.2303l0 49.3347c-2.12599,-0.0011811 -4.28859,-0.277559 -6.43938,-0.858662 -13.1504,-3.55512 -20.9268,-17.0941 -17.3717,-30.2457z"/>
   </g>
  </g>
  <rect class="fil12" width="2048" height="2048"/>
 </g>
</svg>
