<?xml version="1.0" encoding="UTF-8"?>
<!DOCTYPE svg PUBLIC "-//W3C//DTD SVG 1.1//EN" "http://www.w3.org/Graphics/SVG/1.1/DTD/svg11.dtd">
<!-- Creator: CorelDRAW -->
<svg xmlns="http://www.w3.org/2000/svg" xml:space="preserve" width="2048px" height="2048px" style="shape-rendering:geometricPrecision; text-rendering:geometricPrecision; image-rendering:optimizeQuality; fill-rule:evenodd; clip-rule:evenodd"
viewBox="0 0 2048 2048"
 xmlns:xlink="http://www.w3.org/1999/xlink">
 <defs>
  <style type="text/css">
   <![CDATA[
    .fil18 {fill:none}
    .fil6 {fill:#202020}
    .fil5 {fill:#3C3C3C}
    .fil14 {fill:#6A6A6A}
    .fil13 {fill:#737373}
    .fil9 {fill:#7E7E7E}
    .fil12 {fill:#818181}
    .fil16 {fill:#878787}
    .fil8 {fill:#8A8A8A}
    .fil15 {fill:#9C9C9D}
    .fil7 {fill:#A2A2A2}
    .fil11 {fill:#A4A4A5}
    .fil2 {fill:#BFC0C0}
    .fil10 {fill:#C4C4C4}
    .fil0 {fill:#E1E1E2}
    .fil4 {fill:#202020;fill-rule:nonzero}
    .fil1 {fill:#414141;fill-rule:nonzero}
    .fil17 {fill:#424343;fill-rule:nonzero}
    .fil3 {fill:#D4D4D5;fill-rule:nonzero}
   ]]>
  </style>
 </defs>
 <g id="Layer_x0020_1">
  <metadata id="CorelCorpID_0Corel-Layer"/>
  <path class="fil0" d="M350.87 255.999l1089.12 0 0 1536 -1089.12 0c-52.18,0 -94.8709,-42.691 -94.8709,-94.8709l0 -1346.26c0,-52.18 42.691,-94.8709 94.8709,-94.8709z"/>
  <g id="_550401616">
   <path id="_550409224" class="fil1" d="M847.998 1000.14c88.017,0 168.02,35.9941 226.01,93.9839 57.9898,57.9898 93.9851,137.994 93.9851,226.011l0 56.8241c0,20.1638 -8.23701,38.4827 -21.5043,51.7512 -13.2685,13.2685 -31.5886,21.5043 -51.7512,21.5043l-493.479 0c-20.1638,0 -38.4827,-8.23583 -51.7512,-21.5043 -13.2685,-13.2685 -21.5055,-31.5874 -21.5055,-51.7512l0 -56.8241c0,-88.017 35.9953,-168.021 93.9851,-226.011 57.991,-57.9898 137.994,-93.9839 226.011,-93.9839z"/>
   <polygon id="_550392400" class="fil2" points="765.045,933.271 930.95,933.271 930.95,1072.48 765.045,1072.48 "/>
   <path id="_550395640" class="fil3" d="M847.998 597.784c47.3575,0 90.6627,8.94686 122.902,33.9744 32.9705,25.5957 53.3622,66.691 53.3622,130.097 0,61.2 -19.1469,116.838 -50.1024,157.318 -31.9937,41.8382 -76.5768,67.7162 -126.162,67.7162 -49.5851,0 -94.1682,-25.878 -126.163,-67.7162 -30.9555,-40.4811 -50.1024,-96.1182 -50.1024,-157.318 0,-63.4063 20.3929,-104.502 53.3634,-130.097 32.2382,-25.0276 75.5445,-33.9744 122.902,-33.9744z"/>
   <path id="_550400080" class="fil4" d="M847.998 597.784c47.3575,0 90.6627,8.94686 122.902,33.9756 32.2418,25.0288 52.4516,64.8839 53.3292,125.928 -27.6579,19.9276 -60.7134,31.5248 -96.2339,31.5248 -50.7213,0 -96.4217,-23.6351 -128.539,-61.4374 -30.3508,27.3815 -69.1619,43.8189 -111.461,43.8189 -5.4378,0 -10.8142,-0.285827 -16.1256,-0.817323 -0.0897638,-2.95984 -0.137008,-5.93386 -0.137008,-8.92087 0,-63.4063 20.3929,-104.502 53.3634,-130.096 32.2382,-25.0288 75.5445,-33.9756 122.902,-33.9756z"/>
   <polygon id="_550394056" class="fil5" points="828.813,1057.74 847.998,1072.48 867.181,1057.74 867.181,1450.22 828.813,1450.22 "/>
   <g>
    <polygon id="_550408576" class="fil6" points="764.652,969.993 847.998,1072.48 778.466,1181.84 738.623,1023.8 "/>
    <polygon id="_550395088" class="fil6" points="931.344,969.993 847.998,1072.48 917.529,1181.84 957.373,1023.8 "/>
   </g>
  </g>
  <g id="_550402120">
   <g>
    <rect id="_550411144" class="fil7" x="1440" y="256" width="352.005" height="307.2"/>
    <rect id="_550420960" class="fil8" x="1440" y="1177.6" width="352.005" height="307.2"/>
    <rect id="_550389808" class="fil9" x="1440" y="870.4" width="352.005" height="307.2"/>
    <rect id="_550400320" class="fil10" x="1440" y="563.199" width="352.005" height="307.2"/>
    <rect id="_550393720" class="fil11" x="1440" y="1484.8" width="352.005" height="307.2"/>
   </g>
   <g>
    <polygon id="_550392088" class="fil12" points="1488,255.999 1440,255.999 1440,563.2 1488,563.2 "/>
    <polygon id="_550408192" class="fil13" points="1488,1177.6 1440,1177.6 1440,1484.8 1488,1484.8 "/>
    <polygon id="_550401208" class="fil14" points="1488,870.4 1440,870.4 1440,1177.6 1488,1177.6 "/>
    <polygon id="_550407760" class="fil15" points="1488,563.2 1440,563.2 1440,870.4 1488,870.4 "/>
    <polygon id="_550411696" class="fil16" points="1488,1484.8 1440,1484.8 1440,1792 1488,1792 "/>
   </g>
   <path id="_550419568" class="fil17" d="M1668.45 457.696l-22.976 0 -9.12757 -23.7555 -41.7922 0 -8.61733 23.7555 -22.3925 0 40.7209 -104.541 22.3205 0 41.8642 104.541zm-38.8701 -41.354l-14.4095 -38.7981 -14.1177 38.7981 28.5272 0z"/>
   <path id="_550400272" class="fil17" d="M1572.21 660.356l41.7922 0c8.27599,0 14.4579,0.340158 18.5232,1.04646 4.06418,0.681497 7.69134,2.11772 10.9039,4.30748 3.2126,2.19095 5.86536,5.08701 8.00788,8.73898 2.14134,3.62599 3.2126,7.71497 3.2126,12.2185 0,4.89213 -1.31457,9.39568 -3.94252,13.4847 -2.65394,4.08898 -6.2315,7.15512 -10.7339,9.20079 6.35197,1.84961 11.2689,5.01378 14.6764,9.46772 3.43229,4.47874 5.13544,9.73583 5.13544,15.7725 0,4.74685 -1.09488,9.37087 -3.30945,13.8744 -2.21575,4.47756 -5.23347,8.07993 -9.05434,10.7575 -3.82205,2.67756 -8.5441,4.33347 -14.1662,4.96536 -3.50551,0.364961 -12,0.609449 -25.4599,0.7063l-35.5855 0 0 -104.541zm21.1276 17.4024l0 24.1701 13.8248 0c8.22757,0 13.3382,-0.121654 15.3343,-0.364961 3.60236,-0.413386 6.45,-1.65473 8.5193,-3.72402 2.06929,-2.06929 3.09095,-4.79528 3.09095,-8.17796 0,-3.2374 -0.876379,-5.86654 -2.65276,-7.88623 -1.80118,-2.02087 -4.45394,-3.2374 -7.95945,-3.65197 -2.09291,-0.243307 -8.10473,-0.364961 -18.0366,-0.364961l-12.1205 0zm0 41.5737l0 27.9425 19.5201 0c7.6193,0 12.4382,-0.194882 14.4827,-0.633071 3.13937,-0.559843 5.69528,-1.97126 7.66772,-4.16221 1.97126,-2.21457 2.96929,-5.18386 2.96929,-8.88426 0,-3.13937 -0.779528,-5.79331 -2.2878,-7.98308 -1.53425,-2.19095 -3.72402,-3.79725 -6.59646,-4.79528 -2.87244,-0.998032 -9.12757,-1.48465 -18.7181,-1.48465l-17.0374 0z"/>
   <path id="_550400560" class="fil17" d="M1641.08 1033.66l20.4461 6.47481c-3.13937,11.4154 -8.34804,19.8851 -15.6508,25.4351 -7.27796,5.5252 -16.5508,8.29961 -27.7713,8.29961 -13.8744,0 -25.2898,-4.74567 -34.2225,-14.2146 -8.93268,-9.49253 -13.4114,-22.4658 -13.4114,-38.8949 0,-17.4036 4.50237,-30.9118 13.4847,-40.5508 8.98111,-9.61418 20.7862,-14.4343 35.439,-14.4343 12.7784,0 23.1721,3.77244 31.1551,11.3433 4.77048,4.45394 8.32442,10.8791 10.7102,19.2532l-20.9091 4.98898c-1.21654,-5.42717 -3.79725,-9.71103 -7.73977,-12.8516 -3.9189,-3.13937 -8.68938,-4.69725 -14.2878,-4.69725 -7.73977,0 -14.0445,2.77441 -18.8634,8.34804 -4.82008,5.55 -7.22953,14.5559 -7.22953,27.0177 0,13.2165 2.36103,22.637 7.1315,28.2343 4.74685,5.62323 10.9287,8.42245 18.5232,8.42245 5.62323,0 10.4421,-1.77756 14.4827,-5.35512 4.04055,-3.55394 6.93662,-9.17599 8.713,-16.8189z"/>
   <path id="_550398352" class="fil17" d="M1572.18 1274.76l38.5796 0c8.68938,0 15.3095,0.656693 19.8851,1.99488 6.13465,1.80118 11.3917,5.01496 15.7488,9.63898 4.38071,4.6004 7.71497,10.2473 10.0039,16.9169 2.26299,6.69331 3.40748,14.9209 3.40748,24.7299 0,8.59135 -1.07126,16.0158 -3.21378,22.2461 -2.60433,7.59449 -6.32835,13.7528 -11.1957,18.45 -3.65079,3.57874 -8.59253,6.35315 -14.824,8.34922 -4.64882,1.48465 -10.8791,2.21457 -18.6921,2.21457l-39.6992 0 0 -104.541zm21.1028 17.6953l0 69.2233 15.7476 0c5.89134,0 10.1504,-0.316536 12.7795,-0.998032 3.40748,-0.851575 6.25512,-2.2878 8.51812,-4.33229 2.26417,-2.04449 4.09016,-5.42835 5.5252,-10.102 1.4126,-4.67244 2.14252,-11.074 2.14252,-19.1551 0,-8.08111 -0.729922,-14.263 -2.14252,-18.5965 -1.43504,-4.33229 -3.43111,-7.71497 -5.98701,-10.1256 -2.58071,-2.43307 -5.84174,-4.06418 -9.78544,-4.91575 -2.94449,-0.681497 -8.713,-0.998032 -17.3291,-0.998032l-9.4689 0z"/>
   <polygon id="_550417864" class="fil17" points="1576.25,1686.5 1576.25,1581.96 1653.75,1581.96 1653.75,1599.65 1597.35,1599.65 1597.35,1622.82 1649.83,1622.82 1649.83,1640.42 1597.35,1640.42 1597.35,1668.88 1655.74,1668.88 1655.74,1686.5 "/>
  </g>
  <rect class="fil18" width="2048" height="2048"/>
 </g>
</svg>
