<?xml version="1.0" encoding="UTF-8"?>
<!DOCTYPE svg PUBLIC "-//W3C//DTD SVG 1.1//EN" "http://www.w3.org/Graphics/SVG/1.1/DTD/svg11.dtd">
<!-- Creator: CorelDRAW -->
<svg xmlns="http://www.w3.org/2000/svg" xml:space="preserve" width="2048px" height="2048px" style="shape-rendering:geometricPrecision; text-rendering:geometricPrecision; image-rendering:optimizeQuality; fill-rule:evenodd; clip-rule:evenodd"
viewBox="0 0 2048 2048"
 xmlns:xlink="http://www.w3.org/1999/xlink">
 <defs>
  <style type="text/css">
   <![CDATA[
    .fil18 {fill:none}
    .fil6 {fill:#2D2D2D}
    .fil4 {fill:#2F2F2F}
    .fil14 {fill:#313131}
    .fil13 {fill:#535353}
    .fil8 {fill:#555555}
    .fil17 {fill:#616161}
    .fil15 {fill:#656666}
    .fil9 {fill:#6A6A6A}
    .fil11 {fill:#6C6C6C}
    .fil2 {fill:#767676}
    .fil1 {fill:#8B8B8B}
    .fil5 {fill:#A0A0A0}
    .fil0 {fill:#BEBEBE}
    .fil12 {fill:#D1D1D1}
    .fil7 {fill:#E1E1E2}
    .fil16 {fill:#616161;fill-rule:nonzero}
    .fil10 {fill:#6C6C6C;fill-rule:nonzero}
    .fil3 {fill:#8A8A8A;fill-rule:nonzero}
   ]]>
  </style>
 </defs>
 <g id="Layer_x0020_1">
  <metadata id="CorelCorpID_0Corel-Layer"/>
  <g id="_550409008">
   <path id="_550397944" class="fil0" d="M1340.96 617.647l0 665.386c0,15.9508 -6.51142,30.4382 -16.9973,40.9252 -10.487,10.487 -24.9732,16.9973 -40.924,16.9973l-969.115 0c-15.9508,0 -30.4382,-6.51024 -40.9252,-16.9973 -10.4847,-10.487 -16.9961,-24.9732 -16.9961,-40.9252l0 -665.386 1084.96 0z"/>
   <path id="_550401520" class="fil1" d="M278.602 369.01c508.681,0 531.061,0 1039.75,0l22.604 0.0011811 0 22.6028 0 226.034 -1084.96 0 0 -226.034 0 -22.6028 22.604 -0.0011811z"/>
   <path id="_550404568" class="fil2" d="M278.602 645.22c508.681,0 531.061,0 1039.75,0l22.604 -0.0011811 0 -2.95748 0 -29.5855 -1084.96 0 0 29.5855 0 2.95748 22.604 0.0011811z"/>
   <path id="_550388752" class="fil3" d="M515.933 278.603c0,-12.4831 10.1209,-22.604 22.604,-22.604 12.4831,0 22.604,10.1209 22.604,22.604l0 226.031c0,12.4831 -10.1209,22.604 -22.604,22.604 -12.4831,0 -22.604,-10.1209 -22.604,-22.604l0 -226.031z"/>
   <path id="_550398976" class="fil3" d="M775.869 278.603c0,-12.4831 10.1209,-22.604 22.604,-22.604 12.4831,0 22.604,10.1209 22.604,22.604l0 226.031c0,12.4831 -10.1209,22.604 -22.604,22.604 -12.4831,0 -22.604,-10.1209 -22.604,-22.604l0 -226.031z"/>
   <path id="_550412392" class="fil3" d="M1035.81 278.603c0,-12.4831 10.1209,-22.604 22.604,-22.604 12.4831,0 22.604,10.1209 22.604,22.604l0 226.031c0,12.4831 -10.1209,22.604 -22.604,22.604 -12.4831,0 -22.604,-10.1209 -22.604,-22.604l0 -226.031z"/>
   <path id="_550415512" class="fil4" d="M1104.99 1137.24l0 48.8835 -273.729 0c-0.386221,-12.2445 1.54252,-24.0083 5.88071,-35.289 6.94253,-18.7051 18.1264,-37.024 33.4571,-55.1504 15.4264,-18.0307 37.6028,-38.9528 66.5292,-62.6717 45.026,-36.9284 75.4949,-66.143 91.3064,-87.7406 15.8126,-21.5008 23.7189,-41.941 23.7189,-61.1292 0,-20.1508 -7.23071,-37.1209 -21.5977,-51.0048 -14.4626,-13.787 -33.2634,-20.7295 -56.4036,-20.7295 -24.4902,0 -44.0634,7.32756 -58.7185,22.0795 -14.752,14.6563 -22.1764,34.9996 -22.3689,60.9367l-52.2591 -5.30315c3.56811,-39.0496 17.0658,-68.7461 40.3996,-89.1863 23.3327,-20.4414 54.7654,-30.6614 94.1032,-30.6614 39.724,0 71.1567,11.0882 94.2969,33.0721 23.237,22.0795 34.8071,49.3654 34.8071,81.9544 0,16.5839 -3.37559,32.8784 -10.2201,48.8835 -6.75001,16.0051 -18.0307,32.8784 -33.7465,50.5241 -15.7158,17.7402 -41.8453,42.0366 -78.3875,72.8906 -30.4689,25.6477 -50.0422,43.0028 -58.7185,52.1622 -8.67757,9.06379 -15.8126,18.2232 -21.5008,27.4795l203.151 0z"/>
   <path id="_550399072" class="fil4" d="M783.243 1137.24l0 48.8835 -273.73 0c-0.38504,-12.2445 1.54252,-24.0083 5.88189,-35.289 6.94253,-18.7051 18.1264,-37.024 33.4571,-55.1504 15.4264,-18.0307 37.6028,-38.9528 66.528,-62.6717 45.0272,-36.9284 75.4949,-66.143 91.3076,-87.7406 15.8126,-21.5008 23.7189,-41.941 23.7189,-61.1292 0,-20.1508 -7.2319,-37.1209 -21.5977,-51.0048 -14.4626,-13.787 -33.2646,-20.7295 -56.4048,-20.7295 -24.4902,0 -44.0622,7.32756 -58.7185,22.0795 -14.7508,14.6563 -22.1752,34.9996 -22.3677,60.9367l-52.2591 -5.30315c3.56811,-39.0496 17.0658,-68.7461 40.3996,-89.1863 23.3327,-20.4414 54.7654,-30.6614 94.1032,-30.6614 39.724,0 71.1556,11.0882 94.2969,33.0721 23.237,22.0795 34.8059,49.3654 34.8059,81.9544 0,16.5839 -3.37441,32.8784 -10.2201,48.8835 -6.74882,16.0051 -18.0295,32.8784 -33.7465,50.5241 -15.7158,17.7402 -41.8453,42.0366 -78.3875,72.8906 -30.4677,25.6477 -50.041,43.0028 -58.7185,52.1622 -8.67638,9.06379 -15.8126,18.2232 -21.5008,27.4795l203.152 0z"/>
  </g>
  <g id="_550400248">
   <path id="_550400632" class="fil5" d="M1340.96 871.146l0 411.887c0,15.9508 -6.51142,30.4382 -16.9973,40.9252 -10.487,10.487 -24.9732,16.9973 -40.924,16.9973l-511.824 0c29.4992,-264.581 260.345,-470.556 540.785,-470.556 9.71576,0 19.3701,0.257481 28.9607,0.746457z"/>
   <path id="_550389616" class="fil6" d="M1104.99 1137.24l0 48.8835 -273.729 0c-0.386221,-12.2445 1.54252,-24.0083 5.88071,-35.289 6.94253,-18.7051 18.1264,-37.024 33.4571,-55.1504 15.4264,-18.0307 37.6028,-38.9528 66.5292,-62.6717 41.9197,-34.3807 71.2205,-62.0752 87.8233,-83.1615 24.326,-14.6965 49.9229,-27.5941 76.6123,-38.4756 -1.69488,7.66772 -4.14803,15.2693 -7.37127,22.8083 -6.75001,16.0051 -18.0307,32.8784 -33.7465,50.5241 -15.7158,17.7402 -41.8453,42.0366 -78.3875,72.8906 -30.4689,25.6477 -50.0422,43.0028 -58.7185,52.1622 -8.67757,9.06379 -15.8126,18.2232 -21.5008,27.4795l203.151 0z"/>
  </g>
  <g id="_550419664">
   <g>
    <ellipse id="_550390480" class="fil7" cx="1331.2" cy="1331.2" rx="403.197" ry="403.197"/>
    <path id="_550411000" class="fil8" d="M1331.2 870.4c127.244,0 242.444,51.5776 325.833,134.967 83.3894,83.3883 134.967,198.59 134.967,325.833 0,127.244 -51.5776,242.445 -134.967,325.833 -83.3894,83.3894 -198.59,134.967 -325.833,134.967 -127.244,0 -242.444,-51.5776 -325.833,-134.967 -83.3894,-83.3883 -134.967,-198.59 -134.967,-325.833 0,-127.244 51.5776,-242.445 134.967,-325.833 83.3894,-83.3894 198.59,-134.967 325.833,-134.967zm0 57.6024c222.679,0 403.197,180.519 403.197,403.198 0,222.679 -180.517,403.198 -403.197,403.198 -222.679,0 -403.197,-180.519 -403.197,-403.198 0,-222.679 180.517,-403.198 403.197,-403.198z"/>
    <path id="_550407424" class="fil4" d="M1331.2 985.595l0 0c6.03426,0 10.9701,4.32166 10.9701,9.60001l0 333.201c0,5.27835 -4.93701,9.59883 -10.9701,9.59883l0 0c-6.03308,0 -10.9701,-4.31929 -10.9701,-9.59883l0 -333.201c0,-5.28071 4.93583,-9.60001 10.9701,-9.60001z"/>
    <path id="_550399960" class="fil9" d="M1318.48 1324.34l0 -0.0011811c2.86654,-5.31024 9.013,-7.60158 13.6583,-5.0941l235.751 127.221c4.64528,2.5063 6.10276,8.90434 3.23859,14.2122l0 0.0011811c-2.86536,5.30788 -9.01064,7.60158 -13.6583,5.0941l-235.751 -127.221c-4.64646,-2.50748 -6.10394,-8.90198 -3.23859,-14.2122z"/>
    <circle id="_550415224" class="fil4" cx="1331.2" cy="1331.2" r="28.8"/>
    <path id="_550409992" class="fil10" d="M1033.04 1507.64c-2.15433,1.2378 -4.9063,0.493701 -6.1441,-1.66063 -1.23662,-2.15433 -0.49252,-4.9063 1.66181,-6.1441l371.029 -213.111c2.15433,-1.2378 4.9063,-0.493701 6.1441,1.66063 1.23662,2.15433 0.493701,4.9063 -1.66063,6.14292l-371.031 213.112z"/>
    <circle id="_550414240" class="fil11" transform="matrix(0.274634 -1.01587 1.01587 0.274634 1331.2 1331.2)" r="14.0622"/>
   </g>
   <g>
    <path id="_550420720" class="fil12" d="M1331.2 928.002l0.0011811 0 0 806.396 -0.0011811 0c-222.679,0 -403.197,-180.519 -403.197,-403.198 0,-222.679 180.517,-403.198 403.197,-403.198z"/>
    <path id="_550402528" class="fil13" d="M1331.2 870.4l0.0011811 0 0 57.6024 -0.0011811 0c-222.679,0 -403.197,180.519 -403.197,403.198 0,222.679 180.517,403.198 403.197,403.198l0.0011811 0 0 57.6024 -0.0011811 0c-127.244,0 -242.444,-51.5776 -325.833,-134.967 -83.3894,-83.3883 -134.967,-198.59 -134.967,-325.833 0,-127.244 51.5776,-242.445 134.967,-325.833 83.3894,-83.3894 198.59,-134.967 325.833,-134.967z"/>
    <path id="_550405720" class="fil14" d="M1331.2 985.595l0.00236221 0 0 0 0 352.4 0 0 -0.00236221 0c-6.03189,0 -10.9689,-4.31929 -10.9689,-9.59883l0 -333.201c0,-5.28071 4.93583,-9.60001 10.9689,-9.60001z"/>
    <path id="_550390672" class="fil15" d="M1318.48 1324.34l0 -0.0011811c2.67638,-4.95827 8.21339,-7.28268 12.7158,-5.52874l0 24.8575 -9.47717 -5.11536c-4.64646,-2.50748 -6.10394,-8.90198 -3.23859,-14.2122z"/>
    <path id="_550390648" class="fil14" d="M1331.2 1302.4l0.0011811 0 0 57.6 -0.0011811 0c-15.9059,0 -28.8,-12.8941 -28.8,-28.8 0,-15.9059 12.8941,-28.8 28.8,-28.8z"/>
    <path id="_550415656" class="fil16" d="M1033.04 1507.64c-2.15433,1.2378 -4.9063,0.493701 -6.1441,-1.66063 -1.23662,-2.15433 -0.49252,-4.9063 1.66181,-6.1441l302.641 -173.83 0 10.3784 -298.159 171.256z"/>
    <path id="_550414408" class="fil17" d="M1316.91 1327.34c1.78465,-6.60001 7.76103,-10.9429 14.2866,-10.9382l0 29.6008c-1.27559,-0.0011811 -2.57244,-0.166536 -3.86339,-0.514961 -7.88977,-2.13307 -12.5563,-10.2567 -10.4232,-18.1477z"/>
   </g>
  </g>
  <rect class="fil18" width="2048" height="2048"/>
 </g>
</svg>
