<?xml version="1.0" encoding="UTF-8"?>
<!DOCTYPE svg PUBLIC "-//W3C//DTD SVG 1.1//EN" "http://www.w3.org/Graphics/SVG/1.1/DTD/svg11.dtd">
<!-- Creator: CorelDRAW -->
<svg xmlns="http://www.w3.org/2000/svg" xml:space="preserve" width="2048px" height="2048px" style="shape-rendering:geometricPrecision; text-rendering:geometricPrecision; image-rendering:optimizeQuality; fill-rule:evenodd; clip-rule:evenodd"
viewBox="0 0 2048 2048"
 xmlns:xlink="http://www.w3.org/1999/xlink">
 <defs>
  <style type="text/css">
   <![CDATA[
    .fil6 {fill:none}
    .fil2 {fill:#232323}
    .fil1 {fill:#2F2F2F}
    .fil4 {fill:#6C6C6C}
    .fil3 {fill:#9D9D9D}
    .fil5 {fill:#B4B4B5}
    .fil0 {fill:#BCBCBC}
   ]]>
  </style>
 </defs>
 <g id="Layer_x0020_1">
  <metadata id="CorelCorpID_0Corel-Layer"/>
  <g id="_550405504">
   <rect id="_550394296" class="fil0" x="255.999" y="255.999" width="1536" height="1536" rx="256.001" ry="256.001"/>
   <path id="_550397848" class="fil1" d="M511.999 255.999l1024 0c140.801,0 255.999,115.199 255.999,255.999l0 127.994 -1536 0 0 -127.994c0,-140.801 115.199,-255.999 255.999,-255.999z"/>
   <path id="_550391872" class="fil2" d="M1371.73 1158.27l16.7575 -0.437008 0.0212599 0.876379 1.63347 0.0425197 -0.816142 33.2788 0.816142 33.2788 -1.63347 0.0425197 -0.0212599 0.876379 -16.7587 -0.435827c-19.363,0.588189 -40.6359,4.11851 -56.6268,15.2433 -10.8224,7.52835 -17.9823,17.7744 -22.9453,29.5441 -6.22796,14.7709 2.61969,68.2217 5.01024,84.8505 11.0445,76.7989 28.8,186.734 -53.2158,234.888 -14.4189,8.46615 -30.424,14.0291 -46.8426,17.6917 -18.9177,4.2189 -38.654,5.97993 -58.0359,6.56103l-17.6858 0.529134 -1.93228 -67.4741 17.5536 -0.525591c14.7177,-0.440552 29.8937,-1.70079 44.2618,-4.9063 8.91024,-1.98662 18.1134,-4.89567 25.9559,-9.49961 3.96733,-2.33032 7.49528,-5.17796 10.5697,-8.52757 30.3449,-33.0591 15.6036,-117.914 9.60355,-159.63 -4.90158,-34.0937 -14.237,-86.7556 -0.56693,-119.177 8.80158,-20.8748 21.5776,-38.98 39.3166,-53.3304 -17.739,-14.3504 -30.515,-32.4555 -39.3166,-53.3304 -13.6701,-32.4201 -4.33465,-85.0831 0.56693,-119.177 1.89095,-13.1457 3.77953,-26.2937 5.34331,-39.4796 4.17048,-35.1614 12.1488,-106.563 -25.5166,-128.678 -7.84253,-4.60394 -17.0457,-7.51182 -25.9559,-9.49961 -14.3681,-3.20551 -29.5441,-4.46575 -44.2618,-4.9063l-17.5536 -0.52441 1.93228 -67.4752 17.6858 0.529134c19.3819,0.581103 39.1181,2.34213 58.0359,6.56103 16.4185,3.6626 32.4236,9.2256 46.8426,17.6917 82.0158,48.1548 64.2603,158.089 53.2158,234.89 -2.39055,16.6276 -11.2382,70.0784 -5.01024,84.8493 4.963,11.7709 12.1228,22.0158 22.9453,29.5441 15.991,11.1236 37.265,14.6551 56.628,15.2445zm-589.888 33.7607c17.739,14.3504 30.515,32.4555 39.3166,53.3304 13.6701,32.4213 4.33465,85.0831 -0.568111,119.177 -1.88977,13.1457 -3.77835,26.2949 -5.34213,39.4796 -4.17166,35.1614 -12.1488,106.563 25.5166,128.678 7.84134,4.60394 17.0457,7.513 25.9559,9.49961 14.3669,3.20551 29.5441,4.46575 44.2618,4.9063l17.5536 0.525591 -1.93228 67.4741 -17.6858 -0.529134c-19.3831,-0.581103 -39.1193,-2.34213 -58.0359,-6.56103 -16.4185,-3.6626 -32.4236,-9.2256 -46.8426,-17.6917 -82.017,-48.1548 -64.2603,-158.089 -53.217,-234.888 2.39173,-16.6288 11.2394,-70.0796 5.01142,-84.8505 -4.963,-11.7697 -12.1228,-22.0158 -22.9453,-29.5441 -15.991,-11.1248 -37.265,-14.6551 -56.628,-15.2433l-16.7575 0.435827 -0.0212599 -0.876379 -1.63347 -0.0425197 0.816142 -33.2788 -0.816142 -33.2788 1.63347 -0.0425197 0.0212599 -0.876379 16.7575 0.437008c19.363,-0.589371 40.637,-4.12087 56.628,-15.2445 10.8224,-7.52835 17.9823,-17.7732 22.9453,-29.5441 6.22796,-14.7709 -2.61969,-68.2217 -5.01142,-84.8493 -11.0433,-76.8001 -28.8,-186.735 53.217,-234.89 14.4189,-8.46615 30.424,-14.0291 46.8426,-17.6917 18.9165,-4.2189 38.6528,-5.97993 58.0359,-6.56103l17.6858 -0.529134 1.93228 67.4752 -17.5536 0.52441c-14.7177,0.440552 -29.8949,1.70079 -44.2618,4.9063 -8.91024,1.9878 -18.1146,4.89567 -25.9559,9.49961 -3.96851,2.33032 -7.49528,5.17914 -10.5697,8.52757 -30.3449,33.0591 -15.6036,117.914 -9.60473,159.63 4.90276,34.0937 14.2382,86.7568 0.568111,119.177 -8.80158,20.8748 -21.5776,38.98 -39.3166,53.3304z"/>
   <rect id="_550406992" class="fil3" x="1433.83" y="415.992" width="94.0409" height="94.0409" rx="19.9996" ry="19.9996"/>
   <rect id="_550394656" class="fil4" x="1555.67" y="415.992" width="94.0409" height="94.0409" rx="19.9996" ry="19.9996"/>
   <rect id="_550394200" class="fil5" x="1312" y="415.992" width="94.0409" height="94.0409" rx="19.9996" ry="19.9996"/>
  </g>
  <rect class="fil6" width="2048" height="2048"/>
 </g>
</svg>
