<?xml version="1.0" encoding="UTF-8"?>
<!DOCTYPE svg PUBLIC "-//W3C//DTD SVG 1.1//EN" "http://www.w3.org/Graphics/SVG/1.1/DTD/svg11.dtd">
<!-- Creator: CorelDRAW -->
<svg xmlns="http://www.w3.org/2000/svg" xml:space="preserve" width="2048px" height="2048px" style="shape-rendering:geometricPrecision; text-rendering:geometricPrecision; image-rendering:optimizeQuality; fill-rule:evenodd; clip-rule:evenodd"
viewBox="0 0 2048 2048"
 xmlns:xlink="http://www.w3.org/1999/xlink">
 <defs>
  <style type="text/css">
   <![CDATA[
    .str1 {stroke:#F3F3F3;stroke-width:10.0004;stroke-linecap:round;stroke-linejoin:round}
    .str2 {stroke:#F3F3F3;stroke-width:15;stroke-linecap:round;stroke-linejoin:round}
    .str0 {stroke:#F3F3F3;stroke-width:25.0004;stroke-linecap:round;stroke-linejoin:round}
    .fil1 {fill:none}
    .fil5 {fill:#575758}
    .fil3 {fill:#5F5F5F}
    .fil0 {fill:#C9C9C9}
    .fil2 {fill:#D2D2D2}
    .fil4 {fill:#5F5F5F;fill-rule:nonzero}
   ]]>
  </style>
 </defs>
 <g id="Layer_x0020_1">
  <metadata id="CorelCorpID_0Corel-Layer"/>
  <g id="_550404928">
   <g>
    <g>
     <path id="_550399624" class="fil0" d="M892.778 559.009c45.4111,-15.913 95.2867,-24.7146 147.633,-24.7146 121.449,0 229.627,47.3492 299.489,121.109l116.609 0 0 0.587008c122.749,7.04646 219.704,92.315 219.704,196.487 0,108.783 -105.73,196.968 -236.155,196.968 -30.9319,0 -60.4713,-4.96772 -87.5434,-13.9843 -69.039,81.769 -183.085,135.197 -312.104,135.197 -94.8024,0 -181.518,-28.8532 -248.241,-76.5922 -54.039,29.2736 -118.502,46.2898 -187.741,46.2898 -190.622,0 -345.151,-128.888 -345.151,-287.879 0,-144.813 128.2,-264.632 295.1,-284.855 17.8559,-64.8071 87.4406,-113.14 170.56,-113.14 79.3926,0 146.427,44.0989 167.841,104.526z"/>
     <path id="_550417024" class="fil1 str0" d="M626.699 650.614c-137.988,0 -249.851,93.3013 -249.851,208.391"/>
     <path id="_550416400" class="fil1 str1" d="M817.114 736.876c43.3252,-68.1579 128.251,-110.778 220.745,-110.778 29.5689,0 58.904,4.37835 86.6398,12.9307"/>
     <path id="_550398088" class="fil2" d="M1201.99 783.951c34.0099,-11.9173 71.3634,-18.5091 110.567,-18.5091 90.9568,0 171.975,35.4614 224.296,90.7016l87.332 0 0 0.43937c91.93,5.27835 164.543,69.1382 164.543,147.156 0,81.4701 -79.1847,147.515 -176.863,147.515 -23.1662,0 -45.2882,-3.72048 -65.5642,-10.474 -51.7052,61.239 -137.118,101.254 -233.744,101.254 -71.0008,0 -135.944,-21.6095 -185.915,-57.3626 -40.4705,21.9236 -88.7493,34.6677 -140.604,34.6677 -142.762,0 -258.494,-96.5268 -258.494,-215.6 0,-108.455 96.0131,-198.191 221.009,-213.337 13.3725,-48.5363 65.4875,-84.7335 127.737,-84.7335 59.4591,0 109.663,33.026 125.7,78.2823z"/>
    </g>
    <path id="_550397272" class="fil1 str2" d="M827.958 996.404c11.4874,-49.8957 49.2544,-89.0469 98.165,-101.763 15.6366,-4.06536 31.8827,-5.27599 47.9835,-3.5752"/>
   </g>
   <g>
    <polygon id="_550394008" class="fil3" points="1237.4,1014.09 1236.67,1525.61 1365.04,1525.61 1365.78,1014.09 "/>
    <polygon id="_550399312" class="fil4" points="1053.53,1352.51 1301.22,1593.52 1548.92,1352.51 "/>
   </g>
   <polygon id="_550413664" class="fil5" points="1301.22,1525.61 1301.22,1352.51 1301.22,1241.85 1301.22,1084.67 1301.22,1014.09 1365.78,1014.09 1365.62,1125.29 1365.46,1233.61 1365.29,1352.51 1548.92,1352.51 1301.22,1593.52 "/>
  </g>
  <rect class="fil1" width="2048" height="2048"/>
 </g>
</svg>
