<?xml version="1.0" encoding="UTF-8"?>
<!DOCTYPE svg PUBLIC "-//W3C//DTD SVG 1.1//EN" "http://www.w3.org/Graphics/SVG/1.1/DTD/svg11.dtd">
<!-- Creator: CorelDRAW -->
<svg xmlns="http://www.w3.org/2000/svg" xml:space="preserve" width="2048px" height="2048px" style="shape-rendering:geometricPrecision; text-rendering:geometricPrecision; image-rendering:optimizeQuality; fill-rule:evenodd; clip-rule:evenodd"
viewBox="0 0 2048 2048"
 xmlns:xlink="http://www.w3.org/1999/xlink">
 <defs>
  <style type="text/css">
   <![CDATA[
    .fil5 {fill:none}
    .fil2 {fill:#444444}
    .fil0 {fill:#4D4D4D}
    .fil3 {fill:#606060}
    .fil4 {fill:#6C6C6C}
    .fil1 {fill:#E8E8E8}
   ]]>
  </style>
 </defs>
 <g id="Layer_x0020_1">
  <metadata id="CorelCorpID_0Corel-Layer"/>
  <path class="fil0" d="M1800.2 934.198l0 778.621c0,12.8988 -10.5532,23.4508 -23.452,23.4508l-1489.1 0c-12.8988,0 -23.452,-10.552 -23.452,-23.4508l0 -778.621 -0.298819 0 728.057 -504.633c22.1504,-15.3532 59.5477,-14.4992 83.1863,1.87559l725.73 502.758 -0.673229 0z"/>
  <rect class="fil1" x="392.39" y="575.992" width="1280" height="837.504"/>
  <path class="fil2" d="M1120.8 1200.47c-30.3166,34.6807 -71.9941,58.904 -119.048,58.904 -3.17481,0 -6.35079,-0.132284 -9.51851,-0.356693 -42.991,-3.05315 -79.3146,-26.3858 -104.405,-60.8623 -23.6646,-32.5193 -35.7662,-72.5398 -38.1036,-112.538l-0.479528 0 0 -14.5158c0,-6.12756 0.240945,-12.2551 0.675591,-18.3673 3.60945,-50.7804 22.3004,-101.613 55.2496,-140.738 30.5032,-36.2221 73.18,-61.8012 121.533,-61.8012 3.17481,0 6.35079,0.132284 9.51851,0.356693 37.3949,2.6563 69.7453,20.6551 94.0465,47.987l2.94567 -47.5689 57.9012 3.4063 -19.128 308.92c-0.960237,15.5079 4.95237,30.0614 17.8311,39.0981 6.56339,4.60512 14.6055,6.21969 22.5201,5.92914 47.2347,-1.73622 85.0595,-42.1807 103.407,-82.6855 19.813,-43.741 25.7079,-103.921 13.8898,-150.35 -0.142913,-0.563386 -0.303544,-1.12323 -0.454725,-1.68307 -13.8803,-51.3544 -41.1225,-98.1331 -78.7253,-135.736 -57.365,-57.365 -134.417,-89.2843 -215.555,-89.2843 -81.1383,0 -158.19,31.9193 -215.554,89.2843 -57.3662,57.365 -89.2855,134.417 -89.2855,215.555 0,81.1383 31.9193,158.19 89.2855,215.555 57.3638,57.365 134.415,89.2843 215.554,89.2843 64.9938,0 127.712,-20.4343 180.121,-58.8827l23.1024 -16.9488 0 71.7957 -6.64252 4.2874c-58.7457,37.9288 -126.665,57.8126 -196.58,57.8126 -96.5635,0 -188.34,-38.0233 -256.61,-106.293 -68.2701,-68.2701 -106.293,-160.045 -106.293,-256.61 0,-96.5646 38.0233,-188.34 106.293,-256.61 68.2701,-68.2701 160.047,-106.293 256.61,-106.293 96.5646,0 188.34,38.0233 256.61,106.293 44.8819,44.8819 77.3623,100.741 93.8481,162.058 0.270473,1.00748 0.161811,0.637796 0.320079,1.34173 13.2839,59.3859 9.21024,129.555 -15.5386,185.447 -27.6473,62.4355 -84.2316,117.966 -155.714,120.594 -20.6717,0.759449 -40.9548,-4.46693 -57.9532,-16.3925 -17.7,-12.4205 -29.1319,-29.8547 -35.6729,-49.3926zm-213.489 -124.689c0.751182,30.9532 9.013,63.0756 27.3544,88.2804 14.8417,20.3941 35.9823,35.2548 61.6666,37.0772 1.80118,0.127559 3.61418,0.17126 5.42008,0.17126 30.8103,0 57.9497,-18.163 77.2123,-41.0374 25.0736,-29.7744 38.9516,-68.9623 41.6918,-107.537 0.336614,-4.74804 0.488977,-9.50906 0.488977,-14.2677l0 -4.67953c-0.752363,-30.9544 -9.013,-63.0756 -27.3555,-88.2804 -14.8406,-20.3941 -35.9811,-35.2548 -61.6654,-37.0772 -1.80118,-0.127559 -3.61418,-0.17126 -5.42008,-0.17126 -30.8103,0 -57.9485,18.163 -77.2123,41.0374 -25.0736,29.7744 -38.9516,68.9611 -41.6918,107.537 -0.337796,4.74685 -0.488977,9.50788 -0.488977,14.2677l0 4.67953z"/>
  <path class="fil3" d="M267.821 1725.29l608.354 -416.172 -611.972 -374.711 0 778.411c0,4.57441 1.32756,8.85473 3.61772,12.4725z"/>
  <path class="fil3" d="M1800.2 1712.82l0 -778.621 -0.63189 0 -615.578 377.795 612.592 413.299c2.29016,-3.61772 3.61772,-7.89804 3.61772,-12.4725z"/>
  <path class="fil4" d="M1796.59 1725.29c-4.16457,6.58347 -11.511,10.9784 -19.8343,10.9784l-1489.1 0c-8.32323,0 -15.6697,-4.39489 -19.8343,-10.9784l724.297 -503.085c22.0488,-15.3142 59.3339,-14.4732 82.8615,1.86851l721.607 501.217z"/>
  <rect class="fil5" width="2048" height="2048"/>
 </g>
</svg>
