<?xml version="1.0" encoding="UTF-8"?>
<!DOCTYPE svg PUBLIC "-//W3C//DTD SVG 1.1//EN" "http://www.w3.org/Graphics/SVG/1.1/DTD/svg11.dtd">
<!-- Creator: CorelDRAW -->
<svg xmlns="http://www.w3.org/2000/svg" xml:space="preserve" width="2048px" height="2048px" style="shape-rendering:geometricPrecision; text-rendering:geometricPrecision; image-rendering:optimizeQuality; fill-rule:evenodd; clip-rule:evenodd"
viewBox="0 0 2048 2048"
 xmlns:xlink="http://www.w3.org/1999/xlink">
 <defs>
  <style type="text/css">
   <![CDATA[
    .fil3 {fill:none}
    .fil1 {fill:#959595}
    .fil2 {fill:#F0F0F0}
    .fil0 {fill:#797979;fill-rule:nonzero}
   ]]>
  </style>
 </defs>
 <g id="Layer_x0020_1">
  <metadata id="CorelCorpID_0Corel-Layer"/>
  <path class="fil0" d="M320 655.948l0 0.0011811c-17.6339,8.07166 -33.8634,19.2957 -47.8784,33.3118 -5.87481,5.87481 -11.2559,12.1382 -16.1232,18.7311l0 -159.304c0,-36.3331 14.8417,-69.3414 38.7496,-93.2505 23.9091,-23.9079 56.9174,-38.7496 93.2505,-38.7496l1272 0c36.3331,0 69.3414,14.8417 93.2505,38.7496 23.9079,23.9091 38.7496,56.9174 38.7496,93.2505l0 350.97c-4.86615,-6.59292 -10.2496,-12.8563 -16.1232,-18.7311 -14.015,-14.0162 -30.2445,-25.2402 -47.8784,-33.3118 -21.1158,-9.66733 -44.2465,-14.8122 -67.9985,-14.8122l-645.115 0 -30.3378 -57.4772c-2.69882,-5.11418 -5.29489,-10.3158 -7.92284,-15.4689 -16.4504,-32.2477 -33.4465,-65.6056 -61.917,-89.0658 -25.1008,-20.6835 -54.3898,-29.654 -86.7083,-29.654l-440.002 0c-23.752,0 -46.8827,5.14489 -67.9985,14.811z"/>
  <path class="fil1" d="M995.593 767.657l664.408 0c36.3331,0 69.3414,14.8417 93.2493,38.7508 23.9091,23.9091 38.7508,56.9197 38.7508,93.2505l0 763.334c0,36.2835 -14.6291,68.4674 -38.367,91.7091 -23.8512,23.354 -56.7142,37.5142 -92.9316,37.5142l-1272 0c-36.1973,0 -69.4418,-14.1425 -93.5824,-37.4492 -24.1028,-23.2701 -39.1193,-55.4622 -39.1193,-91.7741l0 -712.501 0 -150.834 0 -91.6654c0,-36.3331 14.8417,-69.3414 38.7508,-93.2505 23.9079,-23.9091 56.9162,-38.7508 93.2493,-38.7508l440.002 0c68.4615,0 93.4902,49.0607 120.119,101.261 3.51378,6.88938 7.03701,13.7953 8.12953,15.8658l39.3437 74.5394z"/>
  <polygon class="fil2" points="1088,1311.99 1344,1311.99 1376,1311.99 1376,1343.99 1376,1599.99 1376,1632 1344,1632 1088,1632 1056,1632 1056,1599.99 1056,1343.99 1056,1311.99 "/>
  <polygon class="fil2" points="703.999,1311.99 960,1311.99 992,1311.99 992,1343.99 992,1599.99 992,1632 960,1632 703.999,1632 671.998,1632 671.998,1599.99 671.998,1343.99 671.998,1311.99 "/>
  <polygon class="fil2" points="1088,927.99 1344,927.99 1376,927.99 1376,959.991 1376,1215.99 1376,1247.99 1344,1247.99 1088,1247.99 1056,1247.99 1056,1215.99 1056,959.991 1056,927.99 "/>
  <polygon class="fil2" points="703.999,927.99 960,927.99 992,927.99 992,959.991 992,1215.99 992,1247.99 960,1247.99 703.999,1247.99 671.998,1247.99 671.998,1215.99 671.998,959.991 671.998,927.99 "/>
  <rect class="fil3" width="2048" height="2048"/>
 </g>
</svg>
