<?xml version="1.0" encoding="UTF-8"?>
<!DOCTYPE svg PUBLIC "-//W3C//DTD SVG 1.1//EN" "http://www.w3.org/Graphics/SVG/1.1/DTD/svg11.dtd">
<!-- Creator: CorelDRAW -->
<svg xmlns="http://www.w3.org/2000/svg" xml:space="preserve" width="2048px" height="2048px" style="shape-rendering:geometricPrecision; text-rendering:geometricPrecision; image-rendering:optimizeQuality; fill-rule:evenodd; clip-rule:evenodd"
viewBox="0 0 2048 2048"
 xmlns:xlink="http://www.w3.org/1999/xlink">
 <defs>
  <style type="text/css">
   <![CDATA[
    .fil7 {fill:none}
    .fil6 {fill:#202020}
    .fil0 {fill:#414141}
    .fil1 {fill:#9E9E9E}
    .fil5 {fill:#B3B4B4}
    .fil4 {fill:#535353;fill-rule:nonzero}
    .fil2 {fill:#5F5F5F;fill-rule:nonzero}
    .fil3 {fill:#C9C9C9;fill-rule:nonzero}
   ]]>
  </style>
 </defs>
 <g id="Layer_x0020_1">
  <metadata id="CorelCorpID_0Corel-Layer"/>
  <g id="_550412584">
   <rect id="_550399432" class="fil0" x="1280.1" y="1154.2" width="19.0323" height="45.9662" rx="100" ry="100"/>
   <path id="_550399024" class="fil1" d="M1273.55 1129.2l7.95355 0c4.37481,0 7.95237,3.57756 7.95237,7.95237l0 119.061c0,4.37481 -3.57756,7.95237 -7.95237,7.95237l-7.95355 0 0 -134.966z"/>
   <path id="_550395688" class="fil2" d="M784.066 1735.99l0 -695.823 -0.00354331 0 -154.115 -223.086 -0.589371 -15.1772 8.17678 -49.6264 8.55237 0 382.861 0 382.861 0 8.55237 0 8.17678 49.6264 -0.589371 15.1772 -154.115 223.086 -0.00354331 0 0 695.823c0,19.787 -8.07284,37.7551 -21.0768,50.7591 -13.0039,13.0039 -30.9721,21.0768 -50.7591,21.0768l-173.046 0 -173.046 0c-19.787,0 -37.7551,-8.07284 -50.7591,-21.0768 -13.0039,-13.0039 -21.0768,-30.9721 -21.0768,-50.7591z"/>
   <path id="_550410568" class="fil3" d="M991.996 272.173c0,-17.6728 14.328,-32.0008 32.0008,-32.0008 17.6728,0 32.0008,14.328 32.0008,32.0008l0 332.553c0,17.6728 -14.328,32.0008 -32.0008,32.0008 -17.6728,0 -32.0008,-14.328 -32.0008,-32.0008l0 -332.553z"/>
   <path id="_550397608" class="fil3" d="M677.816 337.229c-6.55749,-16.3606 1.39016,-34.9429 17.7508,-41.5004 16.3606,-6.55749 34.9429,1.39016 41.5004,17.7508l108.61 268.817c6.55749,16.3606 -1.39016,34.9429 -17.7508,41.5004 -16.3606,6.55749 -34.9429,-1.39016 -41.5004,-17.7508l-108.61 -268.817z"/>
   <path id="_550388536" class="fil3" d="M1310.93 313.479c6.55749,-16.3606 25.1398,-24.3083 41.5004,-17.7508 16.3606,6.55749 24.3083,25.1398 17.7508,41.5004l-108.61 268.817c-6.55749,16.3606 -25.1398,24.3083 -41.5004,17.7508 -16.3606,-6.55749 -24.3083,-25.1398 -17.7508,-41.5004l108.61 -268.817z"/>
   <path id="_550413016" class="fil3" d="M443.246 432.998c-9.59528,-14.7732 -5.39882,-34.5296 9.37442,-44.1248 14.7732,-9.59528 34.5296,-5.39882 44.1248,9.37442l112.029 172.511c9.59528,14.7732 5.39882,34.5296 -9.37442,44.1248 -14.7732,9.59528 -34.5296,5.39882 -44.1248,-9.37442l-112.029 -172.511z"/>
   <path id="_550411168" class="fil3" d="M1551.25 398.248c9.59528,-14.7732 29.3516,-18.9697 44.1248,-9.37442 14.7732,9.59528 18.9697,29.3516 9.37442,44.1248l-112.03 172.511c-9.59528,14.7732 -29.3516,18.9697 -44.1248,9.37442 -14.7732,-9.59528 -18.9697,-29.3516 -9.37442,-44.1248l112.03 -172.511z"/>
   <polygon id="_550409752" class="fil4" points="784.062,1040.17 629.947,817.081 629.358,801.904 637.535,752.278 646.087,752.278 1028.95,752.278 1028.95,1040.17 "/>
   <path id="_550399336" class="fil4" d="M784.066 1735.99l0 -712.03 244.882 0 0 783.866 -173.046 0c-19.787,0 -37.7551,-8.07284 -50.7591,-21.0768 -13.0039,-13.0039 -21.0768,-30.9721 -21.0768,-50.7591z"/>
   <path id="_550390000" class="fil5" d="M784.066 1040.17l249.931 0 0 89.0339 -249.931 0 0 -89.0339zm249.931 0l0.441733 0 239.391 0 0 89.0339 -239.33 0 -0.501969 0 0 -89.0339z"/>
   <rect id="_550389712" class="fil6" x="615.912" y="752.278" width="826.071" height="64.0004" rx="11.7248" ry="11.7248"/>
  </g>
  <rect class="fil7" width="2048" height="2048"/>
 </g>
</svg>
