<?xml version="1.0" encoding="UTF-8"?>
<!DOCTYPE svg PUBLIC "-//W3C//DTD SVG 1.1//EN" "http://www.w3.org/Graphics/SVG/1.1/DTD/svg11.dtd">
<!-- Creator: CorelDRAW -->
<svg xmlns="http://www.w3.org/2000/svg" xml:space="preserve" width="2048px" height="2048px" style="shape-rendering:geometricPrecision; text-rendering:geometricPrecision; image-rendering:optimizeQuality; fill-rule:evenodd; clip-rule:evenodd"
viewBox="0 0 2048 2048"
 xmlns:xlink="http://www.w3.org/1999/xlink">
 <defs>
  <style type="text/css">
   <![CDATA[
    .fil12 {fill:none}
    .fil4 {fill:#2F2F2F}
    .fil9 {fill:#393939}
    .fil7 {fill:#444444}
    .fil0 {fill:#6A6A6A}
    .fil6 {fill:#6C6C6C}
    .fil2 {fill:#858585}
    .fil1 {fill:#989898}
    .fil11 {fill:#A0A0A0}
    .fil3 {fill:#A1A1A1}
    .fil5 {fill:#DADADA}
    .fil8 {fill:#444444;fill-rule:nonzero}
    .fil10 {fill:#8B8B8B;fill-rule:nonzero}
   ]]>
  </style>
 </defs>
 <g id="Layer_x0020_1">
  <metadata id="CorelCorpID_0Corel-Layer"/>
  <g id="_550402624">
   <rect id="_549415696" class="fil0" x="255.999" y="255.999" width="1536" height="1536" rx="128" ry="128"/>
   <path id="_549433240" class="fil1" d="M255.999 800.578l1536 0 0 859.424c0,36.3331 -14.8417,69.3414 -38.7496,93.2505 -23.9079,23.9079 -56.9185,38.7496 -93.2493,38.7496l-1272 0c-36.3307,0 -69.3414,-14.8417 -93.2493,-38.7496 -23.9079,-23.9091 -38.7496,-56.9174 -38.7496,-93.2505l0 -859.424z"/>
   <path id="_549423808" class="fil2" d="M1792 1632.59l0 27.4146c0,36.3331 -14.8417,69.3414 -38.7496,93.2505 -23.9079,23.9079 -56.9185,38.7496 -93.2493,38.7496l-1272 0c-36.3307,0 -69.3414,-14.8417 -93.2493,-38.7496 -23.9079,-23.9091 -38.7496,-56.9174 -38.7496,-93.2505l0 -27.4146 1536 0z"/>
   <polygon id="_549422152" class="fil3" points="255.999,800.578 1792,800.578 1792,959.992 255.999,959.992 "/>
   <path id="_549446224" class="fil4" d="M383.999 319.999l1280 0c35.2004,0 64.0004,28.8 64.0004,64.0004l0 416.455 0 0.126378 -1408 0 0 -1.05473 0 -415.526c0,-35.2004 28.8,-64.0004 64.0004,-64.0004z"/>
   <path id="_549419800" class="fil5" d="M339.998 780.581l1368 0 0 -396.581c0,-24.1606 -19.8402,-44.0008 -44.0008,-44.0008l-1280 0c-24.1606,0 -44.0008,19.8402 -44.0008,44.0008l0 396.581z"/>
   <polygon id="_549432544" class="fil4" points="508.28,509.008 508.28,397.92 545.229,397.92 563.783,473.703 582.178,397.92 619.126,397.92 619.126,509.008 597.615,509.008 597.615,421.559 574.819,509.008 552.506,509.008 529.791,421.559 529.791,509.008 "/>
   <polygon id="_549435304" class="fil4" points="415.789,509.008 415.789,397.92 489.894,397.92 489.894,416.723 438.428,416.723 438.428,453.257 471.55,453.257 471.55,472.06 438.428,472.06 438.428,509.008 "/>
   <path id="_549430432" class="fil6" d="M1216 625.353c0,8.83701 -7.16457,16.0016 -16.0016,16.0016 -8.83701,0 -16.0016,-7.16457 -16.0016,-16.0016l0 -285.355 32.0032 0 0 285.355z"/>
   <path id="_549415912" class="fil4" d="M1461.02 1130.97c-46.3241,-46.3241 -110.326,-74.9776 -181.022,-74.9776 -70.6949,0 -134.697,28.6536 -181.022,74.9776 -46.3241,46.3252 -74.9776,110.327 -74.9776,181.022 0,70.6961 28.6536,134.698 74.9776,181.022 46.3252,46.3241 110.327,74.9776 181.022,74.9776 70.6961,0 134.698,-28.6536 181.022,-74.9776 46.3241,-46.3241 74.9776,-110.326 74.9776,-181.022 0,-70.6949 -28.6536,-134.697 -74.9776,-181.022z"/>
   <path id="_549447928" class="fil7" d="M1370.51 1221.48c-23.1614,-23.1626 -55.1634,-37.4894 -90.5115,-37.4894 -35.3481,0 -67.3489,14.3268 -90.5115,37.4894 -23.1626,23.1626 -37.4894,55.1634 -37.4894,90.5115 0,35.3481 14.3268,67.3501 37.4894,90.5115 23.1626,23.1626 55.1634,37.4894 90.5115,37.4894 35.3481,0 67.3501,-14.3268 90.5115,-37.4894 23.1626,-23.1614 37.4894,-55.1634 37.4894,-90.5115 0,-35.3481 -14.3268,-67.3489 -37.4894,-90.5115z"/>
   <path id="_549430984" class="fil8" d="M1400.93 1191.06c-15.8079,-15.8079 -34.6311,-28.5213 -55.493,-37.1622 -20.1095,-8.32914 -42.2091,-12.926 -65.4402,-12.926 -23.2299,0 -45.3284,4.59685 -65.4378,12.926 -20.8606,8.63977 -39.6863,21.3543 -55.4953,37.1622 -15.8079,15.8091 -28.5225,34.6347 -37.1622,55.4953 -8.32914,20.1095 -12.926,42.2079 -12.926,65.4378 0,23.2311 4.59685,45.3307 12.926,65.4402 8.64095,20.8618 21.3543,39.6851 37.1622,55.493 15.8091,15.8079 34.6347,28.5225 55.4953,37.1622 20.1095,8.32914 42.2079,12.926 65.4378,12.926 23.2311,0 45.3307,-4.59685 65.4402,-12.926 20.8618,-8.64095 39.6851,-21.3543 55.493,-37.1622 15.8079,-15.8079 28.5213,-34.6311 37.1622,-55.493 8.32914,-20.1095 12.926,-42.2091 12.926,-65.4402 0,-23.2299 -4.59685,-45.3284 -12.926,-65.4378 -8.63977,-20.8606 -21.3543,-39.6863 -37.1622,-55.4953zm-47.915 -55.5993c23.439,9.70867 44.4874,23.8914 62.0552,41.4591 17.5677,17.5689 31.7516,38.6174 41.4591,62.0575 9.33662,22.5414 14.4898,47.2063 14.4898,73.0158 0,25.8095 -5.15315,50.4756 -14.4898,73.0182 -9.70867,23.439 -23.8914,44.4874 -41.4591,62.0552 -17.5677,17.5677 -38.6162,31.7504 -62.0552,41.4591 -22.5425,9.33662 -47.2087,14.4898 -73.0182,14.4898 -25.8095,0 -50.4744,-5.15315 -73.0158,-14.4898 -23.4402,-9.70749 -44.4886,-23.8914 -62.0575,-41.4591 -17.5677,-17.5677 -31.7504,-38.6162 -41.4591,-62.0552 -9.33662,-22.5425 -14.4898,-47.2087 -14.4898,-73.0182 0,-25.8095 5.15315,-50.4744 14.4898,-73.0158 9.70749,-23.4402 23.8914,-44.4886 41.4591,-62.0575 17.5689,-17.5677 38.6174,-31.7516 62.0575,-41.4591 22.5414,-9.33662 47.2063,-14.4898 73.0158,-14.4898 25.8095,0 50.4756,5.15315 73.0182,14.4898z"/>
   <path id="_549441664" class="fil4" d="M1308.82 1283.16c-7.37717,-7.37717 -17.5701,-11.9398 -28.8284,-11.9398 -11.2583,0 -21.45,4.5626 -28.8284,11.9398 -7.37717,7.37835 -11.9398,17.5701 -11.9398,28.8284 0,11.2583 4.5626,21.4512 11.9398,28.8284 7.37835,7.37717 17.5701,11.9398 28.8284,11.9398 11.2583,0 21.4512,-4.5626 28.8284,-11.9398 7.37717,-7.37717 11.9398,-17.5701 11.9398,-28.8284 0,-11.2583 -4.5626,-21.45 -11.9398,-28.8284z"/>
   <path id="_549426136" class="fil4" d="M707.879 1244.11c-17.3693,-17.3693 -41.3717,-28.115 -67.8839,-28.115 -26.5134,0 -50.5146,10.7457 -67.8839,28.115 -17.3693,17.3693 -28.115,41.3717 -28.115,67.8839 0,26.5134 10.7457,50.5146 28.115,67.8839 17.3693,17.3693 41.3705,28.115 67.8839,28.115 26.5122,0 50.5146,-10.7457 67.8839,-28.115 17.3693,-17.3693 28.115,-41.3705 28.115,-67.8839 0,-26.5122 -10.7457,-50.5146 -28.115,-67.8839z"/>
   <path id="_549440320" class="fil9" d="M690.773 1261.22c-12.9921,-12.9933 -30.9461,-21.0307 -50.778,-21.0307 -19.8319,0 -37.7859,8.03741 -50.778,21.0307 -12.9933,12.9921 -21.0307,30.9461 -21.0307,50.778 0,19.8319 8.03741,37.7859 21.0307,50.778 12.9921,12.9933 30.9461,21.0307 50.778,21.0307 19.8319,0 37.7859,-8.03741 50.778,-21.0307 12.9933,-12.9921 21.0307,-30.9461 21.0307,-50.778 0,-19.8319 -8.03741,-37.7859 -21.0307,-50.778z"/>
   <path id="_549423160" class="fil10" d="M723.438 1228.55c-21.3484,-21.3484 -50.8524,-34.5567 -83.4426,-34.5567 -16.0488,0 -31.3016,3.17008 -45.1642,8.91024 -14.3752,5.95276 -27.3603,14.7284 -38.2784,25.6465 -21.3484,21.3484 -34.5567,50.8524 -34.5567,83.4426 0,16.0488 3.17008,31.3016 8.91024,45.1642 5.95276,14.3752 14.7284,27.3603 25.6465,38.2784 10.9181,10.9181 23.9032,19.6937 38.2784,25.6465 13.8626,5.74016 29.1154,8.91024 45.1642,8.91024 16.0488,0 31.3016,-3.17008 45.1642,-8.91024 14.374,-5.95276 27.3603,-14.7284 38.2784,-25.6465 10.9181,-10.9181 19.6937,-23.9032 25.6465,-38.2784 5.74016,-13.8626 8.91024,-29.1154 8.91024,-45.1642 0,-16.0488 -3.17008,-31.3016 -8.91024,-45.1642 -5.95276,-14.374 -14.7284,-27.3603 -25.6465,-38.2784zm-83.4426 -54.5575c38.1095,0 72.6142,15.4488 97.5828,40.4174 12.6791,12.6791 22.9229,27.8894 29.9433,44.8406 6.74764,16.2957 10.474,34.1126 10.474,52.7422 0,18.6295 -3.72638,36.4477 -10.474,52.7422 -7.02048,16.9524 -17.2654,32.1626 -29.9433,44.8406 -12.6791,12.6791 -27.8894,22.9229 -44.8406,29.9433 -16.2957,6.74764 -34.1126,10.474 -52.7422,10.474 -18.6295,0 -36.4477,-3.72638 -52.7422,-10.474 -16.9524,-7.02048 -32.1626,-17.2654 -44.8406,-29.9433 -12.678,-12.678 -22.9229,-27.8882 -29.9433,-44.8406 -6.74764,-16.2945 -10.474,-34.1126 -10.474,-52.7422 0,-38.1095 15.4488,-72.6142 40.4174,-97.5828 12.678,-12.678 27.8882,-22.9229 44.8406,-29.9433 16.2945,-6.74764 34.1126,-10.474 52.7422,-10.474z"/>
   <path id="_549443728" class="fil11" d="M1151.99 1215.99c-17.674,0 -32.0008,-14.3268 -32.0008,-32.0008 0,-17.674 14.3268,-32.0008 32.0008,-32.0008 17.674,0 32.0008,14.3268 32.0008,32.0008 0,17.674 -14.3268,32.0008 -32.0008,32.0008z"/>
   <g>
    <path id="_549446536" class="fil7" d="M1641.02 688.72l0.0011811 0c6.1878,0 11.25,5.06339 11.25,11.25l0 100.608 -22.5012 0 0 -100.608c0,-6.1878 5.06221,-11.25 11.25,-11.25z"/>
    <path id="_550417672" class="fil7" d="M1563.89 630.284l0.0011811 0c6.1878,0 11.25,5.06339 11.25,11.25l0 159.044 -22.5012 0 0 -159.044c0,-6.1878 5.06221,-11.25 11.25,-11.25z"/>
    <path id="_550405000" class="fil7" d="M1486.76 688.72l0.0011811 0c6.1878,0 11.25,5.06339 11.25,11.25l0 100.608 -22.5012 0 0 -100.608c0,-6.1878 5.06221,-11.25 11.25,-11.25z"/>
    <path id="_550416328" class="fil7" d="M1332.51 688.72l0.0011811 0c6.1878,0 11.25,5.06339 11.25,11.25l0 100.608 -22.5012 0 0 -100.608c0,-6.1878 5.06221,-11.25 11.25,-11.25z"/>
    <path id="_550407808" class="fil7" d="M1178.25 688.72l0.0011811 0c6.1878,0 11.25,5.06339 11.25,11.25l0 100.608 -22.5012 0 0 -100.608c0,-6.1878 5.06221,-11.25 11.25,-11.25z"/>
    <path id="_550418464" class="fil7" d="M1024 688.72l0.0011811 0c6.1878,0 11.25,5.06339 11.25,11.25l0 100.608 -22.5012 0 0 -100.608c0,-6.1878 5.06221,-11.25 11.25,-11.25z"/>
    <path id="_550410040" class="fil7" d="M869.746 688.72l0.0011811 0c6.1878,0 11.25,5.06339 11.25,11.25l0 100.608 -22.5012 0 0 -100.608c0,-6.1878 5.06221,-11.25 11.25,-11.25z"/>
    <path id="_550397008" class="fil7" d="M715.492 688.72l0.0011811 0c6.1878,0 11.25,5.06339 11.25,11.25l0 100.608 -22.5012 0 0 -100.608c0,-6.1878 5.06221,-11.25 11.25,-11.25z"/>
    <path id="_550396192" class="fil7" d="M561.238 688.72l0.0011811 0c6.1878,0 11.25,5.06339 11.25,11.25l0 100.608 -22.5012 0 0 -100.608c0,-6.1878 5.06221,-11.25 11.25,-11.25z"/>
    <path id="_550416304" class="fil7" d="M1409.63 630.284l0.0011811 0c6.1878,0 11.25,5.06339 11.25,11.25l0 159.044 -22.5012 0 0 -159.044c0,-6.1878 5.06221,-11.25 11.25,-11.25z"/>
    <path id="_550401088" class="fil7" d="M1255.38 630.284l0.0011811 0c6.1878,0 11.25,5.06339 11.25,11.25l0 159.044 -22.5012 0 0 -159.044c0,-6.1878 5.06221,-11.25 11.25,-11.25z"/>
    <path id="_550410880" class="fil7" d="M1101.13 630.284l0.0011811 0c6.1878,0 11.25,5.06339 11.25,11.25l0 159.044 -22.5012 0 0 -159.044c0,-6.1878 5.06221,-11.25 11.25,-11.25z"/>
    <path id="_550410832" class="fil7" d="M946.873 630.284l0.0011811 0c6.1878,0 11.25,5.06339 11.25,11.25l0 159.044 -22.5012 0 0 -159.044c0,-6.1878 5.06221,-11.25 11.25,-11.25z"/>
    <path id="_550392664" class="fil7" d="M792.618 630.284l0.0011811 0c6.1878,0 11.25,5.06339 11.25,11.25l0 159.044 -22.5012 0 0 -159.044c0,-6.1878 5.06221,-11.25 11.25,-11.25z"/>
    <path id="_550396072" class="fil7" d="M638.365 630.284l0.0011811 0c6.1878,0 11.25,5.06339 11.25,11.25l0 159.044 -22.5012 0 0 -159.044c0,-6.1878 5.06221,-11.25 11.25,-11.25z"/>
    <path id="_550420696" class="fil7" d="M484.111 630.284l0.0011811 0c6.1878,0 11.25,5.06339 11.25,11.25l0 159.044 -22.5012 0 0 -159.044c0,-6.1878 5.06221,-11.25 11.25,-11.25z"/>
    <path id="_550399744" class="fil7" d="M406.985 688.72l0.0011811 0c6.1878,0 11.25,5.06339 11.25,11.25l0 100.608 -22.5012 0 0 -100.608c0,-6.1878 5.06221,-11.25 11.25,-11.25z"/>
   </g>
   <g>
    <circle id="_550394320" class="fil2" cx="372.636" cy="840.639" r="11.3922"/>
    <circle id="_550398064" class="fil2" cx="431.973" cy="840.639" r="11.3922"/>
    <circle id="_550405120" class="fil2" cx="491.309" cy="840.639" r="11.3922"/>
    <circle id="_550400944" class="fil2" cx="550.646" cy="840.639" r="11.3922"/>
    <circle id="_550406896" class="fil2" cx="609.983" cy="840.639" r="11.3922"/>
    <circle id="_550419112" class="fil2" cx="669.319" cy="840.639" r="11.3922"/>
    <circle id="_550396672" class="fil2" cx="728.656" cy="840.639" r="11.3922"/>
    <circle id="_550408696" class="fil2" cx="787.993" cy="840.639" r="11.3922"/>
    <circle id="_550409416" class="fil2" cx="847.33" cy="840.639" r="11.3922"/>
    <circle id="_550409200" class="fil2" cx="906.666" cy="840.639" r="11.3922"/>
    <circle id="_550402408" class="fil2" cx="966.003" cy="840.639" r="11.3922"/>
    <circle id="_550409848" class="fil2" cx="1025.34" cy="840.639" r="11.3922"/>
    <circle id="_550395520" class="fil2" cx="1084.68" cy="840.639" r="11.3922"/>
    <circle id="_550405912" class="fil2" cx="1144.01" cy="840.639" r="11.3922"/>
    <circle id="_550401592" class="fil2" cx="1203.35" cy="840.639" r="11.3922"/>
    <circle id="_550398520" class="fil2" cx="1262.69" cy="840.639" r="11.3922"/>
    <circle id="_550414816" class="fil2" cx="1322.02" cy="840.639" r="11.3922"/>
    <circle id="_550390312" class="fil2" cx="1381.36" cy="840.639" r="11.3922"/>
    <circle id="_550418728" class="fil2" cx="1440.7" cy="840.639" r="11.3922"/>
    <circle id="_550397104" class="fil2" cx="1500.03" cy="840.639" r="11.3922"/>
    <circle id="_550409872" class="fil2" cx="1559.37" cy="840.639" r="11.3922"/>
    <circle id="_550396480" class="fil2" cx="1618.71" cy="840.639" r="11.3922"/>
    <circle id="_550420912" class="fil2" cx="1678.04" cy="840.639" r="11.3922"/>
   </g>
   <g>
    <circle id="_550408264" class="fil2" cx="372.636" cy="921.335" r="11.3922"/>
    <circle id="_550419472" class="fil2" cx="431.973" cy="921.335" r="11.3922"/>
    <circle id="_550396576" class="fil2" cx="491.309" cy="921.335" r="11.3922"/>
    <circle id="_550414264" class="fil2" cx="550.646" cy="921.335" r="11.3922"/>
    <circle id="_550406080" class="fil2" cx="609.983" cy="921.335" r="11.3922"/>
    <circle id="_550410328" class="fil2" cx="669.319" cy="921.335" r="11.3922"/>
    <circle id="_550410856" class="fil2" cx="728.656" cy="921.335" r="11.3922"/>
    <circle id="_550408984" class="fil2" cx="787.993" cy="921.335" r="11.3922"/>
    <circle id="_550405600" class="fil2" cx="847.33" cy="921.335" r="11.3922"/>
    <circle id="_550405144" class="fil2" cx="906.666" cy="921.335" r="11.3922"/>
    <circle id="_550404328" class="fil2" cx="966.003" cy="921.335" r="11.3922"/>
    <circle id="_550410496" class="fil2" cx="1025.34" cy="921.335" r="11.3922"/>
    <circle id="_550400992" class="fil2" cx="1084.68" cy="921.335" r="11.3922"/>
    <circle id="_550404808" class="fil2" cx="1144.01" cy="921.335" r="11.3922"/>
    <circle id="_550415800" class="fil2" cx="1203.35" cy="921.335" r="11.3922"/>
    <circle id="_550414696" class="fil2" cx="1262.69" cy="921.335" r="11.3922"/>
    <circle id="_550398448" class="fil2" cx="1322.02" cy="921.335" r="11.3922"/>
    <circle id="_550409944" class="fil2" cx="1381.36" cy="921.335" r="11.3922"/>
    <circle id="_550391464" class="fil2" cx="1440.7" cy="921.335" r="11.3922"/>
    <circle id="_550417936" class="fil2" cx="1500.03" cy="921.335" r="11.3922"/>
    <circle id="_550395784" class="fil2" cx="1559.37" cy="921.335" r="11.3922"/>
    <circle id="_550399816" class="fil2" cx="1618.71" cy="921.335" r="11.3922"/>
    <circle id="_550399504" class="fil2" cx="1678.04" cy="921.335" r="11.3922"/>
   </g>
   <g>
    <circle id="_550406848" class="fil2" cx="400.2" cy="877.676" r="11.3922"/>
    <circle id="_550417264" class="fil2" cx="459.536" cy="877.676" r="11.3922"/>
    <circle id="_550398040" class="fil2" cx="518.873" cy="877.676" r="11.3922"/>
    <circle id="_550402864" class="fil2" cx="578.21" cy="877.676" r="11.3922"/>
    <circle id="_550409032" class="fil2" cx="637.547" cy="877.676" r="11.3922"/>
    <circle id="_550416520" class="fil2" cx="696.883" cy="877.676" r="11.3922"/>
    <circle id="_550408504" class="fil2" cx="756.22" cy="877.676" r="11.3922"/>
    <circle id="_550418560" class="fil2" cx="815.557" cy="877.676" r="11.3922"/>
    <circle id="_550417552" class="fil2" cx="874.893" cy="877.676" r="11.3922"/>
    <circle id="_550391392" class="fil2" cx="934.23" cy="877.676" r="11.3922"/>
    <circle id="_550398928" class="fil2" cx="993.567" cy="877.676" r="11.3922"/>
    <circle id="_550420360" class="fil2" cx="1052.9" cy="877.676" r="11.3922"/>
    <circle id="_550419424" class="fil2" cx="1112.24" cy="877.676" r="11.3922"/>
    <circle id="_550405456" class="fil2" cx="1171.58" cy="877.676" r="11.3922"/>
    <circle id="_550390528" class="fil2" cx="1230.91" cy="877.676" r="11.3922"/>
    <circle id="_550418992" class="fil2" cx="1290.25" cy="877.676" r="11.3922"/>
    <circle id="_550396312" class="fil2" cx="1349.59" cy="877.676" r="11.3922"/>
    <circle id="_550402576" class="fil2" cx="1408.92" cy="877.676" r="11.3922"/>
    <circle id="_550414360" class="fil2" cx="1468.26" cy="877.676" r="11.3922"/>
    <circle id="_550389760" class="fil2" cx="1527.6" cy="877.676" r="11.3922"/>
    <circle id="_550410616" class="fil2" cx="1586.93" cy="877.676" r="11.3922"/>
    <circle id="_550412560" class="fil2" cx="1646.27" cy="877.676" r="11.3922"/>
    <circle id="_550404160" class="fil2" cx="1705.61" cy="877.676" r="11.3922"/>
   </g>
  </g>
  <rect class="fil12" width="2048" height="2048"/>
 </g>
</svg>
