<?xml version="1.0" encoding="UTF-8"?>
<!DOCTYPE svg PUBLIC "-//W3C//DTD SVG 1.1//EN" "http://www.w3.org/Graphics/SVG/1.1/DTD/svg11.dtd">
<!-- Creator: CorelDRAW -->
<svg xmlns="http://www.w3.org/2000/svg" xml:space="preserve" width="2048px" height="2048px" style="shape-rendering:geometricPrecision; text-rendering:geometricPrecision; image-rendering:optimizeQuality; fill-rule:evenodd; clip-rule:evenodd"
viewBox="0 0 2048 2048"
 xmlns:xlink="http://www.w3.org/1999/xlink">
 <defs>
  <style type="text/css">
   <![CDATA[
    .fil8 {fill:none}
    .fil1 {fill:#414141}
    .fil5 {fill:#686868}
    .fil0 {fill:#757575}
    .fil6 {fill:#424343;fill-rule:nonzero}
    .fil3 {fill:#959595;fill-rule:nonzero}
    .fil4 {fill:#A5A5A6;fill-rule:nonzero}
    .fil2 {fill:#B3B4B4;fill-rule:nonzero}
    .fil7 {fill:#D7D7D7;fill-rule:nonzero}
   ]]>
  </style>
 </defs>
 <g id="Layer_x0020_1">
  <metadata id="CorelCorpID_0Corel-Layer"/>
  <g id="_549436840">
   <rect id="_549444640" class="fil0" x="1213.11" y="1151.91" width="61.7299" height="640.092"/>
   <rect id="_549434416" class="fil0" transform="matrix(-0.432821 -0.412126 -0.718421 0.67197 1311.3 1191.05)" width="106.25" height="154.167" rx="31.7504" ry="31.7504"/>
   <path id="_549433960" class="fil0" d="M1243.96 1328.89l-468.442 463.113 936.9 0 -468.457 -463.113zm-28.2792 115.729l-255.479 252.567 -42.5918 42.1075 70.8745 0 510.961 0 70.8768 0 -42.5929 -42.1075 -255.482 -252.567 -28.2839 -27.9626 -28.2827 27.9626z"/>
   <ellipse id="_549441112" class="fil1" cx="1243.97" cy="1373.82" rx="88.2992" ry="88.2992"/>
   <path id="_549438568" class="fil2" d="M1222.02 305.255l-419.753 420.67 -419.752 420.672 -21.5953 21.6414 20.4579 22.7386c7.29686,8.11064 15.1665,16.3725 23.5819,24.7689 112.906,112.662 257.548,171.277 403.716,175.06 146.119,3.78071 293.56,-47.2748 412.128,-153.953 7.98898,-7.18819 16.2414,-15.0449 24.7571,-23.5784 121.925,-122.193 185.506,-284.783 189.735,-448.869 4.22835,-164.036 -50.8949,-329.671 -166.367,-458.013l-22.7799 -25.3181 -24.1288 24.1807z"/>
   <path id="_549430696" class="fil3" d="M815.977 712.186l-0.458268 0.458268 -13.2508 13.2803 -419.752 420.672 -21.5953 21.6414 20.4579 22.7386c7.29686,8.11064 15.1665,16.3725 23.5819,24.7689 112.906,112.662 257.548,171.277 403.716,175.06 146.119,3.78071 293.56,-47.2748 412.128,-153.953 7.98898,-7.18819 16.2414,-15.0449 24.7571,-23.5784 11.9941,-12.0201 23.4166,-24.4382 34.2815,-37.2048l0.00826772 -0.00944883 -463.875 -463.874z"/>
   <path id="_549427168" class="fil4" d="M1222.02 305.255l-406.044 406.931 463.875 463.874c99.5658,-116.998 151.632,-263.716 155.445,-411.655 4.22835,-164.036 -50.8949,-329.671 -166.367,-458.013l-22.7799 -25.3181 -24.1288 24.1807z"/>
   <ellipse id="_549420880" class="fil5" transform="matrix(-0.611815 -0.610982 -0.860931 0.862105 802.979 723.985)" rx="169.348" ry="512.139"/>
   <path id="_549417616" class="fil6" d="M1254.56 271.741c-34.2579,-34.213 -116.228,-11.0669 -221.056,54.0083 -99.3946,61.7044 -222.18,161.256 -344.79,284.025l-0.0295276 -0.0295276 -0.046063 0.0448819 -0.0354331 0.0354331 0 0.0590552c-122.525,122.698 -221.909,245.636 -283.536,345.209 -64.9087,104.878 -87.9355,186.861 -53.7059,221.106l-0.0295276 0.0307087 0.0011811 0.0011811 0.0578741 0c34.2567,34.2095 116.223,11.0658 221.048,-54.0059 99.3887,-61.6997 222.17,-161.247 344.778,-284.009l0.0295276 0.0295276 0.0649607 -0.0649607 0.0153543 -0.0153543 0 -0.0578741c122.531,-122.701 221.92,-245.647 283.55,-345.223 64.9312,-104.913 87.9556,-186.917 53.6835,-221.143zm-205.055 79.7304c92.23,-57.2552 160.759,-81.2056 183.717,-58.2768 22.9453,22.9146 -0.925985,91.4788 -58.0678,183.804 -60.4382,97.6524 -158.301,218.616 -279.253,339.741l-0.0283465 -0.0283465 -0.0165354 0.0153543 -0.0637796 0.0637796 0 0.0590552c-120.867,121.024 -241.705,219.033 -339.356,279.653 -92.1887,57.2268 -160.694,81.1796 -183.679,58.3028l0.0283465 -0.0295276 -0.0011811 -0.0011811 -0.0578741 0c-22.9453,-22.9134 0.923623,-91.4753 58.0619,-183.797 60.4347,-97.6477 158.293,-218.608 279.239,-339.727l0.0283465 0.0283465 0.0366142 -0.0354331 0.0448819 -0.046063 0 -0.0578741c120.869,-121.029 241.709,-219.044 339.368,-279.669z"/>
   <polygon id="_549422248" class="fil7" points="617.024,594.394 876.224,834.181 921.103,789.038 665.724,551.754 "/>
   <path id="_549437176" class="fil6" d="M511.074 445.239l-0.0011811 0.0011811c-18.9425,18.9449 -28.3937,43.8886 -28.3547,68.8985 0.0401575,25.0358 9.54213,50.002 28.5,68.9587l0.0011811 0.0011811c18.9567,18.9579 43.9229,28.4599 68.9564,28.5 25.0087,0.0389764 49.9536,-9.41221 68.8997,-28.3559 18.9449,-18.9449 28.3949,-43.891 28.3536,-68.8997 -0.0389764,-25.0347 -9.5445,-50.0056 -28.5,-68.9611 -18.9555,-18.9555 -43.9229,-28.4599 -68.9575,-28.4965 -25.0063,-0.0401575 -49.9512,9.40867 -68.8973,28.3536z"/>
  </g>
  <rect class="fil8" width="2048" height="2048"/>
 </g>
</svg>
