<?xml version="1.0" encoding="UTF-8"?>
<!DOCTYPE svg PUBLIC "-//W3C//DTD SVG 1.1//EN" "http://www.w3.org/Graphics/SVG/1.1/DTD/svg11.dtd">
<!-- Creator: CorelDRAW -->
<svg xmlns="http://www.w3.org/2000/svg" xml:space="preserve" width="2048px" height="2048px" style="shape-rendering:geometricPrecision; text-rendering:geometricPrecision; image-rendering:optimizeQuality; fill-rule:evenodd; clip-rule:evenodd"
viewBox="0 0 2048 2048"
 xmlns:xlink="http://www.w3.org/1999/xlink">
 <defs>
  <style type="text/css">
   <![CDATA[
    .fil10 {fill:none}
    .fil6 {fill:#616161}
    .fil9 {fill:#757575}
    .fil5 {fill:#8E8E8F}
    .fil7 {fill:#919191}
    .fil8 {fill:#B4B4B5}
    .fil4 {fill:#616161;fill-rule:nonzero}
    .fil2 {fill:#636364;fill-rule:nonzero}
    .fil1 {fill:#6C6C6C;fill-rule:nonzero}
    .fil3 {fill:#8E8E8F;fill-rule:nonzero}
    .fil0 {fill:#BEBEBE;fill-rule:nonzero}
   ]]>
  </style>
 </defs>
 <g id="Layer_x0020_1">
  <metadata id="CorelCorpID_0Corel-Layer"/>
  <g id="_549439168">
   <polygon id="_549441232" class="fil0" points="1611.17,858.229 1611.17,1731.78 1611.17,1763.03 1579.92,1763.03 1486.15,1763.03 1486.15,1731.78 1486.15,1106.46 1486.15,1075.2 1454.9,1075.2 1141.53,1075.2 1110.28,1075.2 1110.28,1106.46 1110.28,1731.78 1110.28,1763.03 454.777,1763.03 423.524,1763.03 423.522,1731.78 423.522,858.229 423.524,792.608 454.777,792.608 1579.92,792.608 1611.17,792.608 "/>
   <polygon id="_549445984" class="fil1" points="249.313,800.025 1023.5,255.999 1785.39,800.025 "/>
   <polygon id="_549425872" class="fil2" points="249.313,800.025 1023.5,255.999 1024,256.356 1024,800.025 "/>
   <polygon id="_549419488" class="fil3" points="986.089,1075.45 611.046,1075.45 611.046,1450.49 986.089,1450.49 "/>
   <path id="_549442888" class="fil4" d="M976.322 1085.22l-355.51 0 0 355.51 355.51 0 0 -355.51zm-365.276 -19.5343l375.043 0 9.76772 0 0 9.76772 0 375.043 0 9.76772 -9.76772 0 -375.043 0 -9.76772 0 0 -9.76772 0 -375.043 0 -9.76772 9.76772 0z"/>
   <polygon id="_549415792" class="fil1" points="1035.61,1065.68 561.522,1065.68 561.522,1096.93 1035.61,1096.93 "/>
   <polygon id="_549416752" class="fil5" points="1110.28,1106.46 1110.28,1731.78 1110.28,1763.03 1486.15,1763.03 1486.15,1731.78 1486.15,1106.46 1486.15,1075.2 1454.9,1075.2 1141.53,1075.2 1110.28,1075.2 "/>
   <path id="_549442624" class="fil4" d="M1120.05 1096.69l0 625.319 0 21.4878 356.336 0 0 -21.4878 0 -625.319 0 -21.4866 -21.4866 0 -313.362 0 -21.4878 0 0 21.4866zm-19.5343 625.319l0 -625.319 0 -31.2544 0 -9.76654 9.76772 0 31.2544 0 313.362 0 31.2544 0 9.76654 0 0 9.76654 0 31.2544 0 625.319 0 31.2544 0 9.76772 -9.76654 0 -375.871 0 -9.76772 0 0 -9.76772 0 -31.2544z"/>
   <rect id="_549435976" class="fil6" x="493.588" y="1740.58" width="1140.1" height="51.4252"/>
   <path id="_549441304" class="fil7" d="M442.163 1689.15l-92.23 0c-28.2827,0 -51.4241,23.1414 -51.4241,51.4264l0 51.4252 194.79 0c0.159449,0 0.28937,-0.129921 0.28937,-0.28937l0 -51.1359c0,-28.2851 -23.1414,-51.4264 -51.4252,-51.4264z"/>
   <path id="_549443632" class="fil7" d="M673.844 1730.08l-55.5319 0c-17.0303,0 -30.9626,13.9323 -30.9626,30.9614l0 30.9638 117.284 0c0.0944883,0 0.172441,-0.0767717 0.172441,-0.173622l0 -30.7902c0,-17.0291 -13.9311,-30.9614 -30.9614,-30.9614z"/>
   <path id="_549418936" class="fil8" d="M575.331 1657.42l-120.684 0c-37.0087,0 -67.2886,30.2788 -67.2886,67.2886l0 62.3812c0,2.70118 2.20984,4.91103 4.91103,4.91103l250.35 0 0 -67.2922c0,-37.0099 -30.2799,-67.2886 -67.2886,-67.2886z"/>
   <path id="_549435760" class="fil7" d="M1593.96 1657.42l43.6713 0c37.0099,0 67.2898,30.2788 67.2898,67.2886l0 32.2807c0,19.2555 -15.7547,35.0114 -35.0103,35.0114l-143.241 0 0 -67.2922c0,-37.0099 30.2811,-67.2886 67.2898,-67.2886z"/>
   <path id="_549416800" class="fil8" d="M1655.03 1689.15l92.23 0c28.2839,0 51.4252,23.1414 51.4252,51.4264l0 51.4252 -194.79 0c-0.159449,0 -0.28937,-0.129921 -0.28937,-0.28937l0 -51.1359c0,-28.2851 23.1414,-51.4264 51.4241,-51.4264z"/>
   <rect id="_549437704" class="fil9" x="1100.51" y="1763.03" width="401.521" height="28.9701"/>
   <circle id="_549424408" class="fil6" cx="1183.99" cy="1407.99" r="31.9996"/>
  </g>
  <rect class="fil10" width="2048" height="2048"/>
 </g>
</svg>
