<?xml version="1.0" encoding="UTF-8"?>
<!DOCTYPE svg PUBLIC "-//W3C//DTD SVG 1.1//EN" "http://www.w3.org/Graphics/SVG/1.1/DTD/svg11.dtd">
<!-- Creator: CorelDRAW -->
<svg xmlns="http://www.w3.org/2000/svg" xml:space="preserve" width="2048px" height="2048px" style="shape-rendering:geometricPrecision; text-rendering:geometricPrecision; image-rendering:optimizeQuality; fill-rule:evenodd; clip-rule:evenodd"
viewBox="0 0 2048 2048"
 xmlns:xlink="http://www.w3.org/1999/xlink">
 <defs>
  <style type="text/css">
   <![CDATA[
    .fil7 {fill:none}
    .fil6 {fill:#4F5050}
    .fil5 {fill:#525252}
    .fil3 {fill:#6C6C6C}
    .fil4 {fill:#8A8A8A}
    .fil0 {fill:#A1A1A1}
    .fil2 {fill:#BCBCBC}
    .fil1 {fill:#D8D8D8}
   ]]>
  </style>
 </defs>
 <g id="Layer_x0020_1">
  <metadata id="CorelCorpID_0Corel-Layer"/>
  <polygon class="fil0" points="1760,255.999 1792,255.999 1792,288 1792,1760 1792,1792 1760,1792 288,1792 255.999,1792 255.999,1760 255.999,288 255.999,255.999 288,255.999 "/>
  <polygon class="fil1" points="320.999,320.999 320.999,1727 1727,1727 1727,320.999 "/>
  <polygon class="fil2" points="320.999,320.999 320.999,351.992 1727,351.992 1727,320.999 "/>
  <path class="fil3" d="M904 1023.44l-340.537 0 -69.5339 192.556 -65.7768 0 -1.75984 -0.630709 277.338 -768.015 60 0 277.34 768.011 -1.77047 0.634252 -65.765 0 -69.5351 -192.556zm-317.425 -64.0016l294.313 0 -147.157 -407.51 -147.156 407.51z"/>
  <path class="fil4" d="M1455.99 1311.99c39.7607,0 75.7619,16.1209 101.821,42.1796 26.0587,26.0587 42.1796,62.0611 42.1796,101.821 0,39.7607 -16.1209,75.7619 -42.1796,101.821 -26.0587,26.0587 -62.0599,42.1796 -101.821,42.1796 -39.7595,0 -75.7619,-16.1209 -101.821,-42.1796 -26.0587,-26.0587 -42.1796,-62.0599 -42.1796,-101.821 0,-39.7595 16.1209,-75.7619 42.1796,-101.821 26.0587,-26.0587 62.0611,-42.1796 101.821,-42.1796z"/>
  <path class="fil5" d="M1103.99 1311.99c39.7607,0 75.7619,16.1209 101.821,42.1796 26.0587,26.0587 42.1796,62.0611 42.1796,101.821 0,39.7607 -16.1209,75.7619 -42.1796,101.821 -26.0587,26.0587 -62.0599,42.1796 -101.821,42.1796 -39.7595,0 -75.7619,-16.1209 -101.821,-42.1796 -26.0587,-26.0587 -42.1796,-62.0599 -42.1796,-101.821 0,-39.7595 16.1209,-75.7619 42.1796,-101.821 26.0587,-26.0587 62.0611,-42.1796 101.821,-42.1796z"/>
  <path class="fil6" d="M751.994 1311.99c39.7595,0 75.7619,16.1209 101.821,42.1796 26.0587,26.0587 42.1796,62.0611 42.1796,101.821 0,39.7607 -16.1209,75.7619 -42.1796,101.821 -26.0587,26.0587 -62.0611,42.1796 -101.821,42.1796 -39.7607,0 -75.7619,-16.1209 -101.821,-42.1796 -26.0587,-26.0587 -42.1796,-62.0599 -42.1796,-101.821 0,-39.7595 16.1209,-75.7619 42.1796,-101.821 26.0587,-26.0587 62.0599,-42.1796 101.821,-42.1796z"/>
  <rect class="fil7" width="2048" height="2048"/>
 </g>
</svg>
