<?xml version="1.0" encoding="UTF-8"?>
<!DOCTYPE svg PUBLIC "-//W3C//DTD SVG 1.1//EN" "http://www.w3.org/Graphics/SVG/1.1/DTD/svg11.dtd">
<!-- Creator: CorelDRAW -->
<svg xmlns="http://www.w3.org/2000/svg" xml:space="preserve" width="2048px" height="2048px" style="shape-rendering:geometricPrecision; text-rendering:geometricPrecision; image-rendering:optimizeQuality; fill-rule:evenodd; clip-rule:evenodd"
viewBox="0 0 2048 2048"
 xmlns:xlink="http://www.w3.org/1999/xlink">
 <defs>
  <style type="text/css">
   <![CDATA[
    .fil0 {fill:none}
    .fil1 {fill:#636364}
    .fil2 {fill:#838383}
    .fil3 {fill:#9D9D9D}
    .fil4 {fill:#DADADA}
   ]]>
  </style>
 </defs>
 <g id="Layer_x0020_1">
  <metadata id="CorelCorpID_0Corel-Layer"/>
  <rect class="fil0" width="2048" height="2048"/>
  <g id="_549415816">
   <path id="_549443320" class="fil1" d="M1024 255.999c424.155,0 768.001,343.845 768.001,768.001 0,424.155 -343.845,768.001 -768.001,768.001 -424.155,0 -768.001,-343.845 -768.001,-768.001 0,-424.155 343.845,-768.001 768.001,-768.001z"/>
   <path id="_549420280" class="fil2" d="M1024 255.999c424.155,0 768.001,343.845 768.001,768.001 0,424.155 -343.845,768.001 -768.001,768.001 -424.155,0 -768.001,-343.845 -768.001,-768.001 0,-424.155 343.845,-768.001 768.001,-768.001zm0 61.4398c390.224,0 706.561,316.337 706.561,706.561 0,390.224 -316.337,706.561 -706.561,706.561 -390.224,0 -706.561,-316.337 -706.561,-706.561 0,-390.224 316.337,-706.561 706.561,-706.561z"/>
   <path id="_549432208" class="fil3" d="M1024 348.159c373.256,0 675.841,302.586 675.841,675.841 0,373.256 -302.586,675.841 -675.841,675.841 -373.256,0 -675.841,-302.586 -675.841,-675.841 0,-373.256 302.586,-675.841 675.841,-675.841z"/>
   <path id="_549423784" class="fil4" d="M885.106 1558.2c8.38938,2.09764 15.3154,7.73386 19.3701,14.6386 3.98504,6.78662 5.67166,15.9165 3.33898,24.0709 -2.20512,8.46142 -7.63465,15.2339 -14.6256,19.3394 -6.77835,3.9815 -15.9154,5.67284 -24.0626,3.34252 -27.2315,-7.10079 -32.3705,-43.7599 -8.05867,-58.0418 6.99567,-4.11024 15.5634,-5.55119 24.0378,-3.34961z"/>
   <line id="_549428416" class="fil4" x1="869.127" y1="1619.59" x2="869.127" y2= "1619.59" />
   <line id="_549421936" class="fil4" x1="907.815" y1="1596.91" x2="907.815" y2= "1596.91" />
   <path id="_549429496" class="fil4" d="M725.36 1488.19c7.36536,4.73859 12.1158,12.0177 13.8366,19.9488 1.68543,7.76339 0.424016,16.7705 -4.33583,23.9079 -4.73741,7.35473 -12.0106,12.098 -19.9347,13.8177 -7.75749,1.68425 -16.7705,0.425197 -23.9008,-4.32992 -23.6799,-15.2575 -17.0882,-51.6874 10.4492,-57.665 7.92993,-1.72205 16.5213,-0.418111 23.8855,4.32048z"/>
   <path id="_549427864" class="fil4" d="M595.43 1371.84c5.51811,6.80197 7.75985,15.1984 6.92127,23.2713 -0.839764,8.07284 -4.75985,15.8268 -11.5642,21.3496 -6.79843,5.51575 -15.1914,7.75631 -23.2618,6.9189 -8.07048,-0.839764 -15.8256,-4.75748 -21.3473,-11.5583 -17.7496,-21.8693 -0.133465,-54.45 27.9047,-51.5374 8.07284,0.837402 15.8291,4.75748 21.3473,11.5559z"/>
   <line id="_549445720" class="fil4" x1="546.178" y1="1411.82" x2="546.178" y2= "1411.82" />
   <line id="_549442000" class="fil4" x1="590.787" y1="1416.46" x2="590.787" y2= "1416.46" />
   <path id="_549417760" class="fil4" d="M508.29 1220.76c2.90315,8.70827 2.8937,16.2673 -0.686221,24.2669 -3.31654,7.40906 -9.46182,13.5567 -17.6492,16.6795 -26.3469,10.0524 -51.7465,-16.9075 -40.2496,-42.5941 11.5217,-25.7433 48.5492,-24.6484 58.5851,1.64764z"/>
   <line id="_549424336" class="fil4" x1="489.963" y1="1261.69" x2="489.963" y2= "1261.69" />
   <path id="_549420184" class="fil4" d="M472.64 1050.08c0.801969,17.5866 -13.011,32.5051 -30.2421,33.1335 -17.589,0.80315 -32.5016,-13.0169 -33.1299,-30.2339 -1.28268,-28.1268 32.2016,-43.8603 53.0327,-24.9118 6.29882,5.73071 9.67914,12.9709 10.3394,22.0122z"/>
   <line id="_549422104" class="fil4" x1="409.268" y1="1052.98" x2="409.268" y2= "1052.98" />
   <line id="_549435208" class="fil4" x1="442.398" y1="1083.21" x2="442.398" y2= "1083.21" />
   <path id="_549437608" class="fil4" d="M492.036 876.696c-2.3374,8.43898 -7.87678,15.137 -14.9386,19.1362 -7.05473,3.99567 -15.6354,5.30433 -24.065,2.97756 -7.92166,-1.74921 -15.4063,-8.30552 -19.1658,-14.9445 -3.99449,-7.05473 -5.30433,-15.6343 -2.97756,-24.0662 4.06063,-16.2449 21.861,-26.889 39.0378,-22.1339 8.43898,2.3374 15.1382,7.8756 19.1374,14.9374 4.0004,7.06182 5.3067,15.652 2.97166,24.0933z"/>
   <path id="_549432016" class="fil4" d="M564.544 718.073c-9.70749,14.5772 -29.4225,18.5268 -43.9831,8.8193 -7.28623,-4.85197 -11.9197,-12.202 -13.5165,-20.1614 -1.59567,-7.95827 -0.158268,-16.5272 4.6937,-23.8169 15.6165,-23.4355 51.9556,-16.3051 57.5008,11.3421 1.59567,7.95355 0.158268,16.5366 -4.69489,23.8169z"/>
   <line id="_549415576" class="fil4" x1="511.734" y1="682.92" x2="511.734" y2= "682.92" />
   <line id="_549430456" class="fil4" x1="520.561" y1="726.892" x2="520.561" y2= "726.892" />
   <path id="_549437848" class="fil4" d="M823.738 1297.84c6.5693,5.78622 10.1717,13.6925 10.6843,21.7914 1.77992,28.1044 -31.474,44.439 -52.6229,25.8095 -21.1559,-18.6402 -9.13465,-53.6788 18.9638,-55.4587 8.10001,-0.512599 16.3973,2.06457 22.9748,7.85788z"/>
   <line id="_549418888" class="fil4" x1="781.807" y1="1345.44" x2="781.807" y2= "1345.44" />
   <path id="_549428704" class="fil4" d="M705.838 1137.67c2.94331,8.24174 2.26654,16.9028 -1.20709,24.2362 -3.47244,7.33347 -9.74528,13.3453 -17.9882,16.2874l-0.0177165 0.0106299c-8.2441,2.94331 -16.9051,2.26536 -24.2374,-1.20473 -25.4457,-12.0473 -23.6445,-49.0548 2.9067,-58.539 8.24646,-2.94449 16.9087,-2.27008 24.2445,1.20473 7.33701,3.47244 13.35,9.74765 16.2992,18.0047z"/>
   <line id="_549417160" class="fil4" x1="686.643" y1="1178.2" x2="686.643" y2= "1178.2" />
   <path id="_549433048" class="fil4" d="M667.101 533.556c28.4729,3.41103 37.6394,39.6874 15.8209,56.4378 -6.88347,5.40709 -15.313,7.51536 -23.3693,6.5504 -8.05985,-0.964961 -15.75,-5.0067 -21.1689,-11.902 -5.40827,-6.88465 -7.51654,-15.3106 -6.55158,-23.3669 0.964961,-8.05749 5.0067,-15.75 11.8949,-21.1666 6.88583,-5.40945 15.3154,-7.5189 23.374,-6.55276z"/>
   <line id="_549440872" class="fil4" x1="643.724" y1="540.116" x2="643.724" y2= "540.116" />
   <line id="_549445888" class="fil4" x1="638.387" y1="584.643" x2="638.387" y2= "584.643" />
   <line id="_549420232" class="fil4" x1="682.922" y1="589.994" x2="682.922" y2= "589.994" />
   <path id="_549420256" class="fil4" d="M690.593 969.336c-2.38701,16.7067 -18.8847,29.0433 -36.3839,26.2016l-0.0590552 -0.011811c-8.63741,-1.41732 -15.8882,-6.20315 -20.6221,-12.7925 -4.73504,-6.59056 -6.95552,-14.9882 -5.54056,-23.6374 4.61103,-27.887 40.6666,-36.1902 57.0591,-13.3725 4.7315,6.58701 6.95315,14.9788 5.54646,23.6126z"/>
   <line id="_549424288" class="fil4" x1="627.987" y1="959.108" x2="627.987" y2= "959.108" />
   <line id="_549445696" class="fil4" x1="654.21" y1="995.535" x2="654.21" y2= "995.535" />
   <path id="_549417520" class="fil4" d="M854.33 464.588c2.99292,8.22875 2.36693,16.8945 -1.06536,24.2504 -3.43111,7.35473 -9.67087,13.4043 -17.9067,16.3984 -8.22638,2.99055 -16.8945,2.36339 -24.2481,-1.0689 -7.35473,-3.43111 -13.402,-9.67087 -16.3937,-17.8984l-0.00708662 -0.022441c-2.98465,-8.22402 -2.35748,-16.8839 1.07126,-24.2339 3.43111,-7.35355 9.66969,-13.402 17.9102,-16.3984 8.22757,-2.98819 16.891,-2.36103 24.2457,1.07126 7.35355,3.43111 13.4032,9.67087 16.3937,17.902z"/>
   <line id="_549423832" class="fil4" x1="813.679" y1="445.618" x2="813.679" y2= "445.618" />
   <line id="_549445384" class="fil4" x1="835.358" y1="505.237" x2="835.358" y2= "505.237" />
   <path id="_549435808" class="fil4" d="M730.145 763.576c26.8524,-3.16418 46.441,27.3744 28.6087,51.1512 -17.8807,22.3524 -53.1343,11.6976 -56.3965,-15.9343 -2.05394,-17.3906 10.3949,-33.1666 27.7878,-35.217z"/>
   <path id="_549421600" class="fil4" d="M915.452 1083.26c4.19528,7.68544 4.87796,16.3465 2.59016,24.1323 -2.27835,7.75985 -7.50945,14.6539 -15.1559,18.8575l-0.0507874 0.0283465 -0.0295276 0.0153543c-7.68662,4.19646 -16.3477,4.87914 -24.1347,2.59252 -7.78583,-2.2878 -14.7047,-7.54607 -18.9047,-15.2421 -4.19292,-7.68426 -4.87559,-16.3441 -2.58898,-24.1288 2.28662,-7.78583 7.54607,-14.7036 15.2386,-18.9024 7.68426,-4.19528 16.3477,-4.87914 24.1311,-2.59252 7.76103,2.27953 14.6575,7.513 18.861,15.1618l0.0437008 0.0779528z"/>
   <line id="_549425584" class="fil4" x1="915.406" y1="1083.18" x2="915.406" y2= "1083.18" />
   <line id="_549428680" class="fil4" x1="872.416" y1="1070.61" x2="872.416" y2= "1070.61" />
   <line id="_549440152" class="fil4" x1="859.766" y1="1113.65" x2="859.766" y2= "1113.65" />
   <line id="_549435688" class="fil4" x1="902.811" y1="1126.29" x2="902.811" y2= "1126.29" />
   <line id="_549436480" class="fil4" x1="902.89" y1="1126.25" x2="902.89" y2= "1126.25" />
   <path id="_549438904" class="fil4" d="M910.266 670.93c3.38504,8.07166 3.17717,16.7599 0.106299,24.274 -3.07323,7.51654 -9.01182,13.8614 -17.0894,17.2488 -8.07166,3.38504 -16.7563,3.17717 -24.2693,0.106299 -26.0669,-10.6571 -26.2559,-47.7059 -0.269292,-58.6087 8.07048,-3.38622 16.7575,-3.17953 24.2729,-0.106299 7.51654,3.07205 13.8614,9.013 17.2488,17.0858z"/>
   <line id="_549429064" class="fil4" x1="893.283" y1="712.453" x2="893.283" y2= "712.453" />
   <path id="_549415888" class="fil4" d="M907.322 916.585c14.9953,9.04371 19.8236,28.5461 10.7776,43.5473 -4.52126,7.49528 -11.6599,12.4524 -19.5402,14.4036 -17.0079,4.20945 -34.1988,-6.16182 -38.4095,-23.1685 -6.76536,-27.3307 23.0268,-49.3382 47.1721,-34.7823z"/>
   <line id="_549444328" class="fil4" x1="918.103" y1="960.126" x2="918.103" y2= "960.126" />
   <path id="_549437032" class="fil4" d="M1004.67 408.867c28.1421,-0.853938 43.3713,32.8796 24.0898,53.4154 -5.55591,5.91733 -13.3701,9.71694 -22.1244,9.99213l-0.0377953 0.0011811c-8.74016,0.263386 -16.7646,-3.03425 -22.6725,-8.58308 -5.68819,-5.33859 -9.99213,-13.7646 -9.98977,-22.1575 -0.265748,-8.74135 3.03189,-16.7681 8.57835,-22.676 5.33741,-5.68465 13.7681,-9.9945 22.1563,-9.99213z"/>
   <line id="_549423616" class="fil4" x1="973.933" y1="441.535" x2="973.933" y2= "441.535" />
   <line id="_549435280" class="fil4" x1="1006.6" y1="472.278" x2="1006.6" y2= "472.278" />
   <path id="_549446416" class="fil4" d="M1197.53 433.535c8.39764,2.46969 15.0059,8.11418 18.8953,15.2398 3.88701,7.12323 5.05867,15.7323 2.59016,24.1335 -2.46851,8.40001 -8.113,15.0095 -15.2386,18.8988 -7.11378,3.88229 -15.7075,5.0563 -24.0992,2.60197 -8.02796,-2.00669 -15.2351,-8.46733 -18.9366,-15.2504 -3.81614,-6.99331 -5.12008,-15.9059 -2.5878,-24.137 2.46851,-8.40001 8.11182,-15.0083 15.2374,-18.8977 7.1256,-3.88819 15.7347,-5.05985 24.1394,-2.58898z"/>
   <line id="_549447880" class="fil4" x1="1158.15" y1="455.029" x2="1158.15" y2= "455.029" />
   <line id="_549440104" class="fil4" x1="1179.68" y1="494.409" x2="1179.68" y2= "494.409" />
   <path id="_549445936" class="fil4" d="M1473.56 1344.23c9.17363,-13.7599 29.6362,-17.8488 44.23,-7.47638 14.0043,9.58111 17.7484,29.8087 7.46103,44.2524 -10.1551,14.2571 -29.9445,17.5949 -44.2099,7.45512 -13.761,-9.17245 -17.8512,-29.6351 -7.48111,-44.2311z"/>
   <line id="_549441760" class="fil4" x1="1525.25" y1="1381" x2="1525.25" y2= "1381" />
   <line id="_549424576" class="fil4" x1="1517.79" y1="1336.75" x2="1517.79" y2= "1336.75" />
   <path id="_549418600" class="fil4" d="M1551.07 1187.93c2.59961,-8.35867 8.34686,-14.8772 15.5315,-18.652 15.5032,-8.14489 34.6866,-2.1815 42.8339,13.3228 3.77599,7.18465 4.81181,15.8114 2.20866,24.1772 -2.60197,8.36103 -8.34686,14.8795 -15.5327,18.6543 -15.5008,8.14489 -34.6866,2.18032 -42.8315,-13.3217 -3.77481,-7.18347 -4.81181,-15.8126 -2.20984,-24.1807z"/>
   <line id="_549433720" class="fil4" x1="1611.64" y1="1206.78" x2="1611.64" y2= "1206.78" />
   <path id="_549423472" class="fil4" d="M1351.24 1468.49c7.05237,-5.19095 15.5445,-7.03347 23.5654,-5.81575 8.02442,1.2189 15.5847,5.50276 20.7815,12.5599 5.19331,7.05237 7.03465,15.5445 5.81693,23.5654 -1.2189,8.02087 -5.5004,15.5847 -12.5599,20.7827 -7.05119,5.19095 -15.5433,7.03229 -23.5642,5.81457 -8.01851,-1.2189 -15.5799,-5.49804 -20.7709,-12.5457l-0.011811 -0.0141732c-5.19213,-7.05237 -7.03347,-15.5433 -5.81575,-23.5642 1.2189,-8.02087 5.49804,-15.5811 12.5587,-20.7827z"/>
   <line id="_549427960" class="fil4" x1="1388.85" y1="1519.58" x2="1388.85" y2= "1519.58" />
   <line id="_549418192" class="fil4" x1="1395.58" y1="1475.23" x2="1395.58" y2= "1475.23" />
   <path id="_549445168" class="fil4" d="M1607.14 983.085c8.74961,-0.131102 16.7291,3.29292 22.5567,8.93623 5.82638,5.64685 9.50079,13.5189 9.63898,22.2744l0 0.0188977c0.132284,8.74843 -3.29173,16.7303 -8.93741,22.5567 -5.64685,5.82756 -13.5189,9.50434 -22.2756,9.64016l-0.0200788 0c-8.74725,0.131102 -16.7268,-3.29173 -22.5532,-8.93741 -5.82756,-5.64567 -9.50316,-13.5177 -9.64016,-22.2721l0 -0.0248032c-0.132284,-8.74961 3.29292,-16.728 8.93623,-22.5532 5.64567,-5.8252 13.5189,-9.50198 22.2721,-9.63898l0.022441 0z"/>
   <line id="_549445024" class="fil4" x1="1575.91" y1="1015.28" x2="1575.91" y2= "1015.28" />
   <line id="_549440440" class="fil4" x1="1608.11" y1="1046.51" x2="1608.11" y2= "1046.51" />
   <line id="_549430840" class="fil4" x1="1639.34" y1="1014.31" x2="1639.34" y2= "1014.31" />
   <path id="_549431584" class="fil4" d="M1196.22 1548.4c8.31615,-2.73071 16.9583,-1.83189 24.2008,1.82953 7.24371,3.66024 13.0913,10.0878 15.828,18.4158 2.73071,8.31615 1.83071,16.9583 -1.82953,24.2008 -3.66024,7.24371 -10.0878,13.0902 -18.4158,15.828 -8.31733,2.73071 -16.9583,1.83071 -24.2008,-1.83071 -7.24371,-3.65906 -13.0913,-10.0866 -15.828,-18.4146 -2.73071,-8.31733 -1.83189,-16.9583 1.82953,-24.2008 3.66024,-7.24371 10.0878,-13.0913 18.4158,-15.828z"/>
   <line id="_549439408" class="fil4" x1="1175.97" y1="1588.44" x2="1175.97" y2= "1588.44" />
   <line id="_549447616" class="fil4" x1="1216.01" y1="1608.67" x2="1216.01" y2= "1608.67" />
   <line id="_549433312" class="fil4" x1="1236.24" y1="1568.64" x2="1236.24" y2= "1568.64" />
   <path id="_549428752" class="fil4" d="M1088.67 636.714c5.08583,6.32599 7.75749,14.5937 6.8126,23.2984 -0.947245,8.70709 -5.33622,16.2106 -11.661,21.2953 -6.32363,5.08347 -14.5878,7.75512 -23.289,6.81378l-0.0129921 -0.0011811c-8.70591,-0.946064 -16.2071,-5.33504 -21.2917,-11.6599 -5.07993,-6.32008 -7.75512,-14.5807 -6.81497,-23.2772l0.00236221 -0.0248032c0.947245,-8.70709 5.33622,-16.2095 11.6599,-21.2941 6.32245,-5.08229 14.5866,-7.75631 23.2878,-6.8126l0.011811 0.0011811c8.70709,0.947245 16.2106,5.33622 21.2953,11.661z"/>
   <path id="_549432808" class="fil4" d="M1310.31 1203.38c4.65,-7.42205 11.8701,-12.2599 19.7776,-14.074 7.62166,-1.74921 16.963,-0.617717 23.9634,4.05473 7.40788,4.65118 12.2362,11.863 14.0492,19.761 1.81536,7.90749 0.614174,16.5106 -4.03465,23.9327l-0.0437008 0.0661418c-4.65118,7.3878 -11.8524,12.2043 -19.7386,14.015 -7.90749,1.81417 -16.5118,0.611811 -23.9398,-4.04292 -7.42087,-4.65 -12.2575,-11.8665 -14.0728,-19.774 -1.81536,-7.90749 -0.612993,-16.5118 4.03937,-23.9386z"/>
   <line id="_549435400" class="fil4" x1="1320.34" y1="1247.1" x2="1320.34" y2= "1247.1" />
   <line id="_549419056" class="fil4" x1="1354.05" y1="1193.36" x2="1354.05" y2= "1193.36" />
   <path id="_549417280" class="fil4" d="M1565.27 803.183c16.4457,-5.68229 34.8284,3.10394 40.3311,19.6193 5.67756,16.428 -2.59725,33.991 -19.611,40.3323 -8.27481,2.86181 -16.9299,2.09882 -24.2268,-1.44567 -7.76103,-3.77008 -12.8445,-9.66142 -16.1185,-18.176 -5.6752,-16.4398 3.09567,-34.8213 19.6252,-40.33z"/>
   <line id="_549433504" class="fil4" x1="1545.65" y1="843.513" x2="1545.65" y2= "843.513" />
   <path id="_549434056" class="fil4" d="M1026.67 836.91c17.0799,0 31.5225,14.491 31.2815,32.1532 0,17.0776 -14.4874,31.5236 -32.1591,31.2815 -17.0764,0 -31.5189,-14.4898 -31.278,-32.152 0,-17.0811 14.4886,-31.5248 32.1555,-31.2827z"/>
   <line id="_549417976" class="fil4" x1="994.515" y1="868.192" x2="994.515" y2= "868.192" />
   <line id="_549433528" class="fil4" x1="1025.79" y1="900.342" x2="1025.79" y2= "900.342" />
   <line id="_549435520" class="fil4" x1="1057.94" y1="869.063" x2="1057.94" y2= "869.063" />
   <path id="_549420616" class="fil4" d="M1210.93 703.664c4.16575,-6.80079 13.0854,-11.7331 20.5429,-13.0252 7.98662,-1.38425 16.5036,0.27874 23.6599,5.30788 13.9134,9.2752 17.9551,29.6362 7.6819,44.2158 -5.04567,7.16103 -12.5185,11.5996 -20.5169,12.985 -7.99489,1.38543 -16.5213,-0.281103 -23.6835,-5.32559 -7.15985,-5.04449 -11.5973,-12.5162 -12.9827,-20.5146 -1.38307,-7.98071 0.275197,-16.4941 5.29843,-23.6433z"/>
   <line id="_549428368" class="fil4" x1="1218.62" y1="747.824" x2="1218.62" y2= "747.824" />
   <line id="_549442336" class="fil4" x1="1255.13" y1="695.949" x2="1255.13" y2= "695.949" />
   <path id="_549417928" class="fil4" d="M1386.29 537.524c1.47047,7.98071 -0.102756,16.5272 -5.07166,23.7425 -4.96772,7.20945 -12.3898,11.7272 -20.3729,13.1988 -7.9689,1.47047 -16.5,-0.0980316 -23.7047,-5.04804l-0.0236221 -0.011811c-14.1815,-9.45473 -18.176,-29.537 -8.15552,-44.1036 9.59765,-14.3976 30.2847,-18.104 44.1284,-8.15079 7.20945,4.96536 11.7295,12.3898 13.2,20.3729z"/>
   <line id="_549444736" class="fil4" x1="1328.96" y1="525.302" x2="1328.96" y2= "525.302" />
   <line id="_549428632" class="fil4" x1="1381.22" y1="561.261" x2="1381.22" y2= "561.261" />
   <path id="_549424720" class="fil4" d="M1143.72 919.983c7.62638,-4.3063 16.2756,-5.11536 24.0933,-2.94095 7.82008,2.17441 14.8122,7.33583 19.1197,14.9658 4.3063,7.6252 5.113,16.2756 2.93977,24.091 -7.53544,27.0827 -44.2347,31.6536 -58.1422,7.16103l-0.0366142 -0.068504c-8.57835,-15.6142 -3.17362,-34.5827 11.9551,-43.1717l0.0708662 -0.0366142z"/>
   <line id="_549434920" class="fil4" x1="1143.65" y1="920.022" x2="1143.65" y2= "920.022" />
   <line id="_549444904" class="fil4" x1="1131.73" y1="963.258" x2="1131.73" y2= "963.258" />
   <line id="_549428488" class="fil4" x1="1186.93" y1="932.007" x2="1186.93" y2= "932.007" />
   <path id="_549421120" class="fil4" d="M1130.8 1086.35c4.4126,-7.56024 11.4803,-12.6213 19.3299,-14.6835 7.84961,-2.06339 16.4929,-1.13268 24.0543,3.2811 7.5626,4.41378 12.6225,11.4803 14.6858,19.3311 2.06339,7.85079 1.13268,16.4917 -3.2811,24.0567 -4.41496,7.56142 -11.4803,12.6213 -19.3323,14.6847 -7.84961,2.06221 -16.4894,1.1315 -24.0543,-3.28229 -7.56142,-4.41496 -12.6225,-11.4815 -14.6847,-19.3323 -2.06221,-7.84725 -1.13268,-16.4858 3.28229,-24.0555z"/>
   <line id="_549428056" class="fil4" x1="1142.21" y1="1129.74" x2="1142.21" y2= "1129.74" />
   <line id="_549425680" class="fil4" x1="1185.59" y1="1118.33" x2="1185.59" y2= "1118.33" />
   <line id="_549445648" class="fil4" x1="1174.18" y1="1074.94" x2="1174.18" y2= "1074.94" />
   <path id="_549446272" class="fil4" d="M1342.73 834.239c7.87796,-3.81614 16.5626,-4.08071 24.2292,-1.42205 7.6689,2.66103 14.3256,8.24883 18.1477,16.1315 3.81733,7.87678 4.08189,16.5602 1.42087,24.2292 -2.66103,7.6689 -8.24646,14.3232 -16.1291,18.1465 -7.87914,3.81851 -16.5626,4.08307 -24.2303,1.42087 -7.67008,-2.66103 -14.3268,-8.24883 -18.1488,-16.1339 -3.81733,-7.87442 -4.08071,-16.5567 -1.42087,-24.2232 2.66103,-7.67008 8.24764,-14.3268 16.1315,-18.1488z"/>
   <line id="_549418984" class="fil4" x1="1328.02" y1="876.616" x2="1328.02" y2= "876.616" />
   <line id="_549445792" class="fil4" x1="1370.4" y1="891.322" x2="1370.4" y2= "891.322" />
   <line id="_549431872" class="fil4" x1="1385.1" y1="848.945" x2="1385.1" y2= "848.945" />
   <path id="_549430528" class="fil4" d="M1023.99 1147.67c28.2236,0 42.3177,34.265 22.4303,54.1512 -5.7378,5.7378 -13.6701,9.28702 -22.428,9.29056 -17.5217,0 -31.7173,-14.1957 -31.7233,-31.7185 0,-17.5205 14.2004,-31.7233 31.7209,-31.7233z"/>
   <line id="_549436792" class="fil4" x1="992.277" y1="1179.39" x2="992.277" y2= "1179.39" />
   <line id="_549417136" class="fil4" x1="1024" y1="1211.11" x2="1024" y2= "1211.11" />
   <path id="_549440752" class="fil4" d="M1469.4 645.293c14.1851,-10.7516 34.637,-7.46575 44.4296,6.12756 16.9949,22.4232 -1.65118,54.3697 -29.5488,50.5819 -8.76497,-1.19055 -15.1039,-5.18268 -21.013,-12.2799 -10.6205,-14.0197 -7.73386,-34.0807 6.13229,-44.4296z"/>
   <line id="_549416200" class="fil4" x1="1463.27" y1="689.725" x2="1463.27" y2= "689.725" />
   <line id="_549443416" class="fil4" x1="1513.83" y1="651.419" x2="1513.83" y2= "651.419" />
   <path id="_549417736" class="fil4" d="M1024 1361.86c8.75788,0 16.6878,3.55276 22.4268,9.29056 5.7378,5.73662 9.28938,13.6701 9.28938,22.4303 0,8.76024 -3.5504,16.6914 -9.29056,22.4315 -5.73898,5.73898 -13.6701,9.29056 -22.4303,9.29056 -8.76024,0 -16.6902,-3.55158 -22.4303,-9.29056 -5.73898,-5.74016 -9.29056,-13.6701 -9.29056,-22.4303 0,-8.75788 3.55158,-16.6914 9.29056,-22.4303 5.74016,-5.74016 13.6701,-9.29174 22.4351,-9.29174z"/>
   <line id="_549431608" class="fil4" x1="1055.71" y1="1393.58" x2="1055.71" y2= "1393.58" />
   <path id="_549419848" class="fil4" d="M1023.99 1575.96c8.76024,0 16.6914,3.55158 22.4303,9.29056 5.74016,5.74016 9.29056,13.6725 9.29056,22.4303 0,8.76024 -3.5504,16.6914 -9.29056,22.4303 -5.73898,5.74016 -13.6701,9.29056 -22.4303,9.29056 -8.76024,0 -16.6902,-3.5504 -22.4303,-9.29056 -5.73898,-5.73898 -9.29056,-13.6701 -9.29056,-22.4303 0,-8.75788 3.55158,-16.6902 9.29056,-22.4303 5.74016,-5.73898 13.6701,-9.29056 22.4303,-9.29056z"/>
   <path id="_549415600" class="fil4" d="M1211.74 1316.86c7.79882,2.23937 14.7473,7.46221 18.991,15.1264l0.0200788 0.0389764c8.51103,15.4288 2.72244,34.9051 -12.4453,43.0902 -24.6697,13.6158 -53.5796,-9.49016 -45.8115,-36.5268 2.1248,-7.39253 7.76103,-15.3071 15.1311,-18.9921 7.66536,-4.24134 16.3205,-4.97717 24.1146,-2.73662z"/>
   <line id="_549438448" class="fil4" x1="1218.3" y1="1375.12" x2="1218.3" y2= "1375.12" />
   <path id="_549425824" class="fil4" d="M1394.7 1012.33c8.11182,0 16.8508,4.81181 21.9508,10.4953 5.40945,6.02953 8.52284,14.1189 8.06694,22.839 0,8.11182 -4.81418,16.8532 -10.4953,21.952 -6.03189,5.40945 -14.1189,8.52402 -22.8402,8.06575 -8.10946,0 -16.852,-4.81418 -21.9508,-10.4965 -5.40827,-6.02953 -8.52402,-14.1213 -8.06575,-22.8425 0,-8.11064 4.81181,-16.8473 10.4953,-21.9461 6.02953,-5.41063 14.1189,-8.5252 22.839,-8.06694z"/>
  </g>
  <rect class="fil0" width="2048" height="2048"/>
 </g>
</svg>
