<?xml version="1.0" encoding="UTF-8"?>
<!DOCTYPE svg PUBLIC "-//W3C//DTD SVG 1.1//EN" "http://www.w3.org/Graphics/SVG/1.1/DTD/svg11.dtd">
<!-- Creator: CorelDRAW -->
<svg xmlns="http://www.w3.org/2000/svg" xml:space="preserve" width="2048px" height="2048px" style="shape-rendering:geometricPrecision; text-rendering:geometricPrecision; image-rendering:optimizeQuality; fill-rule:evenodd; clip-rule:evenodd"
viewBox="0 0 2048 2048"
 xmlns:xlink="http://www.w3.org/1999/xlink">
 <defs>
  <style type="text/css">
   <![CDATA[
    .fil4 {fill:none}
    .fil3 {fill:#535353;fill-rule:nonzero}
    .fil1 {fill:#5C5C5C;fill-rule:nonzero}
    .fil2 {fill:#656666;fill-rule:nonzero}
    .fil0 {fill:#707070;fill-rule:nonzero}
   ]]>
  </style>
 </defs>
 <g id="Layer_x0020_1">
  <metadata id="CorelCorpID_0Corel-Layer"/>
  <g id="_549418768">
   <g>
    <path id="_549427240" class="fil0" d="M1024 448.004c159.052,0 303.052,64.4717 407.288,168.708 104.236,104.236 168.708,248.236 168.708,407.288 0,159.052 -64.4717,303.052 -168.708,407.288 -104.236,104.236 -248.236,168.708 -407.288,168.708 -159.052,0 -303.052,-64.4717 -407.288,-168.708 -104.236,-104.236 -168.708,-248.236 -168.708,-407.288 0,-159.052 64.4717,-303.052 168.708,-407.288 104.236,-104.236 248.236,-168.708 407.288,-168.708z"/>
    <path id="_549434200" class="fil1" d="M1024 319.999c194.399,0 370.401,78.7997 497.802,206.199 127.4,127.401 206.199,303.403 206.199,497.802 0,194.399 -78.7997,370.401 -206.199,497.802 -127.401,127.4 -303.403,206.199 -497.802,206.199 -194.399,0 -370.401,-78.7997 -497.802,-206.199 -127.4,-127.401 -206.199,-303.403 -206.199,-497.802 0,-194.399 78.7997,-370.401 206.199,-497.802 127.401,-127.4 303.403,-206.199 497.802,-206.199zm452.552 251.45c-115.815,-115.814 -275.817,-187.448 -452.552,-187.448 -176.734,0 -336.736,71.6339 -452.552,187.448 -115.814,115.815 -187.448,275.817 -187.448,452.552 0,176.734 71.6339,336.736 187.448,452.552 115.815,115.814 275.817,187.448 452.552,187.448 176.734,0 336.736,-71.6339 452.552,-187.448 115.814,-115.815 187.448,-275.817 187.448,-452.552 0,-176.734 -71.6339,-336.736 -187.448,-452.552z"/>
    <polygon id="_549447136" class="fil1" points="1056,255.999 1056,366.526 991.994,366.526 991.994,255.999 "/>
    <polygon id="_549432952" class="fil1" points="255.995,991.999 366.521,991.999 366.521,1056 255.995,1056 "/>
    <polygon id="_549427408" class="fil1" points="1056,1681.47 1056,1792 991.994,1792 991.994,1681.47 "/>
    <polygon id="_549429520" class="fil1" points="1681.47,991.999 1792,991.999 1792,1056 1681.47,1056 "/>
   </g>
   <g>
    <path id="_549416656" class="fil2" d="M1024 1600c-159.05,-0.0011811 -303.049,-64.4729 -407.283,-168.708 -104.236,-104.236 -168.708,-248.236 -168.708,-407.288 0,-159.052 64.4717,-303.052 168.708,-407.288 104.235,-104.235 248.234,-168.706 407.283,-168.708l0 1151.99z"/>
    <path id="_549441928" class="fil3" d="M1024 1728c-194.397,-0.0011811 -370.398,-78.8008 -497.797,-206.199 -127.4,-127.401 -206.199,-303.403 -206.199,-497.802 0,-194.399 78.7997,-370.401 206.199,-497.802 127.4,-127.399 303.401,-206.198 497.797,-206.199l0 64.0016c-176.732,0.0011811 -336.733,71.6351 -452.547,187.448 -115.814,115.815 -187.448,275.817 -187.448,452.552 0,176.734 71.6339,336.736 187.448,452.552 115.814,115.813 275.815,187.447 452.547,187.448l0 64.0016z"/>
    <polygon id="_549441856" class="fil3" points="1024,366.526 991.994,366.526 991.994,255.999 1024,255.999 "/>
    <polygon id="_549438208" class="fil3" points="255.995,991.999 366.521,991.999 366.521,1056 255.995,1056 "/>
    <polygon id="_549417448" class="fil3" points="1024,1792 991.994,1792 991.994,1681.47 1024,1681.47 "/>
   </g>
  </g>
  <rect class="fil4" width="2048" height="2048"/>
 </g>
</svg>
