<?xml version="1.0" encoding="UTF-8"?>
<!DOCTYPE svg PUBLIC "-//W3C//DTD SVG 1.1//EN" "http://www.w3.org/Graphics/SVG/1.1/DTD/svg11.dtd">
<!-- Creator: CorelDRAW -->
<svg xmlns="http://www.w3.org/2000/svg" xml:space="preserve" width="2048px" height="2048px" style="shape-rendering:geometricPrecision; text-rendering:geometricPrecision; image-rendering:optimizeQuality; fill-rule:evenodd; clip-rule:evenodd"
viewBox="0 0 2048 2048"
 xmlns:xlink="http://www.w3.org/1999/xlink">
 <defs>
  <style type="text/css">
   <![CDATA[
    .str0 {stroke:#414141;stroke-width:2.08347}
    .fil5 {fill:none}
    .fil4 {fill:#868686}
    .fil3 {fill:#939393}
    .fil1 {fill:#B4B4B5}
    .fil2 {fill:#F7F7F7}
    .fil0 {fill:#4D4D4D;fill-rule:nonzero}
   ]]>
  </style>
 </defs>
 <g id="Layer_x0020_1">
  <metadata id="CorelCorpID_0Corel-Layer"/>
  <g id="_549432064">
   <g>
    <path id="_514510016" class="fil0 str0" d="M672.59 923.669l428.481 0c8.69764,21.4028 17.6433,42.7335 26.7803,64.0016l-437.261 0 -47.2063 78.6792 -298.388 497.327 1360.39 0 -331.875 -576.006 -216.927 0c9.13701,-21.2669 18.0827,-42.5989 26.778,-64.0016l208.484 0 18.3331 0 9.29174 16.1256 368.75 640.008 27.5835 47.876 -55.2083 0 -1472 0 -56.4 0 29.0244 -48.3756 383.994 -640.008 9.3756 -15.626 18 0z"/>
    <path id="_514510808" class="fil1" d="M690.993 1200.02l286.401 -68.4957c-23.3185,-50.4272 -42.6615,-92.7698 -64.6075,-143.854l-222.196 0 -46.9347 78.2268 47.3374 134.123z"/>
    <path id="_514486736" class="fil1" d="M1004.5 1190.14l-292.131 70.4552 74.8902 212.19 772.755 -161.412 -186.504 -323.699 -68.5347 0c-26.1225,60.7997 -52.3382,117.234 -80.1638,177.112 -18.8469,40.5591 -32.2524,73.2674 -49.0926,114.677 -17.8311,43.8473 -36.0803,89.0883 -65.7142,87.6308 -32.3492,-1.59095 -45.7063,-34.741 -64.056,-79.369 -12.7004,-30.8918 -27.8103,-67.1741 -41.4485,-97.5851z"/>
    <polygon id="_514489208" class="fil1" points="751.592,1563.68 600.997,1136.99 344.996,1563.68 "/>
    <polygon id="_514509224" class="fil1" points="1593.55,1369.58 808.698,1533.52 819.342,1563.68 1705.39,1563.68 "/>
    <path id="_549441784" class="fil2" d="M600.997 1136.99l150.594 426.682 67.7504 0 -10.6441 -30.1583 784.855 -163.939 -33.5374 -58.2095 -772.755 161.412 -74.8902 -212.19 292.131 -70.4552c-4.46103,-9.96261 -9.23268,-20.439 -14.3492,-31.4398 -25.4894,-54.8044 -52.6347,-114.115 -77.3257,-170.932 0.0129921,0.0295276 0.0259843,0.0590552 0.0389764,0.0885827 21.913,51.0024 41.2382,93.3036 64.5284,143.671l-286.401 68.4957 -47.3374 -134.123 -0.271654 0.452363 -42.3863 70.6453z"/>
   </g>
   <path id="_549438304" class="fil3" d="M1108.88 420.322c81.7016,0 155.672,33.1193 209.217,86.6646 53.5465,53.5453 86.6658,127.517 86.6658,209.217 0,37.2485 -23.7284,108.686 -57.5008,192.121 -32.4,80.0398 -74.628,173.079 -113.388,256.482 -24.8315,53.4355 -42.476,96.8186 -55.5969,129.083 -24.4524,60.1217 -36.7524,90.3698 -68.2312,90.9863 -32.3575,0.637796 -44.9611,-29.9988 -70.3099,-91.643 -12.6839,-30.8492 -29.5925,-71.9658 -54.1323,-124.73 -38.9374,-83.7178 -81.5953,-177.559 -114.382,-258.391 -34.1575,-84.2044 -58.2248,-156.402 -58.2248,-193.908 0,-81.7005 33.1193,-155.672 86.6658,-209.217 53.5453,-53.5453 127.515,-86.6646 209.217,-86.6646zm0 165.752c32.3599,0 61.6619,13.1221 82.8697,34.3311 21.2103,21.2091 34.3311,50.5111 34.3311,82.8721 0,32.3587 -13.1185,61.6607 -34.3299,82.8709 -21.2103,21.2091 -50.5111,34.3299 -82.8709,34.3299 -32.3575,0 -61.6607,-13.1209 -82.8709,-34.3299 -21.2103,-21.2103 -34.3299,-50.5134 -34.3299,-82.8709 0,-32.361 13.1209,-61.663 34.3311,-82.8721 21.2079,-21.2091 50.5111,-34.3311 82.8697,-34.3311z"/>
   <path id="_549434824" class="fil4" d="M1108.88 420.322l0.00236221 0 0 165.752 -0.00236221 0c-32.3587,0 -61.6619,13.1221 -82.8697,34.3311 -21.2103,21.2091 -34.3311,50.5111 -34.3311,82.8721 0,32.3575 13.1197,61.6607 34.3299,82.8709 21.2103,21.2091 50.5134,34.3299 82.8709,34.3299l0.00236221 0 0 564.403c-31.4988,-0.11811 -44.1048,-30.75 -69.1465,-91.6489 -12.6839,-30.8492 -29.5925,-71.9658 -54.1323,-124.73 -38.9374,-83.7178 -81.5953,-177.559 -114.382,-258.391 -34.1575,-84.2044 -58.2248,-156.402 -58.2248,-193.908 0,-81.7005 33.1193,-155.672 86.6658,-209.217 53.5453,-53.5453 127.515,-86.6646 209.217,-86.6646z"/>
  </g>
  <rect class="fil5" width="2048" height="2048"/>
 </g>
</svg>
