<?xml version="1.0" encoding="UTF-8"?>
<!DOCTYPE svg PUBLIC "-//W3C//DTD SVG 1.1//EN" "http://www.w3.org/Graphics/SVG/1.1/DTD/svg11.dtd">
<!-- Creator: CorelDRAW -->
<svg xmlns="http://www.w3.org/2000/svg" xml:space="preserve" width="2048px" height="2048px" style="shape-rendering:geometricPrecision; text-rendering:geometricPrecision; image-rendering:optimizeQuality; fill-rule:evenodd; clip-rule:evenodd"
viewBox="0 0 2048 2048"
 xmlns:xlink="http://www.w3.org/1999/xlink">
 <defs>
  <style type="text/css">
   <![CDATA[
    .fil3 {fill:none}
    .fil2 {fill:#8E8E8F}
    .fil1 {fill:#6C6C6C;fill-rule:nonzero}
    .fil0 {fill:#868686;fill-rule:nonzero}
   ]]>
  </style>
 </defs>
 <g id="Layer_x0020_1">
  <metadata id="CorelCorpID_0Corel-Layer"/>
  <g id="_514487744">
   <path id="_514495640" class="fil0" d="M1584 497.737l0 0.21378 0 876.186c0,17.6728 -14.328,32.0008 -32.0008,32.0008 -17.6728,0 -32.0008,-14.328 -32.0008,-32.0008l0 -863.998 -99.7654 18.7536 -148.682 66.4406 312.449 -97.5957z"/>
   <path id="_514512440" class="fil0" d="M783.973 1630.14c0,17.6043 -14.2713,31.8756 -31.8756,31.8756 -17.6043,0 -31.8756,-14.2713 -31.8756,-31.8756l-1.22008 -955.266 0 -0.0188977 63.7347 -12.0567 0 0.0330709 1.23662 967.308z"/>
   <path id="_514497992" class="fil0" d="M719.001 699.854l-0.341339 -259.688c0,-15.6 11.2063,-28.5803 26.0079,-31.3347l-0.00708662 -0.0401575 801.466 -150.379c17.3268,-3.24449 34.0051,8.17323 37.2496,25.5 0.369685,1.97362 0.548032,3.9378 0.549213,5.87481l0.0767717 0 0 246.442 -312.449 59.1036 -488.818 91.8851 0.0011811 0.579922 -63.7347 12.0567z"/>
   <path id="_514491152" class="fil1" d="M623.999 1470.14c44.1792,0 84.1796,17.9102 113.136,46.8662 28.9559,28.9559 46.8662,68.9564 46.8662,113.136 0,44.1803 -17.9102,84.182 -46.8662,113.136 -28.9559,28.9559 -68.9564,46.8662 -113.136,46.8662 -44.1803,0 -84.182,-17.9102 -113.136,-46.8662 -28.9559,-28.9536 -46.8662,-68.9552 -46.8662,-113.136 0,-44.1792 17.9102,-84.1796 46.8662,-113.136 28.9536,-28.9559 68.9552,-46.8662 113.136,-46.8662z"/>
   <path id="_514504784" class="fil1" d="M1537.14 1487.27c-28.9536,28.9559 -68.9552,46.8662 -113.136,46.8662 -44.1792,0 -84.1796,-17.9102 -113.136,-46.8662 -28.9559,-28.9536 -46.8662,-68.9552 -46.8662,-113.136 0,-44.1792 17.9102,-84.1796 46.8662,-113.136 28.9559,-28.9559 68.9564,-46.8662 113.136,-46.8662 44.1803,0 84.182,17.9102 113.136,46.8662 28.9559,28.9559 46.8662,68.9564 46.8662,113.136 0,44.1803 -17.9102,84.182 -46.8662,113.136z"/>
   <path id="_514511816" class="fil2" d="M718.66 440.166l0.16063 121.89 865.182 -166.427 0 -105.842 -0.0767717 0c-0.0011811,-1.93701 -0.179528,-3.90118 -0.549213,-5.87481 -3.24449,-17.3268 -19.9228,-28.7445 -37.2496,-25.5l-801.466 150.379 0.00708662 0.0401575c-14.8016,2.75433 -26.0079,15.7347 -26.0079,31.3347z"/>
  </g>
  <rect class="fil3" width="2048" height="2048"/>
 </g>
</svg>
