<?xml version="1.0" encoding="UTF-8"?>
<!DOCTYPE svg PUBLIC "-//W3C//DTD SVG 1.1//EN" "http://www.w3.org/Graphics/SVG/1.1/DTD/svg11.dtd">
<!-- Creator: CorelDRAW -->
<svg xmlns="http://www.w3.org/2000/svg" xml:space="preserve" width="2048px" height="2048px" style="shape-rendering:geometricPrecision; text-rendering:geometricPrecision; image-rendering:optimizeQuality; fill-rule:evenodd; clip-rule:evenodd"
viewBox="0 0 2048 2048"
 xmlns:xlink="http://www.w3.org/1999/xlink">
 <defs>
  <style type="text/css">
   <![CDATA[
    .fil10 {fill:none}
    .fil8 {fill:#202020}
    .fil9 {fill:#686868}
    .fil1 {fill:#ACACAC}
    .fil0 {fill:#D7D7D7}
    .fil7 {fill:#676767;fill-rule:nonzero}
    .fil6 {fill:#6D6D6D;fill-rule:nonzero}
    .fil4 {fill:#717171;fill-rule:nonzero}
    .fil5 {fill:#777777;fill-rule:nonzero}
    .fil3 {fill:#7A7A7A;fill-rule:nonzero}
    .fil2 {fill:#8A8A8A;fill-rule:nonzero}
   ]]>
  </style>
 </defs>
 <g id="Layer_x0020_1">
  <metadata id="CorelCorpID_0Corel-Layer"/>
  <g id="_514483640">
   <polygon id="_514490696" class="fil0" points="400,255.999 1552,255.999 1584,255.999 1584,288 1584,1760 1584,1792 1552,1792 400,1792 367.999,1792 367.999,1760 367.999,288 367.999,255.999 "/>
   <polygon id="_514503032" class="fil1" points="592.004,1439.99 1360,1439.99 1360,1503.99 592.004,1503.99 "/>
   <polygon id="_514494656" class="fil1" points="592.004,1247.98 1360,1247.98 1360,1311.99 592.004,1311.99 "/>
   <polygon id="_514489520" class="fil1" points="592.004,1055.98 1360,1055.98 1360,1119.98 592.004,1119.98 "/>
   <polygon id="_514490336" class="fil1" points="592.004,863.975 1360,863.975 1360,927.976 592.004,927.976 "/>
   <polygon id="_514486472" class="fil1" points="592.004,671.97 1360,671.97 1360,735.971 592.004,735.971 "/>
   <polygon id="_514510664" class="fil1" points="592.004,479.965 1360,479.965 1360,543.967 592.004,543.967 "/>
   <g>
    <g>
     <polygon id="_514502384" class="fil2" points="1680,902.374 1680,1544.46 1488,1544.46 1488,902.374 "/>
     <polygon id="_514506992" class="fil3" points="1680,1542.12 1680,1542.5 1677.25,1555.12 1612.26,1705.39 1584,1774.18 1553.51,1705.02 1490.5,1554.75 1488,1542.5 1488,1542.12 "/>
     <polygon id="_514493336" class="fil4" points="1520,646.495 1648,646.495 1680,646.495 1680,678.495 1680,902.374 1488,902.374 1488,678.495 1488,646.495 "/>
    </g>
    <g>
     <polygon id="_514504880" class="fil5" points="1680,902.374 1680,1544.46 1584,1544.46 1584,902.374 "/>
     <polygon id="_514499984" class="fil6" points="1680,1542.12 1680,1542.5 1677.25,1555.12 1612.26,1705.39 1584,1774.18 1584,1774.18 1584,1542.12 "/>
     <polygon id="_514508288" class="fil7" points="1584,646.495 1648,646.495 1680,646.495 1680,678.495 1680,902.374 1584,902.374 "/>
    </g>
    <path id="_514495064" class="fil8" d="M1573.51 1750.21l20.9729 0 0 31.3075c0,5.76615 -4.71969,10.4847 -10.487,10.4847l0 0c-5.76615,0 -10.4858,-4.71851 -10.4858,-10.4847l0 -31.3075z"/>
    <rect id="_514509416" class="fil9" x="1571.41" y="1030.5" width="25.1807" height="384"/>
   </g>
  </g>
  <rect class="fil10" width="2048" height="2048"/>
 </g>
</svg>
