<?xml version="1.0" encoding="UTF-8"?>
<!DOCTYPE svg PUBLIC "-//W3C//DTD SVG 1.1//EN" "http://www.w3.org/Graphics/SVG/1.1/DTD/svg11.dtd">
<!-- Creator: CorelDRAW -->
<svg xmlns="http://www.w3.org/2000/svg" xml:space="preserve" width="2048px" height="2048px" style="shape-rendering:geometricPrecision; text-rendering:geometricPrecision; image-rendering:optimizeQuality; fill-rule:evenodd; clip-rule:evenodd"
viewBox="0 0 2048 2048"
 xmlns:xlink="http://www.w3.org/1999/xlink">
 <defs>
  <style type="text/css">
   <![CDATA[
    .fil6 {fill:none}
    .fil5 {fill:#0C0C0C}
    .fil1 {fill:#111111}
    .fil0 {fill:#232323}
    .fil2 {fill:#B6B6B6}
    .fil3 {fill:#C9C9C9}
    .fil4 {fill:white}
   ]]>
  </style>
 </defs>
 <g id="Layer_x0020_1">
  <metadata id="CorelCorpID_0Corel-Layer"/>
  <path class="fil0" d="M584.326 251.517l846.91 0c9.66851,0 19.0181,1.97717 27.6484,5.55945 8.77442,3.64016 16.7398,9.0378 23.465,15.7642 6.64489,6.64725 12.0036,14.5713 15.6508,23.3575 3.57992,8.62442 5.56182,17.9717 5.56182,27.6544l0 1391.33c0,9.68268 -1.98189,19.0299 -5.56182,27.6544 -3.64725,8.78623 -9.00591,16.7102 -15.6508,23.3575 -6.7252,6.72638 -14.6906,12.124 -23.465,15.7642 -8.63032,3.58229 -17.9799,5.55945 -27.6484,5.55945l-846.91 0c-9.66851,0 -19.0181,-1.97717 -27.6484,-5.55945 -8.77442,-3.64016 -16.7398,-9.0378 -23.465,-15.7642 -6.64489,-6.64725 -12.0036,-14.5713 -15.6508,-23.3575 -3.57992,-8.62442 -5.56182,-17.9717 -5.56182,-27.6544l0 -1391.33c0,-9.68268 1.98189,-19.0299 5.56182,-27.6544 3.64725,-8.78623 9.00591,-16.7102 15.6508,-23.3575 6.7252,-6.72638 14.6906,-12.124 23.465,-15.7642 8.63032,-3.58229 17.9799,-5.55945 27.6484,-5.55945z"/>
  <polygon class="fil1" points="607.78,374.227 1407.78,374.227 1407.78,1467.98 607.78,1467.98 "/>
  <polygon class="fil2" points="617.556,390.632 1395.01,390.632 1395.01,1467.98 617.556,1467.98 "/>
  <polygon class="fil3" points="731.931,390.633 733.056,390.633 1395.01,390.633 1395.01,1467.98 1218.64,1467.98 1218.61,1467.98 "/>
  <polygon class="fil2" points="617.556,390.633 731.931,390.633 1218.61,1467.98 617.556,1467.98 "/>
  <path class="fil4" d="M1036.4 1566.32c-3.6378,-1.5 -7.8189,-2.32323 -12.3992,-2.32323 -4.58032,0 -8.76142,0.823229 -12.3992,2.32323 -3.84213,1.58386 -7.31339,3.92008 -10.2272,6.83623 -3.02362,3.02717 -5.43071,6.56457 -7.02875,10.4303 -1.50945,3.64961 -2.34331,7.82363 -2.34331,12.3886 0,4.41851 0.836221,8.52993 2.34803,12.176 1.65236,3.98504 4.05709,7.5567 7.02402,10.5272 2.89725,2.89961 6.42993,5.2689 10.4126,6.92127 3.65551,1.51654 7.77638,2.35512 12.2138,2.35512 4.4374,0 8.55827,-0.838583 12.2138,-2.35512 3.98268,-1.65236 7.51536,-4.02166 10.4126,-6.92127 2.96693,-2.97047 5.37166,-6.54213 7.02402,-10.5272 1.51181,-3.64607 2.34803,-7.75749 2.34803,-12.176 0,-4.56496 -0.833859,-8.73898 -2.34331,-12.3886 -1.59803,-3.86575 -4.00512,-7.40316 -7.02875,-10.4303 -2.91378,-2.91614 -6.38504,-5.25237 -10.2272,-6.83623z"/>
  <path class="fil4" d="M1007.78 1523.89c12.7902,0 25.1799,2.59606 36.6496,7.32402 11.7756,4.85552 22.3689,11.9717 31.2272,20.837 8.7815,8.78977 15.8906,19.3595 20.7791,31.1799 4.73032,11.439 7.3441,23.8169 7.3441,36.639 0,12.8634 -2.61496,25.2603 -7.34882,36.6768 -4.8378,11.6622 -11.9445,22.1882 -20.7744,31.0264 -8.90434,8.91379 -19.4788,16.0736 -31.1622,20.9221 -11.4177,4.73741 -23.8264,7.35591 -36.7146,7.35591 -12.8882,0 -25.2969,-2.61851 -36.7146,-7.35591 -11.6835,-4.84843 -22.2579,-12.0083 -31.1622,-20.9221 -8.82993,-8.8382 -15.9366,-19.3642 -20.7744,-31.0264 -4.73386,-11.4165 -7.34882,-23.8134 -7.34882,-36.6768 0,-12.8221 2.61378,-25.2 7.3441,-36.639 4.88859,-11.8205 11.9976,-22.3902 20.7791,-31.1799 8.85827,-8.86536 19.4516,-15.9815 31.2272,-20.837 11.4697,-4.72796 23.8595,-7.32402 36.6496,-7.32402z"/>
  <rect class="fil5" x="895.02" y="309.182" width="225.523" height="25.2019" rx="12.6012" ry="12.6012"/>
  <path class="fil1" d="M1007.78 1542.26c10.3429,0 20.361,2.09882 29.6362,5.92205 9.52205,3.92599 18.0874,9.68032 25.2508,16.8496 7.10079,7.10788 12.8492,15.6543 16.8024,25.213 3.82559,9.24922 5.93859,19.2591 5.93859,29.6268 0,10.402 -2.11417,20.426 -5.94213,29.6575 -3.91181,9.43111 -9.65906,17.9421 -16.7988,25.089 -7.20001,7.20827 -15.7512,12.998 -25.1988,16.9181 -9.23268,3.83032 -19.2662,5.94804 -29.6882,5.94804 -10.4221,0 -20.4555,-2.11772 -29.6882,-5.94804 -9.44765,-3.92008 -17.9988,-9.70985 -25.1988,-16.9181 -7.13977,-7.14686 -12.887,-15.6579 -16.7988,-25.089 -3.82796,-9.2315 -5.94213,-19.2555 -5.94213,-29.6575 0,-10.3677 2.11299,-20.3776 5.93859,-29.6268 3.95315,-9.55867 9.70158,-18.1051 16.8024,-25.213 7.16339,-7.1693 15.7288,-12.9236 25.2508,-16.8496 9.2752,-3.82323 19.2933,-5.92205 29.6362,-5.92205z"/>
  <rect class="fil6" width="2048" height="2048"/>
 </g>
</svg>
