<?xml version="1.0" encoding="UTF-8"?>
<!DOCTYPE svg PUBLIC "-//W3C//DTD SVG 1.1//EN" "http://www.w3.org/Graphics/SVG/1.1/DTD/svg11.dtd">
<!-- Creator: CorelDRAW -->
<svg xmlns="http://www.w3.org/2000/svg" xml:space="preserve" width="2048px" height="2048px" style="shape-rendering:geometricPrecision; text-rendering:geometricPrecision; image-rendering:optimizeQuality; fill-rule:evenodd; clip-rule:evenodd"
viewBox="0 0 2048 2048"
 xmlns:xlink="http://www.w3.org/1999/xlink">
 <defs>
  <style type="text/css">
   <![CDATA[
    .fil1 {fill:none}
    .fil0 {fill:#6C6C6C}
    .fil2 {fill:#FEFEFE}
    .fil3 {fill:#FEFEFE;fill-rule:nonzero}
   ]]>
  </style>
 </defs>
 <g id="Layer_x0020_1">
  <metadata id="CorelCorpID_0Corel-Layer"/>
  <circle class="fil0" cx="1024" cy="1024" r="768.001"/>
  <path class="fil1" d="M1207.62 546.055c197.824,76.0028 328.381,266.023 328.381,477.945 0,282.774 -229.232,512.006 -512.006,512.006 -282.774,0 -512.006,-229.232 -512.006,-512.006 0,-211.852 130.473,-401.826 328.204,-477.877"/>
  <g id="_514491176">
   <path id="_514491608" class="fil2" d="M1077.33 1037.41c0,29.4449 -23.8878,53.3327 -53.3327,53.3327 -29.4449,0 -53.3327,-23.8878 -53.3327,-53.3327l0 -546.891c0,-29.4449 23.8878,-53.3327 53.3327,-53.3327 29.4449,0 53.3327,23.8878 53.3327,53.3327l0 546.891z"/>
   <path id="_514509632" class="fil3" d="M1158.06 665.591c-27.3839,-10.4705 -41.0953,-41.1579 -30.6248,-68.5406 10.4705,-27.3839 41.1579,-41.0953 68.5406,-30.6248 92.6918,35.6103 169.644,97.9619 223.433,176.25 53.9115,78.4678 84.5871,172.612 84.5871,271.612 0,132.542 -53.7284,252.541 -140.59,339.405 -86.8642,86.8619 -206.863,140.59 -339.405,140.59 -132.542,0 -252.541,-53.7284 -339.405,-140.59 -86.8619,-86.8642 -140.59,-206.863 -140.59,-339.405 0,-99.169 30.5823,-193.282 84.3343,-271.547 53.7059,-78.2008 130.689,-140.547 223.538,-176.258 27.3827,-10.4693 58.0701,3.24213 68.5406,30.6248 10.4705,27.3839 -3.24095,58.0713 -30.6248,68.5406 -71.9197,27.6626 -131.692,76.1599 -173.538,137.092 -41.8016,60.8646 -65.5843,134.179 -65.5843,211.549 0,103.097 41.7851,196.432 109.341,263.99 67.5579,67.5556 160.892,109.341 263.99,109.341 103.097,0 196.432,-41.7851 263.99,-109.341 67.5556,-67.5579 109.341,-160.892 109.341,-263.99 0,-77.5985 -23.7248,-150.926 -65.4201,-211.614 -41.8193,-60.867 -101.694,-109.363 -173.85,-137.084z"/>
  </g>
  <rect class="fil1" width="2048" height="2048"/>
 </g>
</svg>
