<?xml version="1.0" encoding="UTF-8"?>
<!DOCTYPE svg PUBLIC "-//W3C//DTD SVG 1.1//EN" "http://www.w3.org/Graphics/SVG/1.1/DTD/svg11.dtd">
<!-- Creator: CorelDRAW -->
<svg xmlns="http://www.w3.org/2000/svg" xml:space="preserve" width="2048px" height="2048px" style="shape-rendering:geometricPrecision; text-rendering:geometricPrecision; image-rendering:optimizeQuality; fill-rule:evenodd; clip-rule:evenodd"
viewBox="0 0 2048 2048"
 xmlns:xlink="http://www.w3.org/1999/xlink">
 <defs>
  <style type="text/css">
   <![CDATA[
    .fil3 {fill:none}
    .fil1 {fill:#424343}
    .fil0 {fill:#6B6B6B;fill-rule:nonzero}
    .fil2 {fill:#F0F0F0;fill-rule:nonzero}
   ]]>
  </style>
 </defs>
 <g id="Layer_x0020_1">
  <metadata id="CorelCorpID_0Corel-Layer"/>
  <path class="fil0" d="M591.997 467.775l0 1240.14c0,23.1555 9.45119,44.1863 24.6744,59.4107 15.2244,15.2232 36.254,24.6744 59.4095,24.6744l695.834 0c23.1555,0 44.1851,-9.45119 59.4095,-24.6744 15.2232,-15.2244 24.6744,-36.2551 24.6744,-59.4107l0 -1240.14c0,-23.1555 -9.45119,-44.1851 -24.6744,-59.4083 -15.2244,-15.2232 -36.254,-24.6744 -59.4095,-24.6744l-43.7008 0 0 -75.6957c0,-14.3339 -5.84174,-27.3414 -15.2504,-36.75 -9.40867,-9.40867 -22.4162,-15.2504 -36.75,-15.2504l-504.43 0c-14.3339,0 -27.3414,5.84174 -36.75,15.2504 -9.40867,9.40867 -15.2504,22.4162 -15.2504,36.75l0 75.6957 -43.702 0c-23.1555,0 -44.1851,9.45119 -59.4095,24.6744 -15.2232,15.2232 -24.6744,36.2528 -24.6744,59.4083z"/>
  <rect class="fil1" x="672.003" y="479.992" width="703.991" height="1216"/>
  <path class="fil2" d="M1133.17 693.846c9.80198,-14.7047 29.6705,-18.678 44.3752,-8.87599 14.7047,9.80198 18.678,29.6705 8.87599,44.3752l-222.834 334.25 196.208 0c17.6728,0 32.0008,14.328 32.0008,32.0008 0,7.29331 -2.44134,14.0162 -6.5504,19.3984l-194.243 278.697 113.252 -50.7922c16.0843,-7.17875 34.9465,0.0401575 42.1252,16.1244 7.17875,16.0843 -0.0401575,34.9465 -16.1244,42.1252l-204.849 91.8721c-3.36024,1.68307 -7.07481,2.79685 -11.035,3.20197 -17.5347,1.7941 -33.2067,-10.9654 -35.0008,-28.5l-23.0055 -224.743c-1.7941,-17.5347 10.9654,-33.2067 28.5,-35.0008 17.5347,-1.7941 33.2067,10.9654 35.0008,28.5l13.161 128.568 165.495 -237.45 -194.495 0c-6.18426,0.0496063 -12.4488,-1.68662 -17.9823,-5.3752 -14.7047,-9.80198 -18.678,-29.6705 -8.87599,-44.3752l256.001 -384z"/>
  <rect class="fil3" width="2048" height="2048"/>
 </g>
</svg>
