<?xml version="1.0" encoding="UTF-8"?>
<!DOCTYPE svg PUBLIC "-//W3C//DTD SVG 1.1//EN" "http://www.w3.org/Graphics/SVG/1.1/DTD/svg11.dtd">
<!-- Creator: CorelDRAW -->
<svg xmlns="http://www.w3.org/2000/svg" xml:space="preserve" width="2048px" height="2048px" style="shape-rendering:geometricPrecision; text-rendering:geometricPrecision; image-rendering:optimizeQuality; fill-rule:evenodd; clip-rule:evenodd"
viewBox="0 0 2048 2048"
 xmlns:xlink="http://www.w3.org/1999/xlink">
 <defs>
  <style type="text/css">
   <![CDATA[
    .fil12 {fill:none}
    .fil6 {fill:#2F2F2F}
    .fil9 {fill:#313131}
    .fil1 {fill:#535353}
    .fil3 {fill:#555555}
    .fil11 {fill:#616161}
    .fil8 {fill:#656666}
    .fil4 {fill:#6A6A6A}
    .fil0 {fill:#6C6C6C}
    .fil5 {fill:#D1D1D1}
    .fil2 {fill:#E1E1E2}
    .fil10 {fill:#616161;fill-rule:nonzero}
    .fil7 {fill:#6C6C6C;fill-rule:nonzero}
   ]]>
  </style>
 </defs>
 <g id="Layer_x0020_1">
  <metadata id="CorelCorpID_0Corel-Layer"/>
  <path class="fil0" d="M1116.16 262.684c180.124,23.0575 350.959,108.294 474.033,242.635 130.035,141.94 201.807,326.129 201.807,518.68 0,204.356 -80.4662,398.577 -224.945,543.056 -144.478,144.478 -338.7,224.945 -543.056,224.945 -204.356,0 -398.577,-80.4662 -543.056,-224.945 -144.478,-144.478 -224.945,-338.7 -224.945,-543.056 0,-192.58 71.7898,-376.794 201.861,-518.742 124.331,-135.682 291.818,-221.706 473.979,-243.692l0 123.931c-147.339,21.1654 -282.437,92.1934 -383.561,202.55 -109.334,119.315 -169.399,274.122 -169.399,435.953 0,171.71 67.5485,334.772 188.949,456.17 121.399,121.401 284.459,188.949 456.17,188.949 171.711,0 334.772,-67.5485 456.17,-188.949 121.401,-121.399 188.949,-284.46 188.949,-456.17 0,-161.805 -60.0473,-316.589 -169.349,-435.897 -101.128,-110.388 -236.243,-181.438 -383.611,-202.608l0 -122.811z"/>
  <path class="fil1" d="M1085.44 517.108c0,33.9213 -27.5197,61.4398 -61.441,61.4398 -33.9213,0 -61.441,-27.5185 -61.441,-61.4398l0 -320.153c0,-33.9225 27.5197,-61.441 61.441,-61.441 33.9213,0 61.441,27.5185 61.441,61.441l0 320.153z"/>
  <circle class="fil2" cx="1024" cy="1024" r="335.993"/>
  <path class="fil3" d="M1024 640.004c106.035,0 202.035,42.9815 271.524,112.472 69.4902,69.489 112.472,165.489 112.472,271.524 0,106.035 -42.9815,202.035 -112.472,271.524 -69.489,69.4902 -165.489,112.472 -271.524,112.472 -106.035,0 -202.035,-42.9815 -271.524,-112.472 -69.4902,-69.489 -112.472,-165.489 -112.472,-271.524 0,-106.035 42.9815,-202.035 112.472,-271.524 69.489,-69.4902 165.489,-112.472 271.524,-112.472zm0 48.0024c185.563,0 335.993,150.43 335.993,335.993 0,185.563 -150.43,335.993 -335.993,335.993 -185.563,0 -335.993,-150.43 -335.993,-335.993 0,-185.563 150.43,-335.993 335.993,-335.993z"/>
  <path class="fil4" d="M1013.4 1018.28l0.0011811 0c2.38701,-4.42559 7.50945,-6.33426 11.3811,-4.24607l196.456 106.016c3.87048,2.08937 5.08465,7.42087 2.69764,11.8441l0 0.0011811c-2.38701,4.42323 -7.50827,6.33426 -11.3811,4.24489l-196.456 -106.016c-3.87166,-2.08937 -5.08583,-7.41851 -2.69882,-11.8441z"/>
  <path class="fil5" d="M1024 688.007l0.0011811 0 0 671.986 -0.0011811 0c-185.563,0 -335.993,-150.43 -335.993,-335.993 0,-185.563 150.43,-335.993 335.993,-335.993z"/>
  <path class="fil1" d="M1024 640.004l0.0011811 0 0 48.0024 -0.0011811 0c-185.563,0 -335.993,150.43 -335.993,335.993 0,185.563 150.43,335.993 335.993,335.993l0.0011811 0 0 48.0024 -0.0011811 0c-106.035,0 -202.035,-42.9815 -271.524,-112.472 -69.4902,-69.489 -112.472,-165.489 -112.472,-271.524 0,-106.035 42.9815,-202.035 112.472,-271.524 69.489,-69.4902 165.489,-112.472 271.524,-112.472z"/>
  <path class="fil6" d="M1024 736l0 0c5.02796,0 9.14174,3.60118 9.14174,7.99961l0 277.664c0,4.39843 -4.11496,7.99843 -9.14174,7.99843l0 0c-5.02678,0 -9.14174,-3.59882 -9.14174,-7.99843l0 -277.664c0,-4.39961 4.11378,-7.99961 9.14174,-7.99961z"/>
  <circle class="fil6" cx="1024" cy="1024" r="23.9997"/>
  <path class="fil7" d="M775.538 1171.03c-1.79528,1.0311 -4.0878,0.411024 -5.1189,-1.38425 -1.0311,-1.79528 -0.412205,-4.0878 1.38307,-5.1189l309.188 -177.591c1.79528,-1.0311 4.08898,-0.411024 5.12008,1.38425 1.0311,1.79528 0.411024,4.0878 -1.38425,5.1189l-309.188 177.591z"/>
  <circle class="fil0" transform="matrix(0.228859 -0.846551 0.846551 0.228859 1024 1024)" r="14.0622"/>
  <path class="fil8" d="M1013.4 1018.28l0.0011811 -0.0011811c2.22992,-4.13268 6.84331,-6.06969 10.5957,-4.60748l0 20.713 -7.89804 -4.26142c-3.87166,-2.09055 -5.08583,-7.41851 -2.69882,-11.8429z"/>
  <path class="fil9" d="M1024 1000l0.0011811 0 0 48 -0.0011811 0c-13.2543,0 -24,-10.7457 -24,-24 0,-13.2543 10.7457,-24 24,-24z"/>
  <path class="fil10" d="M775.538 1171.03c-1.79528,1.0311 -4.08898,0.411024 -5.12008,-1.38425 -1.0311,-1.79528 -0.411024,-4.0878 1.38425,-5.1189l252.199 -144.856 0 8.64804 -248.463 142.712z"/>
  <path class="fil11" d="M1012.1 1020.78c1.48701,-5.5004 6.46772,-9.1193 11.9055,-9.11457l0 24.6662c-1.06299,0 -2.1437,-0.138189 -3.21969,-0.42874 -6.5752,-1.77756 -10.4634,-8.54764 -8.68583,-15.1228z"/>
  <rect class="fil12" width="2048" height="2048"/>
 </g>
</svg>
