<?xml version="1.0" encoding="UTF-8"?>
<!DOCTYPE svg PUBLIC "-//W3C//DTD SVG 1.1//EN" "http://www.w3.org/Graphics/SVG/1.1/DTD/svg11.dtd">
<!-- Creator: CorelDRAW -->
<svg xmlns="http://www.w3.org/2000/svg" xml:space="preserve" width="2048px" height="2048px" style="shape-rendering:geometricPrecision; text-rendering:geometricPrecision; image-rendering:optimizeQuality; fill-rule:evenodd; clip-rule:evenodd"
viewBox="0 0 2048 2048"
 xmlns:xlink="http://www.w3.org/1999/xlink">
 <defs>
  <style type="text/css">
   <![CDATA[
    .fil10 {fill:none}
    .fil8 {fill:#202020}
    .fil3 {fill:#414141}
    .fil6 {fill:#ADADAE}
    .fil9 {fill:#B1B1B1}
    .fil5 {fill:#B3B3B3}
    .fil1 {fill:#B7B7B7}
    .fil7 {fill:#B9BABA}
    .fil4 {fill:#BABABB}
    .fil0 {fill:#BEBEBE}
    .fil2 {fill:#C5C6C6}
   ]]>
  </style>
 </defs>
 <g id="Layer_x0020_1">
  <metadata id="CorelCorpID_0Corel-Layer"/>
  <g id="_514490768">
   <g>
    <g>
     <path id="_514512800" class="fil0" d="M512.001 788.382l0 -1.14685 0 -34.3051c0,-136.119 54.1808,-265.48 150.35,-361.65 96.1702,-96.169 225.53,-150.35 361.649,-150.35 136.119,0 265.481,54.1808 361.651,150.35 96.169,96.1702 150.35,225.533 150.35,361.65l0 35.4177 0 0.034252 -120.473 0 0 -0.165354 0 -35.2866c0,-104.123 -41.5099,-202.919 -115.06,-276.467 -73.5497,-73.5508 -172.347,-115.061 -276.469,-115.061 -104.123,0 -202.918,41.5111 -276.467,115.061 -73.5497,73.5473 -115.06,172.345 -115.06,276.467l0 34.4362 0 1.01575 -120.473 0z"/>
     <path id="_514491920" class="fil1" d="M1462.34 788.382l-46.8118 0 0 -0.165354 0 -35.2866c0,-104.123 -41.5099,-202.919 -115.06,-276.467 -73.5497,-73.5508 -172.347,-115.061 -276.469,-115.061 -104.123,0 -202.918,41.5111 -276.467,115.061 -73.5497,73.5473 -115.06,172.345 -115.06,276.467l0 34.4362 0 1.01575 -46.8118 0 0 -18.1772c0,-119.102 46.3855,-232.292 128.72,-316.439 82.3335,-84.1465 193.083,-131.555 309.618,-131.555 116.536,0 227.287,47.4083 309.62,131.555 82.3347,84.1465 128.72,197.338 128.72,316.439l0 18.1772z"/>
    </g>
    <g>
     <path id="_514489880" class="fil2" d="M466.007 767.984l45.9945 0 0 -0.852757 120.473 0 0 0.852757 783.055 0 0 -0.852757 120.473 0 0 0.852757 45.9945 0c22.5827,0 43.0914,9.21615 57.9378,24.0626 14.8465,14.8465 24.0626,35.3551 24.0626,57.9378l0 860.009c0,22.5827 -9.21615,43.0914 -24.0626,57.9378 -14.8465,14.8465 -35.3551,24.0626 -57.9378,24.0626l-1115.99 0c-22.5827,0 -43.0937,-9.21615 -57.9378,-24.0626 -14.8465,-14.8465 -24.0626,-35.3551 -24.0626,-57.9378l0 -860.009c0,-22.5827 9.21615,-43.0914 24.0626,-57.9378 14.8441,-14.8465 35.3551,-24.0626 57.9378,-24.0626z"/>
     <path id="_514484192" class="fil3" d="M1024 1027.63c31.989,0 60.9532,12.9685 81.9201,33.9355 20.9669,20.9669 33.9366,49.9323 33.9366,81.9213 0,16.6536 -3.62244,32.6339 -10.1327,47.1933 -4.78583,10.7008 -11.1602,20.55 -18.8268,29.25l0 198.728 0 28.9654 -1.0937 0c-1.32165,46.5461 -39.4642,83.8725 -86.3304,83.8725 -46.8662,0 -85.0087,-37.3264 -86.3304,-83.8725l-0.0389764 0 0 -2.49685 0 -26.4685 0 -198.727c-7.66654,-8.70119 -14.0421,-18.5492 -18.828,-29.25 -6.51024,-14.5595 -10.1327,-30.541 -10.1327,-47.1945 0,-31.989 12.9697,-60.9544 33.9366,-81.9213 20.9669,-20.9669 49.9311,-33.9355 81.9201,-33.9355z"/>
    </g>
    <g>
     <path id="_514507784" class="fil4" d="M466.007 767.984l1.49055 0 0 1024.01 -1.49055 0c-22.5827,0 -43.0937,-9.21615 -57.9378,-24.0626 -14.8465,-14.8465 -24.0626,-35.3551 -24.0626,-57.9378l0 -860.009c0,-22.5827 9.21615,-43.0914 24.0626,-57.9378 14.8441,-14.8465 35.3551,-24.0626 57.9378,-24.0626z"/>
     <path id="_514505552" class="fil4" d="M1580.51 767.984l1.49055 0c22.5827,0 43.0914,9.21615 57.9378,24.0626 14.8465,14.8465 24.0626,35.3551 24.0626,57.9378l0 860.009c0,22.5827 -9.21615,43.0914 -24.0626,57.9378 -14.8465,14.8465 -35.3551,24.0626 -57.9378,24.0626l-1.49055 0 0 -1024.01z"/>
    </g>
   </g>
   <g>
    <g>
     <polygon id="_514484768" class="fil5" points="512.001,788.382 512.001,787.235 512.001,767.992 632.474,767.992 632.474,787.366 632.474,788.382 "/>
     <path id="_514512200" class="fil6" d="M632.474 767.992l0 19.3736 0 1.01575 -46.8118 0 0 -18.1772c0,-0.73819 0.0106299,-1.47402 0.0141732,-2.21221l46.7977 0z"/>
    </g>
    <g>
     <path id="_514506128" class="fil7" d="M1024 1791.99l-557.997 0c-22.5827,0 -43.0937,-9.21615 -57.9378,-24.0626 -14.8465,-14.8465 -24.0626,-35.3551 -24.0626,-57.9378l0 -860.009c0,-22.5827 9.21615,-43.0914 24.0626,-57.9378 14.5984,-14.6008 34.6796,-23.7555 56.8193,-24.0543l559.115 0 0 1024z"/>
     <path id="_514487264" class="fil8" d="M1024 1027.63l0.00236221 0 0 503.859 -0.529134 0.00708662c-46.8662,0 -85.0087,-37.3264 -86.3304,-83.8725l-0.0389764 0 0 -2.49685 0 -26.4685 0 -198.727c-7.66654,-8.70119 -14.0421,-18.5492 -18.828,-29.25 -6.51024,-14.5595 -10.1327,-30.541 -10.1327,-47.1945 0,-31.989 12.9697,-60.9544 33.9366,-81.9213 20.9669,-20.9669 49.9311,-33.9355 81.9201,-33.9355z"/>
    </g>
    <path id="_514514144" class="fil9" d="M467.497 767.992l0 1024 -1.49055 0c-22.5827,0 -43.0937,-9.21615 -57.9378,-24.0626 -14.8465,-14.8465 -24.0626,-35.3551 -24.0626,-57.9378l0 -860.009c0,-22.5827 9.21615,-43.0914 24.0626,-57.9378 14.5984,-14.6008 34.6796,-23.7555 56.8193,-24.0543l2.60906 0z"/>
   </g>
  </g>
  <rect class="fil10" width="2048" height="2048"/>
 </g>
</svg>
