<?xml version="1.0" encoding="UTF-8"?>
<!DOCTYPE svg PUBLIC "-//W3C//DTD SVG 1.1//EN" "http://www.w3.org/Graphics/SVG/1.1/DTD/svg11.dtd">
<!-- Creator: CorelDRAW -->
<svg xmlns="http://www.w3.org/2000/svg" xml:space="preserve" width="2048px" height="2048px" style="shape-rendering:geometricPrecision; text-rendering:geometricPrecision; image-rendering:optimizeQuality; fill-rule:evenodd; clip-rule:evenodd"
viewBox="0 0 2048 2048"
 xmlns:xlink="http://www.w3.org/1999/xlink">
 <defs>
  <style type="text/css">
   <![CDATA[
    .fil3 {fill:none}
    .fil2 {fill:#424343}
    .fil1 {fill:#5C5C5C}
    .fil0 {fill:#858585}
   ]]>
  </style>
 </defs>
 <g id="Layer_x0020_1">
  <metadata id="CorelCorpID_0Corel-Layer"/>
  <g id="_514514744">
   <path id="_514502600" class="fil0" d="M1197.26 275.729c41.6528,9.61891 81.9556,22.5933 120.601,38.6185 39.3083,16.2992 76.9442,35.752 112.586,58.0323l26.7024 16.6937 -16.3276 26.9315 -50.5028 83.2985c30.4772,21.313 59.0056,45.2091 85.2615,71.367 26.4272,26.3256 50.5111,54.8351 71.9292,85.2048l83.7839 -50.1449 26.7851 -16.0311 16.5898 26.4071c22.6229,36.0118 42.2965,73.891 58.6878,113.304 16.161,38.8559 29.237,79.402 38.9162,121.325l7.06536 30.6036 -30.691 7.52245 -94.5131 23.1662c2.35866,13.2827 4.29803,26.6504 5.80394,40.0855 2.6811,23.9221 4.06063,47.9138 4.06063,71.8867 0,23.5382 -1.33937,47.1307 -3.9378,70.6878 -1.44095,13.0512 -3.30591,26.0988 -5.58308,39.1288l94.7741 23.804 30.3473 7.62166 -6.97205 30.5044c-9.53505,41.713 -22.5272,82.252 -38.6634,121.29 -16.4504,39.8032 -36,77.7201 -58.3217,113.426l-16.6949 26.7024 -26.9303 -16.3276 -83.3209 -50.5158c-21.3095,30.476 -45.2067,59.002 -71.3623,85.2579 -26.3268,26.4284 -54.8398,50.5122 -85.2119,71.9316l50.1615 83.8111 16.0311 26.7862 -26.4071 16.5886c-36.0177,22.624 -73.904,42.3012 -113.323,58.6937 -38.8559,16.1587 -79.3985,29.2323 -121.318,38.9044l-30.6047 7.06182 -7.52127 -30.6874 -23.1709 -94.5331c-13.2839,2.35866 -26.6504,4.29803 -40.0843,5.80394 -23.9221,2.6811 -47.9138,4.06063 -71.8867,4.06063 -23.5394,0 -47.1331,-1.33937 -70.6902,-3.93898 -13.0512,-1.43976 -26.0988,-3.30591 -39.1288,-5.58189l-23.8028 94.7705 -7.62166 30.3496 -30.5044 -6.97441c-42.1689,-9.64135 -82.982,-22.7374 -122.121,-38.9658 -39.665,-16.448 -77.7875,-36.2233 -114.025,-58.989l-26.4071 -16.591 16.0311 -26.7839 50.1449 -83.7816c-30.3638,-21.4099 -58.8662,-45.4878 -85.1847,-71.9079 -26.165,-26.2654 -50.067,-54.802 -71.3859,-85.2863l-83.2997 50.504 -26.9303 16.3276 -16.6949 -26.7024c-22.3229,-35.7083 -41.8748,-73.6253 -58.3311,-113.431 -16.1351,-39.0319 -29.1319,-79.5638 -38.6693,-121.273l-6.97441 -30.5032 30.3496 -7.62284 94.7646 -23.8016c-2.27599,-13.0217 -4.14213,-26.0646 -5.58071,-39.1099 -2.59961,-23.5642 -3.93898,-47.1638 -3.93898,-70.7079 0,-23.9658 1.38071,-47.9528 4.06063,-71.8701 1.50709,-13.4398 3.44764,-26.8122 5.8063,-40.1008l-94.5202 -23.1685 -30.6898 -7.52245 7.06418 -30.6036c9.67796,-41.9233 22.7528,-82.4717 38.9126,-121.331 16.3902,-39.4122 36.0626,-77.2926 58.6843,-113.304l16.5898 -26.4071 26.7851 16.0311 83.7946 50.1508c21.411,-30.365 45.489,-58.8662 71.9091,-85.1859 26.263,-26.1638 54.7996,-50.0646 85.2839,-71.3835l-50.5111 -83.3127 -16.3276 -26.9315 26.7024 -16.6937c35.7166,-22.3264 73.6418,-41.8843 113.454,-58.3406 39.0248,-16.1327 79.5497,-29.1225 121.254,-38.6516l30.5055 -6.96969 7.62048 30.3449 23.8028 94.7694c13.0228,-2.27599 26.0646,-4.14213 39.1111,-5.58071 23.5642,-2.59961 47.1638,-3.93898 70.7079,-3.93898 23.974,0 47.9705,1.37835 71.8973,4.06063 13.4315,1.50591 26.7945,3.44528 40.0737,5.80276l23.165 -94.5083 7.52245 -30.6921 30.6036 7.06654z"/>
   <path id="_514490864" class="fil1" d="M1024 584.468c121.369,0 231.253,49.1977 310.793,128.739 79.5414,79.5402 128.739,189.424 128.739,310.793 0,121.369 -49.1977,231.253 -128.739,310.793 -79.5402,79.5414 -189.424,128.739 -310.793,128.739 -121.369,0 -231.253,-49.1977 -310.793,-128.739 -79.5414,-79.5402 -128.739,-189.424 -128.739,-310.793 0,-121.369 49.1977,-231.253 128.739,-310.793 79.5402,-79.5414 189.424,-128.739 310.793,-128.739z"/>
   <path id="_514507040" class="fil0" d="M1024 832.001c53.0138,0 101.014,21.4925 135.761,56.2382 34.7457,34.7469 56.2382,82.7469 56.2382,135.761 0,53.0138 -21.4925,101.014 -56.2382,135.761 -34.7469,34.7457 -82.7469,56.2382 -135.761,56.2382 -53.0138,0 -101.014,-21.4925 -135.761,-56.2382 -34.7457,-34.7469 -56.2382,-82.7469 -56.2382,-135.761 0,-53.0138 21.4925,-101.014 56.2382,-135.761 34.7469,-34.7457 82.7469,-56.2382 135.761,-56.2382z"/>
   <path id="_514501424" class="fil2" d="M1024 863.998c44.1792,0 84.1796,17.9102 113.136,46.8662 28.9559,28.9559 46.8662,68.9564 46.8662,113.136 0,44.1792 -17.9102,84.1796 -46.8662,113.136 -28.9559,28.9559 -68.9564,46.8662 -113.136,46.8662 -44.1792,0 -84.1796,-17.9102 -113.136,-46.8662 -28.9559,-28.9559 -46.8662,-68.9564 -46.8662,-113.136 0,-44.1792 17.9102,-84.1796 46.8662,-113.136 28.9559,-28.9559 68.9564,-46.8662 113.136,-46.8662z"/>
  </g>
  <rect class="fil3" width="2048" height="2048"/>
 </g>
</svg>
