<?xml version="1.0" encoding="UTF-8"?>
<!DOCTYPE svg PUBLIC "-//W3C//DTD SVG 1.1//EN" "http://www.w3.org/Graphics/SVG/1.1/DTD/svg11.dtd">
<!-- Creator: CorelDRAW -->
<svg xmlns="http://www.w3.org/2000/svg" xml:space="preserve" width="2048px" height="2048px" style="shape-rendering:geometricPrecision; text-rendering:geometricPrecision; image-rendering:optimizeQuality; fill-rule:evenodd; clip-rule:evenodd"
viewBox="0 0 2048 2048"
 xmlns:xlink="http://www.w3.org/1999/xlink"
 version="1.1"
 enable-background="new 0 0 512 512">
 <defs>
  <style type="text/css">
   <![CDATA[
    .fil6 {fill:none}
    .fil1 {fill:#404040}
    .fil5 {fill:#444444}
    .fil4 {fill:#5D5D5D}
    .fil3 {fill:#868686}
    .fil0 {fill:#BDBDBD}
    .fil2 {fill:#C5C6C6}
   ]]>
  </style>
 </defs>
 <g id="Layer_x0020_1">
  <metadata id="CorelCorpID_0Corel-Layer"/>
  <g id="_514501040">
   <g>
    <polygon id="_514512224" class="fil0" points="639.237,255.999 1208.94,255.999 1208.94,1697.28 255.999,1697.28 255.999,639.237 "/>
    <rect id="_514500008" class="fil1" x="398.657" y="867.978" width="667.628" height="667.628" rx="64.7375" ry="64.7375"/>
    <rect id="_514514600" class="fil2" x="415.08" y="884.401" width="634.782" height="634.782" rx="54.4619" ry="54.4619"/>
    <path id="_514485224" class="fil1" d="M621.78 867.979l-37.2331 0 -0.00236221 439.657 -177.18 0 0 37.2331 177.182 0.00236221 0 182.399 37.2331 0 0 -182.399 86.2276 0 0 182.399 37.2331 0 0 -182.399 85.4009 0 0 182.399 37.2331 0 0.00236221 -431.322 189.699 0 0 -37.2331 -189.702 -0.00236221 0 -190.734 -37.2331 0 0 190.734 -85.4009 0 0 -190.734 -37.2331 0 0 190.734 -86.2276 0 0 -190.734zm-0.00236221 439.655l0 -211.688 208.866 0.00354331 0 211.689 -208.866 -0.00472441z"/>
   </g>
   <g>
    <path id="_514490648" class="fil3" d="M1470.76 962.398c22.9784,5.3067 45.2103,12.4642 66.5292,21.3036 21.6851,8.99174 42.4465,19.7232 62.1083,32.0138l14.7295 9.20906 -9.00709 14.8559 -27.8587 45.952c16.8118,11.7567 32.55,24.939 47.0339,39.3685 14.5784,14.5228 27.8634,30.2492 39.6792,47.0032l46.2189 -27.6626 14.7756 -8.84292 9.15119 14.5665c12.4807,19.8662 23.3327,40.7622 32.3752,62.504 8.91497,21.4347 16.128,43.8024 21.4677,66.9284l3.89764 16.8827 -16.9299 4.14922 -52.1386 12.7795c1.30158,7.32756 2.37166,14.7024 3.20197,22.1138 1.47874,13.1965 2.24055,26.4307 2.24055,39.6555 0,12.985 -0.739371,25.9996 -2.17205,38.9941 -0.794883,7.20001 -1.82362,14.3976 -3.08032,21.5858l52.2815 13.1315 16.741 4.20355 -3.84567 16.8284c-5.26063,23.0103 -12.4276,45.3733 -21.3284,66.9083 -9.0756,21.9579 -19.8603,42.874 -32.1733,62.5713l-9.21024 14.7295 -14.8559 -9.00709 -45.9626 -27.8658c-11.7555,16.8118 -24.939,32.5477 -39.3674,47.0315 -14.5228,14.5795 -30.2516,27.8646 -47.0067,39.6803l27.6721 46.2343 8.84292 14.7768 -14.5677 9.15119c-19.8685,12.4795 -40.7681,23.3351 -62.5134,32.3776 -21.4347,8.91379 -43.8,16.1256 -66.9249,21.4618l-16.8827 3.89528 -4.14922 -16.9288 -12.7819 -52.1493c-7.32756,1.30158 -14.7012,2.37166 -22.1126,3.20197 -13.1965,1.47874 -26.4307,2.24055 -39.6555,2.24055 -12.985,0 -26.0008,-0.739371 -38.9965,-2.17323 -7.19882,-0.793701 -14.3965,-1.82362 -21.5847,-3.07914l-13.1303 52.2792 -4.20473 16.7421 -16.8272 -3.84685c-23.263,-5.31851 -45.7772,-12.5433 -67.3678,-21.4949 -21.8811,-9.07324 -42.9118,-19.9831 -62.902,-32.5418l-14.5665 -9.15237 8.84292 -14.7744 27.6626 -46.2178c-16.7504,-11.811 -32.4733,-25.0937 -46.9914,-39.6674 -14.4343,-14.4898 -27.6201,-30.2315 -39.3803,-47.0481l-45.952 27.8599 -14.8559 9.00709 -9.20906 -14.7295c-12.3142,-19.6984 -23.1,-40.6158 -32.178,-62.5737 -8.90079,-21.5315 -16.0701,-43.891 -21.3319,-66.9001l-3.84685 -16.8272 16.7421 -4.20473 52.2756 -13.1303c-1.25551,-7.18347 -2.28425,-14.3776 -3.07796,-21.574 -1.43386,-12.9992 -2.17323,-26.0185 -2.17323,-39.0059 0,-13.2213 0.761812,-26.4532 2.24055,-39.6473 0.830316,-7.41379 1.90158,-14.791 3.20197,-22.1209l-52.141 -12.7807 -16.9299 -4.1504 3.89646 -16.8815c5.33977,-23.1272 12.5516,-45.4949 21.4666,-66.9319 9.04135,-21.7417 19.8933,-42.6378 32.3729,-62.504l9.15119 -14.5665 14.7756 8.84292 46.2248 27.665c11.8122,-16.7504 25.0937,-32.4733 39.6685,-46.9914 14.4886,-14.4331 30.2303,-27.6189 47.0469,-39.3792l-27.8646 -45.9591 -9.00709 -14.8559 14.7307 -9.20906c19.7032,-12.3165 40.624,-23.1059 62.5867,-32.1839 21.528,-8.89961 43.8827,-16.0654 66.8894,-21.3213l16.8272 -3.84449 4.20473 16.7386 13.1303 52.2792c7.18347,-1.25551 14.3788,-2.28425 21.5752,-3.07796 12.9992,-1.43386 26.0173,-2.17323 39.0059,-2.17323 13.2248,0 26.4626,0.760631 39.6614,2.24055 7.40906,0.830316 14.7815,1.9004 22.1067,3.20079l12.7784 -52.1351 4.1504 -16.9311 16.8815 3.89764z"/>
    <path id="_514510376" class="fil4" d="M1375.18 1132.71c66.952,0 127.57,27.1394 171.448,71.0174 43.878,43.878 71.0174,104.495 71.0174,171.448 0,66.952 -27.1394,127.57 -71.0174,171.448 -43.878,43.878 -104.496,71.0174 -171.448,71.0174 -66.9532,0 -127.57,-27.1394 -171.448,-71.0174 -43.878,-43.878 -71.0174,-104.496 -71.0174,-171.448 0,-66.9532 27.1394,-127.57 71.0174,-171.448 43.878,-43.878 104.495,-71.0174 171.448,-71.0174z"/>
    <path id="_514500416" class="fil3" d="M1375.18 1269.26c29.2453,0 55.7233,11.8559 74.8914,31.024 19.1681,19.1669 31.024,45.6461 31.024,74.8914 0,29.2453 -11.8559,55.7233 -31.024,74.8914 -19.1681,19.1681 -45.6461,31.024 -74.8914,31.024 -29.2453,0 -55.7245,-11.8559 -74.8914,-31.024 -19.1681,-19.1681 -31.024,-45.6461 -31.024,-74.8914 0,-29.2453 11.8559,-55.7245 31.024,-74.8914 19.1669,-19.1681 45.6461,-31.024 74.8914,-31.024z"/>
    <path id="_514488656" class="fil5" d="M1375.18 1286.91c24.3709,0 46.4374,9.87993 62.4107,25.8532 15.9732,15.9732 25.8532,38.0398 25.8532,62.4107 0,24.3709 -9.87993,46.4374 -25.8532,62.4107 -15.9732,15.9732 -38.0398,25.8532 -62.4107,25.8532 -24.3709,0 -46.4374,-9.87993 -62.4107,-25.8532 -15.9732,-15.9732 -25.8532,-38.0398 -25.8532,-62.4107 0,-24.3709 9.87993,-46.4374 25.8532,-62.4107 15.9732,-15.9732 38.0398,-25.8532 62.4107,-25.8532z"/>
   </g>
  </g>
  <rect class="fil6" width="2048" height="2048"/>
 </g>
</svg>
