<?xml version="1.0" encoding="UTF-8"?>
<!DOCTYPE svg PUBLIC "-//W3C//DTD SVG 1.1//EN" "http://www.w3.org/Graphics/SVG/1.1/DTD/svg11.dtd">
<!-- Creator: CorelDRAW -->
<svg xmlns="http://www.w3.org/2000/svg" xml:space="preserve" width="2048px" height="2048px" style="shape-rendering:geometricPrecision; text-rendering:geometricPrecision; image-rendering:optimizeQuality; fill-rule:evenodd; clip-rule:evenodd"
viewBox="0 0 2048 2048"
 xmlns:xlink="http://www.w3.org/1999/xlink">
 <defs>
  <style type="text/css">
   <![CDATA[
    .fil0 {fill:none}
    .fil2 {fill:#151415}
    .fil3 {fill:#2F2F2F}
    .fil1 {fill:#9E9E9E}
    .fil4 {fill:#444444;fill-rule:nonzero}
    .fil5 {fill:#6C6C6C;fill-rule:nonzero}
    .fil7 {fill:#909090;fill-rule:nonzero}
    .fil6 {fill:#AEAEAF;fill-rule:nonzero}
    .fil8 {fill:#CFCFD0;fill-rule:nonzero}
   ]]>
  </style>
 </defs>
 <g id="Layer_x0020_1">
  <metadata id="CorelCorpID_0Corel-Layer"/>
  <rect class="fil0" width="2048" height="2048"/>
  <g id="_514495664">
   <g>
    <path id="_514513304" class="fil1" d="M1644.14 1693.55l0 38.6032c0,33.052 -277.647,59.8453 -620.143,59.8453 -342.496,0 -620.143,-26.7933 -620.143,-59.8453l0 -38.6032c111.416,22.2154 347.231,37.539 620.143,37.539 272.912,0 508.727,-15.3236 620.143,-37.539z"/>
    <ellipse id="_514487000" class="fil2" cx="1024" cy="1321.36" rx="688.566" ry="66.4478"/>
    <path id="_514494152" class="fil3" d="M1712.57 1315.81l0 348.833c0,36.6992 -308.282,66.4489 -688.567,66.4489 -380.285,0 -688.567,-29.7496 -688.567,-66.4489l0 -348.833c0,36.6981 308.282,66.4477 688.567,66.4477 380.285,0 688.567,-29.7496 688.567,-66.4477z"/>
    <path id="_514483784" class="fil1" d="M1477.65 1183.81l50.2158 121.904c-125.704,13.0205 -304.911,21.1666 -503.865,21.1666 -198.953,0 -378.161,-8.14607 -503.865,-21.1666l50.2158 -121.904 907.298 0z"/>
    <path id="_514502432" class="fil4" d="M1644.14 1526.79c-57.1111,9.87284 -118.062,16.5886 -180.91,21.4949 -64.4363,5.02914 -132.357,8.22875 -200.441,11.015l0 -38.6693c66.0438,-2.71063 132.386,-5.86772 197.567,-10.9547 64.7209,-5.05158 126.85,-11.941 183.784,-22.0843l0 39.1985z"/>
    <path id="_514483496" class="fil5" d="M706.935 1517.96c22.6819,1.08307 45.3839,2.05512 68.0493,2.97992l-1.51417 38.6079c-22.2295,-0.907087 -44.4473,-1.85551 -66.5351,-2.89488l0 -38.6929z"/>
    <path id="_514501184" class="fil6" d="M599.385 1511.75c23.5618,1.65709 47.25,3.08977 70.9949,4.36654l0 38.7213c-23.9457,-1.26496 -47.6622,-2.66929 -70.9949,-4.28268l0 -38.8051z"/>
    <path id="_514507736" class="fil7" d="M491.835 1502.2c23.1921,2.57481 46.9016,4.80945 70.9949,6.77481l0 38.8418c-23.9918,-1.93583 -47.6918,-4.14449 -70.9949,-6.7004l0 -38.9162z"/>
    <path id="_514504736" class="fil8" d="M387.492 1487.35c21.8693,3.9378 44.517,7.38898 67.7894,10.4374l0 38.9764c-23.1898,-2.98937 -45.9118,-6.38032 -68.0504,-10.2496l0 -37.7114 0.261024 -1.45276z"/>
   </g>
   <g>
    <ellipse id="_514496456" class="fil2" cx="1024" cy="859.878" rx="688.566" ry="66.4478"/>
    <path id="_514503224" class="fil3" d="M1712.57 854.33l0 348.834c0,36.6981 -308.282,66.4477 -688.567,66.4477 -380.285,0 -688.567,-29.7496 -688.567,-66.4477l0 -348.834c0,36.6992 308.282,66.4477 688.567,66.4477 380.285,0 688.567,-29.7484 688.567,-66.4477z"/>
    <path id="_514486208" class="fil1" d="M1477.65 722.331l50.2158 121.905c-125.704,13.0193 -304.911,21.1654 -503.865,21.1654 -198.953,0 -378.161,-8.14607 -503.865,-21.1654l50.2158 -121.905 907.298 0z"/>
    <path id="_514499264" class="fil4" d="M1644.14 1065.31c-57.1111,9.87284 -118.062,16.5898 -180.91,21.4949 -64.4363,5.03032 -132.357,8.22875 -200.441,11.015l0 -38.6693c66.0438,-2.70945 132.386,-5.86772 197.567,-10.9547 64.7209,-5.05158 126.85,-11.941 183.784,-22.0831l0 39.1973z"/>
    <path id="_514512416" class="fil5" d="M706.935 1056.48c22.6819,1.08307 45.3839,2.05512 68.0493,2.97992l-1.51417 38.6079c-22.2295,-0.905906 -44.4473,-1.85433 -66.5351,-2.89488l0 -38.6929z"/>
    <path id="_514501928" class="fil6" d="M599.385 1050.27c23.5618,1.65709 47.25,3.09095 70.9949,4.36654l0 38.7213c-23.9457,-1.26378 -47.6622,-2.66929 -70.9949,-4.28268l0 -38.8051z"/>
    <path id="_514505024" class="fil7" d="M491.835 1040.72c23.1921,2.57481 46.9016,4.80945 70.9949,6.77481l0 38.8418c-23.9918,-1.93465 -47.6918,-4.14331 -70.9949,-6.7004l0 -38.9162z"/>
    <path id="_514510136" class="fil8" d="M387.492 1025.87c21.8693,3.9378 44.517,7.38898 67.7894,10.4386l0 38.9752c-23.1898,-2.98937 -45.9118,-6.38032 -68.0504,-10.2496l0 -37.7114 0.261024 -1.45276z"/>
   </g>
   <g>
    <ellipse id="_514489376" class="fil2" cx="1024" cy="393.546" rx="688.566" ry="66.4478"/>
    <path id="_514508144" class="fil3" d="M1712.57 387.998l0 348.833c0,36.6992 -308.282,66.4477 -688.567,66.4477 -380.285,0 -688.567,-29.7484 -688.567,-66.4477l0 -348.833c0,36.6981 308.282,66.4477 688.567,66.4477 380.285,0 688.567,-29.7496 688.567,-66.4477z"/>
    <path id="_514511672" class="fil1" d="M1477.65 255.999l50.2158 121.904c-125.704,13.0205 -304.911,21.1654 -503.865,21.1654 -198.953,0 -378.161,-8.14489 -503.865,-21.1654l50.2158 -121.904 907.298 0z"/>
    <path id="_514499240" class="fil4" d="M1644.14 598.984c-57.1111,9.87284 -118.062,16.5886 -180.91,21.4949 -64.4363,5.02914 -132.357,8.22875 -200.441,11.015l0 -38.6705c66.0438,-2.70945 132.386,-5.86654 197.567,-10.9536 64.7209,-5.05158 126.85,-11.941 183.784,-22.0843l0 39.1985z"/>
    <path id="_514488368" class="fil5" d="M706.935 590.15c22.6819,1.08189 45.3839,2.05512 68.0493,2.97992l-1.51417 38.6079c-22.2295,-0.907087 -44.4473,-1.85551 -66.5351,-2.89488l0 -38.6929z"/>
    <path id="_514494536" class="fil6" d="M599.385 583.935c23.5618,1.65709 47.25,3.08977 70.9949,4.36654l0 38.7213c-23.9457,-1.26496 -47.6622,-2.66929 -70.9949,-4.28268l0 -38.8051z"/>
    <path id="_514482296" class="fil7" d="M491.835 574.391c23.1921,2.57481 46.9016,4.80945 70.9949,6.77481l0 38.8418c-23.9918,-1.93583 -47.6918,-4.14449 -70.9949,-6.7004l0 -38.9162z"/>
    <path id="_514482968" class="fil8" d="M387.492 559.541c21.8693,3.93662 44.517,7.38898 67.7894,10.4374l0 38.9764c-23.1898,-2.98937 -45.9118,-6.38032 -68.0504,-10.2496l0 -37.7114 0.261024 -1.45276z"/>
   </g>
  </g>
  <rect class="fil0" width="2048" height="2048"/>
 </g>
</svg>
