<?xml version="1.0" encoding="UTF-8"?>
<!DOCTYPE svg PUBLIC "-//W3C//DTD SVG 1.1//EN" "http://www.w3.org/Graphics/SVG/1.1/DTD/svg11.dtd">
<!-- Creator: CorelDRAW -->
<svg xmlns="http://www.w3.org/2000/svg" xml:space="preserve" width="2048px" height="2048px" style="shape-rendering:geometricPrecision; text-rendering:geometricPrecision; image-rendering:optimizeQuality; fill-rule:evenodd; clip-rule:evenodd"
viewBox="0 0 2048 2048"
 xmlns:xlink="http://www.w3.org/1999/xlink">
 <defs>
  <style type="text/css">
   <![CDATA[
    .fil11 {fill:none}
    .fil4 {fill:#6C6C6C}
    .fil5 {fill:#9C9C9D}
    .fil9 {fill:#ADADAE}
    .fil3 {fill:#AEAEAF}
    .fil7 {fill:#BEBEBE}
    .fil2 {fill:gainsboro}
    .fil10 {fill:#5E5E5E;fill-rule:nonzero}
    .fil0 {fill:#838383;fill-rule:nonzero}
    .fil1 {fill:#A5A5A6;fill-rule:nonzero}
    .fil8 {fill:#C5C5C5;fill-rule:nonzero}
    .fil6 {fill:#D7D7D7;fill-rule:nonzero}
   ]]>
  </style>
 </defs>
 <g id="Layer_x0020_1">
  <metadata id="CorelCorpID_0Corel-Layer"/>
  <g id="_514493024">
   <path id="_514484216" class="fil0" d="M1024 800.972c206.646,0 394.411,30.9508 530.93,80.9859 146.473,53.6859 237.07,132.092 237.07,222.492 0,90.3993 -90.5977,168.808 -237.07,222.492 -136.52,50.0363 -324.284,80.9859 -530.93,80.9859 -101.354,0 -134.523,-17.6894 -134.523,-51.2859 0,-24.424 18.6473,-40.1599 41.6705,-59.5867 21.2528,-17.9315 49.0276,-41.3693 49.0276,-60.3331 0,-43.5237 -46.402,-58.4859 -112.991,-60.5894 -64.0004,0 -237.269,17.2288 -312.686,29.1012 -45.9485,5.22402 -89.7804,9.02245 -128.539,9.02245 -100.341,0 -169.96,-25.2437 -169.96,-109.806 0,-79.2627 69.652,-149.302 185.544,-201.543 77.0599,-36.554 191.88,-64.4434 254.544,-74.1485l0 0.0011811c99.2599,-17.798 210.538,-27.7866 327.913,-27.7866z"/>
   <path id="_514503968" class="fil1" d="M1024 800.972c206.646,0 394.411,29.7815 530.93,77.9268 146.473,51.6579 237.07,127.103 237.07,214.088 0,86.9847 -90.5977,162.431 -237.07,214.088 -136.52,48.1465 -324.284,77.928 -530.93,77.928 -101.354,0 -134.523,-17.0232 -134.523,-49.35 0,-23.5004 18.6473,-38.6433 41.6705,-57.3355 21.2528,-17.2547 49.0276,-39.8067 49.0276,-58.0548 0,-41.8796 -46.402,-56.2772 -112.991,-58.3004 -64.0004,0 -237.269,16.578 -312.686,28.0028 -45.9485,5.02559 -89.7804,8.68111 -128.539,8.68111 -100.341,0 -169.96,-24.2906 -169.96,-105.659 0,-76.2686 69.652,-143.662 185.544,-193.931 77.0599,-35.1733 191.88,-62.0091 254.544,-71.3481l0 0.0011811c99.2599,-17.126 210.538,-26.7366 327.913,-26.7366z"/>
   <ellipse id="_514487912" class="fil2" cx="858.17" cy="928.806" rx="133.825" ry="51.2429"/>
   <ellipse id="_514490192" class="fil3" cx="1184.04" cy="922.739" rx="128.049" ry="56.8736"/>
   <ellipse id="_514486520" class="fil4" cx="1311.99" cy="1206.55" rx="128" ry="48.6691"/>
   <ellipse id="_514488680" class="fil5" cx="1471.95" cy="1020.08" rx="128.049" ry="56.8736"/>
   <g>
    <g>
     <path id="_514494752" class="fil6" d="M501.18 613.315c15.0189,18.3862 33.5386,49.7351 49.591,76.2568 44.2429,73.0997 97.2603,177.639 148.714,296.476l2.80512 6.49725c51.5091,119.625 97.2579,246.5 139.407,375.121 42.4441,129.527 80.4603,258.134 116.994,382.836 4.97008,17.1484 -4.71142,35.1366 -21.6248,40.1764 -15.0815,4.49292 -30.8209,-2.8252 -37.5768,-16.6205 -66.5552,-113.329 -134.218,-229.84 -196.472,-344.861 -64.0052,-118.256 -124.422,-238.445 -176.212,-358.724 -51.8705,-120.468 -92.2406,-232.605 -115.571,-316.516 -9.18308,-33.026 -17.4154,-74.4355 -20.3693,-99.8552 54.4264,10.1551 73.8674,13.6854 110.315,-40.787z"/>
     <path id="_514496600" class="fil7" d="M390.865 654.102c2.95394,25.4197 11.1862,66.8292 20.3693,99.8552 11.576,41.6363 27.3484,90.2209 46.6382,143.326 5.34804,14.7213 10.9654,29.7886 16.839,45.1524 69.404,-2.67874 125.428,-29.5323 173.088,-70.0182 -3.63544,-7.60394 -7.2626,-15.1075 -10.8756,-22.5036 -30.3733,-62.1768 -59.8182,-116.829 -86.1532,-160.342 -16.0524,-26.5217 -34.5721,-57.8705 -49.591,-76.2568 -6.3189,19.7528 -20.0232,35.7461 -43.6689,46.2721l-3.75 1.3937c-22.4729,6.77245 -43.578,3.71457 -62.8961,-6.87875z"/>
    </g>
    <path id="_514513160" class="fil8" d="M937.205 1790.64l-0.13937 0.0425197c-15.0815,4.49292 -30.8209,-2.8252 -37.5768,-16.6205 -66.5552,-113.329 -134.218,-229.84 -196.472,-344.861 -64.0052,-118.256 -124.422,-238.445 -176.212,-358.724 -51.8705,-120.468 -92.2406,-232.605 -115.571,-316.516 -9.18308,-33.026 -17.4154,-74.4355 -20.3693,-99.8552 33.0118,6.15945 53.152,9.87875 72.0237,-0.301181l474.317 1136.83z"/>
    <path id="_514490720" class="fil9" d="M390.865 654.102c2.95394,25.4197 11.1862,66.8292 20.3693,99.8552 11.576,41.6363 27.3484,90.2209 46.6382,143.326 5.34804,14.7213 10.9654,29.7886 16.839,45.1524 36.4937,-1.40906 69.2882,-9.50552 99.1123,-22.7492l-109.836 -263.249c-2.07047,1.09843 -4.22835,2.14843 -6.47717,3.15l-3.75 1.3937c-22.4729,6.77245 -43.578,3.71457 -62.8961,-6.87875z"/>
    <path id="_514493816" class="fil10" d="M484.725 486.122c33.7335,77.9138 45.6863,150.533 -20.6811,180.073l-3.75 1.3937c-22.4729,6.77245 -43.578,3.71457 -62.8961,-6.87875 -26.4083,-14.4827 -48.0461,-43.4233 -63.6792,-79.3182 -14.1992,-32.6055 -23.9776,-71.9871 -27.9815,-111.229 -6.76654,-66.3154 3.43347,-133.919 36.8256,-172.265l36.4866 -41.8996 17.6386 53.0528c5.63032,16.937 20.55,44.739 37.389,76.1186 17.041,31.7563 35.9292,66.9567 50.6481,100.952z"/>
   </g>
  </g>
  <rect class="fil11" width="2048" height="2048"/>
 </g>
</svg>
