<?xml version="1.0" encoding="UTF-8"?>
<!DOCTYPE svg PUBLIC "-//W3C//DTD SVG 1.1//EN" "http://www.w3.org/Graphics/SVG/1.1/DTD/svg11.dtd">
<!-- Creator: CorelDRAW -->
<svg xmlns="http://www.w3.org/2000/svg" xml:space="preserve" width="2048px" height="2048px" style="shape-rendering:geometricPrecision; text-rendering:geometricPrecision; image-rendering:optimizeQuality; fill-rule:evenodd; clip-rule:evenodd"
viewBox="0 0 2048 2048"
 xmlns:xlink="http://www.w3.org/1999/xlink">
 <defs>
  <style type="text/css">
   <![CDATA[
    .fil19 {fill:none}
    .fil7 {fill:#202020}
    .fil4 {fill:#2F2F2F}
    .fil16 {fill:#313131}
    .fil6 {fill:#414141}
    .fil18 {fill:#616161}
    .fil15 {fill:#656666}
    .fil11 {fill:#6A6A6A}
    .fil14 {fill:#6C6C6C}
    .fil10 {fill:#767676}
    .fil8 {fill:#959595}
    .fil1 {fill:#B0B0B0}
    .fil0 {fill:#BFC0C0}
    .fil3 {fill:#D0D0D1}
    .fil12 {fill:#D1D1D1}
    .fil9 {fill:#E1E1E2}
    .fil5 {fill:black;fill-rule:nonzero}
    .fil17 {fill:#616161;fill-rule:nonzero}
    .fil13 {fill:#6C6C6C;fill-rule:nonzero}
    .fil2 {fill:white;fill-rule:nonzero}
   ]]>
  </style>
 </defs>
 <g id="Layer_x0020_1">
  <metadata id="CorelCorpID_0Corel-Layer"/>
  <g id="_514495472">
   <g>
    <path id="_508359024" class="fil0" d="M255.999 770.173c0,143.883 59.3587,273.894 154.919,366.893 134.101,130.507 162.106,183.675 164.006,230.235 0.236221,5.8063 0.255118,69.1938 0.255118,74.9351 136.533,0 248.586,0 385.119,0 0,-6.9756 0.0283465,-71.5808 0.441733,-78.6993 2.65984,-45.704 33.8374,-99.4666 164.34,-226.471 95.5595,-92.9989 154.919,-223.01 154.919,-366.893 0,-282.741 -229.224,-511.986 -511.969,-511.986 -282.784,0 -512.031,229.192 -512.031,511.986z"/>
    <path id="_508357440" class="fil1" d="M767.999 1442.24l0.287008 0 192.012 0c0,-6.9756 0.0283465,-71.5808 0.441733,-78.6993 2.65984,-45.704 33.8374,-99.4666 164.34,-226.471 95.5595,-92.9989 154.919,-223.01 154.919,-366.893 0,-282.379 -228.64,-511.387 -510.889,-511.972 -0.360236,-0.0011811 -0.719292,-0.0141732 -1.08071,-0.0141732l-0.0307087 0 0 1184.05z"/>
    <path id="_508361184" class="fil0" d="M255.999 770.173c0,143.883 59.3587,273.894 154.919,366.893 134.101,130.507 162.106,183.675 164.006,230.235 0.236221,5.8063 0.255118,69.1938 0.255118,74.9351l192.82 0 0 -1184.05c-282.77,0.0165354 -512,229.203 -512,511.986z"/>
    <path id="_508361616" class="fil2" d="M576.95 793.525c-2.00551,1.87559 -5.15552,1.77047 -7.03111,-0.23504 -1.87559,-2.00551 -1.77047,-5.15552 0.23504,-7.03111 0.444095,-0.415748 3.9,-3.84803 8.1189,-8.03741 4.22481,-4.19528 9.24568,-9.1819 13.0595,-12.9201 9.42402,-9.23741 20.113,-16.3158 31.5744,-18.9189 10.1976,-2.31496 20.8595,-1.10669 31.6051,5.19331 2.53347,1.48583 4.9937,3.19725 7.33819,5.0752 1.45512,-1.91929 3.19843,-3.60118 5.16024,-5.04331 6.08268,-4.4752 14.3799,-6.66733 22.5851,-6.63544 8.19449,0.0318898 16.448,2.28543 22.4516,6.70158 1.67126,1.22953 3.17953,2.62914 4.47992,4.19528 0.641339,-0.442914 1.28976,-0.868111 1.94764,-1.27323 7.09253,-4.37481 15.0815,-6.56339 23.0705,-6.56457l0 -0.0200788c7.9689,0 15.9567,2.19567 23.0717,6.58347 0.659056,0.4063 1.30866,0.831497 1.95118,1.27559 1.27205,-1.52835 2.74843,-2.89488 4.38544,-4.10079 6.16182,-4.53189 14.7437,-6.80079 23.2288,-6.80079 8.48386,0 17.0646,2.26654 23.2288,6.80079 1.96654,1.44567 3.7004,3.12756 5.12599,5.04095 0.377953,-0.291733 0.759449,-0.577559 1.14213,-0.859843 5.32678,-3.91772 11.1709,-6.96142 17.0327,-8.71182 6.11103,-1.8248 12.2976,-2.26181 18.052,-0.870473 5.88189,1.42323 11.1969,4.7067 15.3898,10.2874 5.02678,-4.06536 10.5744,-7.34882 16.2225,-9.28938 8.59371,-2.95158 18.0673,-1.92166 27.1181,1.32638 10.6677,3.82677 20.8229,10.7941 28.0701,17.7886 2.21221,2.13425 10.1858,9.97324 16.5827,16.6228 3.88819,4.04292 7.25434,7.71733 8.59135,9.62363 1.58504,2.25355 1.04291,5.36811 -1.21063,6.95315 -2.25355,1.58504 -5.36811,1.04291 -6.95315,-1.21063 -1.03228,-1.47165 -4.05118,-4.74685 -7.61575,-8.45198 -6.29882,-6.54804 -14.1366,-14.2524 -16.3087,-16.3488 -6.38977,-6.16772 -15.274,-12.2858 -24.515,-15.6012 -7.05473,-2.5311 -14.2654,-3.39567 -20.5158,-1.24843 -4.80355,1.65 -9.57757,4.55906 -13.911,8.1815 9.67087,16.4008 10.0417,29.6847 6.42284,38.6445 -2.69528,6.67323 -7.62402,11.0941 -12.8599,12.9059 -5.77441,1.99725 -11.902,0.923623 -16.2579,-3.58701 -4.54961,-4.71496 -6.88819,-13.252 -3.83622,-25.878 1.8815,-7.78347 6.94016,-16.3134 13.6406,-23.5583l-0.517323 -0.711024c-2.72244,-3.70158 -6.13347,-5.85591 -9.87993,-6.76182 -3.92717,-0.948426 -8.34804,-0.591733 -12.8575,0.754725 -4.75867,1.42087 -9.56103,3.93425 -13.9854,7.18819 -0.510237,0.37441 -1.01339,0.759449 -1.51181,1.15276 9.58583,16.3323 9.94371,29.5607 6.33426,38.4945 -2.69528,6.67323 -7.62402,11.0941 -12.8587,12.9059 -5.77441,1.99725 -11.9032,0.924804 -16.2579,-3.58701 -4.55079,-4.71496 -6.88938,-13.252 -3.8374,-25.878 2.0374,-8.42717 7.06182,-16.6854 13.6335,-23.5677l-0.510237 -0.701575c-0.819686,-1.11378 -1.85669,-2.11772 -3.0567,-3 -4.3937,-3.2315 -10.8154,-4.84725 -17.3303,-4.84725 -6.51733,0 -12.939,1.61811 -17.3303,4.84725 -1.05,0.772442 -1.9748,1.63701 -2.73898,2.58662 5.79095,6.22087 10.3323,14.452 12.8055,24.6827 3.05197,12.626 0.713386,21.163 -3.83622,25.878 -4.35355,4.51063 -10.4835,5.58308 -16.2579,3.58701 -5.23465,-1.81181 -10.1634,-6.23268 -12.8587,-12.9059 -3.68622,-9.1252 -3.23268,-22.7362 6.96851,-39.5575 -0.510237,-0.354331 -1.02874,-0.693308 -1.55197,-1.01575 -5.46851,-3.37205 -11.6457,-5.05985 -17.837,-5.05985l0 -0.0200788c-6.1689,0 -12.3473,1.69488 -17.8358,5.08111 -0.522048,0.322441 -1.04055,0.660237 -1.54961,1.01339 10.2024,16.8213 10.6571,30.4323 6.97087,39.5575 -2.69528,6.67323 -7.62402,11.0941 -12.8587,12.9059 -5.77559,1.99843 -11.9043,0.923623 -16.2579,-3.58701 -4.55197,-4.71378 -6.88938,-13.2508 -3.8374,-25.8768 2.47323,-10.2307 7.01457,-18.463 12.8055,-24.6839 -0.79252,-0.988583 -1.74921,-1.88386 -2.83347,-2.6811 -4.2874,-3.15355 -10.3996,-4.76457 -16.5933,-4.78819 -6.18544,-0.0236221 -12.3165,1.53662 -16.6465,4.72205 -1.24961,0.918898 -2.33858,1.9748 -3.21142,3.16181l-0.490158 0.672048c1.15984,1.24606 2.26772,2.52638 3.31418,3.83032 5.08111,6.33308 8.80985,13.3299 10.3193,19.8248 2.9504,12.6886 0.518504,21.2516 -4.09961,25.9571 -4.37244,4.45512 -10.4693,5.49804 -16.2012,3.4937 -5.19922,-1.81772 -10.0772,-6.22914 -12.7441,-12.874 -3.60236,-8.97638 -3.20551,-22.298 6.50434,-38.7402 -2.17559,-1.80236 -4.46693,-3.42756 -6.82678,-4.81181 -8.33505,-4.88622 -16.5532,-5.83583 -24.3792,-4.05945 -9.46772,2.15079 -18.5693,8.26418 -26.7697,16.3016 -3.83622,3.76063 -8.82284,8.713 -13.0193,12.8799 -3.98268,3.95551 -7.23426,7.18583 -8.35512,8.23347zm87.7973 -19.9547c-0.361418,-0.45 -0.731103,-0.897638 -1.10906,-1.34055 -6.67914,12.1902 -7.07008,21.5882 -4.58504,27.7807 1.52244,3.79252 4.10079,6.23859 6.76772,7.17166 2.13425,0.746457 4.32874,0.437008 5.80985,-1.07244 2.44843,-2.49449 3.54449,-7.86733 1.48228,-16.7374 -1.16457,-5.0126 -4.19174,-10.598 -8.36575,-15.802zm55.1256 26.3634c2.57835,-6.38386 2.10236,-16.1669 -5.18977,-28.9051 -3.92126,4.8 -7.01339,10.9323 -8.8193,18.4016 -2.12244,8.78032 -1.07717,14.1189 1.33819,16.6193 1.46693,1.52008 3.67205,1.83307 5.82638,1.0878 2.6941,-0.93189 5.30433,-3.38859 6.84449,-7.20355zm57.3579 -10.5036c-1.80591,-7.4693 -4.89804,-13.6016 -8.8193,-18.4004 -7.29095,12.7382 -7.76812,22.5213 -5.18859,28.9051 1.54016,3.81496 4.15158,6.27166 6.84449,7.20355 2.15551,0.744095 4.35945,0.432284 5.82638,-1.0878 2.41418,-2.50158 3.45945,-7.83898 1.33701,-16.6205zm47.9115 10.5047c2.49803,-6.18426 2.12717,-15.5599 -4.52717,-27.7193 -4.58859,5.23465 -8.02914,11.2063 -9.4819,17.2146 -2.12244,8.7815 -1.07599,14.1189 1.33819,16.6205 1.46693,1.52008 3.67205,1.83307 5.82638,1.0878 2.69292,-0.93189 5.30433,-3.38859 6.84449,-7.20355zm51.7311 0c2.49331,-6.17245 2.12835,-15.5244 -4.49055,-27.6508 -4.71969,5.55827 -8.19568,11.6717 -9.51851,17.1461 -2.12244,8.7815 -1.07717,14.1189 1.33701,16.6205 1.46575,1.5189 3.67087,1.83307 5.82638,1.0878 2.6941,-0.93189 5.30552,-3.38859 6.84567,-7.20355z"/>
    <path id="_508357848" class="fil3" d="M960 1629.8l0 85.9194c0,23.1496 -18.9449,42.0945 -42.0945,42.0945l-299.811 0c-23.1496,0 -42.0945,-18.9425 -42.0945,-42.0945l0 -85.9194 384 0z"/>
    <path id="_508361592" class="fil4" d="M543.998 1437.8l448.001 0 0 142.001c0,21.1618 -13.3252,42.3319 -31.9996,49.5969l0 0.318898 0 0.0838583 -384 0 0 -0.402756c-0.565748,-0.219685 -1.12559,-0.452363 -1.68071,-0.698032 -17.7886,-7.84843 -30.3201,-28.3748 -30.3201,-48.8989l0 -142.001z"/>
    <path id="_508354224" class="fil5" d="M580.105 774.885c-5.01496,-6.5693 -3.75591,-15.9614 2.81339,-20.9764 6.5693,-5.01496 15.9614,-3.75591 20.9764,2.81339 90.5162,118.448 91.8568,318.99 93.1938,519.528 0.36378,54.3071 0.72756,108.619 2.90315,161.554l-29.9303 0c-2.12599,-52.4197 -2.49095,-106.93 -2.85473,-161.436 -1.30276,-195.457 -2.60906,-390.918 -87.1016,-501.483z"/>
    <path id="_508359360" class="fil5" d="M932.104 756.722c5.01496,-6.5693 14.4071,-7.82835 20.9764,-2.81339 6.5693,5.01496 7.82835,14.4071 2.81339,20.9764 -84.4926,110.565 -85.7989,306.026 -87.1016,501.483 -0.36378,54.5056 -0.728741,109.016 -2.85473,161.436l-29.9303 0c2.17559,-52.9347 2.53937,-107.247 2.90315,-161.554 1.33701,-200.538 2.67756,-401.08 93.1938,-519.528z"/>
    <rect id="_508357704" class="fil6" x="511.417" y="1469.8" width="515.706" height="31.9996" rx="16.0004" ry="16.0004"/>
    <rect id="_508355832" class="fil6" x="511.417" y="1533.8" width="515.706" height="31.9996" rx="16.0004" ry="16.0004"/>
    <g>
     <path id="_508361232" class="fil7" d="M641.202 1757.82l62.1874 0 0 15.998c0,8.79922 -7.19882,15.998 -15.998,15.998l-30.1914 0c-8.79922,0 -15.998,-7.19882 -15.998,-15.998l0 -15.998z"/>
     <path id="_508359480" class="fil7" d="M832.608 1757.82l62.1874 0 0 15.998c0,8.79922 -7.19882,15.998 -15.998,15.998l-30.1914 0c-8.79922,0 -15.998,-7.19882 -15.998,-15.998l0 -15.998z"/>
    </g>
    <path id="_508354464" class="fil8" d="M679.166 1245.8l177.666 0c20.8347,0 37.8803,17.0457 37.8803,37.8803l0 154.12 -253.427 0 0 -154.12c0,-20.8347 17.0457,-37.8803 37.8803,-37.8803z"/>
   </g>
   <circle id="_508361928" class="fil9" cx="1328" cy="1335.23" r="405.997"/>
   <path id="_508358040" class="fil10" d="M1327.99 871.228c128.127,0 244.128,51.9355 328.096,135.905 83.9694,83.9682 135.905,199.968 135.905,328.095 0,128.128 -51.9355,244.128 -135.905,328.096 -83.9682,83.9694 -199.969,135.905 -328.096,135.905 -128.127,0 -244.127,-51.9355 -328.095,-135.905 -83.9694,-83.9682 -135.905,-199.968 -135.905,-328.096 0,-128.127 51.9355,-244.127 135.905,-328.095 83.9682,-83.9694 199.968,-135.905 328.095,-135.905zm0 58.004c224.227,0 405.997,181.771 405.997,405.996 0,224.227 -181.771,405.997 -405.997,405.997 -224.225,0 -405.996,-181.771 -405.996,-405.997 0,-224.225 181.771,-405.996 405.996,-405.996z"/>
   <path id="_514497704" class="fil11" d="M1315.19 1328.32l0 -0.0011811c2.88544,-5.34685 9.0756,-7.65355 13.7528,-5.12953l237.388 128.105c4.67717,2.52402 6.14528,8.96575 3.26103,14.3114l0 0c-2.88425,5.34449 -9.07324,7.65591 -13.7528,5.13071l-237.388 -128.105c-4.67953,-2.5252 -6.14646,-8.96457 -3.26103,-14.3114z"/>
   <path id="_514493792" class="fil12" d="M1327.99 929.232l0.00236221 0 0 811.993 -0.00236221 0c-224.225,0 -405.996,-181.771 -405.996,-405.997 0,-224.225 181.771,-405.996 405.996,-405.996z"/>
   <path id="_514487288" class="fil11" d="M1327.99 871.228l0.00236221 0 0 58.004 -0.00236221 0c-224.225,0 -405.996,181.771 -405.996,405.996 0,224.227 181.771,405.997 405.996,405.997l0.00236221 0 0 58.004 -0.00236221 0c-128.127,0 -244.127,-51.9355 -328.095,-135.905 -83.9694,-83.9682 -135.905,-199.968 -135.905,-328.096 0,-128.127 51.9355,-244.127 135.905,-328.095 83.9682,-83.9694 199.968,-135.905 328.095,-135.905z"/>
   <path id="_514513496" class="fil4" d="M1327.99 987.224l0.0011811 0c6.0756,0 11.0457,4.35118 11.0457,9.66615l0 335.515c0,5.31496 -4.97126,9.66615 -11.0457,9.66615l-0.0011811 0c-6.07441,0 -11.0457,-4.35 -11.0457,-9.66615l0 -335.515c0,-5.31615 4.97008,-9.66615 11.0457,-9.66615z"/>
   <circle id="_514509992" class="fil4" cx="1328" cy="1335.23" r="29"/>
   <path id="_514495304" class="fil13" d="M1027.77 1512.9c-2.16851,1.24606 -4.93937,0.496063 -6.18544,-1.67244 -1.24606,-2.16969 -0.497244,-4.94055 1.67244,-6.18662l373.607 -214.591c2.16969,-1.24606 4.93937,-0.497244 6.18544,1.67244 1.24606,2.16969 0.497244,4.93937 -1.67126,6.18544l-373.608 214.592z"/>
   <circle id="_514495784" class="fil14" transform="matrix(0.276541 -1.02293 1.02293 0.276541 1328 1335.23)" r="14.0622"/>
   <path id="_514501304" class="fil15" d="M1315.19 1328.32l0 -0.00236221c2.6941,-4.99252 8.27009,-7.33347 12.8043,-5.56654l0 25.0288 -9.54331 -5.14961c-4.67953,-2.5252 -6.14646,-8.96457 -3.26103,-14.3102z"/>
   <path id="_514510640" class="fil16" d="M1327.99 1306.23l0.00236221 0 0 58.0004 -0.00236221 0c-16.0158,0 -28.9996,-12.9839 -28.9996,-29.0008 0,-16.0158 12.9839,-28.9996 28.9996,-28.9996z"/>
   <path id="_514498520" class="fil17" d="M1027.77 1512.9c-2.16851,1.24606 -4.93937,0.496063 -6.18544,-1.67244 -1.24606,-2.16969 -0.497244,-4.94055 1.67244,-6.18662l304.744 -175.037 0 10.4504 -300.231 172.446z"/>
   <path id="_514486232" class="fil18" d="M1313.61 1331.34c1.79646,-6.64607 7.81418,-11.0197 14.3858,-11.015l0 29.8063c-1.28504,0 -2.59134,-0.166536 -3.89055,-0.518504 -7.94528,-2.14725 -12.6437,-10.3276 -10.4953,-18.2728z"/>
  </g>
  <rect class="fil19" width="2048" height="2048"/>
 </g>
</svg>
