<?xml version="1.0" encoding="UTF-8"?>
<!DOCTYPE svg PUBLIC "-//W3C//DTD SVG 1.1//EN" "http://www.w3.org/Graphics/SVG/1.1/DTD/svg11.dtd">
<!-- Creator: CorelDRAW -->
<svg xmlns="http://www.w3.org/2000/svg" xml:space="preserve" width="2048px" height="2048px" style="shape-rendering:geometricPrecision; text-rendering:geometricPrecision; image-rendering:optimizeQuality; fill-rule:evenodd; clip-rule:evenodd"
viewBox="0 0 2048 2048"
 xmlns:xlink="http://www.w3.org/1999/xlink">
 <defs>
  <style type="text/css">
   <![CDATA[
    .fil7 {fill:none}
    .fil5 {fill:#0C0C0C}
    .fil1 {fill:#111111}
    .fil0 {fill:#232323}
    .fil2 {fill:#B6B6B6}
    .fil3 {fill:#C9C9C9}
    .fil4 {fill:white}
    .fil6 {fill:#414141;fill-rule:nonzero}
   ]]>
  </style>
 </defs>
 <g id="Layer_x0020_1">
  <metadata id="CorelCorpID_0Corel-Layer"/>
  <g id="_508359096">
   <g>
    <path id="_508358544" class="fil0" d="M476.158 753.66l485.593 -340.017c5.5441,-3.88111 11.6988,-6.50079 18.0851,-7.91221 6.49252,-1.43504 13.2272,-1.53898 19.7835,-0.381496 6.47835,1.14331 12.7323,3.53504 18.3508,7.10906 5.51575,3.50788 10.4043,8.07166 14.2913,13.6228l558.59 797.748c3.88701,5.55119 6.50315,11.7071 7.91339,18.0886 1.43622,6.50315 1.54488,13.1976 0.403937,19.676 -1.15512,6.55749 -3.5563,12.8504 -7.1256,18.4595 -3.51024,5.5193 -8.07638,10.4067 -13.6205,14.2878l-485.593 340.017c-5.5441,3.88111 -11.6988,6.50079 -18.0851,7.91221 -6.49252,1.43504 -13.2272,1.53898 -19.7835,0.381496 -6.47835,-1.14331 -12.7323,-3.53504 -18.3508,-7.10906 -5.51575,-3.50788 -10.4043,-8.07166 -14.2913,-13.6228l-558.59 -797.748c-3.88701,-5.55119 -6.50315,-11.7071 -7.91339,-18.0886 -1.43622,-6.50315 -1.54488,-13.1976 -0.403937,-19.676 1.15512,-6.55749 3.5563,-12.8504 7.1256,-18.4595 3.51024,-5.5193 8.07638,-10.4067 13.6205,-14.2878z"/>
    <polygon id="_508357200" class="fil1" points="538.871,814.601 997.569,493.418 1436.69,1120.55 977.991,1441.73 "/>
    <polygon id="_508357512" class="fil2" points="551.064,820.083 996.831,507.952 1429.36,1125.67 983.597,1437.8 "/>
    <polygon id="_508359000" class="fil3" points="616.642,774.164 617.288,773.712 996.831,507.954 1429.36,1125.68 1328.24,1196.48 1328.22,1196.5 "/>
    <polygon id="_508354800" class="fil2" points="551.064,820.083 616.642,774.164 1328.22,1196.5 983.597,1437.8 "/>
    <path id="_508356696" class="fil4" d="M1263.23 1326.03c-2.68701,0.6 -5.41536,1.80591 -8.04213,3.64488 -2.62559,1.83898 -4.69252,3.98977 -6.17599,6.31063 -1.56732,2.45079 -2.61969,5.18386 -3.11929,8.0256 -0.518504,2.94921 -0.478347,5.94449 0.157087,8.80276 0.6,2.69764 1.79764,5.42599 3.63071,8.04331 1.77402,2.53347 3.90355,4.55552 6.23386,6.03898 2.54764,1.62165 5.36103,2.70355 8.25473,3.21614 2.8252,0.499607 5.80158,0.43937 8.74843,-0.212599 2.70473,-0.597638 5.40473,-1.77165 7.94883,-3.55276 2.5441,-1.7811 4.57087,-3.91654 6.05788,-6.25394 1.61929,-2.54646 2.6941,-5.32323 3.19134,-8.14843 0.507874,-2.89488 0.453544,-5.90788 -0.199606,-8.85591 -0.596457,-2.69764 -1.76811,-5.39056 -3.54213,-7.92402 -1.83189,-2.61732 -3.98622,-4.67599 -6.31654,-6.163 -2.46851,-1.57441 -5.2689,-2.63622 -8.21812,-3.15827 -2.84173,-0.501969 -5.76969,-0.448819 -8.60906,0.186614z"/>
    <path id="_508360152" class="fil4" d="M1229.79 1313.2c7.33347,-5.13544 15.4795,-8.62087 23.954,-10.5154 8.70119,-1.94291 17.6327,-2.11654 26.2701,-0.589371 8.56418,1.51417 16.8839,4.72087 24.4323,9.53505 7.30512,4.65945 13.7728,10.7079 18.9213,18.0591 5.16378,7.37599 8.64213,15.5339 10.5106,23.9799 1.90866,8.62914 2.05984,17.5181 0.54567,26.1307 -1.52717,8.68583 -4.71496,17.0362 -9.46772,24.5067 -4.64528,7.3004 -10.7079,13.7835 -18.098,18.9579 -7.39016,5.17441 -15.5563,8.65394 -24.0047,10.5224 -8.64449,1.91103 -17.5831,2.0504 -26.2666,0.514961 -8.61142,-1.52244 -16.9122,-4.70552 -24.3685,-9.45001 -7.29686,-4.64528 -13.774,-10.7032 -18.9378,-18.078 -5.14843,-7.35237 -8.61851,-15.4984 -10.4988,-23.9563 -1.94291,-8.74016 -2.11063,-17.6551 -0.604725,-26.2205 1.52008,-8.63977 4.73741,-16.9725 9.53977,-24.4843 4.67835,-7.31575 10.7398,-13.7788 18.0732,-18.913z"/>
    <rect id="_508356576" class="fil5" transform="matrix(0.432023 -0.302506 0.481729 0.68798 677.452 661.986)" width="299.309" height="21.0036" rx="8.82048" ry="8.82048"/>
    <path id="_508357464" class="fil1" d="M1237.16 1323.73c5.92914,-4.15158 12.5173,-6.97087 19.3701,-8.50158 7.03583,-1.57205 14.2571,-1.71142 21.2421,-0.477166 6.92481,1.2248 13.6524,3.81733 19.7563,7.71024 5.9067,3.76772 11.1378,8.65867 15.3,14.6032 4.17638,5.96457 6.98859,12.561 8.49922,19.3914 1.5437,6.97678 1.66536,14.165 0.441733,21.1288 -1.23543,7.02402 -3.81378,13.7764 -7.65591,19.8177 -3.75591,5.90315 -8.65985,11.1449 -14.6351,15.3295 -5.9752,4.18347 -12.5787,6.99804 -19.4103,8.50867 -6.99095,1.54488 -14.2181,1.65827 -21.2398,0.415748 -6.96378,-1.23071 -13.676,-3.80433 -19.7055,-7.64056 -5.90079,-3.75591 -11.1378,-8.65512 -15.3142,-14.6185 -4.16221,-5.94567 -6.96851,-12.5327 -8.48859,-19.3725 -1.57087,-7.06772 -1.70669,-14.276 -0.488977,-21.202 1.22953,-6.98623 3.83032,-13.7244 7.71379,-19.7988 3.78307,-5.91497 8.68465,-11.1413 14.615,-15.2941z"/>
   </g>
   <path id="_508360656" class="fil6" d="M401.85 906.44c0.206693,-17.6043 14.6469,-31.7067 32.2512,-31.5 17.6043,0.206693 31.7067,14.6469 31.5,32.2512l-2.0563 170.871 157.032 67.6619c13.0524,5.60906 20.4555,18.8799 19.2201,32.3008l-2.02677 168.323 157.032 67.6607c16.2225,6.97205 23.7225,25.7776 16.7504,42 -6.97205,16.2225 -25.7776,23.7225 -42,16.7504l-176.541 -76.0666 0.034252 -0.0814961c-11.4709,-4.93465 -19.441,-16.4032 -19.2851,-29.6693l2.05748 -170.873 -157.032 -67.6619 0.034252 -0.0814961c-11.4709,-4.93465 -19.441,-16.4032 -19.2851,-29.6693l2.31378 -192.216z"/>
   <path id="_508354728" class="fil6" d="M1253.1 591.349c-16.2225,-6.97205 -23.7225,-25.7776 -16.7504,-42 6.97205,-16.2225 25.7776,-23.7225 42,-16.7504l176.541 76.0678c13.0524,5.60906 20.4555,18.8799 19.2201,32.3008l-2.02677 168.323 157.032 67.6619c13.0524,5.60906 20.4555,18.8788 19.2201,32.2996l-2.28307 189.667c-0.206693,17.6043 -14.6469,31.7067 -32.2512,31.5 -17.6043,-0.206693 -31.7067,-14.6469 -31.5,-32.2512l2.0563 -170.871 -157.032 -67.6619 0.034252 -0.0814961c-11.4709,-4.93465 -19.441,-16.4032 -19.2851,-29.6693l2.05748 -170.873 -157.032 -67.6619z"/>
   <path id="_508355880" class="fil6" d="M258.386 999.607c0.206693,-17.6043 14.6469,-31.7067 32.2512,-31.5 17.6043,0.206693 31.7067,14.6469 31.5,32.2512l-2.0563 170.871 157.031 67.6619c13.0524,5.60906 20.4555,18.8788 19.2201,32.2996l-2.02559 168.324 157.032 67.6619c16.2225,6.97205 23.7225,25.7776 16.7504,42 -6.97205,16.2225 -25.7776,23.7225 -42,16.7504l-176.541 -76.0678 0.034252 -0.0814961c-11.4709,-4.93465 -19.441,-16.4032 -19.2851,-29.6693l2.0563 -170.873 -157.031 -67.6619 0.034252 -0.0814961c-11.4709,-4.93465 -19.441,-16.4032 -19.2851,-29.6693l2.31378 -192.216z"/>
   <path id="_508362072" class="fil6" d="M1396.56 498.182c-16.2225,-6.97205 -23.7225,-25.7776 -16.7504,-42 6.97205,-16.2225 25.7776,-23.7225 42,-16.7504l176.541 76.0678c13.0524,5.60906 20.4555,18.8788 19.2201,32.2996l-2.02559 168.324 157.031 67.6619c13.0524,5.60906 20.4555,18.8788 19.2201,32.2996l-2.28307 189.667c-0.206693,17.6043 -14.6469,31.7067 -32.2512,31.5 -17.6043,-0.206693 -31.7067,-14.6469 -31.5,-32.2512l2.0563 -170.871 -157.031 -67.6619 0.034252 -0.0814961c-11.4709,-4.93465 -19.441,-16.4032 -19.2851,-29.6693l2.0563 -170.873 -157.032 -67.6619z"/>
  </g>
  <rect class="fil7" width="2048" height="2048"/>
 </g>
</svg>
