<?xml version="1.0" encoding="UTF-8"?>
<!DOCTYPE svg PUBLIC "-//W3C//DTD SVG 1.1//EN" "http://www.w3.org/Graphics/SVG/1.1/DTD/svg11.dtd">
<!-- Creator: CorelDRAW -->
<svg xmlns="http://www.w3.org/2000/svg" xml:space="preserve" width="2048px" height="2048px" style="shape-rendering:geometricPrecision; text-rendering:geometricPrecision; image-rendering:optimizeQuality; fill-rule:evenodd; clip-rule:evenodd"
viewBox="0 0 2048 2048"
 xmlns:xlink="http://www.w3.org/1999/xlink">
 <defs>
  <style type="text/css">
   <![CDATA[
    .fil7 {fill:none}
    .fil3 {fill:#202020}
    .fil4 {fill:#393939}
    .fil0 {fill:#414141}
    .fil5 {fill:#B8B8B8}
    .fil2 {fill:#C9C9C9}
    .fil6 {fill:#DBDBDB}
    .fil1 {fill:#EFEFEF}
   ]]>
  </style>
 </defs>
 <g id="Layer_x0020_1">
  <metadata id="CorelCorpID_0Corel-Layer"/>
  <g id="_508359336">
   <g>
    <path id="_506564528" class="fil0" d="M287.994 253.719l1472 0 32.0008 0 0 32.0008 0 160.001 -27.7051 0 -127.642 0c-26.9835,0 -51.0815,11.2429 -68.5241,29.2973 -17.3032,17.9079 -27.8717,42.5303 -27.8717,69.3532l0 957.738c0,26.8654 10.5744,51.2681 27.8965,68.993 17.465,17.8689 41.5666,28.8992 68.4993,28.8992l127.642 0 27.7051 0 0 159.999 0 32.0008 -32.0008 0 -1472 0 -32.0008 0 0 -32.0008 0 -159.999 32.0008 0 127.642 0c26.9327,0 51.0343,-11.0303 68.4993,-28.8992 17.3221,-17.7248 27.8965,-42.1276 27.8965,-68.993l0 -957.738c0,-26.8229 -10.5685,-51.4453 -27.8717,-69.3532 -17.4425,-18.0543 -41.5406,-29.2973 -68.5241,-29.2973l-127.642 0 -32.0008 0 0 -160.001 0 -32.0008 32.0008 0z"/>
    <polygon id="_506572016" class="fil1" points="1632,1664 1696,1664 1696,1728 1632,1728 "/>
    <polygon id="_506571296" class="fil1" points="1504,1664 1568,1664 1568,1728 1504,1728 "/>
    <polygon id="_506568800" class="fil1" points="1376,1664 1440,1664 1440,1728 1376,1728 "/>
    <polygon id="_506567024" class="fil1" points="1248,1664 1312,1664 1312,1728 1248,1728 "/>
    <polygon id="_506569928" class="fil1" points="1120,1664 1184,1664 1184,1728 1120,1728 "/>
    <polygon id="_506569208" class="fil1" points="991.998,1664 1056,1664 1056,1728 991.998,1728 "/>
    <polygon id="_506569496" class="fil1" points="863.997,1664 927.998,1664 927.998,1728 863.997,1728 "/>
    <polygon id="_506570456" class="fil1" points="735.996,1664 799.997,1664 799.997,1728 735.996,1728 "/>
    <polygon id="_506569256" class="fil1" points="607.995,1664 671.996,1664 671.996,1728 607.995,1728 "/>
    <polygon id="_506565800" class="fil1" points="479.994,1664 543.995,1664 543.995,1728 479.994,1728 "/>
    <polygon id="_506566616" class="fil1" points="351.994,1664 415.994,1664 415.994,1728 351.994,1728 "/>
    <polygon id="_506572256" class="fil1" points="1632,317.605 1696,317.605 1696,381.605 1632,381.605 "/>
    <polygon id="_506565776" class="fil1" points="1504,317.605 1568,317.605 1568,381.605 1504,381.605 "/>
    <polygon id="_506572400" class="fil1" points="1376,317.605 1440,317.605 1440,381.605 1376,381.605 "/>
    <polygon id="_506570888" class="fil1" points="1248,317.605 1312,317.605 1312,381.605 1248,381.605 "/>
    <polygon id="_506570432" class="fil1" points="1120,317.605 1184,317.605 1184,381.605 1120,381.605 "/>
    <polygon id="_506566112" class="fil1" points="991.998,317.605 1056,317.605 1056,381.605 991.998,381.605 "/>
    <polygon id="_506565248" class="fil1" points="863.997,317.605 927.998,317.605 927.998,381.605 863.997,381.605 "/>
    <polygon id="_506568440" class="fil1" points="735.996,317.605 799.997,317.605 799.997,381.605 735.996,381.605 "/>
    <polygon id="_506565416" class="fil1" points="607.995,317.605 671.996,317.605 671.996,381.605 607.995,381.605 "/>
    <polygon id="_506567840" class="fil1" points="479.994,317.605 543.995,317.605 543.995,381.605 479.994,381.605 "/>
    <polygon id="_506570792" class="fil1" points="351.994,317.605 415.994,317.605 415.994,381.605 351.994,381.605 "/>
    <path id="_506569136" class="fil2" d="M706.264 445.72l635.461 0c27.0567,0 51.6331,11.0469 69.4288,28.8425 17.7957,17.7957 28.8425,42.3733 28.8425,69.43l0 957.737c0,27.0567 -11.0469,51.6331 -28.8425,69.4288 -17.7957,17.7957 -42.3721,28.8425 -69.4288,28.8425l-635.461 0c-27.0567,0 -51.6331,-11.0469 -69.4288,-28.8425 -17.7957,-17.7957 -28.8425,-42.3721 -28.8425,-69.4288l0 -957.737c0,-27.0567 11.0469,-51.6343 28.8425,-69.43 17.7957,-17.7957 42.3721,-28.8425 69.4288,-28.8425z"/>
    <polygon id="_506571776" class="fil3" points="948.91,843.144 1140.08,1003.14 1169.35,1027.64 1140.08,1052.14 948.91,1212.14 896.409,1256.08 896.409,1187.64 896.409,867.643 896.409,799.203 "/>
   </g>
   <path id="_506568872" class="fil4" d="M1540.25 1026.78l0 475.327c0,26.8654 10.5744,51.2681 27.8965,68.993 17.465,17.8689 41.5666,28.8992 68.4993,28.8992l127.642 0 27.7051 0 0 159.999 0 32.0008 -32.0008 0 -1472 0 -32.0008 0 0 -32.0008 0 -159.999 32.0008 0 127.642 0c26.9327,0 51.0343,-11.0303 68.4993,-28.8992 17.3221,-17.7248 27.8965,-42.1276 27.8965,-68.993l0 -475.327 95.9611 0 0 474.948c0,27.0567 11.0469,51.6331 28.8425,69.4288 17.7957,17.7957 42.3721,28.8425 69.4288,28.8425l635.461 0c27.0567,0 51.6331,-11.0469 69.4288,-28.8425 17.7957,-17.7957 28.8425,-42.3721 28.8425,-69.4288l0 -474.948 100.257 0z"/>
   <path id="_506570384" class="fil5" d="M1440 1026.78l0 474.948c0,27.0567 -11.0469,51.6331 -28.8425,69.4288 -17.7957,17.7957 -42.3721,28.8425 -69.4288,28.8425l-635.461 0c-27.0567,0 -51.6331,-11.0469 -69.4288,-28.8425 -17.7957,-17.7957 -28.8425,-42.3721 -28.8425,-69.4288l0 -474.948 832.003 0z"/>
   <polygon id="_508357608" class="fil6" points="1632,1664 1696,1664 1696,1728 1632,1728 "/>
   <polygon id="_508358928" class="fil6" points="1504,1664 1568,1664 1568,1728 1504,1728 "/>
   <polygon id="_508361664" class="fil6" points="1376,1664 1440,1664 1440,1728 1376,1728 "/>
   <polygon id="_508361352" class="fil6" points="1248,1664 1312,1664 1312,1728 1248,1728 "/>
   <polygon id="_508362120" class="fil6" points="1120,1664 1184,1664 1184,1728 1120,1728 "/>
   <polygon id="_508357752" class="fil6" points="991.998,1664 1056,1664 1056,1728 991.998,1728 "/>
   <polygon id="_508355352" class="fil6" points="863.997,1664 927.998,1664 927.998,1728 863.997,1728 "/>
   <polygon id="_508361280" class="fil6" points="735.996,1664 799.997,1664 799.997,1728 735.996,1728 "/>
   <polygon id="_508356432" class="fil6" points="607.995,1664 671.996,1664 671.996,1728 607.995,1728 "/>
   <polygon id="_508355664" class="fil6" points="479.994,1664 543.995,1664 543.995,1728 479.994,1728 "/>
   <polygon id="_508359792" class="fil6" points="351.994,1664 415.994,1664 415.994,1728 351.994,1728 "/>
   <polygon id="_508360248" class="fil3" points="1168.32,1026.78 1169.35,1027.64 1140.08,1052.14 948.91,1212.14 896.409,1256.08 896.409,1187.64 896.409,1026.78 "/>
  </g>
  <rect class="fil7" width="2048" height="2048"/>
 </g>
</svg>
