<?xml version="1.0" encoding="UTF-8"?>
<!DOCTYPE svg PUBLIC "-//W3C//DTD SVG 1.1//EN" "http://www.w3.org/Graphics/SVG/1.1/DTD/svg11.dtd">
<!-- Creator: CorelDRAW -->
<svg xmlns="http://www.w3.org/2000/svg" xml:space="preserve" width="2048px" height="2048px" style="shape-rendering:geometricPrecision; text-rendering:geometricPrecision; image-rendering:optimizeQuality; fill-rule:evenodd; clip-rule:evenodd"
viewBox="0 0 2048 2048"
 xmlns:xlink="http://www.w3.org/1999/xlink">
 <defs>
  <style type="text/css">
   <![CDATA[
    .fil10 {fill:none}
    .fil2 {fill:#3C3C3C;fill-rule:nonzero}
    .fil1 {fill:#414141;fill-rule:nonzero}
    .fil7 {fill:dimgray;fill-rule:nonzero}
    .fil4 {fill:#717171;fill-rule:nonzero}
    .fil8 {fill:#767676;fill-rule:nonzero}
    .fil5 {fill:gray;fill-rule:nonzero}
    .fil3 {fill:#828282;fill-rule:nonzero}
    .fil9 {fill:#848484;fill-rule:nonzero}
    .fil6 {fill:#919191;fill-rule:nonzero}
    .fil0 {fill:#9D9D9D;fill-rule:nonzero}
   ]]>
  </style>
 </defs>
 <g id="Layer_x0020_1">
  <metadata id="CorelCorpID_0Corel-Layer"/>
  <path class="fil0" d="M542.227 693.824l1.73977 0 0.396851 -0.340158 292.605 -250.524 56.9115 -48.7217c13.8957,-11.8996 27.7925,-23.7969 41.6882,-35.6953l0 60.0792 0 74.7745 0 529.963 0 0.64252 -393.342 0 0 -1.23898 0 -328.94z"/>
  <path class="fil1" d="M374.823 693.824l167.408 0 0 660.358 -167.408 0c-32.7402,0 -62.4638,-14.2772 -83.9658,-37.2744 -21.5067,-22.9973 -34.8579,-54.7819 -34.8579,-89.7863l0 -203.119 0 -1.6748 0 -201.445c0,-35.0032 13.3512,-66.7867 34.8555,-89.7863 21.5091,-22.9949 51.2327,-37.2721 83.9682,-37.2721z"/>
  <path class="fil2" d="M542.229 1354.18l-167.406 0c-32.7402,0 -62.4638,-14.2772 -83.9658,-37.2744 -21.5067,-22.9973 -34.8579,-54.7819 -34.8579,-89.7863l0 -203.119 286.23 0 0 330.18z"/>
  <polygon class="fil3" points="935.568,1024 935.568,1554.6 935.568,1689.46 836.969,1605.04 543.974,1354.18 542.737,1354.18 542.227,1354.18 542.227,1024 "/>
  <g id="_506565896">
   <path id="_503089648" class="fil4" d="M1544.08 1738.24c-22.252,26.7331 -60.5634,29.1154 -85.5627,5.32087 -25.0004,-23.7945 -27.2292,-64.7611 -4.97717,-91.4942 70.03,-84.2906 124.323,-180.676 161.045,-284.002 36.7595,-103.433 56.0563,-214.188 56.0563,-327.115 0,-120.261 -21.9638,-238.057 -63.5422,-347.22 -41.6315,-109.302 -102.845,-209.985 -181.286,-295.876 -23.2973,-25.6146 -22.7669,-66.5812 1.18701,-91.4942 23.954,-24.913 62.2654,-24.3449 85.5638,1.2685 89.6103,98.1213 159.465,212.946 206.883,337.44 47.4709,124.635 72.5493,258.947 72.5493,395.881 0,128.217 -22.0701,254.426 -64.1174,372.735 -42.0827,118.414 -104.05,228.568 -183.799,324.555z"/>
   <path id="_503090368" class="fil5" d="M1306.53 1509.17c-20.6823,27.9945 -58.6737,32.7603 -84.854,10.6453 -26.1803,-22.1162 -30.6366,-62.7414 -9.95434,-90.7359 40.1634,-54.28 71.2253,-115.184 92.2926,-179.964 20.8748,-64.1847 31.7551,-132.506 31.7551,-202.233 0,-79.252 -14.0599,-156.597 -40.7244,-228.135 -26.7166,-71.6823 -66.1796,-138.104 -116.928,-195.363 -23.0374,-25.8945 -22.0831,-66.8599 2.13189,-91.4942 24.2162,-24.6355 62.5264,-23.615 85.5638,2.27953 61.2851,69.1465 109.07,149.706 141.581,236.93 32.563,87.3638 49.7304,180.877 49.7304,275.782 0,83.5335 -13.3158,166.25 -38.8666,244.812 -25.3559,77.9705 -62.9575,151.564 -111.728,217.475z"/>
   <path id="_506564696" class="fil6" d="M1153.77 1251.82c-20.6823,27.9945 -58.6737,32.7603 -84.854,10.6441 -26.1803,-22.115 -30.6366,-62.7402 -9.95434,-90.7347 14.4555,-19.539 25.6736,-41.5689 33.3213,-65.0871 7.45394,-22.9229 11.341,-47.5867 11.341,-73.0146 0,-28.9146 -5.03386,-56.8725 -14.5772,-82.48 -9.59765,-25.7492 -23.8441,-49.689 -42.2079,-70.4091 -23.0386,-25.8945 -22.0843,-66.8587 2.13189,-91.4942 24.2162,-24.6343 62.5252,-23.615 85.5638,2.27953 28.8981,32.6079 51.4689,70.6867 66.8611,111.977 15.4417,41.4319 23.5843,85.5603 23.5843,130.127 0,39.2339 -6.32481,78.2918 -18.4536,115.593 -11.9374,36.7087 -29.6965,71.4308 -52.7563,102.599z"/>
  </g>
  <g id="_506569880">
   <path id="_506566496" class="fil7" d="M1544.09 1738.24c-22.2532,26.7331 -60.5646,29.1154 -85.565,5.32087 -24.9992,-23.7945 -27.228,-64.7611 -4.97599,-91.4942 70.03,-84.2906 124.323,-180.676 161.045,-284.002 36.7595,-103.433 56.0552,-214.188 56.0552,-327.115 0,-5.65512 -0.0484252,-11.3043 -0.145276,-16.9477l121.369 0c0.0850394,5.64449 0.132284,11.2937 0.132284,16.9477 0,128.217 -22.0701,254.426 -64.1174,372.735 -42.0827,118.414 -104.052,228.568 -183.797,324.555z"/>
   <path id="_506570312" class="fil8" d="M1306.53 1509.17c-20.6823,27.9945 -58.6737,32.7603 -84.854,10.6453 -26.1803,-22.1162 -30.6366,-62.7414 -9.95434,-90.7359 40.1634,-54.28 71.2253,-115.184 92.2938,-179.964 20.8748,-64.1847 31.754,-132.506 31.754,-202.233 0,-7.6441 -0.133465,-15.2717 -0.393307,-22.8768l121.415 0c0.220866,7.61457 0.333071,15.241 0.333071,22.8768 0,83.5335 -13.3158,166.25 -38.8666,244.812 -25.3559,77.9705 -62.9575,151.564 -111.728,217.475z"/>
   <path id="_506569520" class="fil9" d="M1153.77 1251.82c-20.6811,27.9945 -58.6725,32.7603 -84.8528,10.6441 -26.1803,-22.115 -30.6366,-62.7402 -9.95552,-90.7347 14.4567,-19.539 25.6748,-41.5689 33.3236,-65.0871 7.45158,-22.9229 11.3398,-47.5867 11.3398,-73.0146 0,-3.21969 -0.0625985,-6.42756 -0.186614,-9.62127l121.415 0c0.0838583,3.20433 0.127559,6.41103 0.127559,9.62127 0,39.2339 -6.32481,78.2918 -18.4536,115.593 -11.9362,36.7087 -29.6965,71.4308 -52.7575,102.599z"/>
  </g>
  <rect class="fil10" width="2048" height="2048"/>
 </g>
</svg>
