<?xml version="1.0" encoding="UTF-8"?>
<!DOCTYPE svg PUBLIC "-//W3C//DTD SVG 1.1//EN" "http://www.w3.org/Graphics/SVG/1.1/DTD/svg11.dtd">
<!-- Creator: CorelDRAW -->
<svg xmlns="http://www.w3.org/2000/svg" xml:space="preserve" width="2048px" height="2048px" style="shape-rendering:geometricPrecision; text-rendering:geometricPrecision; image-rendering:optimizeQuality; fill-rule:evenodd; clip-rule:evenodd"
viewBox="0 0 2048 2048"
 xmlns:xlink="http://www.w3.org/1999/xlink">
 <defs>
  <style type="text/css">
   <![CDATA[
    .fil6 {fill:none}
    .fil3 {fill:#6C6C6C}
    .fil2 {fill:#919191;fill-rule:nonzero}
    .fil5 {fill:#A6A6A7;fill-rule:nonzero}
    .fil1 {fill:#B4B4B5;fill-rule:nonzero}
    .fil4 {fill:#D9D9DA;fill-rule:nonzero}
    .fil0 {fill:#EBEBEB;fill-rule:nonzero}
   ]]>
  </style>
 </defs>
 <g id="Layer_x0020_1">
  <metadata id="CorelCorpID_0Corel-Layer"/>
  <g id="_503089960">
   <path id="_503090392" class="fil0" d="M1023.99 1210.99c-103.25,0 -186.965,-83.7497 -186.965,-186.999 0,-103.217 83.7154,-186.975 186.965,-186.975 103.284,0 186.977,83.7579 186.977,186.975 0,103.25 -83.693,186.999 -186.977,186.999z"/>
   <path id="_503086672" class="fil1" d="M741.545 255.998l1018.46 0 32.0008 0 0 32.0008 0 1472 0 32.0008 -32.0008 0 -1472 0 -32.0008 0 0 -32.0008 0 -1017.19 252.901 0c-19.6677,71.0634 10.1705,181.154 77.0186,219.747 30.5374,17.6303 95.3587,42.2563 166.113,61.4363 -70.7646,19.1669 -135.611,43.7965 -166.145,61.4174 -79.369,45.8363 -106.564,147.31 -60.7394,226.608 45.8044,79.3194 147.31,106.53 226.609,60.6815 30.5445,-17.6197 84.3107,-61.4752 136.309,-113.173 -18.7665,70.865 -29.8583,139.349 -29.8583,174.623 0,91.5827 74.2501,165.858 165.847,165.858 91.617,0 165.868,-74.2749 165.868,-165.858 0,-35.2488 -11.0799,-103.686 -29.824,-174.508 51.9508,51.6426 105.658,95.439 136.172,113.059 79.3536,45.789 180.804,18.6059 226.608,-60.6815 45.7819,-79.3571 18.6059,-180.807 -60.7264,-226.621 -30.5221,-17.6197 -95.3245,-42.2374 -166.043,-61.415 70.6961,-19.1823 135.473,-43.7823 165.986,-61.3949 79.343,-45.8363 106.53,-147.297 60.7359,-226.583 -45.7796,-79.3442 -147.238,-106.495 -226.608,-60.6945 -30.502,17.5996 -84.1737,61.3477 -136.103,112.955 18.7323,-70.7977 29.8028,-139.162 29.8028,-174.393 0,-91.6182 -74.2512,-165.88 -165.868,-165.88 -91.5969,0 -165.847,74.2619 -165.847,165.88 0,35.2512 11.0787,103.688 29.8347,174.533 -40.65,-40.4103 -115.639,-76.0182 -146.496,-98.0564l0 -434.351z"/>
   <polygon id="_503087656" class="fil2" points="710.81,742.811 255.999,742.811 742.811,255.999 742.811,710.81 742.811,742.811 "/>
   <path id="_503089576" class="fil3" d="M837.029 1023.99c0,-103.217 83.7154,-186.975 186.965,-186.975 103.284,0 186.977,83.7579 186.977,186.975 0,103.25 -83.693,186.999 -186.977,186.999 -103.25,0 -186.965,-83.7497 -186.965,-186.999zm685.848 288.025c45.7819,-79.3571 18.6059,-180.807 -60.7264,-226.621 -30.5221,-17.6197 -95.3245,-42.2374 -166.043,-61.415 70.6961,-19.1823 135.473,-43.7823 165.986,-61.3949 79.343,-45.8363 106.53,-147.297 60.7359,-226.583 -45.7796,-79.3442 -147.238,-106.495 -226.608,-60.6945 -30.502,17.5996 -84.1737,61.3477 -136.103,112.955 18.7323,-70.7977 29.8028,-139.162 29.8028,-174.393 0,-91.6182 -74.2512,-165.88 -165.868,-165.88 -91.5969,0 -165.847,74.2619 -165.847,165.88 0,35.2512 11.0787,103.688 29.8347,174.533 -40.1044,-39.8681 -113.633,-75.0615 -145.23,-97.1611l0 19.5662 0 32.0008 -32.0008 0 -201.911 0c-19.6677,71.0634 10.1705,181.154 77.0186,219.747 30.5374,17.6303 95.3587,42.2563 166.113,61.4363 -70.7646,19.1669 -135.611,43.7965 -166.145,61.4174 -79.369,45.8363 -106.564,147.31 -60.7394,226.608 45.8044,79.3194 147.31,106.53 226.609,60.6815 30.5445,-17.6197 84.3107,-61.4752 136.309,-113.173 -18.7665,70.865 -29.8583,139.349 -29.8583,174.623 0,91.5827 74.2501,165.858 165.847,165.858 91.617,0 165.868,-74.2749 165.868,-165.858 0,-35.2488 -11.0799,-103.686 -29.824,-174.508 51.9508,51.6426 105.658,95.439 136.172,113.059 79.3536,45.789 180.804,18.6059 226.608,-60.6815z"/>
  </g>
  <g id="_503090632">
   <path id="_503088304" class="fil4" d="M1024 837.02c103.283,0.00236221 186.973,83.7591 186.973,186.975 0,103.249 -83.6906,186.997 -186.973,186.999l0 -373.974z"/>
   <path id="_503089480" class="fil5" d="M1024 255.998l736.003 0 32.0008 0 0 32.0008 0 1472 0 32.0008 -32.0008 0 -736.003 0 0 -191.995 0.0555119 0.0011811c91.617,0 165.868,-74.2749 165.868,-165.858 0,-35.2488 -11.0799,-103.686 -29.824,-174.508 51.9508,51.6426 105.658,95.439 136.172,113.059 79.3536,45.789 180.804,18.6059 226.608,-60.6815 45.7819,-79.3571 18.6059,-180.807 -60.7264,-226.621 -30.5221,-17.6197 -95.3245,-42.2374 -166.043,-61.415 70.6961,-19.1823 135.473,-43.7823 165.986,-61.3949 79.343,-45.8363 106.53,-147.297 60.7359,-226.583 -45.7796,-79.3442 -147.238,-106.495 -226.608,-60.6945 -30.502,17.5996 -84.1737,61.3477 -136.103,112.955 18.7323,-70.7977 29.8028,-139.162 29.8028,-174.393 0,-91.6182 -74.2512,-165.88 -165.868,-165.88l-0.0555119 0.0011811 0 -191.995z"/>
   <path id="_503087584" class="fil3" d="M1024 837.02c103.283,0.00236221 186.973,83.7591 186.973,186.975 0,103.249 -83.6906,186.997 -186.973,186.999l0 389.013 0.0555119 0.0011811c91.617,0 165.868,-74.2749 165.868,-165.858 0,-35.2488 -11.0799,-103.686 -29.824,-174.508 51.9508,51.6426 105.658,95.439 136.172,113.059 79.3536,45.789 180.804,18.6059 226.608,-60.6815 45.7819,-79.3571 18.6059,-180.807 -60.7264,-226.621 -30.5221,-17.6197 -95.3245,-42.2374 -166.043,-61.415 70.6961,-19.1823 135.473,-43.7823 165.986,-61.3949 79.343,-45.8363 106.53,-147.297 60.7359,-226.583 -45.7796,-79.3442 -147.238,-106.495 -226.608,-60.6945 -30.502,17.5996 -84.1737,61.3477 -136.103,112.955 18.7323,-70.7977 29.8028,-139.162 29.8028,-174.393 0,-91.6182 -74.2512,-165.88 -165.868,-165.88l-0.0555119 0.0011811 0 389.026z"/>
  </g>
  <rect class="fil6" width="2048" height="2048"/>
 </g>
</svg>
