<?xml version="1.0" encoding="UTF-8"?>
<!DOCTYPE svg PUBLIC "-//W3C//DTD SVG 1.1//EN" "http://www.w3.org/Graphics/SVG/1.1/DTD/svg11.dtd">
<!-- Creator: CorelDRAW -->
<svg xmlns="http://www.w3.org/2000/svg" xml:space="preserve" width="2048px" height="2048px" style="shape-rendering:geometricPrecision; text-rendering:geometricPrecision; image-rendering:optimizeQuality; fill-rule:evenodd; clip-rule:evenodd"
viewBox="0 0 2048 2048"
 xmlns:xlink="http://www.w3.org/1999/xlink">
 <defs>
  <style type="text/css">
   <![CDATA[
    .fil8 {fill:none}
    .fil2 {fill:#636364}
    .fil6 {fill:#707070}
    .fil1 {fill:#737373}
    .fil5 {fill:#7E7E7E}
    .fil0 {fill:#838383}
    .fil4 {fill:#8C8D8D}
    .fil3 {fill:#2F2F2F;fill-rule:nonzero}
    .fil7 {fill:#424343;fill-rule:nonzero}
   ]]>
  </style>
 </defs>
 <g id="Layer_x0020_1">
  <metadata id="CorelCorpID_0Corel-Layer"/>
  <g id="_503088160">
   <g>
    <path id="_504762224" class="fil0" d="M238.094 886.823c94.0784,-117.435 213.434,-212.198 349.061,-277.329 135.611,-65.1225 284.177,-99.0721 434.64,-99.0721 151.713,0 301.48,34.4528 437.986,100.624 136.532,66.1843 256.298,162.513 350.286,281.621l19.8106 25.1067 -100.219 79.1741 -19.8343 -25.1351c-82.0182,-103.941 -186.577,-187.925 -305.711,-245.675 -119.159,-57.763 -249.901,-87.7146 -382.318,-87.7146 -131.326,0 -261.043,29.4095 -379.435,86.2642 -118.383,56.85 -222.461,139.66 -304.566,242.149l-20.0421 25.0181 -99.6284 -80.1012 19.9713 -24.9295z"/>
    <path id="_503089792" class="fil1" d="M432.153 1030.4c68.6138,-91.6501 157.665,-166.042 260.04,-217.284 102.369,-51.2398 215.283,-78.0615 329.788,-78.0615 115.715,0 229.792,27.3213 333,79.6158 103.245,52.3134 192.738,128.2 261.194,221.536l18.9307 25.8106 -103.119 75.5859 -18.9201 -25.7965c-56.5548,-77.1095 -130.462,-139.825 -215.764,-183.046 -85.3359,-43.2402 -179.661,-65.7048 -275.322,-65.7048 -94.6335,0 -188.007,21.9272 -272.641,64.2898 -84.6402,42.3662 -158.23,103.891 -214.954,179.661l-19.1953 25.6394 -102.199 -76.6524 19.161 -25.5933z"/>
    <path id="_503089408" class="fil2" d="M635.117 1181.29c44.902,-60.3461 103.321,-109.334 170.527,-143.097 67.1481,-33.7335 141.265,-51.4335 216.437,-51.4335 76.415,0 151.713,18.2882 219.711,53.093 68.0256,34.8177 126.82,85.291 171.513,147.284l18.7276 25.9772 -103.694 74.6363 -18.6992 -25.937c-32.8406,-45.5516 -76.0182,-82.6548 -126.007,-108.241 -50.0032,-25.5933 -105.391,-38.8111 -161.551,-38.8111 -55.2709,0 -109.808,12.8043 -159.208,37.6217 -49.35,24.7914 -92.1934,60.8079 -125.16,105.113l-19.0701 25.6288 -102.66 -76.1197 19.1351 -25.715z"/>
    <path id="_503090008" class="fil3" d="M1114.45 1319.07c-23.1591,-23.1579 -55.1611,-37.4859 -90.5103,-37.4859 -35.3492,0 -67.3501,14.3256 -90.5103,37.4859 -23.1591,23.1591 -37.4847,55.1599 -37.4847,90.5091 0,35.3481 14.3268,67.3501 37.4847,90.5091 23.1603,23.1591 55.1611,37.4847 90.5103,37.4847 35.3492,0 67.3501,-14.3256 90.5103,-37.4847 23.1579,-23.1591 37.4847,-55.1587 37.4847,-90.5091 0,-35.3492 -14.3256,-67.3501 -37.4847,-90.5091z"/>
   </g>
   <g>
    <path id="_503089000" class="fil4" d="M238.094 886.823c94.0784,-117.435 213.434,-212.198 349.061,-277.329 135.611,-65.1225 284.177,-99.0721 434.64,-99.0721l2.20748 0.00826772 0 128.001 -2.20748 -0.00826772c-131.326,0 -261.043,29.4095 -379.435,86.2642 -118.383,56.85 -222.461,139.66 -304.566,242.149l-20.0421 25.0181 -99.6284 -80.1012 19.9713 -24.9295z"/>
    <path id="_503087392" class="fil5" d="M432.153 1030.4c68.6138,-91.6501 157.665,-166.042 260.04,-217.284 102.369,-51.2398 215.283,-78.0615 329.788,-78.0615l2.02205 0.00708662 0 128.001 -2.02205 -0.00708662c-94.6335,0 -188.007,21.9272 -272.641,64.2898 -84.6402,42.3662 -158.23,103.891 -214.954,179.661l-19.1953 25.6394 -102.199 -76.6524 19.161 -25.5933z"/>
    <path id="_503090344" class="fil6" d="M635.117 1181.29c44.902,-60.3461 103.321,-109.334 170.527,-143.097 67.1481,-33.7335 141.265,-51.4335 216.437,-51.4335l1.92166 0.00708662 0 128.001 -1.92166 -0.00708662c-55.2709,0 -109.808,12.8043 -159.208,37.6217 -49.35,24.7914 -92.1934,60.8079 -125.16,105.113l-19.0701 25.6288 -102.66 -76.1197 19.1351 -25.715z"/>
    <path id="_503087728" class="fil7" d="M1024 1281.59l-0.0578741 0c-35.3492,0 -67.3501,14.3256 -90.5103,37.4859 -23.1591,23.1591 -37.4847,55.1599 -37.4847,90.5091 0,35.3481 14.3268,67.3501 37.4847,90.5091 23.1603,23.1591 55.1611,37.4847 90.5103,37.4847l0.0578741 0 0 -255.989z"/>
   </g>
  </g>
  <rect class="fil8" width="2048" height="2048"/>
 </g>
</svg>
