<?xml version="1.0" encoding="UTF-8"?>
<!DOCTYPE svg PUBLIC "-//W3C//DTD SVG 1.1//EN" "http://www.w3.org/Graphics/SVG/1.1/DTD/svg11.dtd">
<!-- Creator: CorelDRAW -->
<svg xmlns="http://www.w3.org/2000/svg" xml:space="preserve" width="2048px" height="2048px" style="shape-rendering:geometricPrecision; text-rendering:geometricPrecision; image-rendering:optimizeQuality; fill-rule:evenodd; clip-rule:evenodd"
viewBox="0 0 2048 2048"
 xmlns:xlink="http://www.w3.org/1999/xlink">
 <defs>
  <style type="text/css">
   <![CDATA[
    .fil8 {fill:none}
    .fil6 {fill:#555555}
    .fil3 {fill:#616161}
    .fil7 {fill:#AFAFAF}
    .fil5 {fill:#555555;fill-rule:nonzero}
    .fil2 {fill:#616161;fill-rule:nonzero}
    .fil4 {fill:#656666;fill-rule:nonzero}
    .fil1 {fill:#757575;fill-rule:nonzero}
    .fil0 {fill:#AFAFAF;fill-rule:nonzero}
   ]]>
  </style>
 </defs>
 <g id="Layer_x0020_1">
  <metadata id="CorelCorpID_0Corel-Layer"/>
  <g id="_504761720">
   <path id="_504325760" class="fil0" d="M1408.21 768.001l0 207.999c0,101.457 -43.454,193.64 -113.463,260.424 -69.5776,66.3756 -165.428,107.576 -270.749,107.576 -105.321,0 -201.171,-41.2004 -270.749,-107.576 -70.0087,-66.7843 -113.463,-158.967 -113.463,-260.424l0 -207.999 0 -32.0008 32.0008 0 96.2091 0 0 64.0016 -64.2083 0 0 175.999c0,83.3434 35.7945,159.163 93.4619,214.174 58.0961,55.4221 138.354,89.8241 226.748,89.8241 88.3938,0 168.652,-34.402 226.748,-89.8241 57.6674,-55.0111 93.4619,-130.831 93.4619,-214.174l0 -175.999 -64.2083 0 0 -64.0016 96.2091 0 32.0008 0 0 32.0008z"/>
   <polygon id="_504325712" class="fil0" points="1056,1311.91 1056,1759.64 991.999,1759.64 991.999,1311.91 "/>
   <path id="_504328400" class="fil0" d="M767.999 1791.99c-17.6728,0 -32.0008,-14.328 -32.0008,-32.0008 0,-17.6728 14.328,-32.0008 32.0008,-32.0008l512 0c17.6728,0 32.0008,14.328 32.0008,32.0008 0,17.6728 -14.328,32.0008 -32.0008,32.0008l-512 0z"/>
   <g>
    <path id="_504326288" class="fil1" d="M1280 960c0,70.4327 -28.7918,134.441 -75.1749,180.825 -46.3843,46.3831 -110.393,75.1749 -180.826,75.1749l-0.00236221 0c-70.4327,0 -134.441,-28.7918 -180.826,-75.1749 -46.3831,-46.3831 -75.1749,-110.392 -75.1749,-180.825 0,-149.334 0,-298.668 0,-448.002 0,-70.4327 28.7918,-134.441 75.1749,-180.825 46.3843,-46.3831 110.393,-75.1749 180.826,-75.1749l0.00236221 0c70.4327,0 134.441,28.7918 180.826,75.1749 46.3831,46.3831 75.1749,110.392 75.1749,180.825 0,149.334 0,298.668 0,448.002z"/>
    <path id="_504325952" class="fil2" d="M1280 960c0,70.4327 -28.7918,134.441 -75.1749,180.825 -46.3843,46.3831 -110.393,75.1749 -180.826,75.1749l-0.00236221 0c-70.4327,0 -134.441,-28.7918 -180.826,-75.1749 -46.3831,-46.3831 -75.1749,-110.392 -75.1749,-180.825l0 -192.007 512.004 0 0 192.007z"/>
    <path id="_504328184" class="fil3" d="M767.998 511.992l160.031 0c17.6008,0 31.9996,14.4 31.9996,31.9996l0 0.0011811c0,17.5996 -14.4,31.9996 -31.9996,31.9996l-160.031 0 0 -64.0004z"/>
    <path id="_504326624" class="fil3" d="M767.998 635.275l160.031 0c17.6008,0 31.9996,14.4 31.9996,31.9996l0 0.0011811c0,17.5996 -14.4,31.9996 -31.9996,31.9996l-160.031 0 0 -64.0004z"/>
    <g>
     <path id="_504327968" class="fil3" d="M1280 511.992l-160.031 0c-17.6008,0 -31.9996,14.4 -31.9996,31.9996l0 0.0011811c0,17.5996 14.4,31.9996 31.9996,31.9996l160.031 0 0 -64.0004z"/>
     <path id="_504326312" class="fil3" d="M1280 635.275l-160.031 0c-17.6008,0 -31.9996,14.4 -31.9996,31.9996l0 0.0011811c0,17.5996 14.4,31.9996 31.9996,31.9996l160.031 0 0 -64.0004z"/>
    </g>
   </g>
   <g>
    <path id="_504762032" class="fil4" d="M1024 1216l-0.0011811 0 -0.00236221 0c-70.4327,0 -134.441,-28.7918 -180.826,-75.1749 -46.3831,-46.3831 -75.1749,-110.392 -75.1749,-180.825 0,-149.334 0,-298.668 0,-448.002 0,-70.4327 28.7918,-134.441 75.1749,-180.825 46.3843,-46.3831 110.393,-75.1749 180.826,-75.1749l0.00236221 0 0.0011811 0 0 960.001z"/>
    <path id="_504760016" class="fil5" d="M1024 1216l-0.0011811 0 -0.00236221 0c-70.4327,0 -134.441,-28.7918 -180.826,-75.1749 -46.3831,-46.3831 -75.1749,-110.392 -75.1749,-180.825l0 -192.007 256.004 0 0 448.007z"/>
    <path id="_504760112" class="fil6" d="M767.998 511.992l160.031 0c17.6008,0 31.9996,14.4 31.9996,31.9996l0 0.0011811c0,17.5996 -14.4,31.9996 -31.9996,31.9996l-160.031 0 0 -64.0004z"/>
    <path id="_504761888" class="fil6" d="M767.998 635.275l160.031 0c17.6008,0 31.9996,14.4 31.9996,31.9996l0 0.0011811c0,17.5996 -14.4,31.9996 -31.9996,31.9996l-160.031 0 0 -64.0004z"/>
   </g>
   <rect id="_504758408" class="fil7" x="767.998" y="761.058" width="512.004" height="17.4768"/>
  </g>
  <rect class="fil8" width="2048" height="2048"/>
 </g>
</svg>
